<?xml version="1.0" encoding="UTF-8" standalone="no"?>
<!-- Created with Inkscape (http://www.inkscape.org/) -->

<svg
   width="353.53537"
   height="355"
   viewBox="0 0 93.539564 93.927086"
   version="1.1"
   id="svg1"
   sodipodi:docname="hero-logo.svg"
   inkscape:version="1.3.2 (091e20e, 2023-11-25, custom)"
   xmlns:inkscape="http://www.inkscape.org/namespaces/inkscape"
   xmlns:sodipodi="http://sodipodi.sourceforge.net/DTD/sodipodi-0.dtd"
   xmlns="http://www.w3.org/2000/svg"
   xmlns:svg="http://www.w3.org/2000/svg">
  <sodipodi:namedview
     id="namedview1"
     pagecolor="#ffffff"
     bordercolor="#000000"
     borderopacity="0.25"
     inkscape:showpageshadow="2"
     inkscape:pageopacity="0.0"
     inkscape:pagecheckerboard="0"
     inkscape:deskcolor="#d1d1d1"
     inkscape:document-units="px"
     inkscape:zoom="0.46551693"
     inkscape:cx="218.03718"
     inkscape:cy="261.00018"
     inkscape:window-width="1920"
     inkscape:window-height="974"
     inkscape:window-x="-11"
     inkscape:window-y="-11"
     inkscape:window-maximized="1"
     inkscape:current-layer="svg1" />
  <defs
     id="defs1" />
  <ellipse
     style="opacity:0.41185;fill:#535d6c;fill-opacity:1;stroke:none;stroke-width:0.917692;stroke-linecap:square;stroke-linejoin:round;stroke-dasharray:none;paint-order:markers stroke fill"
     id="ellipse160-0"
     cx="47.798023"
     cy="50.702415"
     rx="39.098888"
     ry="36.913639" />
  <path
     id="path160-4"
     style="opacity:0.68932;fill:#08080f;fill-opacity:1;stroke:none;stroke-width:0.8951;stroke-linecap:square;stroke-linejoin:round;paint-order:markers stroke fill"
     d="m 88.74407,54.552044 c 1.108195,-5.6155 1.070715,-11.358984 -0.0017,-16.885112 -0.761389,-3.667174 -1.819638,-6.492534 -2.387937,-7.909722 -0.607742,-1.718575 -1.317931,-3.403504 -2.14132,-5.035013 0.236772,0.583468 0.460907,1.170721 0.672398,1.76124 C 83.745,24.21276 81.34622,19.962718 76.796148,15.604544 74.877096,13.766423 72.787378,12.116423 70.524547,10.74246 69.646691,10.209438 66.215135,8.0671066 64.255928,8.2752127 c -0.178391,0.01898 -0.07533,0.2910892 -0.113182,0.4364031 1.64914,1.0716982 3.178201,2.2522512 4.587921,3.5235982 -1.660695,-0.934299 -3.388887,-1.73658 -5.173616,-2.3925348 0.927948,0.5337228 1.814594,1.1259958 2.689516,1.7137098 3.221247,2.163783 6.061116,4.729098 8.424116,7.532702 0.10849,0.161215 0.215647,0.323125 0.321472,0.485713 -0.25189,-0.287327 -0.508269,-0.57054 -0.767984,-0.850439 -0.130561,-0.140727 -1.426588,-1.540932 -2.944321,-2.859433 -1.65974,-1.441886 -3.107721,-2.427712 -3.78911,-2.866991 -0.52646,-0.339389 -1.071531,-0.649006 -1.620624,-0.951765 1.402933,1.067501 2.703325,2.227651 3.901069,3.464559 3.56195,3.038719 6.50875,6.757786 8.749509,10.873841 1.093025,2.735481 1.869589,5.562747 2.332842,8.401634 1.548745,6.85954 1.398224,14.023399 -0.701936,20.449723 -2.247303,6.978274 -6.840562,13.075117 -12.596094,17.447764 -3.353367,2.54765 -7.1058,4.50549 -11.003509,5.725131 -0.134583,-0.05293 -0.268421,-0.106738 -0.401496,-0.161326 -0.558261,0.267141 -1.128998,0.509167 -1.703783,0.742023 -0.461628,0.111863 -0.926046,0.207768 -1.390187,0.298853 -0.316847,0.06216 -0.633367,0.124388 -0.951286,0.176883 -2.889954,0.200157 -5.744018,-0.0058 -8.489434,-0.625615 -0.03679,-0.007 -0.07357,-0.01402 -0.110258,-0.02111 C 32.206198,76.628507 22.9404,67.003572 19.415756,56.311664 18.45941,53.410605 17.893684,50.420729 17.845644,47.452933 c -0.0755,-2.208917 0.125626,-4.437795 0.584337,-6.631184 0.825232,-4.318063 2.598917,-8.537574 5.071805,-12.26729 1.683253,-3.487872 3.980013,-6.760931 6.81845,-9.51863 -3.241651,2.320762 -6.107472,5.30197 -8.420078,8.692744 -2.975617,4.283333 -5.033779,9.251837 -5.904796,14.367287 -0.299342,1.757968 -0.463195,3.582133 -0.451547,5.447193 -0.02698,6.145661 1.926518,12.56754 5.549404,18.238639 C 20.943712,65.583473 20.798,65.382345 20.652004,65.181339 17.179472,59.906305 15.014246,53.767264 14.787102,47.57268 c -0.139946,-3.109015 0.194707,-6.242724 0.94014,-9.297636 -0.963519,2.474383 -1.652542,5.081005 -2.005772,7.771311 -0.0067,0.5224 -5.53e-4,1.044992 0.01877,1.567311 0.03561,1.125842 0.134231,2.249182 0.290996,3.365587 -0.201813,-0.813314 -0.373786,-1.637003 -0.506484,-2.470552 -0.05271,-0.331101 -0.09442,-0.627549 -0.127402,-0.881611 -0.154904,-1.153273 -0.208684,-2.046117 -0.231878,-2.485874 0.37174,-4.83932 1.827641,-9.534067 3.972488,-13.859438 -0.973474,1.372005 -1.865868,2.823403 -2.661085,4.344814 -0.518784,1.274082 -0.948662,2.587232 -1.31499,3.920798 0.01626,-0.289494 0.04894,-0.741164 0.108641,-1.363203 0.01634,-0.336133 0.03695,-0.672957 0.06251,-1.010291 1.32947,-4.919142 3.657586,-9.581199 6.750257,-13.62067 -1.200718,1.25859 -2.329641,2.607878 -3.372757,4.036742 -1.481197,2.682073 -2.671483,5.52536 -3.50481,8.462463 -0.229088,0.520583 -0.447148,1.047547 -0.65367,1.580534 1.513803,-5.871693 4.422686,-11.385337 8.346782,-15.958351 3.772745,-4.550799 8.650841,-8.024424 13.901834,-10.496014 1.684552,-0.792903 3.649122,-1.62446 5.39776,-2.1824559 -8.266447,0.9472409 -16.154651,5.1575379 -22.295591,11.4801539 -0.46994,0.754755 -0.947899,1.504137 -1.389886,2.272785 -1.013913,1.15851 -1.971676,2.379066 -2.86567,3.655625 -3.565226,6.431406 -5.4763351,13.788901 -5.2076041,21.21861 -0.161641,-1.828731 -0.290107,-4.27966 -0.191522,-6.585825 -0.507615,2.138282 -0.846868,4.340621 -0.997825,6.590535 -0.08924,-2.870989 0.126405,-5.727475 0.627341,-8.525191 0.82002,-4.061427 2.2935591,-7.941673 4.2264711,-11.54254 0.256011,-0.678977 0.52946,-1.353152 0.820112,-2.02162 2.619087,-4.526091 6.027315,-8.575265 10.049325,-11.86326 -1.009807,0.682345 -1.99446,1.41165 -2.950487,2.185148 0.204996,-0.206249 0.412984,-0.409563 0.622112,-0.61163 3.864031,-3.67299 5.788439,-4.626924 6.204473,-4.908568 0.121311,-0.07667 0.273793,-0.170961 0.439523,-0.272818 2.137867,-1.6703194 4.472225,-3.146925 6.991855,-4.3839032 -1.388068,0.4675024 -2.759871,0.9786914 -4.071383,1.622071 C 23.255521,10.71715 17.476149,16.124746 13.247097,22.54022 c -0.175183,0.26837 -0.346569,0.539235 -0.51607,0.811305 -1.68797,2.196838 -3.1908121,4.569881 -4.4717481,7.089969 -2.027642,5.55609 -2.9960301,11.503779 -2.7053191,17.492677 0.8269071,13.736645 8.3526812,26.323468 19.3745822,33.792813 1.620516,1.160473 3.327038,2.20981 5.110318,3.133071 4.963893,2.538643 9.269559,3.399197 9.810114,3.516432 0.993777,0.215535 1.767978,0.344446 2.628831,0.462842 0.172945,0.01754 5.550184,0.729873 12.132054,-0.580669 15.587801,-3.103699 29.017122,-15.124467 33.471298,-30.864268 0.254118,-0.942471 0.474851,-1.890469 0.662686,-2.842304 z M 7.5987049,51.524459 c 1.243337,6.825269 4.0421631,12.540398 6.4245541,16.350049 0.429542,0.907336 0.892594,1.80284 1.388427,2.683993 -0.487931,-0.661 -0.957578,-1.336011 -1.40827,-2.023914 C 10.68903,63.434887 8.4482539,57.620029 7.5987129,51.524459 Z" />
  <path
     id="path161-2"
     style="fill:#000000;fill-opacity:1;stroke:none;stroke-width:0.151112;stroke-linecap:square;stroke-linejoin:round;paint-order:markers stroke fill"
     d="m 50.393728,25.022238 c -0.02204,-0.715911 -0.302911,-1.335094 -0.801677,-1.830819 -0.341985,-0.324149 -0.70951,-0.528353 -0.902122,-0.627162 -0.215622,-0.127684 -0.452243,-0.241828 -0.711296,-0.339251 0.07994,0.04042 0.157225,0.08246 0.231904,0.126068 -0.359348,-0.136116 -1.090168,-0.365391 -2.300673,-0.3987 -0.510548,-0.01405 -1.049803,0.0088 -1.614147,0.07825 -0.218932,0.02696 -1.077548,0.125936 -1.499834,0.337649 -0.03846,0.01928 -0.0025,0.03883 -0.0042,0.05825 0.414627,-0.043 0.807936,-0.0626 1.179233,-0.06084 -0.410664,0.05902 -0.829942,0.138863 -1.254758,0.240036 0.230026,-0.03171 0.453709,-0.05308 0.674593,-0.07382 0.813241,-0.07635 1.561415,-0.07235 2.215705,0.0035 0.03159,0.007 0.06293,0.01422 0.09397,0.02164 -0.06921,-0.0069 -0.139201,-0.0128 -0.209773,-0.01808 -0.03545,-0.0027 -0.387805,-0.02937 -0.78517,-0.02582 -0.434545,0.0039 -0.800722,0.03678 -0.971882,0.05493 -0.132229,0.01402 -0.267156,0.03307 -0.402644,0.05325 0.360127,-0.01969 0.702028,-0.01942 1.024933,-9.22e-4 0.929917,-0.01437 1.756431,0.104419 2.446049,0.33442 0.370919,0.191102 0.676395,0.422709 0.913309,0.685824 0.667177,0.594302 0.973976,1.385656 0.815704,2.285258 -0.164523,0.973659 -0.888355,2.078221 -1.950392,3.108028 -0.618777,0.6 -1.353577,1.174569 -2.155447,1.683117 -0.03218,0.0073 -0.06427,0.01434 -0.09622,0.02127 -0.110467,0.08287 -0.224873,0.164208 -0.340611,0.24495 -0.09651,0.0567 -0.194405,0.111932 -0.29247,0.166618 -0.06695,0.03733 -0.133805,0.07464 -0.201436,0.11102 -0.627969,0.300708 -1.267302,0.553918 -1.902302,0.751751 -0.0085,0.0028 -0.01684,0.0056 -0.02531,0.0084 -2.596369,0.853389 -5.097019,0.704239 -6.381926,-0.114874 -0.348638,-0.222252 -0.615325,-0.491846 -0.766768,-0.809026 -0.121495,-0.232235 -0.182908,-0.493345 -0.185824,-0.775473 -0.02288,-0.547905 0.168084,-1.176688 0.536549,-1.819863 0.20575,-0.540717 0.557037,-1.117371 1.052266,-1.690435 -0.604909,0.564612 -1.095572,1.164556 -1.444755,1.755503 -0.45308,0.751742 -0.671266,1.489208 -0.62062,2.127999 0.01743,0.219526 0.06787,0.433151 0.158917,0.634266 0.285717,0.669016 1.021405,1.176787 2.089693,1.441978 -0.0424,-0.007 -0.08407,-0.01481 -0.125818,-0.02251 -1.016327,-0.236758 -1.785291,-0.693417 -2.129387,-1.343206 -0.178417,-0.323619 -0.25333,-0.695735 -0.233889,-1.098964 -0.0951,0.361334 -0.123372,0.710506 -0.07357,1.036334 0.0233,0.05731 0.04944,0.113377 0.07852,0.168143 0.06125,0.11864 0.136351,0.230932 0.223917,0.336857 -0.08313,-0.06871 -0.160141,-0.141424 -0.22897,-0.218999 -0.02732,-0.03082 -0.05061,-0.05893 -0.06997,-0.0833 -0.08891,-0.110102 -0.143139,-0.201726 -0.169133,-0.247173 -0.147672,-0.560647 -0.04936,-1.210284 0.218488,-1.886379 -0.149616,0.242757 -0.277572,0.486294 -0.380774,0.728043 -0.05396,0.188241 -0.08647,0.372136 -0.103981,0.552108 -0.01014,-0.03296 -0.0243,-0.0851 -0.04072,-0.158308 -0.01232,-0.03802 -0.0238,-0.07654 -0.03419,-0.115591 0.05975,-0.661765 0.352074,-1.392062 0.842544,-2.128662 -0.205122,0.252397 -0.390109,0.507699 -0.552386,0.763344 -0.199433,0.433832 -0.327045,0.857062 -0.371465,1.256002 -0.02581,0.07857 -0.04894,0.15676 -0.06921,0.234493 0.05522,-0.78285 0.435215,-1.66156 1.083765,-2.536283 0.616213,-0.857702 1.527377,-1.705311 2.568348,-2.480266 0.333949,-0.24861 0.727828,-0.528445 1.087067,-0.75777 -1.77847,0.900779 -3.318642,2.118874 -4.373146,3.397336 -0.06787,0.127212 -0.137701,0.254616 -0.198721,0.380635 -0.168662,0.22351 -0.321999,0.448328 -0.458611,0.673062 -0.481194,1.041593 -0.553559,2.023916 -0.141672,2.803621 -0.12245,-0.182695 -0.267106,-0.436062 -0.354806,-0.695652 -0.01047,0.280874 0.01919,0.55244 0.09268,0.810985 -0.155943,-0.302703 -0.243937,-0.633268 -0.266218,-0.985005 -0.0119,-0.519572 0.129003,-1.08259 0.384469,-1.659663 0.02422,-0.09834 0.05254,-0.197846 0.08495,-0.298393 0.362917,-0.743645 0.922535,-1.511761 1.653673,-2.256594 -0.190366,0.171481 -0.372947,0.345624 -0.547115,0.521797 0.03545,-0.04216 0.07164,-0.08428 0.108196,-0.126384 0.678012,-0.771328 1.057227,-1.060555 1.135626,-1.131261 0.02313,-0.02003 0.05229,-0.04497 0.084,-0.07201 0.392304,-0.387519 0.837139,-0.773 1.334212,-1.150385 -0.28399,0.184701 -0.562324,0.37257 -0.821084,0.568952 -1.372046,1.041295 -2.390225,2.185629 -3.018596,3.289581 -0.02589,0.04601 -0.05086,0.09193 -0.07533,0.137798 -0.268078,0.401178 -0.486951,0.80359 -0.649899,1.200524 -0.18357,0.798236 -0.1149,1.536671 0.233453,2.158018 0.834341,1.409719 3.09175,2.04803 5.877463,1.793897 0.412532,-0.03061 0.838756,-0.08158 1.275941,-0.153624 1.215416,-0.203945 2.206009,-0.52631 2.330805,-0.565783 0.22944,-0.07257 0.406332,-0.133335 0.601834,-0.203606 0.03896,-0.0148 1.258914,-0.456683 2.648549,-1.234223 3.291073,-1.841439 5.682831,-4.441424 5.918329,-6.578207 0.01131,-0.126732 0.015,-0.250838 0.01131,-0.372187 z m -18.042825,7.505673 c 0.598181,0.620072 1.486787,0.969593 2.193105,1.152696 0.13781,0.05692 0.282449,0.10932 0.43364,0.157 -0.138999,-0.02457 -0.27463,-0.05243 -0.406691,-0.08351 -0.973114,-0.233013 -1.743359,-0.647224 -2.220054,-1.226188 z" />
  <path
     id="path162-6"
     style="fill:#000000;fill-opacity:1;stroke:none;stroke-width:0.231742;stroke-linecap:square;stroke-linejoin:round;stroke-dasharray:none;stroke-opacity:1;paint-order:markers stroke fill"
     d="m 55.739561,38.74084 c 0.129623,-0.01386 0.266041,-0.0062 0.407906,0.0062 0.07357,0.0062 0.156245,0.0488 0.247322,0.110994 0.01969,0.0062 0.04173,0.02909 0.06947,0.0488 0.0059,0.0062 0.01383,0.01385 0.01969,0.01971 0.0017,0.0016 0.0042,0.0062 0.0059,0.0062 -0.0042,-0.0016 -0.0059,-0.0062 -0.0059,-0.0062 -0.0059,-0.0062 -0.01383,-0.01386 -0.02908,-0.01971 -0.03478,-0.02909 -0.06251,-0.04171 -0.09391,-0.0488 -0.128542,-0.06943 -0.24118,-0.100217 -0.341181,-0.106837 -0.113299,-0.0062 -0.228576,-0.0016 -0.343971,4.6e-5 0.01969,-0.0016 0.04173,-0.01386 0.06251,-0.01386 z m -0.06251,0.01386 c -0.1073,0.01385 -0.212782,0.02909 -0.311878,0.0625 -0.887173,0.292507 -1.664282,0.725596 -2.360041,1.268939 -0.582335,0.450314 -1.11999,0.930463 -1.612857,1.436706 -0.170238,0.104835 -0.329365,0.215982 -0.490621,0.327991 -0.215354,0.24183 -0.421079,0.488493 -0.616339,0.741176 -1.100013,1.070828 -2.029117,2.242198 -2.778892,3.49174 0.250213,-0.343956 0.48504,-0.610785 0.843919,-0.992488 -0.188339,0.391216 -0.356516,0.791115 -0.50454,1.198587 0.270248,-0.471097 0.567746,-0.930925 0.890014,-1.378023 0.446863,-0.669854 0.929381,-1.315059 1.483284,-1.931095 0.119459,-0.09221 0.239889,-0.184978 0.362012,-0.27508 0.743532,-0.753291 1.576431,-1.456565 2.488986,-2.102526 -0.192478,0.167474 -0.379408,0.338382 -0.560079,0.5128 0.04877,-0.03479 0.09884,-0.07297 0.14779,-0.109761 0.903371,-0.672656 1.313272,-0.896628 1.408212,-0.952647 0.02908,-0.01971 0.05539,-0.03479 0.09528,-0.0625 0.03478,-0.01385 0.06947,-0.03478 0.1013,-0.0488 0.519061,-0.251528 1.055141,-0.478117 1.611508,-0.67615 -0.287678,0.134085 -0.544778,0.278623 -0.820037,0.434305 -0.108381,0.0625 -0.215354,0.124386 -0.320919,0.188919 -1.290086,0.780292 -2.473064,1.664034 -3.473696,2.638355 -0.04877,0.04172 -0.09113,0.0876 -0.136235,0.132084 -0.326575,0.42319 -0.623997,0.862097 -0.893332,1.314259 -0.834206,0.936837 -1.541756,1.943026 -2.113382,3.007853 -1.113898,2.033237 -1.697423,4.280912 -1.689571,6.67712 0.01969,0.388442 0.05539,0.780229 0.110383,1.17512 0.237627,1.947722 0.405821,2.138475 0.457221,2.344634 0.04877,0.206316 -0.03477,0.432226 0.875584,2.641438 0.141011,0.341878 0.293158,0.68514 0.456533,1.029418 1.477779,3.108295 3.826659,6.278952 6.842884,9.418757 1.115431,1.161088 2.319476,2.315023 3.600638,3.458024 0.835069,0.766358 1.510015,1.343672 1.889565,1.664922 0.482937,0.377291 0.972996,0.750048 1.466064,1.122435 -0.202759,-0.133478 -0.403708,-0.267632 -0.60454,-0.402329 0.171805,0.142548 2.192157,1.82966 3.246536,2.674144 0.590655,0.473212 1.336894,1.055333 1.927641,1.528428 0.180847,0.14363 1.39809,1.024492 1.224583,1.209227 -0.01969,0.01966 -0.223741,-0.04171 -0.335616,-0.06246 -0.773296,-0.419718 -1.534131,-0.843663 -2.282322,-1.271924 0.45862,0.383595 0.926784,0.766029 1.403687,1.146888 -0.398873,-0.235677 -0.802263,-0.470415 -1.178889,-0.706907 -1.391512,-0.87257 -2.611679,-1.715669 -3.774689,-2.563927 -0.075,-0.0488 -0.149633,-0.0939 -0.224387,-0.140548 0.110375,0.08621 0.221462,0.1724 0.333547,0.258604 0.112838,0.08621 2.314029,1.708176 2.697401,1.983219 0.192477,0.138085 0.373157,0.273809 0.561486,0.40998 -0.70698,-0.410689 -1.402178,-0.824689 -2.085444,-1.242313 -1.558298,-1.088222 -3.026809,-2.192058 -4.403505,-3.305141 -1.088274,-0.741711 -2.138135,-1.491691 -3.14677,-2.248445 -4.578587,-3.729761 -7.889452,-7.550826 -9.996634,-11.232559 l -0.02908,-0.0488 c -0.639298,-1.128923 -1.163454,-2.246311 -1.570037,-3.34765 -0.05547,-0.0488 -0.109151,-0.09528 -0.16335,-0.143011 -0.01383,-0.149482 -0.03478,-0.297357 -0.04173,-0.44613 -0.04173,-0.128542 -0.08559,-0.255711 -0.124386,-0.383578 -0.02908,-0.08682 -0.04877,-0.172986 -0.07508,-0.259257 -0.354395,-0.839497 -0.630953,-1.664202 -0.818931,-2.47091 -0.589281,-2.528765 -0.458628,-4.900493 0.230529,-7.052939 0.209857,-0.665666 0.471834,-1.315152 0.782723,-1.944993 0.617101,-1.250173 1.45983,-2.417078 2.433538,-3.490216 0.815596,-0.866116 1.736882,-1.672747 2.758773,-2.410443 0.01969,-0.01971 0.04877,-0.03479 0.07156,-0.0488 0.998763,-0.557321 2.066809,-1.027247 3.222814,-1.382286 -0.888053,0.346063 -1.689345,0.799057 -2.424053,1.335564 -0.170816,0.123616 -0.339119,0.25022 -0.503793,0.378039 -1.099234,0.866316 -2.078834,1.822888 -2.889837,2.85948 -1.003925,1.283039 -1.822144,2.757523 -2.364441,4.411722 -0.110384,0.330066 -0.207594,0.664321 -0.292512,1.002367 0.01969,-0.0554 0.04173,-0.106837 0.06251,-0.160382 0.09283,-0.291242 0.196609,-0.578872 0.30995,-0.863417 0.699749,-1.788435 1.764031,-3.437859 3.13937,-4.906493 -0.363403,0.538524 -0.685143,1.097138 -0.964968,1.673902 -0.223105,0.317708 -0.434319,0.640711 -0.63164,0.969812 0.124377,-0.150095 0.25214,-0.298651 0.38007,-0.446821 0.247304,-0.286381 0.484353,-0.542711 0.52465,-0.585784 0.604549,-0.948599 1.306099,-1.838468 2.152497,-2.656152 -0.232146,0.32382 -0.447516,0.655998 -0.646245,0.996613 -0.191866,0.252144 -0.381494,0.507966 -0.556626,0.767715 0.03477,-0.02909 0.148711,-0.125618 0.244724,-0.204375 0.06268,-0.0488 0.128541,-0.09237 0.193064,-0.138703 0.755279,-0.875537 1.616803,-1.694761 2.577549,-2.447758 -0.288951,0.286364 -0.564219,0.580934 -0.823615,0.884249 -0.535753,0.464909 -1.032064,0.95257 -1.495401,1.460459 -0.06947,0.107914 -0.132086,0.215352 -0.19541,0.324512 0.85399,-1.038854 1.857136,-2.000984 2.995511,-2.870779 0.322544,-0.237627 0.649731,-0.469772 0.989822,-0.696593 0.866945,-0.582321 1.785433,-1.028895 2.875583,-1.332779 0.03477,-0.0062 0.07156,-0.01971 0.106839,-0.02909 0.245369,-0.06943 0.498917,-0.08682 0.750755,-0.09175 z m -8.184504,8.18679 c -0.05556,0.08682 -0.103755,0.171801 -0.151318,0.254422 -0.619112,1.046257 -0.951628,1.943559 -1.16627,2.80772 -0.0059,0.206964 -0.0059,0.415541 -0.0059,0.624716 0.03477,-0.15271 0.06947,-0.304454 0.106219,-0.455841 0.25281,-1.032433 0.617051,-2.029509 1.093116,-2.984726 0.04173,-0.08266 0.08128,-0.164716 0.123003,-0.24666 z" />
  <path
     id="path163-1"
     style="fill:#000000;fill-opacity:1;stroke:none;stroke-width:0.321863;stroke-linecap:square;stroke-linejoin:round;stroke-dasharray:none;stroke-opacity:1;paint-order:markers stroke fill"
     d="m 29.197413,12.073748 c -0.215328,0.05558 -0.431528,0.138087 -0.650418,0.246032 -0.113308,0.05558 -0.226021,0.158423 -0.337016,0.310611 -0.02908,0.02909 -0.05547,0.0625 -0.08405,0.11592 -0.0059,0.01386 -0.01383,0.02909 -0.01969,0.04172 -0.0017,0.0062 -0.0042,0.0062 -0.0042,0.01386 0.0042,-0.0062 0.0042,-0.01386 0.0059,-0.01386 0.0059,-0.01385 0.01969,-0.02909 0.02908,-0.0488 0.04173,-0.05558 0.08262,-0.09945 0.123606,-0.128543 0.16945,-0.175726 0.333538,-0.290583 0.489883,-0.357872 0.177914,-0.07713 0.366244,-0.134084 0.551758,-0.197263 -0.03478,0.0062 -0.07005,0.0062 -0.10621,0.01386 z m 0.106228,-0.01385 c 0.179087,-0.04172 0.358543,-0.0742 0.536448,-0.08128 1.582255,-0.06943 3.063712,0.140551 4.47417,0.561492 1.177733,0.346712 2.300513,0.762343 3.365324,1.244062 0.329357,0.0625 0.644871,0.137472 0.965094,0.214043 0.47672,0.241198 0.939797,0.496836 1.390163,0.765559 2.344414,0.98593 4.468714,2.221848 6.347503,3.678751 -0.587203,-0.375913 -1.108242,-0.643482 -1.890889,-1.01467 0.513539,0.482934 0.999451,0.990423 1.45771,1.520743 -0.687984,-0.556566 -1.414756,-1.080096 -2.173321,-1.570498 -1.079726,-0.755215 -2.202322,-1.452885 -3.424249,-2.065287 -0.24185,-0.07159 -0.485049,-0.141166 -0.729588,-0.208593 -1.600606,-0.710895 -3.317695,-1.295017 -5.131509,-1.74684 0.399577,0.142552 0.791202,0.293169 1.175973,0.453039 -0.09884,-0.02909 -0.197933,-0.05558 -0.297356,-0.08066 -1.813604,-0.49756 -2.592682,-0.60041 -2.775288,-0.630259 -0.05539,-0.01386 -0.111766,-0.01971 -0.184785,-0.03479 -0.06251,-0.0062 -0.125618,-0.0062 -0.188933,-0.01386 -0.968681,-0.08267 -1.952228,-0.116843 -2.952348,-0.09668 0.53432,0.03479 1.024857,0.107914 1.551015,0.184778 0.206983,0.02909 0.412784,0.06265 0.61778,0.100833 2.492505,0.437799 4.868962,1.093704 7.001735,1.990886 0.09637,0.04172 0.19365,0.08005 0.289596,0.121 0.752648,0.452361 1.467824,0.943856 2.14416,1.47225 1.845288,0.93616 3.52472,2.049817 5.017674,3.330008 2.886602,2.431687 5.037608,5.491786 6.319482,9.115762 0.174956,0.599025 0.327295,1.212242 0.457237,1.838698 0.670546,3.078434 0.504514,3.463015 0.532996,3.80406 0.02908,0.3412 0.291859,0.631644 0.01969,4.49251 -0.04173,0.597623 -0.10068,1.203082 -0.176523,1.817022 -0.692811,5.543542 -2.750812,11.681516 -5.896702,18.155985 -1.163413,2.394231 -2.472897,4.82866 -3.912113,7.290724 -0.92649,1.637013 -1.698169,2.896658 -2.13387,3.599817 -0.571886,0.847119 -1.156734,1.691563 -1.747172,2.537247 0.25281,-0.318341 0.50381,-0.636526 0.752707,-0.954359 -0.19888,0.314158 -2.530732,4.022238 -3.76708,5.903298 -0.692811,1.053831 -1.576163,2.361643 -2.268806,3.415474 -0.211155,0.320943 -1.691037,2.350157 -1.312593,2.529675 0.04173,0.01966 0.337024,-0.191094 0.505159,-0.287032 1.014777,-1.077725 2.007071,-2.155204 2.976666,-3.231723 -0.529502,0.843065 -1.073878,1.689274 -1.633697,2.538386 0.512835,-0.585131 1.033581,-1.171669 1.51056,-1.744593 1.762447,-2.117061 3.2657,-4.09111 4.674616,-6.040217 0.09528,-0.113913 0.189913,-0.227289 0.284132,-0.341207 -0.130703,0.19306 -0.262505,0.387057 -0.396083,0.581652 -0.134089,0.195422 -2.792089,3.908805 -3.258904,4.544488 -0.234082,0.319011 -0.450994,0.627502 -0.679621,0.941588 0.913183,-1.025939 1.805342,-2.050739 2.676645,-3.073892 1.913748,-2.538537 3.674897,-5.048948 5.283631,-7.520678 1.34705,-1.745438 2.627181,-3.481058 3.837527,-5.203283 5.335182,-8.262549 8.586025,-15.935323 9.979791,-22.706576 l 0.01969,-0.08621 c 0.415557,-2.071906 0.653896,-4.060837 0.711371,-5.957864 0.06251,-0.103757 0.123623,-0.206329 0.184994,-0.309334 -0.05556,-0.234055 -0.107911,-0.467664 -0.168864,-0.699286 -8.38e-4,-0.218246 -8.38e-4,-0.43566 -0.0059,-0.651072 -0.0042,-0.145939 -0.01383,-0.289937 -0.01969,-0.43432 0.11531,-1.471513 0.113919,-2.876076 -0.01969,-4.202573 -0.420399,-4.15802 -1.911401,-7.665478 -4.180625,-10.52114 -0.696782,-0.885496 -1.467849,-1.715527 -2.307259,-2.488538 -1.666083,-1.534059 -3.649323,-2.812804 -5.792218,-3.874781 -1.777229,-0.839976 -3.691949,-1.529318 -5.730972,-2.05702 -0.04885,-0.01385 -0.09529,-0.02909 -0.143013,-0.03479 -1.904288,-0.268276 -3.872863,-0.36483 -5.920491,-0.237627 1.612521,0.01385 3.143644,0.237011 4.612984,0.626103 0.341189,0.08882 0.678909,0.182823 1.013277,0.281531 2.232623,0.67755 4.321972,1.559845 6.183994,2.66 2.304678,1.361721 4.414842,3.119091 6.17905,5.306408 0.355073,0.435691 0.692081,0.884512 1.010712,1.346342 -0.06251,-0.06943 -0.123623,-0.138703 -0.186947,-0.206962 -0.307042,-0.386366 -0.628874,-0.76202 -0.963536,-1.126434 -2.089534,-2.299742 -4.689154,-4.180127 -7.690363,-5.608798 0.873959,0.604535 1.692697,1.263797 2.453373,1.97443 0.528823,0.351638 1.043107,0.718684 1.538421,1.101971 -0.279918,-0.154866 -0.56633,-0.307039 -0.851653,-0.457226 -0.551749,-0.290583 -1.070969,-0.541326 -1.158879,-0.583707 -1.482831,-1.085761 -3.089906,-2.027093 -4.890439,-2.776227 0.547585,0.355762 1.073392,0.734294 1.576163,1.134192 0.443327,0.270232 0.886469,0.548269 1.308764,0.839899 -0.07156,-0.02909 -0.307043,-0.104836 -0.502411,-0.16826 -0.12793,-0.03479 -0.256347,-0.0625 -0.384964,-0.09883 -1.685448,-0.888914 -3.511094,-1.631629 -5.460221,-2.217398 0.61918,0.266029 1.219338,0.553796 1.799938,0.862744 1.111543,0.39471 2.171402,0.846257 3.189614,1.347419 0.165319,0.123616 0.328008,0.249573 0.488509,0.378007 -1.932208,-1.078864 -4.062316,-1.956264 -6.359788,-2.616464 -0.646237,-0.173772 -1.297493,-0.337028 -1.965207,-0.483644 -1.706522,-0.38221 -3.422137,-0.528826 -5.336363,-0.362029 -0.06251,0.0062 -0.125626,0.01385 -0.186947,0.01385 -0.430171,0.04172 -0.847471,0.154882 -1.254699,0.292523 z m 17.561773,7.666989 c 0.132086,0.100679 0.258609,0.199526 0.380807,0.296695 1.559186,1.224819 2.577608,2.389383 3.389089,3.571466 0.122383,0.309304 0.237643,0.62261 0.345395,0.94101 -0.13563,-0.21178 -0.274437,-0.420388 -0.417618,-0.626764 -0.963536,-1.4144 -2.087339,-2.711202 -3.367402,-3.880832 -0.109303,-0.101295 -0.21889,-0.202128 -0.330765,-0.30156 z" />
  <path
     id="path164-3"
     style="fill:#000000;fill-opacity:1;stroke:none;stroke-width:0.268219;stroke-linecap:square;stroke-linejoin:round;stroke-dasharray:none;paint-order:markers stroke fill"
     d="m 67.201739,20.101549 c 0.0042,0.384288 -0.0059,0.770239 -0.02908,1.157052 -0.124386,2.301575 -0.678213,4.637848 -1.717098,6.900367 -0.369679,0.794238 -0.791823,1.572652 -1.263514,2.331793 -0.600384,0.966363 -1.280458,1.900506 -2.032335,2.79407 -0.382174,0.432195 -0.777461,0.855832 -1.185082,1.270108 -0.244724,0.289937 -0.496872,0.575363 -0.759797,0.854585 0.07357,-0.106221 0.14655,-0.213412 0.218253,-0.320294 -0.375913,0.356486 -0.774762,0.694899 -1.188241,1.018458 -0.36135,0.284117 -0.735772,0.558674 -1.118054,0.826198 -0.481605,0.336349 -0.976776,0.660862 -1.498149,0.954047 -0.06251,0.03479 -0.128542,0.07297 -0.191674,0.109761 -0.139778,0.08067 -0.281535,0.160394 -0.432894,0.231485 -0.151326,0.07113 -0.311249,0.146092 -0.480172,0.192475 -0.09884,0.02909 -0.200806,0.04171 -0.307042,0.04171 -0.03477,1.08e-4 -0.06251,-0.0016 -0.09529,-0.0046 -0.0042,-5.55e-4 -0.0059,-0.0016 -0.0059,-0.0016 -0.04173,-0.0062 -0.05556,-0.04879 -0.07416,-0.09114 -0.0042,-0.01385 -0.0059,-0.02909 -0.01969,-0.03479 0.01383,-0.01386 0.02908,-0.02909 0.04173,-0.03479 0.06251,-0.05557 0.118838,-0.116843 0.174939,-0.174355 0.21889,-0.221817 0.423895,-0.444728 0.619867,-0.665728 0.01383,-0.01971 0.03477,-0.03479 0.04877,-0.05542 -0.02908,0.01386 -0.04877,0.02909 -0.07005,0.03479 -0.27732,0.145168 -0.560071,0.28832 -0.848159,0.425962 -0.075,0.03478 -0.151325,0.07159 -0.229867,0.107297 -0.01969,0.0062 -0.04173,0.01971 -0.05556,0.02909 0.01383,-0.01386 0.03477,-0.02909 0.04877,-0.04172 0.06268,-0.05542 0.123003,-0.10422 0.182037,-0.156252 0.106219,-0.09283 0.210485,-0.186363 0.317031,-0.276066 0.121,-0.101295 0.24055,-0.203714 0.358559,-0.304454 0.528136,-0.450977 1.049024,-0.904062 1.550463,-1.367446 0.02908,-0.03479 0.04877,-0.06943 0.07592,-0.102065 -0.06251,0.05557 -0.132078,0.109299 -0.199524,0.163934 h -3.52e-4 c -0.238934,0.196 -0.479485,0.390538 -0.724997,0.580258 -0.269602,0.208577 -0.541325,0.414138 -0.823505,0.6108 -0.01383,0.01386 -0.02908,0.01971 -0.04877,0.03479 -0.118076,0.08128 -0.24247,0.156837 -0.364828,0.235025 0.111766,-0.115303 0.220843,-0.230838 0.328008,-0.346757 0.15684,-0.16943 0.30995,-0.341199 0.460028,-0.512815 0.608018,-0.507259 1.190378,-1.033868 1.747842,-1.5745 0.191874,-0.18558 0.380112,-0.37316 0.565626,-0.562155 0.341893,-0.535785 0.656678,-1.076172 0.945067,-1.618959 1.208419,-1.775521 2.22566,-3.602442 2.935891,-5.450038 0.334946,-0.866961 0.597627,-1.741898 0.784884,-2.618281 0.177311,-0.830816 0.284778,-1.663157 0.335659,-2.49057 -0.04173,-0.01971 -0.07575,-0.04172 -0.11454,-0.06943 0.04885,-0.125003 0.09036,-0.250881 0.135623,-0.376622 0.0042,-0.09637 0.0042,-0.193061 0.0042,-0.288966 0.0017,-0.06943 0.0042,-0.132085 0.0042,-0.197278 C 63.095799,20.677837 62.960763,20.098395 62.821797,19.526634 62.605798,18.634656 62.33886,17.762799 62.022265,16.921052 61.515698,15.534009 60.883421,14.204247 60.133622,12.916605 59.564493,11.939449 58.959785,10.963881 58.25847,10.031154 57.70186,9.236699 57.094152,8.4593628 56.447086,7.6990224 56.083657,6.9293829 55.683108,6.1626992 55.25235,5.401773 c 0.649732,0.6274882 1.27745,1.2697241 1.875454,1.92757 0.775475,0.8249819 1.492343,1.6851237 2.173262,2.5567193 1.067702,1.3666157 2.021216,2.7891287 2.782889,4.2981097 -0.01383,-0.0488 -0.02908,-0.09283 -0.04173,-0.140549 -0.734909,-1.729399 -1.686789,-3.392647 -2.80403,-4.9918555 0.444709,0.3752209 0.877981,0.7615108 1.29792,1.1596225 0.182029,0.280901 0.356474,0.564956 0.524625,0.850737 -0.04877,-0.160378 -0.103755,-0.320264 -0.160375,-0.479456 -0.07609,-0.211164 -0.154292,-0.422482 -0.238289,-0.6323525 -0.602462,-0.7811233 -1.263656,-1.5255617 -1.917728,-2.2762508 0.321547,0.2008189 0.639969,0.4058097 0.95488,0.6163582 0.205667,0.1979086 0.400264,0.4030535 0.596253,0.6080292 -0.02908,-0.086208 -0.05547,-0.1718009 -0.0856,-0.256993 -0.01383,-0.069432 -0.02908,-0.1320828 -0.04173,-0.1979092 -0.602471,-0.8132361 -1.252512,-1.6031955 -1.942364,-2.3683705 0.30219,0.2166289 0.6018,0.4377685 0.897656,0.6629106 0.373852,0.4773781 0.737934,0.9595897 1.08312,1.4507759 0.0939,0.074205 0.186964,0.1496337 0.278636,0.2250343 C 59.768146,7.4602408 58.98756,6.5397834 58.153262,5.6550253 57.372291,4.7654332 56.462216,3.9622192 55.687881,3.0688557 55.432825,2.7750555 55.209788,2.4594567 54.979996,2.148353 c 1.511297,0.9041087 2.994162,1.877029 4.408583,2.9387141 0.07357,0.1500943 0.16118,0.293139 0.241833,0.4398467 0.250221,0.1845932 0.498238,0.3731431 0.743682,0.5635396 0.880847,1.0755713 1.680865,2.200742 2.377765,3.3746203 -0.161164,-0.3676004 -0.297364,-0.747456 -0.444735,-1.1243549 0.307688,0.2931693 0.609434,0.5920653 0.903974,0.8978117 C 62.943448,8.7945127 62.664234,8.3563132 62.371814,7.9251953 61.910404,7.3150715 61.401357,6.736014 60.883863,6.1643151 60.828303,6.0427001 60.771024,5.9212089 60.713046,5.7995168 60.076521,5.0570947 59.40838,4.3367789 58.709603,3.6426491 c 0.202793,0.1356235 0.403742,0.2724945 0.604574,0.410689 -0.04173,-0.041717 -0.07299,-0.080665 -0.109755,-0.1209992 -0.33911,-0.3606886 -0.700167,-0.7055217 -1.03053,-1.0700593 -0.01969,-0.019706 -0.04877,-0.048804 -0.07097,-0.069432 -0.261198,-0.4252375 -0.530927,-0.8470578 -0.807677,-1.2642738 0.211139,0.17023 0.432894,0.333548 0.630257,0.515633 1.046569,0.9674088 2.004214,2.0115753 2.932774,3.0789254 0.04173,0.041717 0.07592,0.090365 0.113911,0.1345464 0.425269,0.3266215 0.844027,0.6615557 1.255193,1.0057874 1.965408,2.8783539 3.520455,5.990717 4.32276,9.37311 0.01978,0.0625 0.04173,0.127158 0.05539,0.190491 0.08271,0.288304 0.156864,0.578856 0.22504,0.871472 0.242478,1.111331 0.367618,2.251466 0.379433,3.4047 z m -2.041813,-6.845163 c -0.04877,-0.14055 -0.104207,-0.2809 -0.157811,-0.420403 -0.407907,-1.028849 -0.895243,-2.02594 -1.444403,-2.9934423 0.433623,0.9799873 0.846357,1.9687033 1.255386,2.9546023 0.117456,0.151326 0.2328,0.304469 0.346761,0.459305 z" />
</svg>
