<?xml version="1.0" encoding="UTF-8" standalone="no"?>
<!-- Created with Inkscape (http://www.inkscape.org/) -->

<svg
   width="210mm"
   height="240mm"
   viewBox="0 0 210 240"
   version="1.1"
   id="svg1"
   sodipodi:docname="logo12.svg"
   inkscape:version="1.3.2 (091e20e, 2023-11-25, custom)"
   xmlns:inkscape="http://www.inkscape.org/namespaces/inkscape"
   xmlns:sodipodi="http://sodipodi.sourceforge.net/DTD/sodipodi-0.dtd"
   xmlns="http://www.w3.org/2000/svg"
   xmlns:svg="http://www.w3.org/2000/svg">
  <sodipodi:namedview
     id="namedview1"
     pagecolor="#ffffff"
     bordercolor="#000000"
     borderopacity="0.25"
     inkscape:showpageshadow="2"
     inkscape:pageopacity="0.0"
     inkscape:pagecheckerboard="0"
     inkscape:deskcolor="#d1d1d1"
     inkscape:document-units="mm"
     inkscape:zoom="0.65834035"
     inkscape:cx="397.21096"
     inkscape:cy="561.25984"
     inkscape:window-width="1920"
     inkscape:window-height="974"
     inkscape:window-x="-11"
     inkscape:window-y="-11"
     inkscape:window-maximized="1"
     inkscape:current-layer="svg1"
     showgrid="false" />
  <defs
     id="defs1" />
  <g
     id="g15"
     transform="matrix(1.8534358,0,0,-2.4697129,-1025.7155,563.26199)">
    <ellipse
       style="opacity:0.817476;fill:#535d6c;fill-opacity:1;stroke:none;stroke-width:0.991575;stroke-linecap:square;stroke-linejoin:round;stroke-dasharray:none;paint-order:markers stroke fill"
       id="ellipse14"
       cx="609.85815"
       cy="177.26718"
       rx="42.246773"
       ry="39.885586" />
    <path
       id="path9"
       style="opacity:0.829126;fill:#162d50;fill-opacity:1;stroke:none;stroke-linecap:square;stroke-linejoin:round;paint-order:markers stroke fill"
       d="m 79.945605,149.61552 c 6.3734,0.52076 12.744143,-0.24638 18.742909,-2.13459 3.974516,-1.30842 6.977086,-2.84003 8.478426,-3.64989 1.83091,-0.89171 3.61153,-1.89289 5.31855,-3.01298 -0.61776,0.33653 -1.24132,0.65951 -1.8701,0.96887 2.37646,-1.55285 6.79114,-4.75246 11.05409,-10.35375 1.79796,-2.36242 3.36554,-4.89051 4.60484,-7.5759 0.48078,-1.04179 2.42536,-5.12156 1.94686,-7.27007 -0.0436,-0.19562 -0.33263,-0.0468 -0.49872,-0.0705 -0.9813,1.96598 -2.0986,3.81243 -3.33176,5.53787 0.82732,-1.96146 1.49957,-3.98116 2.00225,-6.04514 -0.47523,1.09748 -1.02067,2.15651 -1.56253,3.20195 -1.99496,3.84903 -4.48381,7.32545 -7.29741,10.30263 -0.16525,0.14079 -0.33144,0.28019 -0.49855,0.4182 0.28712,-0.31593 0.56911,-0.6363 0.847,-0.95995 0.13972,-0.1627 1.53028,-1.77821 2.80214,-3.62951 1.39088,-2.02452 2.30227,-3.75636 2.70381,-4.56822 0.31023,-0.62726 0.58506,-1.27143 0.85177,-1.91919 -1.00774,1.69217 -2.13128,3.2822 -3.35299,4.76799 -2.92313,4.33776 -6.67918,8.07862 -10.96509,11.0859 -2.89841,1.55885 -5.93868,2.77802 -9.03143,3.65086 -7.418696,2.58569 -15.389855,3.32357 -22.788612,1.80411 -8.03003,-1.61307 -15.377982,-5.94158 -20.958839,-11.77806 -3.251597,-3.40053 -5.89889,-7.31855 -7.745108,-11.49107 0.04178,-0.15609 0.08457,-0.31145 0.128357,-0.46606 -0.367058,-0.58594 -0.707811,-1.18891 -1.038903,-1.79753 -0.182483,-0.49829 -0.34761,-1.00169 -0.50735,-1.5054 -0.109023,-0.34386 -0.218082,-0.68735 -0.316515,-1.03362 -0.587254,-3.18267 -0.719217,-6.3768 -0.377958,-9.50261 0.0031,-0.0417 0.0063,-0.0834 0.0095,-0.12506 1.003635,-12.819352 10.517181,-24.320575 21.940346,-29.583699 3.099469,-1.428051 6.346879,-2.433722 9.635171,-2.86195 2.442438,-0.362873 4.941983,-0.421153 7.434672,-0.189044 4.897454,0.370568 9.805324,1.806399 14.257829,4.080243 4.0843,1.427864 8.00765,3.56389 11.42736,6.366304 -2.98563,-3.305194 -6.6569,-6.10976 -10.71292,-8.248499 -5.130546,-2.761956 -10.905762,-4.418951 -16.69413,-4.739618 -1.989222,-0.110201 -4.03481,-0.06165 -6.103624,0.186879 -6.825314,0.746407 -13.707065,3.726086 -19.544535,8.464014 0.201141,-0.191 0.405997,-0.378147 0.610678,-0.565606 5.416815,-4.521001 11.957859,-7.699987 18.80538,-8.734641 3.433441,-0.548091 6.954248,-0.572471 10.439477,-0.130925 -2.868371,-0.756967 -5.848856,-1.19253 -8.879815,-1.244774 -0.580747,0.05839 -1.160061,0.131289 -1.737403,0.218813 -1.245222,0.181785 -2.479715,0.433124 -3.699163,0.748164 0.877313,-0.32676 1.769915,-0.621708 2.678423,-0.874301 0.360876,-0.100335 0.684672,-0.184087 0.962523,-0.252792 1.260608,-0.317632 2.244904,-0.49012 2.73012,-0.57142 5.418782,-0.198673 10.814038,0.824378 15.886301,2.658827 -1.645948,-0.907267 -3.369782,-1.714509 -5.15906,-2.405046 -1.479811,-0.414916 -2.99176,-0.726219 -4.518343,-0.96439 0.3234,-0.01855 0.828909,-0.03924 1.526929,-0.05161 0.375178,-0.02439 0.751677,-0.04398 1.129362,-0.05819 5.628372,0.854361 11.09752,2.849721 15.97216,5.77242 -1.54876,-1.17385 -3.18913,-2.256553 -4.90699,-3.233941 -3.16431,-1.305378 -6.470825,-2.267473 -9.836385,-2.82147 -0.606805,-0.188531 -1.2193,-0.36401 -1.837025,-0.525938 6.709024,0.938643 13.19683,3.471105 18.76875,7.249323 5.52814,3.61301 10.00021,8.589071 13.40709,14.105647 1.09295,1.769758 2.26418,3.845453 3.10447,5.716015 -2.09572,-9.0564 -7.76577,-17.280735 -15.55985,-23.298703 -0.89717,-0.426308 -1.78939,-0.862197 -2.69845,-1.255718 -1.41407,-0.979134 -2.88992,-1.888102 -4.41988,-2.71921 -7.589468,-3.145091 -15.997975,-4.337069 -24.211277,-3.100218 2.00954,-0.41044 4.713932,-0.862651 7.286313,-1.044548 -2.437695,-0.293348 -4.925227,-0.391729 -7.441784,-0.275078 3.17563,-0.461734 6.373675,-0.583201 9.542522,-0.380555 4.611921,0.397193 9.105278,1.542703 13.346546,3.233441 0.78603,0.198414 1.56893,0.416779 2.34767,0.654968 5.35498,2.335538 10.28025,5.607279 14.43812,9.656514 -0.88499,-1.034728 -1.81893,-2.035601 -2.79831,-2.999118 0.25484,0.201504 0.5068,0.406692 0.75752,0.61331 4.56527,3.825224 5.86727,5.840881 6.23246,6.267114 0.10043,0.124984 0.22436,0.282328 0.35836,0.453426 2.12418,2.162118 4.05815,4.566806 5.74953,7.207426 -0.69429,-1.481745 -1.43502,-2.939922 -2.31487,-4.314475 -4.66529,-7.288421 -11.39799,-13.020633 -19.05363,-16.904605 -0.32003,-0.160562 -0.64235,-0.316581 -0.96577,-0.470371 -2.6518,-1.596194 -5.47581,-2.964634 -8.435012,-4.068175 -6.423604,-1.548894 -13.148085,-1.872501 -19.759259,-0.793267 -15.14372,2.653163 -28.164872,12.597065 -35.063789,25.775331 -1.083461,1.94542 -2.032686,3.972286 -2.83227,6.068423 -2.190933,5.830789 -2.602272,10.718951 -2.664123,11.333787 -0.11371,1.130356 -0.159006,2.006036 -0.181684,2.976566 0.0024,0.19419 -0.10907,6.25311 2.17713,13.39367 5.414324,16.91097 20.454257,30.29949 38.48868,33.25548 1.078279,0.16303 2.158473,0.28829 3.238776,0.37656 z M 73.055756,59.158738 c -7.419235,2.24234 -13.409679,6.0711 -17.337579,9.196892 -0.952915,0.591429 -1.888462,1.218551 -2.803942,1.880257 0.672096,-0.625123 1.362054,-1.231721 2.068725,-1.818899 5.242167,-4.323302 11.413806,-7.545203 18.072798,-9.258243 z"
       transform="matrix(-0.0786073,0.98938702,-0.98938702,-0.0786073,718.4771,105.9713)" />
  </g>
</svg>
