<?xml version="1.0" encoding="UTF-8" standalone="no"?>
<!-- Created with Inkscape (http://www.inkscape.org/) -->

<svg
   width="210mm"
   height="297mm"
   viewBox="0 0 210 297"
   version="1.1"
   id="svg1"
   xmlns="http://www.w3.org/2000/svg"
   xmlns:svg="http://www.w3.org/2000/svg">
  <defs
     id="defs1" />
  <g
     id="layer1">
    <text
       xml:space="preserve"
       style="font-style:normal;font-variant:normal;font-weight:normal;font-stretch:normal;font-size:23.5796px;font-family:'Berlin Sans FB';-inkscape-font-specification:'Berlin Sans FB, Normal';font-variant-ligatures:normal;font-variant-caps:normal;font-variant-numeric:normal;font-variant-east-asian:normal;fill:#000000;fill-opacity:1;stroke:none;stroke-width:0;stroke-linecap:square;stroke-linejoin:round;stroke-dasharray:none;stroke-opacity:1;paint-order:markers stroke fill"
       x="63.295418"
       y="262.21127"
       id="text160"><tspan
         style="font-style:normal;font-variant:normal;font-weight:normal;font-stretch:normal;font-size:23.5796px;font-family:'Berlin Sans FB';-inkscape-font-specification:'Berlin Sans FB, Normal';font-variant-ligatures:normal;font-variant-caps:normal;font-variant-numeric:normal;font-variant-east-asian:normal;stroke:none;stroke-width:0;stroke-dasharray:none;stroke-opacity:1;fill:#000000"
         x="63.295418"
         y="262.21127"
         id="tspan1">PILATES</tspan></text>
    <ellipse
       style="opacity:0.41184971;fill:#535d6c;fill-opacity:1;stroke:none;stroke-width:1.64345;stroke-linecap:square;stroke-linejoin:round;stroke-dasharray:none;paint-order:markers stroke fill"
       id="ellipse160"
       cx="107.04797"
       cy="104.58807"
       rx="70.020111"
       ry="66.106667" />
    <path
       id="path160"
       style="opacity:0.86705202;fill:#162d50;fill-opacity:1;stroke:none;stroke-linecap:square;stroke-linejoin:round;paint-order:markers stroke fill"
       d="m 79.945605,149.61552 c 6.3734,0.52076 12.744143,-0.24638 18.742909,-2.13459 3.974516,-1.30842 6.977086,-2.84003 8.478426,-3.64989 1.83091,-0.89171 3.61153,-1.89289 5.31855,-3.01298 -0.61776,0.33653 -1.24132,0.65951 -1.8701,0.96887 2.37646,-1.55285 6.79114,-4.75246 11.05409,-10.35375 1.79796,-2.36242 3.36554,-4.89051 4.60484,-7.5759 0.48078,-1.04179 2.42536,-5.12156 1.94686,-7.27007 -0.0436,-0.19562 -0.33263,-0.0468 -0.49872,-0.0705 -0.9813,1.96598 -2.0986,3.81243 -3.33176,5.53787 0.82732,-1.96146 1.49957,-3.98116 2.00225,-6.04514 -0.47523,1.09748 -1.02067,2.15651 -1.56253,3.20195 -1.99496,3.84903 -4.48381,7.32545 -7.29741,10.30263 -0.16525,0.14079 -0.33144,0.28019 -0.49855,0.4182 0.28712,-0.31593 0.56911,-0.6363 0.847,-0.95995 0.13972,-0.1627 1.53028,-1.77821 2.80214,-3.62951 1.39088,-2.02452 2.30227,-3.75636 2.70381,-4.56822 0.31023,-0.62726 0.58506,-1.27143 0.85177,-1.91919 -1.00774,1.69217 -2.13128,3.2822 -3.35299,4.76799 -2.92313,4.33776 -6.67918,8.07862 -10.96509,11.0859 -2.89841,1.55885 -5.93868,2.77802 -9.03143,3.65086 -7.418696,2.58569 -15.389855,3.32357 -22.788612,1.80411 -8.03003,-1.61307 -15.377982,-5.94158 -20.958839,-11.77806 -3.251597,-3.40053 -5.89889,-7.31855 -7.745108,-11.49107 0.04178,-0.15609 0.08457,-0.31145 0.128357,-0.46606 -0.367058,-0.58594 -0.707811,-1.18891 -1.038903,-1.79753 -0.182483,-0.49829 -0.34761,-1.00169 -0.50735,-1.5054 -0.109023,-0.34386 -0.218082,-0.68735 -0.316515,-1.03362 -0.587254,-3.18267 -0.719217,-6.3768 -0.377958,-9.50261 0.0031,-0.0417 0.0063,-0.0834 0.0095,-0.12506 1.003635,-12.819352 10.517181,-24.320575 21.940346,-29.583699 3.099469,-1.428051 6.346879,-2.433722 9.635171,-2.86195 2.442438,-0.362873 4.941983,-0.421153 7.434672,-0.189044 4.897454,0.370568 9.805324,1.806399 14.257833,4.080243 4.0843,1.427864 8.00765,3.56389 11.42736,6.366304 -2.98563,-3.305194 -6.6569,-6.10976 -10.71292,-8.248499 -5.13055,-2.761956 -10.905766,-4.418951 -16.694134,-4.739618 -1.989222,-0.110201 -4.03481,-0.06165 -6.103624,0.186879 -6.825314,0.746407 -13.707065,3.726086 -19.544535,8.464014 0.201141,-0.191 0.405997,-0.378147 0.610678,-0.565606 5.416815,-4.521001 11.957859,-7.699987 18.80538,-8.734641 3.433441,-0.548091 6.954248,-0.572471 10.439477,-0.130925 -2.868371,-0.756967 -5.848856,-1.19253 -8.879815,-1.244774 -0.580747,0.05839 -1.160061,0.131289 -1.737403,0.218813 -1.245222,0.181785 -2.479715,0.433124 -3.699163,0.748164 0.877313,-0.32676 1.769915,-0.621708 2.678423,-0.874301 0.360876,-0.100335 0.684672,-0.184087 0.962523,-0.252792 1.260608,-0.317632 2.244904,-0.49012 2.73012,-0.57142 5.418782,-0.198673 10.814038,0.824378 15.886301,2.658827 -1.645948,-0.907267 -3.369782,-1.714509 -5.15906,-2.405046 -1.479811,-0.414916 -2.99176,-0.726219 -4.518343,-0.96439 0.3234,-0.01855 0.828909,-0.03924 1.526929,-0.05161 0.375178,-0.02439 0.751677,-0.04398 1.129362,-0.05819 5.628372,0.854361 11.097524,2.849721 15.972164,5.77242 -1.54876,-1.17385 -3.18913,-2.256553 -4.90699,-3.233941 -3.164314,-1.305378 -6.470829,-2.267473 -9.836389,-2.82147 -0.606805,-0.188531 -1.2193,-0.36401 -1.837025,-0.525938 6.709024,0.938643 13.196834,3.471105 18.768754,7.249323 5.52814,3.61301 10.00021,8.589071 13.40709,14.105647 1.09295,1.769758 2.26418,3.845453 3.10447,5.716015 -2.09572,-9.0564 -7.76577,-17.280735 -15.55985,-23.298703 -0.89717,-0.426308 -1.78939,-0.862197 -2.69845,-1.255718 -1.41407,-0.979134 -2.88992,-1.888102 -4.41988,-2.71921 -7.589472,-3.145091 -15.997979,-4.337069 -24.211281,-3.100218 2.00954,-0.41044 4.713932,-0.862651 7.286313,-1.044548 -2.437695,-0.293348 -4.925227,-0.391729 -7.441784,-0.275078 3.17563,-0.461734 6.373675,-0.583201 9.542522,-0.380555 4.611921,0.397193 9.105278,1.542703 13.34655,3.233441 0.78603,0.198414 1.56893,0.416779 2.34767,0.654968 5.35498,2.335538 10.28025,5.607279 14.43812,9.656514 -0.88499,-1.034728 -1.81893,-2.035601 -2.79831,-2.999118 0.25484,0.201504 0.5068,0.406692 0.75752,0.61331 4.56527,3.825224 5.86727,5.840881 6.23246,6.267114 0.10043,0.124984 0.22436,0.282328 0.35836,0.453426 2.12418,2.162118 4.05815,4.566806 5.74953,7.207426 -0.69429,-1.481745 -1.43502,-2.939922 -2.31487,-4.314475 -4.66529,-7.288421 -11.39799,-13.020633 -19.05363,-16.904605 -0.32003,-0.160562 -0.64235,-0.316581 -0.96577,-0.470371 -2.6518,-1.596194 -5.475814,-2.964634 -8.435016,-4.068175 -6.423604,-1.548894 -13.148085,-1.872501 -19.759259,-0.793267 -15.14372,2.653163 -28.164872,12.597065 -35.063789,25.775331 -1.083461,1.94542 -2.032686,3.972286 -2.83227,6.068423 -2.190933,5.830789 -2.602272,10.718951 -2.664123,11.333787 -0.11371,1.130358 -0.159006,2.006038 -0.181684,2.976568 0.0024,0.19419 -0.10907,6.25311 2.17713,13.39367 5.414324,16.91097 20.454257,30.29949 38.48868,33.25548 1.078279,0.16303 2.158473,0.28829 3.238776,0.37656 z M 73.055756,59.158738 c -7.419235,2.24234 -13.409679,6.0711 -17.337579,9.196892 -0.952915,0.591429 -1.888462,1.218551 -2.803942,1.880257 0.672096,-0.625123 1.362054,-1.231721 2.068725,-1.818899 5.242167,-4.323302 11.413806,-7.545203 18.072798,-9.258243 z"
       transform="matrix(0.18125087,-1.5926955,1.5926955,0.18125087,-72.406114,211.69323)" />
    <rect
       style="fill:#000000;fill-opacity:0.937255;stroke:none;stroke-width:0.561056;stroke-linecap:square;stroke-linejoin:round;stroke-dasharray:none;paint-order:markers stroke fill"
       id="rect160"
       width="150.53406"
       height="2.8956923"
       x="31.305086"
       y="186.41864" />
    <path
       id="path161"
       style="fill:#000000;fill-opacity:1;stroke:none;stroke-linecap:square;stroke-linejoin:round;paint-order:markers stroke fill"
       d="m 79.945605,149.61552 c 6.3734,0.52076 12.744143,-0.24638 18.742909,-2.13459 3.974516,-1.30842 6.977086,-2.84003 8.478426,-3.64989 1.83091,-0.89171 3.61153,-1.89289 5.31855,-3.01298 -0.61776,0.33653 -1.24132,0.65951 -1.8701,0.96887 2.37646,-1.55285 6.79114,-4.75246 11.05409,-10.35375 1.79796,-2.36242 3.36554,-4.89051 4.60484,-7.5759 0.48078,-1.04179 2.42536,-5.12156 1.94686,-7.27007 -0.0436,-0.19562 -0.33263,-0.0468 -0.49872,-0.0705 -0.9813,1.96598 -2.0986,3.81243 -3.33176,5.53787 0.82732,-1.96146 1.49957,-3.98116 2.00225,-6.04514 -0.47523,1.09748 -1.02067,2.15651 -1.56253,3.20195 -1.99496,3.84903 -4.48381,7.32545 -7.29741,10.30263 -0.16525,0.14079 -0.33144,0.28019 -0.49855,0.4182 0.28712,-0.31593 0.56911,-0.6363 0.847,-0.95995 0.13972,-0.1627 1.53028,-1.77821 2.80214,-3.62951 1.39088,-2.02452 2.30227,-3.75636 2.70381,-4.56822 0.31023,-0.62726 0.58506,-1.27143 0.85177,-1.91919 -1.00774,1.69217 -2.13128,3.2822 -3.35299,4.76799 -2.92313,4.33776 -6.67918,8.07862 -10.96509,11.0859 -2.89841,1.55885 -5.93868,2.77802 -9.03143,3.65086 -7.418696,2.58569 -15.389855,3.32357 -22.788612,1.80411 -8.03003,-1.61307 -15.377982,-5.94158 -20.958839,-11.77806 -3.251597,-3.40053 -5.89889,-7.31855 -7.745108,-11.49107 0.04178,-0.15609 0.08457,-0.31145 0.128357,-0.46606 -0.367058,-0.58594 -0.707811,-1.18891 -1.038903,-1.79753 -0.182483,-0.49829 -0.34761,-1.00169 -0.50735,-1.5054 -0.109023,-0.34386 -0.218082,-0.68735 -0.316515,-1.03362 -0.587254,-3.18267 -0.719217,-6.3768 -0.377958,-9.50261 0.0031,-0.0417 0.0063,-0.0834 0.0095,-0.12506 1.003635,-12.819352 10.517181,-24.320575 21.940346,-29.583699 3.099469,-1.428051 6.346879,-2.433722 9.635171,-2.86195 2.442438,-0.362873 4.941983,-0.421153 7.434672,-0.189044 4.897454,0.370568 9.805324,1.806399 14.257833,4.080243 4.0843,1.427864 8.00765,3.56389 11.42736,6.366304 -2.98563,-3.305194 -6.6569,-6.10976 -10.71292,-8.248499 -5.13055,-2.761956 -10.905766,-4.418951 -16.694134,-4.739618 -1.989222,-0.110201 -4.03481,-0.06165 -6.103624,0.186879 -6.825314,0.746407 -13.707065,3.726086 -19.544535,8.464014 0.201141,-0.191 0.405997,-0.378147 0.610678,-0.565606 5.416815,-4.521001 11.957859,-7.699987 18.80538,-8.734641 3.433441,-0.548091 6.954248,-0.572471 10.439477,-0.130925 -2.868371,-0.756967 -5.848856,-1.19253 -8.879815,-1.244774 -0.580747,0.05839 -1.160061,0.131289 -1.737403,0.218813 -1.245222,0.181785 -2.479715,0.433124 -3.699163,0.748164 0.877313,-0.32676 1.769915,-0.621708 2.678423,-0.874301 0.360876,-0.100335 0.684672,-0.184087 0.962523,-0.252792 1.260608,-0.317632 2.244904,-0.49012 2.73012,-0.57142 5.418782,-0.198673 10.814038,0.824378 15.886301,2.658827 -1.645948,-0.907267 -3.369782,-1.714509 -5.15906,-2.405046 -1.479811,-0.414916 -2.99176,-0.726219 -4.518343,-0.96439 0.3234,-0.01855 0.828909,-0.03924 1.526929,-0.05161 0.375178,-0.02439 0.751677,-0.04398 1.129362,-0.05819 5.628372,0.854361 11.097524,2.849721 15.972164,5.77242 -1.54876,-1.17385 -3.18913,-2.256553 -4.90699,-3.233941 -3.164314,-1.305378 -6.470829,-2.267473 -9.836389,-2.82147 -0.606805,-0.188531 -1.2193,-0.36401 -1.837025,-0.525938 6.709024,0.938643 13.196834,3.471105 18.768754,7.249323 5.52814,3.61301 10.00021,8.589071 13.40709,14.105647 1.09295,1.769758 2.26418,3.845453 3.10447,5.716015 -2.09572,-9.0564 -7.76577,-17.280735 -15.55985,-23.298703 -0.89717,-0.426308 -1.78939,-0.862197 -2.69845,-1.255718 -1.41407,-0.979134 -2.88992,-1.888102 -4.41988,-2.71921 -7.589472,-3.145091 -15.997979,-4.337069 -24.211281,-3.100218 2.00954,-0.41044 4.713932,-0.862651 7.286313,-1.044548 -2.437695,-0.293348 -4.925227,-0.391729 -7.441784,-0.275078 3.17563,-0.461734 6.373675,-0.583201 9.542522,-0.380555 4.611921,0.397193 9.105278,1.542703 13.34655,3.233441 0.78603,0.198414 1.56893,0.416779 2.34767,0.654968 5.35498,2.335538 10.28025,5.607279 14.43812,9.656514 -0.88499,-1.034728 -1.81893,-2.035601 -2.79831,-2.999118 0.25484,0.201504 0.5068,0.406692 0.75752,0.61331 4.56527,3.825224 5.86727,5.840881 6.23246,6.267114 0.10043,0.124984 0.22436,0.282328 0.35836,0.453426 2.12418,2.162118 4.05815,4.566806 5.74953,7.207426 -0.69429,-1.481745 -1.43502,-2.939922 -2.31487,-4.314475 -4.66529,-7.288421 -11.39799,-13.020633 -19.05363,-16.904605 -0.32003,-0.160562 -0.64235,-0.316581 -0.96577,-0.470371 -2.6518,-1.596194 -5.475814,-2.964634 -8.435016,-4.068175 -6.423604,-1.548894 -13.148085,-1.872501 -19.759259,-0.793267 -15.14372,2.653163 -28.164872,12.597065 -35.063789,25.775331 -1.083461,1.94542 -2.032686,3.972286 -2.83227,6.068423 -2.190933,5.830789 -2.602272,10.718951 -2.664123,11.333787 -0.11371,1.130358 -0.159006,2.006038 -0.181684,2.976568 0.0024,0.19419 -0.10907,6.25311 2.17713,13.39367 5.414324,16.91097 20.454257,30.29949 38.48868,33.25548 1.078279,0.16303 2.158473,0.28829 3.238776,0.37656 z M 73.055756,59.158738 c -7.419235,2.24234 -13.409679,6.0711 -17.337579,9.196892 -0.952915,0.591429 -1.888462,1.218551 -2.803942,1.880257 0.672096,-0.625123 1.362054,-1.231721 2.068725,-1.818899 5.242167,-4.323302 11.413806,-7.545203 18.072798,-9.258243 z"
       transform="matrix(-0.03560826,-0.19020435,0.35992068,-0.13410856,60.693489,93.869543)" />
    <path
       id="path162"
       style="fill:#000000;fill-opacity:1;stroke:none;stroke-width:0.415014;stroke-linecap:square;stroke-linejoin:round;stroke-dasharray:none;stroke-opacity:1;paint-order:markers stroke fill"
       d="m 121.27005,83.166729 c 0.23213,-0.02482 0.47644,-0.01109 0.73049,0.01109 0.13178,0.01109 0.27982,0.08739 0.44292,0.198772 0.0353,0.01109 0.0747,0.0521 0.12433,0.08739 0.0111,0.01109 0.0248,0.02481 0.0353,0.03529 0.003,0.0028 0.008,0.01109 0.0111,0.01109 -0.008,-0.0028 -0.0111,-0.01109 -0.0111,-0.01109 -0.0111,-0.01109 -0.0248,-0.02482 -0.0521,-0.03529 -0.0623,-0.0521 -0.11193,-0.07471 -0.16817,-0.08739 -0.2302,-0.124342 -0.43192,-0.179473 -0.611,-0.191329 -0.20291,-0.01109 -0.40935,-0.0028 -0.616,8.3e-5 0.0353,-0.0028 0.0747,-0.02482 0.11193,-0.02482 z m -0.11194,0.02482 c -0.19215,0.02481 -0.38105,0.0521 -0.55852,0.111934 -1.58879,0.523835 -2.98047,1.299431 -4.22647,2.272474 -1.04287,0.806444 -2.00574,1.666317 -2.88839,2.57292 -0.30486,0.187744 -0.58983,0.386791 -0.87862,0.587382 -0.38566,0.43308 -0.75409,0.874815 -1.10377,1.327331 -1.96996,1.91769 -3.63383,4.015434 -4.97657,6.253171 0.4481,-0.615972 0.86864,-1.093822 1.51133,-1.777393 -0.33728,0.700608 -0.63847,1.416765 -0.90355,2.146485 0.48397,-0.843663 1.01674,-1.667144 1.59387,-2.467827 0.80027,-1.199605 1.66439,-2.35507 2.65634,-3.458294 0.21394,-0.165138 0.42961,-0.331268 0.64831,-0.492628 1.33155,-1.349028 2.82314,-2.608484 4.45739,-3.765301 -0.34469,0.299921 -0.67946,0.605991 -1.00301,0.918347 0.0874,-0.06231 0.17699,-0.130673 0.26466,-0.196567 1.6178,-1.204621 2.35188,-1.605721 2.52189,-1.706044 0.0521,-0.03529 0.0992,-0.0623 0.17065,-0.111935 0.0623,-0.02481 0.12435,-0.0623 0.18141,-0.0874 0.92956,-0.450447 1.88959,-0.856233 2.88596,-1.21088 -0.51518,0.240126 -0.97561,0.49897 -1.46856,0.777773 -0.19409,0.111935 -0.38567,0.222757 -0.57471,0.338326 -2.31035,1.397383 -4.42888,2.980029 -6.22086,4.72489 -0.0874,0.07471 -0.1632,0.156867 -0.24398,0.236541 -0.58485,0.757868 -1.11748,1.543884 -1.59982,2.353637 -1.49393,1.677731 -2.76105,3.47966 -3.78474,5.386602 -1.99483,3.641217 -3.03982,7.666457 -3.02576,11.957697 0.0353,0.69564 0.0992,1.39727 0.19767,2.10446 0.42555,3.48807 0.72677,3.82968 0.81882,4.19888 0.0874,0.36948 -0.0623,0.77405 1.56803,4.73041 0.25253,0.61225 0.525,1.22698 0.81758,1.84353 2.64648,5.56648 6.85296,11.24464 12.25456,16.86755 1.99756,2.07933 4.15383,4.14585 6.44819,6.19279 1.49548,1.37243 2.7042,2.40631 3.38392,2.98162 0.86486,0.67567 1.74249,1.34322 2.62549,2.01011 -0.36311,-0.23904 -0.72297,-0.47929 -1.08263,-0.72051 0.30767,0.25528 3.92581,3.27664 5.81405,4.78898 1.05777,0.84745 2.39417,1.88994 3.4521,2.73718 0.32388,0.25722 2.50377,1.83471 2.19305,2.16554 -0.0352,0.0352 -0.40069,-0.0747 -0.60104,-0.11186 -1.38485,-0.75165 -2.74739,-1.51087 -4.08729,-2.27782 0.82132,0.68696 1.65973,1.37184 2.51378,2.0539 -0.71431,-0.42206 -1.43673,-0.84244 -2.1112,-1.26596 -2.49198,-1.56264 -4.67712,-3.0725 -6.75989,-4.5916 -0.13426,-0.0874 -0.26797,-0.16817 -0.40184,-0.2517 0.19766,0.15438 0.3966,0.30874 0.59733,0.46312 0.20208,0.15439 4.14407,3.05908 4.83063,3.55164 0.34469,0.24729 0.66827,0.49035 1.00554,0.73421 -1.2661,-0.73548 -2.51109,-1.47689 -3.73471,-2.22479 -2.79068,-1.94884 -5.42056,-3.92564 -7.88601,-5.919 -1.94893,-1.32829 -3.82907,-2.67139 -5.63538,-4.02662 -8.19954,-6.67943 -14.1288,-13.52237 -17.90243,-20.11579 l -0.0521,-0.0874 c -1.14488,-2.02173 -2.08357,-4.0228 -2.81169,-5.99513 -0.09925,-0.0874 -0.195463,-0.17064 -0.292534,-0.25611 -0.02482,-0.2677 -0.0623,-0.53252 -0.07471,-0.79895 -0.07471,-0.2302 -0.153282,-0.45794 -0.222756,-0.68693 -0.0521,-0.15549 -0.08739,-0.30979 -0.134532,-0.46429 -0.634663,-1.50341 -1.129937,-2.98033 -1.466581,-4.42502 -1.055308,-4.52863 -0.821331,-8.77603 0.412844,-12.63073 0.375819,-1.192107 0.844986,-2.355237 1.401739,-3.483185 1.10513,-2.238868 2.61433,-4.328616 4.35809,-6.250442 1.4606,-1.55108 3.11048,-2.995633 4.94053,-4.316733 0.0353,-0.03529 0.0874,-0.0623 0.1282,-0.08739 1.78864,-0.998077 3.70134,-1.839644 5.77157,-2.475464 -1.59036,0.619747 -3.02535,1.430989 -4.3411,2.391791 -0.30591,0.221378 -0.60732,0.448105 -0.90222,0.677009 -1.96856,1.551439 -3.72287,3.264513 -5.17525,5.120891 -1.79788,2.297726 -3.26319,4.9383 -4.23436,7.900716 -0.19767,0.591097 -0.371768,1.189697 -0.523839,1.795087 0.03529,-0.0992 0.07471,-0.19133 0.111934,-0.28722 0.16624,-0.52157 0.352085,-1.03667 0.555075,-1.546247 1.25314,-3.202813 3.15911,-6.156678 5.62212,-8.786776 -0.65079,0.964413 -1.22698,1.964806 -1.7281,2.9977 -0.39956,0.568967 -0.7778,1.147416 -1.13118,1.736784 0.22275,-0.268796 0.45155,-0.534836 0.68065,-0.800186 0.44289,-0.512864 0.8674,-0.971913 0.93957,-1.049051 1.08266,-1.698794 2.33902,-3.292412 3.85479,-4.75676 -0.41574,0.579911 -0.80143,1.174792 -1.15732,1.784781 -0.34361,0.451551 -0.68321,0.90969 -0.99683,1.37486 0.0623,-0.0521 0.26631,-0.224963 0.43826,-0.366004 0.1122,-0.0874 0.2302,-0.165413 0.34574,-0.248396 1.35259,-1.567952 2.89545,-3.035057 4.616,-4.38356 -0.51747,0.512835 -1.01043,1.040365 -1.47497,1.583556 -0.95945,0.832579 -1.84827,1.705906 -2.67804,2.615458 -0.12434,0.193257 -0.23654,0.385661 -0.34995,0.581151 1.52938,-1.860429 3.32585,-3.583456 5.36451,-5.141125 0.57762,-0.425553 1.16357,-0.841291 1.77262,-1.247492 1.55257,-1.042847 3.19744,-1.842593 5.14973,-2.386802 0.0623,-0.01109 0.1282,-0.03529 0.19133,-0.0521 0.43942,-0.124342 0.89348,-0.155489 1.34448,-0.16431 z m -14.65718,14.661284 c -0.0995,0.15549 -0.18581,0.30767 -0.271,0.45563 -1.10873,1.873687 -1.70422,3.480617 -2.08861,5.028197 -0.0111,0.37064 -0.0111,0.74417 -0.0111,1.11877 0.0623,-0.27348 0.12434,-0.54523 0.19022,-0.81634 0.45274,-1.84893 1.10505,-3.63454 1.95761,-5.345187 0.0747,-0.14804 0.14557,-0.29498 0.22028,-0.44173 z" />
    <path
       id="path163"
       style="fill:#000000;fill-opacity:1;stroke:none;stroke-width:0.576407;stroke-linecap:square;stroke-linejoin:round;stroke-dasharray:none;stroke-opacity:1;paint-order:markers stroke fill"
       d="m 73.737148,35.410061 c -0.385634,0.09953 -0.772811,0.247292 -1.164813,0.440605 -0.202907,0.09953 -0.404766,0.283711 -0.603537,0.556257 -0.0521,0.0521 -0.09925,0.111935 -0.150527,0.207594 -0.01109,0.02482 -0.02482,0.0521 -0.03529,0.07471 -0.0028,0.01109 -0.0083,0.01109 -0.0083,0.02482 0.0083,-0.01109 0.0083,-0.02482 0.01109,-0.02482 0.01109,-0.02481 0.03529,-0.0521 0.0521,-0.08739 0.07471,-0.09953 0.148046,-0.178095 0.221378,-0.2302 0.303451,-0.314698 0.597307,-0.520389 0.877296,-0.640894 0.318614,-0.138125 0.655891,-0.240124 0.988124,-0.353267 -0.0623,0.01109 -0.125437,0.01109 -0.190225,0.02482 z m 0.190224,-0.02481 c 0.320709,-0.07471 0.642107,-0.13289 0.960692,-0.145564 2.833585,-0.124342 5.486648,0.251705 8.012561,1.005546 2.109129,0.620907 4.119865,1.365239 6.026777,2.227924 0.589835,0.111935 1.154859,0.24619 1.728346,0.383317 0.853726,0.431949 1.683025,0.889758 2.489552,1.371 4.198498,1.765648 8.00278,3.978988 11.3674,6.588078 -1.05159,-0.673204 -1.98468,-1.152379 -3.38629,-1.817119 0.91967,0.864862 1.78986,1.773697 2.61053,2.723418 -1.23206,-0.996725 -2.53361,-1.934287 -3.892065,-2.812521 -1.933626,-1.352474 -3.94403,-2.601894 -6.132309,-3.698612 -0.433107,-0.128202 -0.868648,-0.252806 -1.306581,-0.373558 -2.866444,-1.273103 -5.941477,-2.319176 -9.189751,-3.128322 0.715578,0.255288 1.416929,0.525021 2.105987,0.811323 -0.176993,-0.0521 -0.354454,-0.09953 -0.532521,-0.14446 -3.247889,-0.891053 -4.643093,-1.075241 -4.970116,-1.128697 -0.09925,-0.02482 -0.20015,-0.03529 -0.330909,-0.0623 -0.111935,-0.01109 -0.224962,-0.01109 -0.338352,-0.02482 -1.734771,-0.148044 -3.496147,-0.209248 -5.287213,-0.173133 0.956887,0.0623 1.83537,0.193258 2.777646,0.330909 0.370664,0.0521 0.739232,0.112201 1.106338,0.180577 4.463704,0.784031 8.719566,1.958657 12.539039,3.565371 0.172581,0.07471 0.346789,0.143358 0.518625,0.216692 1.347869,0.810111 2.628645,1.690302 3.839856,2.636575 3.304624,1.676519 6.312226,3.670906 8.985876,5.963533 5.16947,4.354779 9.02158,9.834946 11.31722,16.324933 0.31332,1.07276 0.58614,2.170939 0.81885,3.292825 1.20084,5.513002 0.90351,6.201728 0.95451,6.812489 0.0521,0.611036 0.52268,1.131178 0.0353,8.045395 -0.0747,1.070252 -0.1803,2.154535 -0.31613,3.254008 -1.24071,9.927633 -4.92628,20.919802 -10.56009,32.514582 -2.08349,4.2877 -4.42858,8.64739 -7.005996,13.05657 -1.659204,2.93164 -3.041149,5.18747 -3.821431,6.44672 -1.024157,1.51706 -2.071533,3.02933 -3.128909,4.54382 0.452736,-0.5701 0.902246,-1.13992 1.34798,-1.70911 -0.356164,0.56261 -4.532157,7.20321 -6.746269,10.5719 -1.240709,1.88725 -2.822665,4.22934 -4.063072,6.11659 -0.378162,0.57476 -3.028385,4.20877 -2.350659,4.53026 0.07471,0.0352 0.603565,-0.34222 0.904672,-0.51403 1.817312,-1.93004 3.594347,-3.85964 5.330745,-5.78752 -0.94826,1.5098 -1.92315,3.02523 -2.925692,4.54586 0.918401,-1.04788 1.850973,-2.09828 2.705167,-3.1243 3.156279,-3.79133 5.848378,-7.32655 8.371517,-10.8171 0.170651,-0.204 0.340116,-0.40704 0.508838,-0.61105 -0.234059,0.34574 -0.470104,0.69316 -0.70932,1.04165 -0.240125,0.34997 -5.000201,7.00007 -5.8362,8.13848 -0.419211,0.5713 -0.807657,1.12376 -1.217082,1.68624 1.635358,-1.8373 3.233085,-3.67256 4.793454,-5.50487 3.427233,-4.54613 6.581167,-9.04189 9.462167,-13.46838 2.41236,-3.12581 4.70488,-6.23404 6.87242,-9.31828 9.55449,-14.79696 15.37626,-28.53772 17.87227,-40.663995 l 0.0353,-0.154385 c 0.7442,-3.710467 1.17102,-7.272337 1.27396,-10.669621 0.11193,-0.185814 0.22138,-0.369505 0.33129,-0.553969 -0.0995,-0.419157 -0.19325,-0.837515 -0.3024,-1.252315 -0.002,-0.390845 -0.002,-0.7802 -0.0111,-1.16597 -0.008,-0.261354 -0.0248,-0.519233 -0.0353,-0.777801 0.20649,-2.635253 0.20401,-5.150609 -0.0353,-7.526163 -0.75293,-7.446379 -3.42309,-13.727698 -7.48693,-18.841751 -1.24782,-1.585788 -2.62869,-3.072247 -4.13194,-4.456591 -2.9837,-2.747264 -6.53537,-5.0373 -10.37298,-6.939138 -3.18274,-1.504268 -6.611702,-2.738774 -10.263281,-3.683807 -0.0874,-0.02481 -0.170651,-0.0521 -0.256116,-0.0623 -3.410276,-0.480442 -6.935701,-0.653354 -10.602691,-0.425553 2.887783,0.02481 5.629783,0.42445 8.261149,1.121254 0.611009,0.159072 1.215823,0.327407 1.814619,0.504179 3.998285,1.213388 7.73999,2.793442 11.07458,4.763652 4.12733,2.438632 7.90631,5.585812 11.06573,9.502962 0.63588,0.780254 1.23941,1.584024 1.81003,2.41109 -0.11193,-0.124342 -0.22138,-0.248395 -0.33479,-0.370636 -0.54986,-0.691923 -1.12622,-1.364659 -1.72554,-2.01727 -3.74203,-4.118485 -8.39756,-7.485966 -13.77227,-10.044496 1.56514,1.08263 3.03136,2.263267 4.39362,3.535901 0.94704,0.629729 1.86804,1.287053 2.75507,1.973461 -0.50129,-0.277342 -1.01421,-0.54986 -1.52517,-0.818822 -0.9881,-0.52039 -1.91794,-0.969431 -2.07538,-1.045329 -2.65552,-1.944432 -5.53354,-3.630213 -8.758026,-4.971797 0.980653,0.637116 1.922295,1.315008 2.822666,2.031164 0.79393,0.483944 1.58753,0.981865 2.3438,1.50413 -0.12821,-0.0521 -0.54987,-0.187744 -0.89974,-0.301328 -0.2291,-0.0623 -0.45908,-0.111934 -0.68942,-0.176993 -3.018375,-1.591908 -6.287822,-2.921996 -9.778408,-3.971019 1.108848,0.476418 2.183656,0.991763 3.223417,1.545042 1.990609,0.706866 3.888644,1.515516 5.712101,2.413021 0.29606,0.221378 0.58741,0.446946 0.87485,0.676953 -3.460284,-1.932081 -7.274988,-3.503369 -11.389402,-4.685687 -1.157314,-0.311198 -2.323615,-0.603565 -3.519386,-0.866132 -3.05612,-0.684479 -6.128532,-0.947045 -9.556611,-0.648337 -0.111935,0.01109 -0.224963,0.02481 -0.334796,0.02481 -0.770357,0.07471 -1.517694,0.27737 -2.246973,0.523863 z M 105.37781,49.11565 c 0.23654,0.1803 0.46313,0.357321 0.68197,0.531335 2.79226,2.193462 4.6161,4.279019 6.06934,6.395949 0.21917,0.553915 0.42558,1.114997 0.61854,1.685203 -0.24289,-0.379265 -0.49147,-0.752851 -0.74789,-1.122438 -1.72554,-2.532973 -3.73809,-4.855347 -6.0305,-6.949974 -0.19574,-0.181404 -0.392,-0.36198 -0.59234,-0.540048 z" />
    <path
       id="path164"
       style="fill:#000000;fill-opacity:1;stroke:none;stroke-width:0.480339;stroke-linecap:square;stroke-linejoin:round;stroke-dasharray:none;paint-order:markers stroke fill"
       d="m 141.79705,49.786619 c 0.008,0.688201 -0.0112,1.379381 -0.0521,2.072103 -0.22276,4.121767 -1.21458,8.305674 -3.07506,12.357498 -0.66204,1.42236 -1.41804,2.81638 -2.26277,4.175884 -1.07519,1.730608 -2.2931,3.403515 -3.63959,5.00375 -0.68442,0.773995 -1.39231,1.532664 -2.1223,2.27457 -0.43827,0.519231 -0.88982,1.030386 -1.36069,1.530429 0.13178,-0.190225 0.26245,-0.382187 0.39087,-0.573597 -0.67321,0.638413 -1.38749,1.244459 -2.12796,1.823901 -0.64713,0.508811 -1.31766,1.000501 -2.00227,1.479594 -0.86247,0.602352 -1.74925,1.183504 -2.68295,1.708553 -0.11193,0.06231 -0.2302,0.130672 -0.34326,0.196566 -0.25032,0.14446 -0.50418,0.287239 -0.77524,0.414553 -0.271,0.127374 -0.55741,0.261629 -0.85992,0.344693 -0.177,0.0521 -0.35961,0.07471 -0.54987,0.07471 -0.0623,1.93e-4 -0.11193,-0.0028 -0.17065,-0.0083 -0.008,-9.92e-4 -0.0111,-0.0028 -0.0111,-0.0028 -0.0747,-0.01109 -0.0995,-0.08739 -0.13288,-0.163208 -0.008,-0.02481 -0.0111,-0.0521 -0.0353,-0.0623 0.0248,-0.02482 0.0521,-0.0521 0.0747,-0.0623 0.11193,-0.09953 0.21283,-0.209246 0.31329,-0.312244 0.392,-0.397239 0.75913,-0.796437 1.11009,-1.192215 0.0248,-0.03529 0.0623,-0.06231 0.0874,-0.09925 -0.0521,0.02482 -0.0874,0.0521 -0.12544,0.0623 -0.49665,0.259974 -1.00301,0.516337 -1.51893,0.762831 -0.13427,0.0623 -0.271,0.128202 -0.41166,0.192154 -0.0353,0.01109 -0.0747,0.03529 -0.0995,0.0521 0.0248,-0.02482 0.0623,-0.0521 0.0874,-0.07471 0.1122,-0.09925 0.22027,-0.186641 0.326,-0.279824 0.19022,-0.166241 0.37695,-0.333748 0.56775,-0.494392 0.21669,-0.181404 0.43079,-0.364819 0.64213,-0.54523 0.94581,-0.80763 1.87863,-1.619037 2.77663,-2.448887 0.0521,-0.0623 0.0874,-0.124342 0.13591,-0.182782 -0.11194,0.09953 -0.23654,0.195738 -0.35732,0.293581 h -6.4e-4 c -0.42789,0.351007 -0.85868,0.699394 -1.29835,1.039153 -0.48282,0.37353 -0.96943,0.741657 -1.47477,1.09385 -0.0248,0.02482 -0.0521,0.03529 -0.0874,0.06231 -0.21145,0.145562 -0.43423,0.28087 -0.65335,0.420893 0.20015,-0.20649 0.3955,-0.413395 0.58741,-0.620989 0.28087,-0.303423 0.55507,-0.611035 0.82384,-0.918373 1.08886,-0.908422 2.13179,-1.851499 3.13011,-2.819689 0.34362,-0.332344 0.68073,-0.668271 1.01296,-1.006732 0.61228,-0.959508 1.17601,-1.927258 1.69246,-2.899308 2.1641,-3.179684 3.98582,-6.45142 5.25774,-9.76018 0.59984,-1.552595 1.07025,-3.119472 1.4056,-4.68894 0.31754,-1.487865 0.51,-2.978459 0.60111,-4.460229 -0.0747,-0.03529 -0.13564,-0.07471 -0.20511,-0.124342 0.0874,-0.22386 0.16183,-0.449289 0.24288,-0.674472 0.008,-0.172581 0.008,-0.345742 0.008,-0.517495 0.003,-0.124342 0.008,-0.236542 0.008,-0.353295 -0.19877,-1.057818 -0.4406,-2.09551 -0.68947,-3.119446 -0.38682,-1.597395 -0.86486,-3.158758 -1.43184,-4.666196 -0.90718,-2.483982 -2.03949,-4.865382 -3.38226,-7.171351 -1.01922,-1.749935 -2.10216,-3.497029 -3.35811,-5.167399 -0.99681,-1.422747 -2.08512,-2.814837 -3.24392,-4.17649 -0.65084,-1.378306 -1.36816,-2.751319 -2.13959,-4.114021 1.16357,1.123735 2.28772,2.273881 3.35866,3.451982 1.38875,1.477416 2.67255,3.017798 3.89198,4.578692 1.91209,2.447399 3.61968,4.994901 4.98373,7.697255 -0.0248,-0.0874 -0.0521,-0.166239 -0.0747,-0.251703 -1.31611,-3.097087 -3.02077,-6.07571 -5.02158,-8.939646 0.7964,0.671963 1.57233,1.363749 2.32438,2.076706 0.32598,0.50305 0.63839,1.01175 0.93952,1.52354 -0.0874,-0.287213 -0.18581,-0.573544 -0.28721,-0.858633 -0.13619,-0.378162 -0.27632,-0.7566 -0.42674,-1.132446 -1.07891,-1.398872 -2.26302,-2.732047 -3.43436,-4.076416 0.57585,0.359636 1.14609,0.726743 1.71004,1.103803 0.36832,0.354424 0.71682,0.721807 1.0678,1.088887 -0.0521,-0.154385 -0.0993,-0.307669 -0.15329,-0.460235 -0.0248,-0.124342 -0.0521,-0.23654 -0.0747,-0.354425 -1.07893,-1.456381 -2.24306,-2.871077 -3.47847,-4.241388 0.54117,0.387949 1.07772,0.783976 1.60756,1.187171 0.66951,0.854911 1.32152,1.718478 1.9397,2.598117 0.16816,0.13289 0.33482,0.267971 0.49899,0.403002 -1.28413,-1.707863 -2.68204,-3.356261 -4.17613,-4.940727 -1.3986,-1.593123 -3.02841,-3.031556 -4.41513,-4.631433 -0.45676,-0.526151 -0.85618,-1.09134 -1.2677,-1.648479 2.70649,1.61912 5.36207,3.361471 7.89509,5.262786 0.13178,0.268796 0.28865,0.524967 0.43308,0.787698 0.44811,0.330578 0.89227,0.668242 1.33183,1.009213 1.57746,1.926183 3.01016,3.941191 4.2582,6.043427 -0.28862,-0.658316 -0.53252,-1.338579 -0.79644,-2.013547 0.55102,0.525021 1.0914,1.060298 1.61888,1.607843 -0.47932,-0.795168 -0.97936,-1.579916 -1.50303,-2.351982 -0.82632,-1.092638 -1.73794,-2.129641 -2.6647,-3.153466 -0.0995,-0.217794 -0.20208,-0.435366 -0.3059,-0.653298 -1.13992,-1.329564 -2.33646,-2.619539 -3.58787,-3.862619 0.36317,0.242881 0.72305,0.487996 1.08271,0.735481 -0.0747,-0.07471 -0.13067,-0.14446 -0.19656,-0.216691 -0.60729,-0.645938 -1.25389,-1.263481 -1.84552,-1.916312 -0.0353,-0.03529 -0.0874,-0.0874 -0.12709,-0.124342 -0.46776,-0.761535 -0.9508,-1.51695 -1.44643,-2.264121 0.37813,0.304856 0.77526,0.597335 1.1287,0.92342 1.87424,1.732481 3.58924,3.602423 5.25214,5.513883 0.0747,0.07471 0.13591,0.16183 0.20401,0.240952 0.76159,0.584929 1.51152,1.184745 2.24786,1.801211 3.51974,5.15469 6.30459,10.728454 7.74139,16.785802 0.0354,0.111935 0.0747,0.227719 0.0992,0.341139 0.14805,0.516309 0.28091,1.036643 0.40301,1.560672 0.43424,1.990224 0.65834,4.032031 0.6795,6.097297 z m -3.65657,-12.258636 c -0.0874,-0.251703 -0.18663,-0.503048 -0.28262,-0.752877 -0.7305,-1.84251 -1.60325,-3.628147 -2.58671,-5.360795 0.77656,1.755007 1.5157,3.525645 2.24821,5.291238 0.21035,0.271002 0.4169,0.545258 0.62099,0.822545 z" />
    <text
       xml:space="preserve"
       style="font-style:normal;font-variant:normal;font-weight:normal;font-stretch:normal;font-size:53.7152px;font-family:'Ink Free';-inkscape-font-specification:'Ink Free, Normal';font-variant-ligatures:normal;font-variant-caps:normal;font-variant-numeric:normal;font-variant-east-asian:normal;fill:#000000;fill-opacity:1;stroke:#000000;stroke-width:0.659;stroke-linecap:square;stroke-linejoin:round;stroke-dasharray:none;stroke-opacity:1;paint-order:markers stroke fill"
       x="45.991829"
       y="234.99338"
       id="text166"><tspan
         id="tspan166"
         style="font-style:normal;font-variant:normal;font-weight:normal;font-stretch:normal;font-size:53.7152px;font-family:'Ink Free';-inkscape-font-specification:'Ink Free, Normal';font-variant-ligatures:normal;font-variant-caps:normal;font-variant-numeric:normal;font-variant-east-asian:normal;stroke:#000000;stroke-width:0.659;stroke-dasharray:none;stroke-opacity:1"
         x="45.991829"
         y="234.99338">Leiko</tspan></text>
  </g>
</svg>
