<?xml version="1.0" encoding="UTF-8" standalone="no"?>
<!-- Created with Inkscape (http://www.inkscape.org/) -->

<svg
   width="210mm"
   height="297mm"
   viewBox="0 0 210 297"
   version="1.1"
   id="svg1"
   sodipodi:docname="logo.svg"
   inkscape:version="1.3.2 (091e20e, 2023-11-25, custom)"
   xmlns:inkscape="http://www.inkscape.org/namespaces/inkscape"
   xmlns:sodipodi="http://sodipodi.sourceforge.net/DTD/sodipodi-0.dtd"
   xmlns="http://www.w3.org/2000/svg"
   xmlns:svg="http://www.w3.org/2000/svg">
  <sodipodi:namedview
     id="namedview1"
     pagecolor="#ffffff"
     bordercolor="#000000"
     borderopacity="0.25"
     inkscape:showpageshadow="2"
     inkscape:pageopacity="0.0"
     inkscape:pagecheckerboard="0"
     inkscape:deskcolor="#d1d1d1"
     inkscape:document-units="mm"
     inkscape:zoom="0.65834035"
     inkscape:cx="397.21096"
     inkscape:cy="561.25984"
     inkscape:window-width="1920"
     inkscape:window-height="974"
     inkscape:window-x="-11"
     inkscape:window-y="-11"
     inkscape:window-maximized="1"
     inkscape:current-layer="svg1"
     showguides="false">
    <sodipodi:guide
       position="30.945872,176.83356"
       orientation="1,0"
       id="guide1"
       inkscape:locked="false" />
    <sodipodi:guide
       position="181.65629,154.32747"
       orientation="1,0"
       id="guide2"
       inkscape:locked="false" />
    <sodipodi:guide
       position="118.96076,116.1475"
       orientation="0,-1"
       id="guide3"
       inkscape:locked="false" />
  </sodipodi:namedview>
  <defs
     id="defs1" />
  <text
     xml:space="preserve"
     style="font-style:italic;font-variant:normal;font-weight:normal;font-stretch:normal;font-size:24.7302px;font-family:Calibri;-inkscape-font-specification:'Calibri, Italic';font-variant-ligatures:normal;font-variant-caps:normal;font-variant-numeric:normal;font-variant-east-asian:normal;fill:#000000;fill-opacity:1;stroke:none;stroke-width:0;stroke-linecap:square;stroke-linejoin:round;stroke-dasharray:none;stroke-opacity:1;paint-order:markers stroke fill"
     x="66.85408"
     y="253.68335"
     id="text160"><tspan
       style="font-style:italic;font-variant:normal;font-weight:normal;font-stretch:normal;font-size:24.7302px;font-family:Calibri;-inkscape-font-specification:'Calibri, Italic';font-variant-ligatures:normal;font-variant-caps:normal;font-variant-numeric:normal;font-variant-east-asian:normal;fill:#000000;stroke:none;stroke-width:0;stroke-dasharray:none;stroke-opacity:1"
       x="66.85408"
       y="253.68335"
       id="tspan1">PILATES</tspan></text>
  <ellipse
     style="opacity:0.41185;fill:#535d6c;fill-opacity:1;stroke:none;stroke-width:1.64345;stroke-linecap:square;stroke-linejoin:round;stroke-dasharray:none;paint-order:markers stroke fill"
     id="ellipse160"
     cx="107.04797"
     cy="104.58807"
     rx="70.020111"
     ry="66.106667" />
  <path
     id="path160"
     style="opacity:0.68932039;fill:#08080f;fill-opacity:1;stroke:none;stroke-width:1.60298;stroke-linecap:square;stroke-linejoin:round;paint-order:markers stroke fill"
     d="m 180.37606,111.48217 c 1.9846,-10.0565 1.91748,-20.342198 -0.003,-30.238645 -1.36353,-6.567346 -3.2587,-11.627132 -4.27644,-14.165097 -1.08837,-3.077705 -2.36021,-6.095155 -3.83477,-9.016936 0.42402,1.0449 0.82541,2.096582 1.20416,3.154109 -2.04248,-4.066433 -6.33832,-11.677606 -14.48681,-19.482426 -3.43673,-3.291794 -7.17909,-6.24669 -11.23147,-8.707246 -1.57211,-0.954562 -7.71749,-4.791148 -11.22614,-4.418462 -0.31946,0.03399 -0.13483,0.521296 -0.20268,0.781531 2.95335,1.919247 5.69167,4.033437 8.21626,6.310223 -2.97406,-1.673185 -6.06898,-3.109947 -9.26516,-4.284662 1.66182,0.955816 3.24967,2.016486 4.81652,3.068991 5.76875,3.875004 10.85452,8.469088 15.08629,13.489913 0.19429,0.288711 0.38619,0.578667 0.57571,0.869837 -0.45114,-0.514557 -0.91028,-1.021749 -1.37539,-1.523005 -0.23381,-0.252021 -2.55479,-2.759572 -5.27282,-5.120807 -2.97234,-2.582195 -5.56545,-4.347659 -6.78571,-5.13434 -0.94281,-0.607794 -1.91896,-1.16227 -2.9023,-1.704465 2.51245,1.91173 4.84125,3.989381 6.98622,6.204494 6.37891,5.441879 11.65617,12.102157 15.66903,19.473379 1.95744,4.898827 3.34815,9.962027 4.17776,15.046039 2.77357,12.284382 2.50401,25.113755 -1.25706,36.622315 -4.02458,12.49702 -12.2504,23.41553 -22.55767,31.24627 -6.00537,4.56245 -12.7254,8.06864 -19.70559,10.25283 -0.24103,-0.0948 -0.48071,-0.19115 -0.71902,-0.28891 -0.99976,0.47841 -2.02187,0.91184 -3.05122,1.32885 -0.8267,0.20033 -1.6584,0.37208 -2.48961,0.5352 -0.56742,0.11132 -1.13426,0.22276 -1.70361,0.31677 -5.17546,0.35845 -10.28665,-0.0103 -15.203265,-1.12038 -0.06585,-0.0125 -0.131689,-0.0251 -0.197461,-0.0378 -20.235414,-3.92201 -36.829022,-21.15879 -43.141117,-40.30636 -1.712669,-5.19535 -2.725801,-10.54976 -2.811832,-15.864628 -0.135252,-3.955831 0.22497,-7.947409 1.046451,-11.875433 1.47787,-7.732987 4.654267,-15.289484 9.082829,-21.968833 3.014435,-6.246244 7.127585,-12.10779 12.210803,-17.046406 -5.805316,4.15613 -10.937557,9.495015 -15.079074,15.567371 -5.32887,7.670791 -9.014722,16.56862 -10.574594,25.729606 -0.536064,3.148251 -0.829502,6.41505 -0.808645,9.755087 -0.04829,11.005936 3.450103,22.506536 9.938133,32.662606 -0.267748,-0.35498 -0.528686,-0.71517 -0.790153,-1.07514 -6.218775,-9.44678 -10.096362,-20.44086 -10.503131,-31.53441 -0.250628,-5.567768 0.348691,-11.17976 1.68364,-16.650638 -1.725512,4.431241 -2.959447,9.0993 -3.59202,13.917225 -0.01226,0.935537 -0.0012,1.87142 0.0336,2.806814 0.06383,2.016209 0.240384,4.027939 0.521121,6.027249 -0.361416,-1.45652 -0.669393,-2.93162 -0.907029,-4.42438 -0.09439,-0.59295 -0.169097,-1.123843 -0.228163,-1.578828 -0.277404,-2.065336 -0.373721,-3.664283 -0.415261,-4.45182 0.665733,-8.66648 3.273037,-17.074051 7.114108,-24.820126 -1.74333,2.457051 -3.341467,5.056281 -4.76559,7.780895 -0.929052,2.281685 -1.698905,4.633335 -2.354934,7.021548 0.02907,-0.51844 0.08774,-1.327312 0.194558,-2.441287 0.02916,-0.601965 0.0662,-1.205164 0.112019,-1.809277 2.380885,-8.809429 6.550173,-17.158456 12.088676,-24.392531 -2.1503,2.253942 -4.172035,4.670311 -6.04008,7.229186 -2.652603,4.803182 -4.784237,9.895073 -6.276596,15.154973 -0.410256,0.932284 -0.800756,1.875996 -1.170621,2.830494 2.710989,-10.515302 7.92035,-20.389391 14.947816,-28.578957 6.756405,-8.149783 15.492322,-14.370513 24.896047,-18.796751 3.016784,-1.419967 6.535021,-2.909158 9.66656,-3.908443 -14.803939,1.696363 -28.930502,9.236359 -39.927976,20.559193 -0.841592,1.35165 -1.697546,2.693679 -2.489073,4.070209 -1.815764,2.074714 -3.530972,4.260542 -5.131981,6.546664 -6.38477,11.517661 -9.807277,24.693805 -9.326018,37.999274 -0.289475,-3.274977 -0.519536,-7.664214 -0.342996,-11.794203 -0.909049,3.829337 -1.516607,7.773386 -1.786945,11.802638 -0.159816,-5.141501 0.226372,-10.257029 1.123482,-15.267308 1.468522,-7.273394 4.107395,-14.222319 7.56896,-20.670919 0.458481,-1.215944 0.948172,-2.423287 1.468682,-3.62041 4.690395,-8.105535 10.793992,-15.356984 17.996808,-21.245278 -1.808412,1.221975 -3.571775,2.528048 -5.283878,3.913263 0.367124,-0.369359 0.739594,-0.733464 1.114117,-1.095335 6.919876,-6.57776 10.366193,-8.28611 11.111243,-8.790491 0.217265,-0.137301 0.490328,-0.306165 0.787123,-0.488575 3.828605,-2.991286 8.009074,-5.63566 12.521342,-7.850898 -2.485809,0.837225 -4.942499,1.752686 -7.291217,2.90488 -12.453823,6.109354 -22.803799,15.793527 -30.377375,27.282657 -0.313733,0.480608 -0.620644,0.965687 -0.924205,1.452922 -3.022892,3.934199 -5.714254,8.183956 -8.008217,12.697046 -3.6312,9.950106 -5.365426,20.601503 -4.844816,31.326702 1.480869,24.600223 14.958381,47.141293 34.696912,60.517743 2.902083,2.07823 5.958216,3.95743 9.151798,5.61085 8.889563,4.54632 16.600361,6.08744 17.568397,6.29739 1.779703,0.38599 3.166185,0.61685 4.707833,0.82888 0.309721,0.0314 9.939525,1.30709 21.726645,-1.03989 27.91537,-5.55825 51.96521,-27.0856 59.94196,-55.27317 0.45509,-1.68782 0.85038,-3.38554 1.18677,-5.09013 z M 35.057161,106.06023 c 2.226622,12.22301 7.238898,22.45793 11.505397,29.28043 0.76925,1.6249 1.598496,3.22861 2.48646,4.80662 -0.873812,-1.18375 -1.714883,-2.39259 -2.521994,-3.62452 -5.935556,-9.13278 -9.948448,-19.5463 -11.469851,-30.46253 z" />
  <path
     id="path161"
     style="fill:#000000;fill-opacity:1;stroke:none;stroke-width:0.270618;stroke-linecap:square;stroke-linejoin:round;paint-order:markers stroke fill"
     d="m 111.69648,58.598819 c -0.0395,-1.282087 -0.54247,-2.39095 -1.43568,-3.278716 -0.61245,-0.5805 -1.27063,-0.9462 -1.61557,-1.123152 -0.38614,-0.228661 -0.80989,-0.433076 -1.27382,-0.607545 0.14312,0.07237 0.28157,0.147659 0.41531,0.225768 -0.64353,-0.243763 -1.95233,-0.654359 -4.12015,-0.71401 -0.91431,-0.02516 -1.88004,0.01572 -2.89069,0.140133 -0.39208,0.04827 -1.929722,0.225531 -2.685976,0.604677 -0.06885,0.03453 -0.005,0.06954 -0.0076,0.104313 0.742539,-0.07701 1.4469,-0.112116 2.111836,-0.10896 -0.735433,0.105689 -1.486303,0.248683 -2.247071,0.429868 0.411927,-0.05679 0.812516,-0.09507 1.208087,-0.132209 1.456384,-0.136738 2.796244,-0.129565 3.967984,0.0063 0.0566,0.01255 0.11265,0.02547 0.16827,0.03874 -0.12394,-0.01224 -0.24928,-0.02291 -0.37567,-0.03237 -0.0635,-0.0048 -0.6945,-0.05259 -1.40611,-0.04623 -0.7782,0.007 -1.43397,0.06586 -1.740481,0.09836 -0.236811,0.02511 -0.478447,0.05923 -0.721087,0.09537 0.644931,-0.03526 1.257228,-0.03479 1.835498,-0.0017 1.66534,-0.02574 3.1455,0.186997 4.38049,0.598893 0.66427,0.342235 1.21133,0.757007 1.63561,1.228206 1.19481,1.064305 1.74423,2.481498 1.4608,4.092547 -0.29464,1.743673 -1.59091,3.721775 -3.49286,5.566001 -1.10813,1.074508 -2.42404,2.103474 -3.86008,3.014204 -0.0577,0.01299 -0.11511,0.02568 -0.17231,0.03809 -0.19783,0.148396 -0.40271,0.294072 -0.60998,0.438668 -0.17285,0.101534 -0.348155,0.200453 -0.523762,0.298388 -0.11988,0.06685 -0.239626,0.133659 -0.360751,0.198819 -1.124597,0.538522 -2.269532,0.991982 -3.406727,1.346271 -0.01512,0.005 -0.03024,0.01 -0.04535,0.01497 -4.649688,1.528289 -9.127977,1.261183 -11.429043,-0.205722 -0.624352,-0.398019 -1.101948,-0.880821 -1.373166,-1.44884 -0.217577,-0.415898 -0.327558,-0.883506 -0.332777,-1.388754 -0.04102,-0.981214 0.30101,-2.107269 0.960867,-3.259097 0.368483,-0.96834 0.99758,-2.001038 1.884456,-3.027309 -1.083294,1.011134 -1.961988,2.085542 -2.587337,3.143838 -0.811395,1.346254 -1.202136,2.666942 -1.111437,3.810919 0.03117,0.393138 0.121483,0.775707 0.284601,1.135874 0.511685,1.198105 1.82918,2.107444 3.74232,2.582359 -0.07591,-0.01264 -0.150559,-0.02651 -0.225318,-0.0403 -1.820085,-0.423997 -3.197183,-1.241803 -3.813405,-2.405475 -0.319528,-0.579552 -0.453673,-1.245955 -0.418854,-1.968076 -0.17031,0.647093 -0.220949,1.272407 -0.131825,1.855915 0.0417,0.10263 0.08856,0.203041 0.140621,0.301117 0.109768,0.212467 0.244189,0.413566 0.401,0.603261 -0.148847,-0.123047 -0.286789,-0.253269 -0.410052,-0.392196 -0.04896,-0.05519 -0.09064,-0.10554 -0.125259,-0.149175 -0.159211,-0.197176 -0.256342,-0.361261 -0.302881,-0.442648 -0.26446,-1.004032 -0.08836,-2.167433 0.391283,-3.378215 -0.267935,0.434739 -0.497095,0.870877 -0.68192,1.303813 -0.09664,0.33711 -0.15485,0.666438 -0.186214,0.988741 -0.01819,-0.05902 -0.04364,-0.152399 -0.07295,-0.283507 -0.02214,-0.06809 -0.0426,-0.137074 -0.06116,-0.207006 0.107086,-1.185118 0.63051,-2.492968 1.508872,-3.812105 -0.367344,0.452004 -0.69862,0.909209 -0.989233,1.36703 -0.357156,0.776928 -0.585695,1.534867 -0.665248,2.249307 -0.04625,0.1407 -0.0876,0.280733 -0.123883,0.419942 0.09894,-1.401965 0.779406,-2.975599 1.940859,-4.542094 1.103549,-1.536012 2.735294,-3.053951 4.599511,-4.441775 0.598054,-0.445223 1.303434,-0.946365 1.946767,-1.35705 -3.184961,1.613156 -5.943169,3.794578 -7.831626,6.084107 -0.12149,0.227817 -0.246605,0.455978 -0.355872,0.681659 -0.302058,0.400273 -0.576662,0.802886 -0.821315,1.20535 -0.861736,1.865334 -0.991341,3.624523 -0.253712,5.020856 -0.219282,-0.32718 -0.47834,-0.780921 -0.635407,-1.245806 -0.01878,0.503001 0.03439,0.989334 0.165983,1.45235 -0.279267,-0.542096 -0.436862,-1.134088 -0.476762,-1.763993 -0.02126,-0.930474 0.231027,-1.938753 0.688535,-2.972203 0.04342,-0.176116 0.09414,-0.354311 0.15214,-0.534374 0.649927,-1.331756 1.652113,-2.707333 2.961462,-4.041215 -0.340907,0.307095 -0.667886,0.61896 -0.979801,0.934459 0.06345,-0.0755 0.12833,-0.150937 0.193769,-0.226334 1.214216,-1.38133 1.89333,-1.899293 2.033737,-2.025915 0.04141,-0.03586 0.09363,-0.08054 0.150436,-0.12897 0.702553,-0.693987 1.499185,-1.384325 2.389371,-2.060163 -0.508588,0.330772 -1.00704,0.667216 -1.47044,1.018906 -2.457131,1.864799 -4.280532,3.914126 -5.40585,5.891136 -0.04639,0.0824 -0.09107,0.164634 -0.134907,0.246774 -0.480077,0.718448 -0.872049,1.439106 -1.163864,2.149954 -0.328746,1.429517 -0.205772,2.751941 0.418079,3.86468 1.49417,2.52459 5.536847,3.667707 10.525635,3.212593 0.738778,-0.05482 1.502089,-0.146092 2.285004,-0.275117 2.176636,-0.365234 3.950634,-0.94254 4.174129,-1.01323 0.410887,-0.129963 0.727675,-0.238783 1.077797,-0.364626 0.06981,-0.0265 2.254507,-0.81785 4.743134,-2.210306 5.89381,-3.297733 10.17707,-7.953909 10.59882,-11.780559 0.0203,-0.226957 0.0269,-0.449213 0.0202,-0.666529 z M 79.384554,72.040327 c 1.07125,1.110454 2.66261,1.736393 3.927512,2.064301 0.2468,0.101933 0.505827,0.195776 0.776587,0.281164 -0.248926,-0.044 -0.491822,-0.09389 -0.728323,-0.149551 -1.74271,-0.417291 -3.1221,-1.159079 -3.975774,-2.195915 z" />
  <path
     id="path162"
     style="fill:#000000;fill-opacity:1;stroke:none;stroke-width:0.415014;stroke-linecap:square;stroke-linejoin:round;stroke-dasharray:none;stroke-opacity:1;paint-order:markers stroke fill"
     d="m 121.27005,83.166729 c 0.23213,-0.02482 0.47644,-0.01109 0.73049,0.01109 0.13178,0.01109 0.27982,0.08739 0.44292,0.198772 0.0353,0.01109 0.0747,0.0521 0.12433,0.08739 0.0111,0.01109 0.0248,0.02481 0.0353,0.03529 0.003,0.0028 0.008,0.01109 0.0111,0.01109 -0.008,-0.0028 -0.0111,-0.01109 -0.0111,-0.01109 -0.0111,-0.01109 -0.0248,-0.02482 -0.0521,-0.03529 -0.0623,-0.0521 -0.11193,-0.07471 -0.16817,-0.08739 -0.2302,-0.124342 -0.43192,-0.179473 -0.611,-0.191329 -0.20291,-0.01109 -0.40935,-0.0028 -0.616,8.3e-5 0.0353,-0.0028 0.0747,-0.02482 0.11193,-0.02482 z m -0.11194,0.02482 c -0.19215,0.02481 -0.38105,0.0521 -0.55852,0.111934 -1.58879,0.523835 -2.98047,1.299431 -4.22647,2.272474 -1.04287,0.806444 -2.00574,1.666317 -2.88839,2.57292 -0.30486,0.187744 -0.58983,0.386791 -0.87862,0.587382 -0.38566,0.43308 -0.75409,0.874815 -1.10377,1.327331 -1.96996,1.91769 -3.63383,4.015434 -4.97657,6.253171 0.4481,-0.615972 0.86864,-1.093822 1.51133,-1.777393 -0.33728,0.700608 -0.63847,1.416765 -0.90355,2.146485 0.48397,-0.843663 1.01674,-1.667144 1.59387,-2.467827 0.80027,-1.199605 1.66439,-2.35507 2.65634,-3.458294 0.21394,-0.165138 0.42961,-0.331268 0.64831,-0.492628 1.33155,-1.349028 2.82314,-2.608484 4.45739,-3.765301 -0.34469,0.299921 -0.67946,0.605991 -1.00301,0.918347 0.0874,-0.06231 0.17699,-0.130673 0.26466,-0.196567 1.6178,-1.204621 2.35188,-1.605721 2.52189,-1.706044 0.0521,-0.03529 0.0992,-0.0623 0.17065,-0.111935 0.0623,-0.02481 0.12435,-0.0623 0.18141,-0.0874 0.92956,-0.450447 1.88959,-0.856233 2.88596,-1.21088 -0.51518,0.240126 -0.97561,0.49897 -1.46856,0.777773 -0.19409,0.111935 -0.38567,0.222757 -0.57471,0.338326 -2.31035,1.397383 -4.42888,2.980029 -6.22086,4.72489 -0.0874,0.07471 -0.1632,0.156867 -0.24398,0.236541 -0.58485,0.757868 -1.11748,1.543884 -1.59982,2.353637 -1.49393,1.677731 -2.76105,3.47966 -3.78474,5.386602 -1.99483,3.641217 -3.03982,7.666457 -3.02576,11.957697 0.0353,0.69564 0.0992,1.39727 0.19767,2.10446 0.42555,3.48807 0.72677,3.82968 0.81882,4.19888 0.0874,0.36948 -0.0623,0.77405 1.56803,4.73041 0.25253,0.61225 0.525,1.22698 0.81758,1.84353 2.64648,5.56648 6.85296,11.24464 12.25456,16.86755 1.99756,2.07933 4.15383,4.14585 6.44819,6.19279 1.49548,1.37243 2.7042,2.40631 3.38392,2.98162 0.86486,0.67567 1.74249,1.34322 2.62549,2.01011 -0.36311,-0.23904 -0.72297,-0.47929 -1.08263,-0.72051 0.30767,0.25528 3.92581,3.27664 5.81405,4.78898 1.05777,0.84745 2.39417,1.88994 3.4521,2.73718 0.32388,0.25722 2.50377,1.83471 2.19305,2.16554 -0.0352,0.0352 -0.40069,-0.0747 -0.60104,-0.11186 -1.38485,-0.75165 -2.74739,-1.51087 -4.08729,-2.27782 0.82132,0.68696 1.65973,1.37184 2.51378,2.0539 -0.71431,-0.42206 -1.43673,-0.84244 -2.1112,-1.26596 -2.49198,-1.56264 -4.67712,-3.0725 -6.75989,-4.5916 -0.13426,-0.0874 -0.26797,-0.16817 -0.40184,-0.2517 0.19766,0.15438 0.3966,0.30874 0.59733,0.46312 0.20208,0.15439 4.14407,3.05908 4.83063,3.55164 0.34469,0.24729 0.66827,0.49035 1.00554,0.73421 -1.2661,-0.73548 -2.51109,-1.47689 -3.73471,-2.22479 -2.79068,-1.94884 -5.42056,-3.92564 -7.88601,-5.919 -1.94893,-1.32829 -3.82907,-2.67139 -5.63538,-4.02662 -8.19954,-6.67943 -14.1288,-13.52237 -17.90243,-20.11579 l -0.0521,-0.0874 c -1.14488,-2.02173 -2.08357,-4.0228 -2.81169,-5.99513 -0.09925,-0.0874 -0.195463,-0.17064 -0.292534,-0.25611 -0.02482,-0.2677 -0.0623,-0.53252 -0.07471,-0.79895 -0.07471,-0.2302 -0.153282,-0.45794 -0.222756,-0.68693 -0.0521,-0.15549 -0.08739,-0.30979 -0.134532,-0.46429 -0.634663,-1.50341 -1.129937,-2.98033 -1.466581,-4.42502 -1.055308,-4.52863 -0.821331,-8.77603 0.412844,-12.63073 0.375819,-1.192107 0.844986,-2.355237 1.401739,-3.483185 1.10513,-2.238868 2.61433,-4.328616 4.35809,-6.250442 1.4606,-1.55108 3.11048,-2.995633 4.94053,-4.316733 0.0353,-0.03529 0.0874,-0.0623 0.1282,-0.08739 1.78864,-0.998077 3.70134,-1.839644 5.77157,-2.475464 -1.59036,0.619747 -3.02535,1.430989 -4.3411,2.391791 -0.30591,0.221378 -0.60732,0.448105 -0.90222,0.677009 -1.96856,1.551439 -3.72287,3.264513 -5.17525,5.120891 -1.79788,2.297726 -3.26319,4.9383 -4.23436,7.900716 -0.19767,0.591097 -0.371768,1.189697 -0.523839,1.795087 0.03529,-0.0992 0.07471,-0.19133 0.111934,-0.28722 0.16624,-0.52157 0.352085,-1.03667 0.555075,-1.546247 1.25314,-3.202813 3.15911,-6.156678 5.62212,-8.786776 -0.65079,0.964413 -1.22698,1.964806 -1.7281,2.9977 -0.39956,0.568967 -0.7778,1.147416 -1.13118,1.736784 0.22275,-0.268796 0.45155,-0.534836 0.68065,-0.800186 0.44289,-0.512864 0.8674,-0.971913 0.93957,-1.049051 1.08266,-1.698794 2.33902,-3.292412 3.85479,-4.75676 -0.41574,0.579911 -0.80143,1.174792 -1.15732,1.784781 -0.34361,0.451551 -0.68321,0.90969 -0.99683,1.37486 0.0623,-0.0521 0.26631,-0.224963 0.43826,-0.366004 0.1122,-0.0874 0.2302,-0.165413 0.34574,-0.248396 1.35259,-1.567952 2.89545,-3.035057 4.616,-4.38356 -0.51747,0.512835 -1.01043,1.040365 -1.47497,1.583556 -0.95945,0.832579 -1.84827,1.705906 -2.67804,2.615458 -0.12434,0.193257 -0.23654,0.385661 -0.34995,0.581151 1.52938,-1.860429 3.32585,-3.583456 5.36451,-5.141125 0.57762,-0.425553 1.16357,-0.841291 1.77262,-1.247492 1.55257,-1.042847 3.19744,-1.842593 5.14973,-2.386802 0.0623,-0.01109 0.1282,-0.03529 0.19133,-0.0521 0.43942,-0.124342 0.89348,-0.155489 1.34448,-0.16431 z m -14.65718,14.661284 c -0.0995,0.15549 -0.18581,0.30767 -0.271,0.45563 -1.10873,1.873687 -1.70422,3.480617 -2.08861,5.028197 -0.0111,0.37064 -0.0111,0.74417 -0.0111,1.11877 0.0623,-0.27348 0.12434,-0.54523 0.19022,-0.81634 0.45274,-1.84893 1.10505,-3.63454 1.95761,-5.345187 0.0747,-0.14804 0.14557,-0.29498 0.22028,-0.44173 z" />
  <path
     id="path163"
     style="fill:#000000;fill-opacity:1;stroke:none;stroke-width:0.576407;stroke-linecap:square;stroke-linejoin:round;stroke-dasharray:none;stroke-opacity:1;paint-order:markers stroke fill"
     d="m 73.737148,35.410061 c -0.385634,0.09953 -0.772811,0.247292 -1.164813,0.440605 -0.202907,0.09953 -0.404766,0.283711 -0.603537,0.556257 -0.0521,0.0521 -0.09925,0.111935 -0.150527,0.207594 -0.01109,0.02482 -0.02482,0.0521 -0.03529,0.07471 -0.0028,0.01109 -0.0083,0.01109 -0.0083,0.02482 0.0083,-0.01109 0.0083,-0.02482 0.01109,-0.02482 0.01109,-0.02481 0.03529,-0.0521 0.0521,-0.08739 0.07471,-0.09953 0.148046,-0.178095 0.221378,-0.2302 0.303451,-0.314698 0.597307,-0.520389 0.877296,-0.640894 0.318614,-0.138125 0.655891,-0.240124 0.988124,-0.353267 -0.0623,0.01109 -0.125437,0.01109 -0.190225,0.02482 z m 0.190224,-0.02481 c 0.320709,-0.07471 0.642107,-0.13289 0.960692,-0.145564 2.833585,-0.124342 5.486648,0.251705 8.012561,1.005546 2.109129,0.620907 4.119865,1.365239 6.026777,2.227924 0.589835,0.111935 1.154859,0.24619 1.728346,0.383317 0.853726,0.431949 1.683025,0.889758 2.489552,1.371 4.198498,1.765648 8.00278,3.978988 11.3674,6.588078 -1.05159,-0.673204 -1.98468,-1.152379 -3.38629,-1.817119 0.91967,0.864862 1.78986,1.773697 2.61053,2.723418 -1.23206,-0.996725 -2.53361,-1.934287 -3.892065,-2.812521 -1.933626,-1.352474 -3.94403,-2.601894 -6.132309,-3.698612 -0.433107,-0.128202 -0.868648,-0.252806 -1.306581,-0.373558 -2.866444,-1.273103 -5.941477,-2.319176 -9.189751,-3.128322 0.715578,0.255288 1.416929,0.525021 2.105987,0.811323 -0.176993,-0.0521 -0.354454,-0.09953 -0.532521,-0.14446 -3.247889,-0.891053 -4.643093,-1.075241 -4.970116,-1.128697 -0.09925,-0.02482 -0.20015,-0.03529 -0.330909,-0.0623 -0.111935,-0.01109 -0.224962,-0.01109 -0.338352,-0.02482 -1.734771,-0.148044 -3.496147,-0.209248 -5.287213,-0.173133 0.956887,0.0623 1.83537,0.193258 2.777646,0.330909 0.370664,0.0521 0.739232,0.112201 1.106338,0.180577 4.463704,0.784031 8.719566,1.958657 12.539039,3.565371 0.172581,0.07471 0.346789,0.143358 0.518625,0.216692 1.347869,0.810111 2.628645,1.690302 3.839856,2.636575 3.304624,1.676519 6.312226,3.670906 8.985876,5.963533 5.16947,4.354779 9.02158,9.834946 11.31722,16.324933 0.31332,1.07276 0.58614,2.170939 0.81885,3.292825 1.20084,5.513002 0.90351,6.201728 0.95451,6.812489 0.0521,0.611036 0.52268,1.131178 0.0353,8.045395 -0.0747,1.070252 -0.1803,2.154535 -0.31613,3.254008 -1.24071,9.927633 -4.92628,20.919802 -10.56009,32.514582 -2.08349,4.2877 -4.42858,8.64739 -7.005996,13.05657 -1.659204,2.93164 -3.041149,5.18747 -3.821431,6.44672 -1.024157,1.51706 -2.071533,3.02933 -3.128909,4.54382 0.452736,-0.5701 0.902246,-1.13992 1.34798,-1.70911 -0.356164,0.56261 -4.532157,7.20321 -6.746269,10.5719 -1.240709,1.88725 -2.822665,4.22934 -4.063072,6.11659 -0.378162,0.57476 -3.028385,4.20877 -2.350659,4.53026 0.07471,0.0352 0.603565,-0.34222 0.904672,-0.51403 1.817312,-1.93004 3.594347,-3.85964 5.330745,-5.78752 -0.94826,1.5098 -1.92315,3.02523 -2.925692,4.54586 0.918401,-1.04788 1.850973,-2.09828 2.705167,-3.1243 3.156279,-3.79133 5.848378,-7.32655 8.371517,-10.8171 0.170651,-0.204 0.340116,-0.40704 0.508838,-0.61105 -0.234059,0.34574 -0.470104,0.69316 -0.70932,1.04165 -0.240125,0.34997 -5.000201,7.00007 -5.8362,8.13848 -0.419211,0.5713 -0.807657,1.12376 -1.217082,1.68624 1.635358,-1.8373 3.233085,-3.67256 4.793454,-5.50487 3.427233,-4.54613 6.581167,-9.04189 9.462167,-13.46838 2.41236,-3.12581 4.70488,-6.23404 6.87242,-9.31828 9.55449,-14.79696 15.37626,-28.53772 17.87227,-40.663995 l 0.0353,-0.154385 c 0.7442,-3.710467 1.17102,-7.272337 1.27396,-10.669621 0.11193,-0.185814 0.22138,-0.369505 0.33129,-0.553969 -0.0995,-0.419157 -0.19325,-0.837515 -0.3024,-1.252315 -0.002,-0.390845 -0.002,-0.7802 -0.0111,-1.16597 -0.008,-0.261354 -0.0248,-0.519233 -0.0353,-0.777801 0.20649,-2.635253 0.20401,-5.150609 -0.0353,-7.526163 -0.75293,-7.446379 -3.42309,-13.727698 -7.48693,-18.841751 -1.24782,-1.585788 -2.62869,-3.072247 -4.13194,-4.456591 -2.9837,-2.747264 -6.53537,-5.0373 -10.37298,-6.939138 -3.18274,-1.504268 -6.611702,-2.738774 -10.263281,-3.683807 -0.0874,-0.02481 -0.170651,-0.0521 -0.256116,-0.0623 -3.410276,-0.480442 -6.935701,-0.653354 -10.602691,-0.425553 2.887783,0.02481 5.629783,0.42445 8.261149,1.121254 0.611009,0.159072 1.215823,0.327407 1.814619,0.504179 3.998285,1.213388 7.73999,2.793442 11.07458,4.763652 4.12733,2.438632 7.90631,5.585812 11.06573,9.502962 0.63588,0.780254 1.23941,1.584024 1.81003,2.41109 -0.11193,-0.124342 -0.22138,-0.248395 -0.33479,-0.370636 -0.54986,-0.691923 -1.12622,-1.364659 -1.72554,-2.01727 -3.74203,-4.118485 -8.39756,-7.485966 -13.77227,-10.044496 1.56514,1.08263 3.03136,2.263267 4.39362,3.535901 0.94704,0.629729 1.86804,1.287053 2.75507,1.973461 -0.50129,-0.277342 -1.01421,-0.54986 -1.52517,-0.818822 -0.9881,-0.52039 -1.91794,-0.969431 -2.07538,-1.045329 -2.65552,-1.944432 -5.53354,-3.630213 -8.758026,-4.971797 0.980653,0.637116 1.922295,1.315008 2.822666,2.031164 0.79393,0.483944 1.58753,0.981865 2.3438,1.50413 -0.12821,-0.0521 -0.54987,-0.187744 -0.89974,-0.301328 -0.2291,-0.0623 -0.45908,-0.111934 -0.68942,-0.176993 -3.018375,-1.591908 -6.287822,-2.921996 -9.778408,-3.971019 1.108848,0.476418 2.183656,0.991763 3.223417,1.545042 1.990609,0.706866 3.888644,1.515516 5.712101,2.413021 0.29606,0.221378 0.58741,0.446946 0.87485,0.676953 -3.460284,-1.932081 -7.274988,-3.503369 -11.389402,-4.685687 -1.157314,-0.311198 -2.323615,-0.603565 -3.519386,-0.866132 -3.05612,-0.684479 -6.128532,-0.947045 -9.556611,-0.648337 -0.111935,0.01109 -0.224963,0.02481 -0.334796,0.02481 -0.770357,0.07471 -1.517694,0.27737 -2.246973,0.523863 z M 105.37781,49.11565 c 0.23654,0.1803 0.46313,0.357321 0.68197,0.531335 2.79226,2.193462 4.6161,4.279019 6.06934,6.395949 0.21917,0.553915 0.42558,1.114997 0.61854,1.685203 -0.24289,-0.379265 -0.49147,-0.752851 -0.74789,-1.122438 -1.72554,-2.532973 -3.73809,-4.855347 -6.0305,-6.949974 -0.19574,-0.181404 -0.392,-0.36198 -0.59234,-0.540048 z" />
  <path
     id="path164"
     style="fill:#000000;fill-opacity:1;stroke:none;stroke-width:0.480339;stroke-linecap:square;stroke-linejoin:round;stroke-dasharray:none;paint-order:markers stroke fill"
     d="m 141.79705,49.786619 c 0.008,0.688201 -0.0112,1.379381 -0.0521,2.072103 -0.22276,4.121767 -1.21458,8.305674 -3.07506,12.357498 -0.66204,1.42236 -1.41804,2.81638 -2.26277,4.175884 -1.07519,1.730608 -2.2931,3.403515 -3.63959,5.00375 -0.68442,0.773995 -1.39231,1.532664 -2.1223,2.27457 -0.43827,0.519231 -0.88982,1.030386 -1.36069,1.530429 0.13178,-0.190225 0.26245,-0.382187 0.39087,-0.573597 -0.67321,0.638413 -1.38749,1.244459 -2.12796,1.823901 -0.64713,0.508811 -1.31766,1.000501 -2.00227,1.479594 -0.86247,0.602352 -1.74925,1.183504 -2.68295,1.708553 -0.11193,0.06231 -0.2302,0.130672 -0.34326,0.196566 -0.25032,0.14446 -0.50418,0.287239 -0.77524,0.414553 -0.271,0.127374 -0.55741,0.261629 -0.85992,0.344693 -0.177,0.0521 -0.35961,0.07471 -0.54987,0.07471 -0.0623,1.93e-4 -0.11193,-0.0028 -0.17065,-0.0083 -0.008,-9.92e-4 -0.0111,-0.0028 -0.0111,-0.0028 -0.0747,-0.01109 -0.0995,-0.08739 -0.13288,-0.163208 -0.008,-0.02481 -0.0111,-0.0521 -0.0353,-0.0623 0.0248,-0.02482 0.0521,-0.0521 0.0747,-0.0623 0.11193,-0.09953 0.21283,-0.209246 0.31329,-0.312244 0.392,-0.397239 0.75913,-0.796437 1.11009,-1.192215 0.0248,-0.03529 0.0623,-0.06231 0.0874,-0.09925 -0.0521,0.02482 -0.0874,0.0521 -0.12544,0.0623 -0.49665,0.259974 -1.00301,0.516337 -1.51893,0.762831 -0.13427,0.0623 -0.271,0.128202 -0.41166,0.192154 -0.0353,0.01109 -0.0747,0.03529 -0.0995,0.0521 0.0248,-0.02482 0.0623,-0.0521 0.0874,-0.07471 0.1122,-0.09925 0.22027,-0.186641 0.326,-0.279824 0.19022,-0.166241 0.37695,-0.333748 0.56775,-0.494392 0.21669,-0.181404 0.43079,-0.364819 0.64213,-0.54523 0.94581,-0.80763 1.87863,-1.619037 2.77663,-2.448887 0.0521,-0.0623 0.0874,-0.124342 0.13591,-0.182782 -0.11194,0.09953 -0.23654,0.195738 -0.35732,0.293581 h -6.4e-4 c -0.42789,0.351007 -0.85868,0.699394 -1.29835,1.039153 -0.48282,0.37353 -0.96943,0.741657 -1.47477,1.09385 -0.0248,0.02482 -0.0521,0.03529 -0.0874,0.06231 -0.21145,0.145562 -0.43423,0.28087 -0.65335,0.420893 0.20015,-0.20649 0.3955,-0.413395 0.58741,-0.620989 0.28087,-0.303423 0.55507,-0.611035 0.82384,-0.918373 1.08886,-0.908422 2.13179,-1.851499 3.13011,-2.819689 0.34362,-0.332344 0.68073,-0.668271 1.01296,-1.006732 0.61228,-0.959508 1.17601,-1.927258 1.69246,-2.899308 2.1641,-3.179684 3.98582,-6.45142 5.25774,-9.76018 0.59984,-1.552595 1.07025,-3.119472 1.4056,-4.68894 0.31754,-1.487865 0.51,-2.978459 0.60111,-4.460229 -0.0747,-0.03529 -0.13564,-0.07471 -0.20511,-0.124342 0.0874,-0.22386 0.16183,-0.449289 0.24288,-0.674472 0.008,-0.172581 0.008,-0.345742 0.008,-0.517495 0.003,-0.124342 0.008,-0.236542 0.008,-0.353295 -0.19877,-1.057818 -0.4406,-2.09551 -0.68947,-3.119446 -0.38682,-1.597395 -0.86486,-3.158758 -1.43184,-4.666196 -0.90718,-2.483982 -2.03949,-4.865382 -3.38226,-7.171351 -1.01922,-1.749935 -2.10216,-3.497029 -3.35811,-5.167399 -0.99681,-1.422747 -2.08512,-2.814837 -3.24392,-4.17649 -0.65084,-1.378306 -1.36816,-2.751319 -2.13959,-4.114021 1.16357,1.123735 2.28772,2.273881 3.35866,3.451982 1.38875,1.477416 2.67255,3.017798 3.89198,4.578692 1.91209,2.447399 3.61968,4.994901 4.98373,7.697255 -0.0248,-0.0874 -0.0521,-0.166239 -0.0747,-0.251703 -1.31611,-3.097087 -3.02077,-6.07571 -5.02158,-8.939646 0.7964,0.671963 1.57233,1.363749 2.32438,2.076706 0.32598,0.50305 0.63839,1.01175 0.93952,1.52354 -0.0874,-0.287213 -0.18581,-0.573544 -0.28721,-0.858633 -0.13619,-0.378162 -0.27632,-0.7566 -0.42674,-1.132446 -1.07891,-1.398872 -2.26302,-2.732047 -3.43436,-4.076416 0.57585,0.359636 1.14609,0.726743 1.71004,1.103803 0.36832,0.354424 0.71682,0.721807 1.0678,1.088887 -0.0521,-0.154385 -0.0993,-0.307669 -0.15329,-0.460235 -0.0248,-0.124342 -0.0521,-0.23654 -0.0747,-0.354425 -1.07893,-1.456381 -2.24306,-2.871077 -3.47847,-4.241388 0.54117,0.387949 1.07772,0.783976 1.60756,1.187171 0.66951,0.854911 1.32152,1.718478 1.9397,2.598117 0.16816,0.13289 0.33482,0.267971 0.49899,0.403002 -1.28413,-1.707863 -2.68204,-3.356261 -4.17613,-4.940727 -1.3986,-1.593123 -3.02841,-3.031556 -4.41513,-4.631433 -0.45676,-0.526151 -0.85618,-1.09134 -1.2677,-1.648479 2.70649,1.61912 5.36207,3.361471 7.89509,5.262786 0.13178,0.268796 0.28865,0.524967 0.43308,0.787698 0.44811,0.330578 0.89227,0.668242 1.33183,1.009213 1.57746,1.926183 3.01016,3.941191 4.2582,6.043427 -0.28862,-0.658316 -0.53252,-1.338579 -0.79644,-2.013547 0.55102,0.525021 1.0914,1.060298 1.61888,1.607843 -0.47932,-0.795168 -0.97936,-1.579916 -1.50303,-2.351982 -0.82632,-1.092638 -1.73794,-2.129641 -2.6647,-3.153466 -0.0995,-0.217794 -0.20208,-0.435366 -0.3059,-0.653298 -1.13992,-1.329564 -2.33646,-2.619539 -3.58787,-3.862619 0.36317,0.242881 0.72305,0.487996 1.08271,0.735481 -0.0747,-0.07471 -0.13067,-0.14446 -0.19656,-0.216691 -0.60729,-0.645938 -1.25389,-1.263481 -1.84552,-1.916312 -0.0353,-0.03529 -0.0874,-0.0874 -0.12709,-0.124342 -0.46776,-0.761535 -0.9508,-1.51695 -1.44643,-2.264121 0.37813,0.304856 0.77526,0.597335 1.1287,0.92342 1.87424,1.732481 3.58924,3.602423 5.25214,5.513883 0.0747,0.07471 0.13591,0.16183 0.20401,0.240952 0.76159,0.584929 1.51152,1.184745 2.24786,1.801211 3.51974,5.15469 6.30459,10.728454 7.74139,16.785802 0.0354,0.111935 0.0747,0.227719 0.0992,0.341139 0.14805,0.516309 0.28091,1.036643 0.40301,1.560672 0.43424,1.990224 0.65834,4.032031 0.6795,6.097297 z m -3.65657,-12.258636 c -0.0874,-0.251703 -0.18663,-0.503048 -0.28262,-0.752877 -0.7305,-1.84251 -1.60325,-3.628147 -2.58671,-5.360795 0.77656,1.755007 1.5157,3.525645 2.24821,5.291238 0.21035,0.271002 0.4169,0.545258 0.62099,0.822545 z" />
  <text
     xml:space="preserve"
     style="font-style:italic;font-variant:normal;font-weight:normal;font-stretch:normal;font-size:56.3363px;font-family:Calibri;-inkscape-font-specification:'Calibri, Italic';font-variant-ligatures:normal;font-variant-caps:normal;font-variant-numeric:normal;font-variant-east-asian:normal;fill:#000000;fill-opacity:1;stroke:#000000;stroke-width:0.691157;stroke-linecap:square;stroke-linejoin:round;stroke-dasharray:none;stroke-opacity:1;paint-order:markers stroke fill"
     x="47.902351"
     y="228.35248"
     id="text166"><tspan
       id="tspan166"
       style="font-style:italic;font-variant:normal;font-weight:normal;font-stretch:normal;font-size:56.3363px;font-family:Calibri;-inkscape-font-specification:'Calibri, Italic';font-variant-ligatures:normal;font-variant-caps:normal;font-variant-numeric:normal;font-variant-east-asian:normal;stroke:#000000;stroke-width:0.691157;stroke-dasharray:none;stroke-opacity:1"
       x="47.902351"
       y="228.35248">Leiko</tspan></text>
</svg>
