<?xml version="1.0" encoding="UTF-8" standalone="no"?>
<svg
   viewBox="0 0 50 50"
   version="1.1"
   id="svg1"
   sodipodi:docname="eye-solid.svg"
   inkscape:version="1.3.2 (091e20e, 2023-11-25, custom)"
   width="50"
   height="50"
   xmlns:inkscape="http://www.inkscape.org/namespaces/inkscape"
   xmlns:sodipodi="http://sodipodi.sourceforge.net/DTD/sodipodi-0.dtd"
   xmlns="http://www.w3.org/2000/svg"
   xmlns:svg="http://www.w3.org/2000/svg">
  <defs
     id="defs1" />
  <sodipodi:namedview
     id="namedview1"
     pagecolor="#ffffff"
     bordercolor="#000000"
     borderopacity="0.25"
     inkscape:showpageshadow="2"
     inkscape:pageopacity="0.0"
     inkscape:pagecheckerboard="0"
     inkscape:deskcolor="#d1d1d1"
     inkscape:zoom="8.2974563"
     inkscape:cx="32.299055"
     inkscape:cy="29.7079"
     inkscape:window-width="1920"
     inkscape:window-height="974"
     inkscape:window-x="-11"
     inkscape:window-y="-11"
     inkscape:window-maximized="1"
     inkscape:current-layer="svg1" />
  <!--!Font Awesome Free 6.5.2 by @fontawesome - https://fontawesome.com License - https://fontawesome.com/license/free Copyright 2024 Fonticons, Inc.-->
  <path
     d="m 24.995655,5.557246 c -7.013272,0 -12.629108,3.194164 -16.7172987,6.995918 -4.0621453,3.767036 -6.7789179,8.280527 -8.063536,11.379218 -0.2864272,0.685709 -0.2864272,1.449527 0,2.135236 1.2846181,3.098682 4.0013907,7.612181 8.063536,11.379218 4.0881907,3.801754 9.7040267,6.995918 16.7172987,6.995918 7.013282,0 12.629118,-3.194164 16.7173,-6.995918 4.062145,-3.775718 6.778927,-8.280536 8.072218,-11.379218 0.286436,-0.685709 0.286436,-1.449527 0,-2.135236 C 48.491882,20.833691 45.7751,16.3202 41.712955,12.553164 37.624773,8.75141 32.008937,5.557246 24.995655,5.557246 Z M 12.496747,25 a 12.498915,12.498915 0 1 1 24.997826,0 12.498915,12.498915 0 1 1 -24.997826,0 z m 12.498908,-5.555073 c 0,3.063964 -2.4911,5.555073 -5.555072,5.555073 -0.616264,0 -1.206491,-0.104164 -1.762,-0.286437 -0.477382,-0.156236 -1.032891,0.138882 -1.015536,0.642309 0.026,0.5989 0.112836,1.19781 0.277754,1.796719 1.189136,4.444054 5.763391,7.082717 10.207445,5.893581 4.444064,-1.189127 7.082718,-5.763391 5.893591,-10.207445 -0.963464,-3.602118 -4.148945,-6.023781 -7.690309,-6.171336 -0.503427,-0.01736 -0.798536,0.529464 -0.6423,1.015536 0.182273,0.555509 0.286427,1.145728 0.286427,1.762 z"
     id="path1"
     style="stroke-width:0.086798" />
</svg>
