<?xml version="1.0" encoding="UTF-8" standalone="no"?>
<svg
   viewBox="0 0 50 50"
   version="1.1"
   id="svg1"
   sodipodi:docname="instagram.svg"
   inkscape:version="1.3.2 (091e20e, 2023-11-25, custom)"
   width="50"
   height="50"
   xmlns:inkscape="http://www.inkscape.org/namespaces/inkscape"
   xmlns:sodipodi="http://sodipodi.sourceforge.net/DTD/sodipodi-0.dtd"
   xmlns="http://www.w3.org/2000/svg"
   xmlns:svg="http://www.w3.org/2000/svg">
  <defs
     id="defs1" />
  <sodipodi:namedview
     id="namedview1"
     pagecolor="#ffffff"
     bordercolor="#000000"
     borderopacity="0.25"
     inkscape:showpageshadow="2"
     inkscape:pageopacity="0.0"
     inkscape:pagecheckerboard="0"
     inkscape:deskcolor="#d1d1d1"
     showgrid="false"
     inkscape:zoom="1.4667969"
     inkscape:cx="224.29827"
     inkscape:cy="256"
     inkscape:window-width="1920"
     inkscape:window-height="974"
     inkscape:window-x="-11"
     inkscape:window-y="-11"
     inkscape:window-maximized="1"
     inkscape:current-layer="svg1" />
  <!--!Font Awesome Free 6.5.2 by @fontawesome - https://fontawesome.com License - https://fontawesome.com/license/free Copyright 2024 Fonticons, Inc.-->
  <path
     d="m 25.00558,12.183495 c -7.09426,0 -12.81651,5.72225 -12.81651,12.81651 0,7.09425 5.72225,12.8165 12.81651,12.8165 7.09425,0 12.81651,-5.72225 12.81651,-12.8165 0,-7.09426 -5.72226,-12.81651 -12.81651,-12.81651 z m 0,21.14891 c -4.5845,0 -8.33241,-3.73675 -8.33241,-8.3324 0,-4.59565 3.73676,-8.33241 8.33241,-8.33241 4.59565,0 8.3324,3.73676 8.3324,8.33241 0,4.59565 -3.74791,8.3324 -8.3324,8.3324 z m 16.33017,-21.67317 c 0,1.66201 -1.33854,2.9894 -2.9894,2.9894 -1.66202,0 -2.98941,-1.33854 -2.98941,-2.9894 0,-1.65087 1.33854,-2.98941 2.98941,-2.98941 1.65086,0 2.9894,1.33854 2.9894,2.98941 z m 8.48857,3.03402 c -0.18963,-4.00447 -1.1043,-7.55159 -4.03793,-10.47407 -2.92247,-2.92248 -6.4696,-3.83714 -10.47406,-4.03792 -4.12716,-0.23425 -16.49749,-0.23425 -20.62466,0 -3.9933,0.18962 -7.54043,1.10429 -10.47406,4.02677 -2.93363,2.92247 -3.83714,6.4696 -4.03793,10.47406 -0.23424,4.12716 -0.23424,16.49749 0,20.62465 0.18963,4.00447 1.1043,7.55159 4.03793,10.47407 2.93363,2.92248 6.4696,3.83714 10.47406,4.03792 4.12717,0.23425 16.4975,0.23425 20.62466,0 4.00446,-0.18962 7.55159,-1.10429 10.47406,-4.03792 2.92248,-2.92248 3.83715,-6.4696 4.03793,-10.47407 0.23424,-4.12716 0.23424,-16.48633 0,-20.61349 z m -5.33185,25.04183 c -0.87005,2.18628 -2.55438,3.8706 -4.75181,4.75181 -3.29058,1.30507 -11.09872,1.0039 -14.73508,1.0039 -3.63637,0 -11.45566,0.29002 -14.73508,-1.0039 -2.18628,-0.87005 -3.87061,-2.55438 -4.75182,-4.75181 -1.30507,-3.29058 -1.0039,-11.09872 -1.0039,-14.73508 0,-3.63637 -0.29002,-11.45567 1.0039,-14.73509 0.87005,-2.18628 2.55438,-3.8706 4.75182,-4.75181 3.29057,-1.30507 11.09871,-1.0039 14.73508,-1.0039 3.63636,0 11.45566,-0.29002 14.73508,1.0039 2.18628,0.87005 3.87061,2.55438 4.75181,4.75181 1.30508,3.29058 1.00391,11.09872 1.00391,14.73509 0,3.63636 0.30117,11.45566 -1.00391,14.73508 z"
     id="path1"
     style="stroke-width:0.111545" />
</svg>
