<?xml version="1.0" encoding="UTF-8" standalone="no"?>
<!-- Created with Inkscape (http://www.inkscape.org/) -->

<svg
   width="80"
   height="113.14285"
   viewBox="0 0 21.166666 29.935713"
   version="1.1"
   id="svg1"
   inkscape:version="1.3.2 (091e20e, 2023-11-25, custom)"
   sodipodi:docname="logo9.svg"
   xmlns:inkscape="http://www.inkscape.org/namespaces/inkscape"
   xmlns:sodipodi="http://sodipodi.sourceforge.net/DTD/sodipodi-0.dtd"
   xmlns="http://www.w3.org/2000/svg"
   xmlns:svg="http://www.w3.org/2000/svg">
  <sodipodi:namedview
     id="namedview1"
     pagecolor="#ffffff"
     bordercolor="#000000"
     borderopacity="0.25"
     inkscape:showpageshadow="2"
     inkscape:pageopacity="0.0"
     inkscape:pagecheckerboard="0"
     inkscape:deskcolor="#d1d1d1"
     inkscape:document-units="px"
     inkscape:zoom="7.4482708"
     inkscape:cx="44.775493"
     inkscape:cy="58.201428"
     inkscape:window-width="1920"
     inkscape:window-height="974"
     inkscape:window-x="-11"
     inkscape:window-y="-11"
     inkscape:window-maximized="1"
     inkscape:current-layer="layer1"
     showguides="false">
    <sodipodi:guide
       position="24.53316,172.01082"
       orientation="1,0"
       id="guide8"
       inkscape:locked="false" />
    <sodipodi:guide
       position="181.22832,162.58177"
       orientation="1,0"
       id="guide9"
       inkscape:locked="false" />
  </sodipodi:namedview>
  <defs
     id="defs1">
    <inkscape:path-effect
       effect="skeletal"
       id="path-effect12"
       is_visible="true"
       lpeversion="1"
       pattern="m 40.498535,0.01061089 c -3.961381,-0.01709 -7.92299,-0.01465 -11.884546,0.0155 -3.160036,0.08962 -4.229923,0.11578 -5.839438,0.155029 -1.289505,-0.05302 -2.578925,-0.106479 -3.869014,-0.142626 L 20.233104,0.2488369 C 17.82176,0.3307769 15.618491,0.46956991 10.540673,0.92528091 8.6419669,1.0956809 6.743232,1.2724719 4.8510978,1.5211099 4.288372,1.5950599 1.0636619,1.8107529 0.04002193,2.795451 c -0.111038,0.1068109 0.04197,0.329053 0.06305,0.4935101 L 4.4087518,4.0713419 0.07361593,4.7121299 C 0.88980494,4.7948199 1.7037119,4.9024569 2.5220459,4.9601771 5.6332398,5.17959 8.4204069,5.2642349 11.419177,5.34465 l 0.45682,0.0832 c -0.302306,0.0068 -0.604601,0.014049 -0.906922,0.020151 -0.303974,0.0061 -6.0326792,0.09624 -7.0192091,0.1266078 -0.495091,0.01524 -0.989475,0.05109 -1.484148,0.07648 l 4.148068,0.6568069 c 3.7845831,0.09254 7.5696881,0.165254 11.3548621,0.2268601 l 7.077088,1.2857089 c 12.130159,1.2056811 24.297664,1.8145741 36.46134,2.3636803 3.688295,0.166502 7.37697,0.333811 11.065992,0.476974 l 0.298175,0.31936 c 0.560144,-0.08516 1.120365,-0.158891 1.680517,-0.242362 0.431694,0.01512 0.863282,0.03625 1.295011,0.05013 0.294695,0.0095 0.589473,0.013 0.884184,0.0217 2.667942,0.392843 5.340311,0.757418 8.02277,1.046448 11.046151,1.190199 21.966305,1.81671 33.069295,2.20555 5.19615,0.18198 10.39662,0.206629 15.59491,0.310059 l 13.01936,0.0031 11.15954,-1.755448 c -3.78163,-0.0821 -7.56344,-0.164397 -11.34505,-0.246497 -4.80265,-0.15434 -9.60669,-0.269041 -14.4079,-0.463021 -7.03183,-0.284103 -14.86331,-0.694322 -22.55987,-1.129646 0.22045,-0.0091 0.44102,-0.01564 0.66145,-0.02532 8.4202,0.117941 16.84192,0.112365 25.26254,0.04599 l -7.05694,-1.1177605 c -1.4412,-0.010329 -2.8824,-0.017118 -4.32376,-0.025321 0.72862,-0.09303 1.45737,-0.1874911 2.18644,-0.2749182 1.91207,-0.2292908 2.18534,-0.260386 2.90988,-0.343648 4.16237,0.225398 8.32307,0.4918512 12.48969,0.617533 l -4.28604,-1.0092409 c -1.15861,-0.124731 -2.31929,-0.225153 -3.47886,-0.3389969 0.4681,-0.08689 0.39195,-0.06765 1.13636,-0.2036051 0.27667,-0.06847 0.55326,-0.137206 0.82993,-0.205673 4.23642,0.03638 8.47246,0.0757 12.70877,0.1266081 l -4.31652,-0.6836801 c -2.50898,0.03555 -5.01816,0.05537 -7.52719,0.08372 l -1.39061,-0.2470128 c 4.95778,0.07941 9.91562,0.1586708 14.87298,0.257865 4.85324,-0.01506 9.71382,0.2353379 14.56398,-0.05633 1.8388,-0.110577 3.00083,-0.281796 4.76973,-0.5048789 L 149.20043,3.9891769 c -0.67471,0.1154192 -1.3538,0.1891742 -2.0314,0.2775021 l -3.52381,-0.555521 c -5.57158,-0.015229 -11.14325,3.704e-4 -16.71476,0.04444 1.81091,-0.1548271 2.77181,-0.3065341 4.91806,-0.604614 L 126.9563,2.4269969 c 2.08775,-0.0069 4.17545,-0.01822 6.26319,-0.02532 3.04066,0.09188 6.07897,0.2571132 9.11831,0.3855062 l 1.61024,-0.2521812 c 3.87079,0.06408 7.74168,0.1246592 11.61221,0.2015381 l -2.70939,-0.428398 c 0.21479,-0.0015 0.4296,-0.0016 0.6444,-0.0031 3.9376,0.02136 5.47937,0.01912 5.84977,0.0078 0.25899,0.0046 0.0848,0.0026 0.38138,0.0078 l 5.9712,-0.9250074 c -1.04435,-0.05615 -2.08742,-0.150448 -3.13313,-0.168466 -5.53943,-0.09545 -11.08043,-0.04809 -16.62018,-0.117822 -0.23082,-0.0013 -0.46164,-0.0013 -0.69246,-0.0026 l -5.95313,-0.94154231 c -13.72199,0.452179 -27.44923,0.696512 -41.177846,0.79788401 -1.428589,-0.04764 -2.857439,-0.0955 -4.286038,-0.14314401 C 79.675971,0.46021091 91.485834,0.72822189 76.149078,0.48146189 64.266199,0.2901919 52.382679,0.06187889 40.498535,0.01061089 Z M 124.11049,2.4383699 c -5.72457,0.386416 -9.02525,0.474011 -13.06484,0.4666382 l -2.22673,-0.3958412 c 0.60719,-0.0058 1.2144,-0.01194 1.82159,-0.0186 4.49005,-0.02429 8.97994,-0.03684 13.46998,-0.05219 z"
       copytype="single_stretched"
       prop_scale="1"
       scale_y_rel="false"
       spacing="0"
       normal_offset="0"
       tang_offset="0"
       prop_units="false"
       vertical_pattern="false"
       hide_knot="false"
       fuse_tolerance="0" />
    <inkscape:path-effect
       effect="skeletal"
       id="path-effect10"
       is_visible="true"
       lpeversion="1"
       pattern="m 40.498535,0.01061089 c -3.961381,-0.01709 -7.92299,-0.01465 -11.884546,0.0155 -3.160036,0.08962 -4.229923,0.11578 -5.839438,0.155029 -1.289505,-0.05302 -2.578925,-0.106479 -3.869014,-0.142626 L 20.233104,0.2488369 C 17.82176,0.3307769 15.618491,0.46956991 10.540673,0.92528091 8.6419669,1.0956809 6.743232,1.2724719 4.8510978,1.5211099 4.288372,1.5950599 1.0636619,1.8107529 0.04002193,2.795451 c -0.111038,0.1068109 0.04197,0.329053 0.06305,0.4935101 L 4.4087518,4.0713419 0.07361593,4.7121299 C 0.88980494,4.7948199 1.7037119,4.9024569 2.5220459,4.9601771 5.6332398,5.17959 8.4204069,5.2642349 11.419177,5.34465 l 0.45682,0.0832 c -0.302306,0.0068 -0.604601,0.014049 -0.906922,0.020151 -0.303974,0.0061 -6.0326792,0.09624 -7.0192091,0.1266078 -0.495091,0.01524 -0.989475,0.05109 -1.484148,0.07648 l 4.148068,0.6568069 c 3.7845831,0.09254 7.5696881,0.165254 11.3548621,0.2268601 l 7.077088,1.2857089 c 12.130159,1.2056811 24.297664,1.8145741 36.46134,2.3636803 3.688295,0.166502 7.37697,0.333811 11.065992,0.476974 l 0.298175,0.31936 c 0.560144,-0.08516 1.120365,-0.158891 1.680517,-0.242362 0.431694,0.01512 0.863282,0.03625 1.295011,0.05013 0.294695,0.0095 0.589473,0.013 0.884184,0.0217 2.667942,0.392843 5.340311,0.757418 8.02277,1.046448 11.046151,1.190199 21.966305,1.81671 33.069295,2.20555 5.19615,0.18198 10.39662,0.206629 15.59491,0.310059 l 13.01936,0.0031 11.15954,-1.755448 c -3.78163,-0.0821 -7.56344,-0.164397 -11.34505,-0.246497 -4.80265,-0.15434 -9.60669,-0.269041 -14.4079,-0.463021 -7.03183,-0.284103 -14.86331,-0.694322 -22.55987,-1.129646 0.22045,-0.0091 0.44102,-0.01564 0.66145,-0.02532 8.4202,0.117941 16.84192,0.112365 25.26254,0.04599 l -7.05694,-1.1177605 c -1.4412,-0.010329 -2.8824,-0.017118 -4.32376,-0.025321 0.72862,-0.09303 1.45737,-0.1874911 2.18644,-0.2749182 1.91207,-0.2292908 2.18534,-0.260386 2.90988,-0.343648 4.16237,0.225398 8.32307,0.4918512 12.48969,0.617533 l -4.28604,-1.0092409 c -1.15861,-0.124731 -2.31929,-0.225153 -3.47886,-0.3389969 0.4681,-0.08689 0.39195,-0.06765 1.13636,-0.2036051 0.27667,-0.06847 0.55326,-0.137206 0.82993,-0.205673 4.23642,0.03638 8.47246,0.0757 12.70877,0.1266081 l -4.31652,-0.6836801 c -2.50898,0.03555 -5.01816,0.05537 -7.52719,0.08372 l -1.39061,-0.2470128 c 4.95778,0.07941 9.91562,0.1586708 14.87298,0.257865 4.85324,-0.01506 9.71382,0.2353379 14.56398,-0.05633 1.8388,-0.110577 3.00083,-0.281796 4.76973,-0.5048789 L 149.20043,3.9891769 c -0.67471,0.1154192 -1.3538,0.1891742 -2.0314,0.2775021 l -3.52381,-0.555521 c -5.57158,-0.015229 -11.14325,3.704e-4 -16.71476,0.04444 1.81091,-0.1548271 2.77181,-0.3065341 4.91806,-0.604614 L 126.9563,2.4269969 c 2.08775,-0.0069 4.17545,-0.01822 6.26319,-0.02532 3.04066,0.09188 6.07897,0.2571132 9.11831,0.3855062 l 1.61024,-0.2521812 c 3.87079,0.06408 7.74168,0.1246592 11.61221,0.2015381 l -2.70939,-0.428398 c 0.21479,-0.0015 0.4296,-0.0016 0.6444,-0.0031 3.9376,0.02136 5.47937,0.01912 5.84977,0.0078 0.25899,0.0046 0.0848,0.0026 0.38138,0.0078 l 5.9712,-0.9250074 c -1.04435,-0.05615 -2.08742,-0.150448 -3.13313,-0.168466 -5.53943,-0.09545 -11.08043,-0.04809 -16.62018,-0.117822 -0.23082,-0.0013 -0.46164,-0.0013 -0.69246,-0.0026 l -5.95313,-0.94154231 c -13.72199,0.452179 -27.44923,0.696512 -41.177846,0.79788401 -1.428589,-0.04764 -2.857439,-0.0955 -4.286038,-0.14314401 C 79.675971,0.46021091 91.485834,0.72822189 76.149078,0.48146189 64.266199,0.2901919 52.382679,0.06187889 40.498535,0.01061089 Z M 124.11049,2.4383699 c -5.72457,0.386416 -9.02525,0.474011 -13.06484,0.4666382 l -2.22673,-0.3958412 c 0.60719,-0.0058 1.2144,-0.01194 1.82159,-0.0186 4.49005,-0.02429 8.97994,-0.03684 13.46998,-0.05219 z"
       copytype="single_stretched"
       prop_scale="1"
       scale_y_rel="false"
       spacing="0"
       normal_offset="0"
       tang_offset="0"
       prop_units="false"
       vertical_pattern="false"
       hide_knot="false"
       fuse_tolerance="0" />
    <inkscape:path-effect
       effect="skeletal"
       id="path-effect7"
       is_visible="true"
       lpeversion="1"
       pattern="#path24"
       copytype="single_stretched"
       prop_scale="1"
       scale_y_rel="false"
       spacing="0"
       normal_offset="0"
       tang_offset="0"
       prop_units="false"
       vertical_pattern="false"
       hide_knot="false"
       fuse_tolerance="0" />
    <inkscape:path-effect
       effect="skeletal"
       id="path-effect5"
       is_visible="true"
       lpeversion="1"
       pattern="#path24"
       copytype="single_stretched"
       prop_scale="1"
       scale_y_rel="false"
       spacing="0"
       normal_offset="0"
       tang_offset="0"
       prop_units="false"
       vertical_pattern="false"
       hide_knot="false"
       fuse_tolerance="0" />
    <inkscape:path-effect
       effect="skeletal"
       id="path-effect3"
       is_visible="true"
       lpeversion="1"
       pattern="#path24"
       copytype="single_stretched"
       prop_scale="1"
       scale_y_rel="false"
       spacing="0"
       normal_offset="0"
       tang_offset="0"
       prop_units="false"
       vertical_pattern="false"
       hide_knot="false"
       fuse_tolerance="0" />
    <inkscape:path-effect
       effect="skeletal"
       id="path-effect2"
       is_visible="true"
       lpeversion="1"
       pattern="M 0,0 H 1"
       copytype="single_stretched"
       prop_scale="1"
       scale_y_rel="false"
       spacing="0"
       normal_offset="0"
       tang_offset="0"
       prop_units="false"
       vertical_pattern="false"
       hide_knot="false"
       fuse_tolerance="0" />
    <inkscape:path-effect
       effect="skeletal"
       id="path-effect55"
       is_visible="true"
       lpeversion="1"
       pattern="#path24"
       copytype="single_stretched"
       prop_scale="1"
       scale_y_rel="false"
       spacing="0"
       normal_offset="0"
       tang_offset="0"
       prop_units="false"
       vertical_pattern="false"
       hide_knot="false"
       fuse_tolerance="0" />
    <inkscape:path-effect
       effect="skeletal"
       id="path-effect54"
       is_visible="true"
       lpeversion="1"
       pattern="m 40.498535,0.01061089 c -3.961381,-0.01709 -7.92299,-0.01465 -11.884546,0.0155 -3.160036,0.08962 -4.229923,0.11578 -5.839438,0.155029 -1.289505,-0.05302 -2.578925,-0.106479 -3.869014,-0.142626 L 20.233104,0.2488369 C 17.82176,0.3307769 15.618491,0.46956991 10.540673,0.92528091 8.6419669,1.0956809 6.743232,1.2724719 4.8510978,1.5211099 4.288372,1.5950599 1.0636619,1.8107529 0.04002193,2.795451 c -0.111038,0.1068109 0.04197,0.329053 0.06305,0.4935101 L 4.4087518,4.0713419 0.07361593,4.7121299 C 0.88980494,4.7948199 1.7037119,4.9024569 2.5220459,4.9601771 5.6332398,5.17959 8.4204069,5.2642349 11.419177,5.34465 l 0.45682,0.0832 c -0.302306,0.0068 -0.604601,0.014049 -0.906922,0.020151 -0.303974,0.0061 -6.0326792,0.09624 -7.0192091,0.1266078 -0.495091,0.01524 -0.989475,0.05109 -1.484148,0.07648 l 4.148068,0.6568069 c 3.7845831,0.09254 7.5696881,0.165254 11.3548621,0.2268601 l 7.077088,1.2857089 c 12.130159,1.2056811 24.297664,1.8145741 36.46134,2.3636803 3.688295,0.166502 7.37697,0.333811 11.065992,0.476974 l 0.298175,0.31936 c 0.560144,-0.08516 1.120365,-0.158891 1.680517,-0.242362 0.431694,0.01512 0.863282,0.03625 1.295011,0.05013 0.294695,0.0095 0.589473,0.013 0.884184,0.0217 2.667942,0.392843 5.340311,0.757418 8.02277,1.046448 11.046151,1.190199 21.966305,1.81671 33.069295,2.20555 5.19615,0.18198 10.39662,0.206629 15.59491,0.310059 l 13.01936,0.0031 11.15954,-1.755448 c -3.78163,-0.0821 -7.56344,-0.164397 -11.34505,-0.246497 -4.80265,-0.15434 -9.60669,-0.269041 -14.4079,-0.463021 -7.03183,-0.284103 -14.86331,-0.694322 -22.55987,-1.129646 0.22045,-0.0091 0.44102,-0.01564 0.66145,-0.02532 8.4202,0.117941 16.84192,0.112365 25.26254,0.04599 l -7.05694,-1.1177605 c -1.4412,-0.010329 -2.8824,-0.017118 -4.32376,-0.025321 0.72862,-0.09303 1.45737,-0.1874911 2.18644,-0.2749182 1.91207,-0.2292908 2.18534,-0.260386 2.90988,-0.343648 4.16237,0.225398 8.32307,0.4918512 12.48969,0.617533 l -4.28604,-1.0092409 c -1.15861,-0.124731 -2.31929,-0.225153 -3.47886,-0.3389969 0.4681,-0.08689 0.39195,-0.06765 1.13636,-0.2036051 0.27667,-0.06847 0.55326,-0.137206 0.82993,-0.205673 4.23642,0.03638 8.47246,0.0757 12.70877,0.1266081 l -4.31652,-0.6836801 c -2.50898,0.03555 -5.01816,0.05537 -7.52719,0.08372 l -1.39061,-0.2470128 c 4.95778,0.07941 9.91562,0.1586708 14.87298,0.257865 4.85324,-0.01506 9.71382,0.2353379 14.56398,-0.05633 1.8388,-0.110577 3.00083,-0.281796 4.76973,-0.5048789 L 149.20043,3.9891769 c -0.67471,0.1154192 -1.3538,0.1891742 -2.0314,0.2775021 l -3.52381,-0.555521 c -5.57158,-0.015229 -11.14325,3.704e-4 -16.71476,0.04444 1.81091,-0.1548271 2.77181,-0.3065341 4.91806,-0.604614 L 126.9563,2.4269969 c 2.08775,-0.0069 4.17545,-0.01822 6.26319,-0.02532 3.04066,0.09188 6.07897,0.2571132 9.11831,0.3855062 l 1.61024,-0.2521812 c 3.87079,0.06408 7.74168,0.1246592 11.61221,0.2015381 l -2.70939,-0.428398 c 0.21479,-0.0015 0.4296,-0.0016 0.6444,-0.0031 3.9376,0.02136 5.47937,0.01912 5.84977,0.0078 0.25899,0.0046 0.0848,0.0026 0.38138,0.0078 l 5.9712,-0.9250074 c -1.04435,-0.05615 -2.08742,-0.150448 -3.13313,-0.168466 -5.53943,-0.09545 -11.08043,-0.04809 -16.62018,-0.117822 -0.23082,-0.0013 -0.46164,-0.0013 -0.69246,-0.0026 l -5.95313,-0.94154231 c -13.72199,0.452179 -27.44923,0.696512 -41.177846,0.79788401 -1.428589,-0.04764 -2.857439,-0.0955 -4.286038,-0.14314401 C 79.675971,0.46021091 91.485834,0.72822189 76.149078,0.48146189 64.266199,0.2901919 52.382679,0.06187889 40.498535,0.01061089 Z M 124.11049,2.4383699 c -5.72457,0.386416 -9.02525,0.474011 -13.06484,0.4666382 l -2.22673,-0.3958412 c 0.60719,-0.0058 1.2144,-0.01194 1.82159,-0.0186 4.49005,-0.02429 8.97994,-0.03684 13.46998,-0.05219 z"
       copytype="single_stretched"
       prop_scale="1"
       scale_y_rel="false"
       spacing="0"
       normal_offset="0"
       tang_offset="0"
       prop_units="false"
       vertical_pattern="false"
       hide_knot="false"
       fuse_tolerance="0" />
    <inkscape:path-effect
       effect="skeletal"
       id="path-effect52"
       is_visible="true"
       lpeversion="1"
       pattern="#path24"
       copytype="single_stretched"
       prop_scale="1"
       scale_y_rel="false"
       spacing="0"
       normal_offset="0"
       tang_offset="0"
       prop_units="false"
       vertical_pattern="false"
       hide_knot="false"
       fuse_tolerance="0" />
    <inkscape:path-effect
       effect="skeletal"
       id="path-effect50"
       is_visible="true"
       lpeversion="1"
       pattern="#path24"
       copytype="single_stretched"
       prop_scale="1"
       scale_y_rel="false"
       spacing="0"
       normal_offset="0"
       tang_offset="0"
       prop_units="false"
       vertical_pattern="false"
       hide_knot="false"
       fuse_tolerance="0" />
    <inkscape:path-effect
       effect="skeletal"
       id="path-effect49"
       is_visible="true"
       lpeversion="1"
       pattern="#path24"
       copytype="single_stretched"
       prop_scale="0.7939121"
       scale_y_rel="false"
       spacing="0"
       normal_offset="0"
       tang_offset="0"
       prop_units="false"
       vertical_pattern="false"
       hide_knot="false"
       fuse_tolerance="0" />
    <inkscape:path-effect
       effect="skeletal"
       id="path-effect48"
       is_visible="true"
       lpeversion="1"
       pattern="#path1"
       copytype="single_stretched"
       prop_scale="1"
       scale_y_rel="false"
       spacing="0"
       normal_offset="0"
       tang_offset="0"
       prop_units="false"
       vertical_pattern="false"
       hide_knot="false"
       fuse_tolerance="0" />
    <inkscape:path-effect
       effect="skeletal"
       id="path-effect47"
       is_visible="true"
       lpeversion="1"
       pattern="#path1"
       copytype="single_stretched"
       prop_scale="1"
       scale_y_rel="false"
       spacing="0"
       normal_offset="0"
       tang_offset="0"
       prop_units="false"
       vertical_pattern="false"
       hide_knot="false"
       fuse_tolerance="0" />
    <inkscape:path-effect
       effect="bspline"
       id="path-effect46"
       is_visible="true"
       lpeversion="1.3"
       weight="33.333333"
       steps="2"
       helper_size="0"
       apply_no_weight="true"
       apply_with_weight="true"
       only_selected="false"
       uniform="false" />
    <inkscape:path-effect
       effect="bend_path"
       id="path-effect45"
       is_visible="true"
       lpeversion="1"
       bendpath="m 54.847183,227.06165 c 8.807717,-4.93639 18.340806,-6.25201 28.418229,-6.25201"
       prop_scale="1"
       scale_y_rel="false"
       vertical="false"
       hide_knot="false" />
    <inkscape:path-effect
       effect="skeletal"
       id="path-effect44"
       is_visible="true"
       lpeversion="1"
       pattern="M 0,0 H 1"
       copytype="single_stretched"
       prop_scale="1"
       scale_y_rel="false"
       spacing="0"
       normal_offset="0"
       tang_offset="0"
       prop_units="false"
       vertical_pattern="false"
       hide_knot="false"
       fuse_tolerance="0" />
    <inkscape:path-effect
       effect="skeletal"
       id="path-effect42"
       is_visible="true"
       lpeversion="1"
       pattern="m 40.498535,0.01061089 c -3.961381,-0.01709 -7.92299,-0.01465 -11.884546,0.0155 -3.160036,0.08962 -4.229923,0.11578 -5.839438,0.155029 -1.289505,-0.05302 -2.578925,-0.106479 -3.869014,-0.142626 L 20.233104,0.2488369 C 17.82176,0.3307769 15.618491,0.46956991 10.540673,0.92528091 8.6419669,1.0956809 6.743232,1.2724719 4.8510978,1.5211099 4.288372,1.5950599 1.0636619,1.8107529 0.04002193,2.795451 c -0.111038,0.1068109 0.04197,0.329053 0.06305,0.4935101 L 4.4087518,4.0713419 0.07361593,4.7121299 C 0.88980494,4.7948199 1.7037119,4.9024569 2.5220459,4.9601771 5.6332398,5.17959 8.4204069,5.2642349 11.419177,5.34465 l 0.45682,0.0832 c -0.302306,0.0068 -0.604601,0.014049 -0.906922,0.020151 -0.303974,0.0061 -6.0326792,0.09624 -7.0192091,0.1266078 -0.495091,0.01524 -0.989475,0.05109 -1.484148,0.07648 l 4.148068,0.6568069 c 3.7845831,0.09254 7.5696881,0.165254 11.3548621,0.2268601 l 7.077088,1.2857089 c 12.130159,1.2056811 24.297664,1.8145741 36.46134,2.3636803 3.688295,0.166502 7.37697,0.333811 11.065992,0.476974 l 0.298175,0.31936 c 0.560144,-0.08516 1.120365,-0.158891 1.680517,-0.242362 0.431694,0.01512 0.863282,0.03625 1.295011,0.05013 0.294695,0.0095 0.589473,0.013 0.884184,0.0217 2.667942,0.392843 5.340311,0.757418 8.02277,1.046448 11.046151,1.190199 21.966305,1.81671 33.069295,2.20555 5.19615,0.18198 10.39662,0.206629 15.59491,0.310059 l 13.01936,0.0031 11.15954,-1.755448 c -3.78163,-0.0821 -7.56344,-0.164397 -11.34505,-0.246497 -4.80265,-0.15434 -9.60669,-0.269041 -14.4079,-0.463021 -7.03183,-0.284103 -14.86331,-0.694322 -22.55987,-1.129646 0.22045,-0.0091 0.44102,-0.01564 0.66145,-0.02532 8.4202,0.117941 16.84192,0.112365 25.26254,0.04599 l -7.05694,-1.1177605 c -1.4412,-0.010329 -2.8824,-0.017118 -4.32376,-0.025321 0.72862,-0.09303 1.45737,-0.1874911 2.18644,-0.2749182 1.91207,-0.2292908 2.18534,-0.260386 2.90988,-0.343648 4.16237,0.225398 8.32307,0.4918512 12.48969,0.617533 l -4.28604,-1.0092409 c -1.15861,-0.124731 -2.31929,-0.225153 -3.47886,-0.3389969 0.4681,-0.08689 0.39195,-0.06765 1.13636,-0.2036051 0.27667,-0.06847 0.55326,-0.137206 0.82993,-0.205673 4.23642,0.03638 8.47246,0.0757 12.70877,0.1266081 l -4.31652,-0.6836801 c -2.50898,0.03555 -5.01816,0.05537 -7.52719,0.08372 l -1.39061,-0.2470128 c 4.95778,0.07941 9.91562,0.1586708 14.87298,0.257865 4.85324,-0.01506 9.71382,0.2353379 14.56398,-0.05633 1.8388,-0.110577 3.00083,-0.281796 4.76973,-0.5048789 L 149.20043,3.9891769 c -0.67471,0.1154192 -1.3538,0.1891742 -2.0314,0.2775021 l -3.52381,-0.555521 c -5.57158,-0.015229 -11.14325,3.704e-4 -16.71476,0.04444 1.81091,-0.1548271 2.77181,-0.3065341 4.91806,-0.604614 L 126.9563,2.4269969 c 2.08775,-0.0069 4.17545,-0.01822 6.26319,-0.02532 3.04066,0.09188 6.07897,0.2571132 9.11831,0.3855062 l 1.61024,-0.2521812 c 3.87079,0.06408 7.74168,0.1246592 11.61221,0.2015381 l -2.70939,-0.428398 c 0.21479,-0.0015 0.4296,-0.0016 0.6444,-0.0031 3.9376,0.02136 5.47937,0.01912 5.84977,0.0078 0.25899,0.0046 0.0848,0.0026 0.38138,0.0078 l 5.9712,-0.9250074 c -1.04435,-0.05615 -2.08742,-0.150448 -3.13313,-0.168466 -5.53943,-0.09545 -11.08043,-0.04809 -16.62018,-0.117822 -0.23082,-0.0013 -0.46164,-0.0013 -0.69246,-0.0026 l -5.95313,-0.94154231 c -13.72199,0.452179 -27.44923,0.696512 -41.177846,0.79788401 -1.428589,-0.04764 -2.857439,-0.0955 -4.286038,-0.14314401 C 79.675971,0.46021091 91.485834,0.72822189 76.149078,0.48146189 64.266199,0.2901919 52.382679,0.06187889 40.498535,0.01061089 Z M 124.11049,2.4383699 c -5.72457,0.386416 -9.02525,0.474011 -13.06484,0.4666382 l -2.22673,-0.3958412 c 0.60719,-0.0058 1.2144,-0.01194 1.82159,-0.0186 4.49005,-0.02429 8.97994,-0.03684 13.46998,-0.05219 z"
       copytype="single_stretched"
       prop_scale="1"
       scale_y_rel="false"
       spacing="0"
       normal_offset="0"
       tang_offset="0"
       prop_units="false"
       vertical_pattern="false"
       hide_knot="false"
       fuse_tolerance="0" />
    <inkscape:path-effect
       effect="bend_path"
       id="path-effect41"
       is_visible="true"
       lpeversion="1"
       bendpath="m 37.796245,70.761392 c 4.142102,1.992691 8.070334,5.041934 11.935656,7.388738 1.257022,0.763191 -1.664631,-2.890189 -1.136729,-4.262734 0.524134,-1.362747 5.792753,-5.749935 6.820376,-6.820376 4.260879,-4.438415 6.430079,-9.622952 7.672922,-15.630025 0.789733,-3.817051 0.07118,-9.626878 -3.126007,-4.831099"
       prop_scale="1"
       scale_y_rel="false"
       vertical="false"
       hide_knot="false" />
    <inkscape:path-effect
       effect="bend_path"
       id="path-effect40"
       is_visible="true"
       lpeversion="1"
       bendpath="m 36.375335,67.351204 c 0.09473,0.947274 -0.291857,2.083876 0.284181,2.841823 3.779186,4.972611 14.851832,13.819113 19.324396,18.187665 27.090164,26.460158 58.444858,36.868338 96.621978,34.101878 6.30235,-0.45669 20.34064,-3.20785 26.99732,-6.53619 1.58874,-0.79437 1.70509,-3.90455 1.70509,-5.39947"
       prop_scale="1"
       scale_y_rel="false"
       vertical="false"
       hide_knot="false" />
    <clipPath
       clipPathUnits="userSpaceOnUse"
       id="clipPath1">
      <rect
         style="fill:#4d4d4d;stroke:#000000;stroke-width:2.81224;stroke-linecap:square;stroke-linejoin:round;paint-order:markers stroke fill"
         id="rect2"
         width="82.981232"
         height="96.642776"
         x="100.60052"
         y="-103.8035"
         d="m 100.60052,-103.8035 h 82.98123 v 96.6427792 h -82.98123 z" />
    </clipPath>
  </defs>
  <g
     inkscape:label="Layer 1"
     inkscape:groupmode="layer"
     id="layer1">
    <ellipse
       style="opacity:0.745631;fill:#535d6c;fill-opacity:1;stroke:none;stroke-width:0.18932;stroke-linecap:square;stroke-linejoin:round;stroke-dasharray:none;paint-order:markers stroke fill"
       id="path42"
       cx="10.649164"
       cy="12.717916"
       rx="8.066081"
       ry="7.6152658" />
    <circle
       id="path13"
       style="fill:#000000;stroke:#b3b3b3;stroke-width:0.264583"
       cx="71.135315"
       cy="260.42761"
       r="0" />
    <path
       id="path24"
       style="fill:#000000;stroke:#b3b3b3;stroke-width:0;stroke-linecap:square;stroke-linejoin:round;paint-order:markers stroke fill"
       d="m 47.381806,-62.236862 c -3.961505,-0.01709 -7.923119,-0.01465 -11.884546,0.0155 -1.946384,0.0552 -3.892849,0.10756 -5.839437,0.155029 -1.289468,-0.05302 -2.578963,-0.10648 -3.869014,-0.142626 l 1.327567,0.210323 c -3.23725,0.110005 -6.466263,0.38691 -9.692415,0.676443 -6e-6,0 -1.1e-5,10e-7 -1.6e-5,10e-7 -1.899403,0.170463 -3.798793,0.347369 -5.689575,0.595829 -0.744371,0.09782 -1.494507,0.158762 -2.2326954,0.29564 -0.9145002,0.169571 -1.9080826,0.333903 -2.578381,0.978701 -0.1256409,0.120858 0.04088,0.320591 0.063045,0.49351 l 4.3056804,0.782381 -4.3351364,0.640788 c 0.8161938,0.08269 1.6300912,0.190327 2.44843,0.248047 2.9613814,0.208848 5.9294614,0.304892 8.8971314,0.384473 l 0.45682,0.0832 c -0.302295,0.0068 -0.604581,0.01405 -0.906891,0.02015 -10e-6,10e-7 -2.1e-5,10e-7 -3.1e-5,10e-7 -1.084451,0.02176 -2.169118,0.03576 -3.25363,0.0542 -6e-6,0 -1.1e-5,0 -1.6e-5,10e-7 -1.255229,0.02134 -2.510747,0.03378 -3.765563,0.0724 -10e-6,0 -2.1e-5,1e-6 -3.1e-5,1e-6 -0.495142,0.01524 -0.9893924,0.05109 -1.4841174,0.07648 l 4.1480684,0.656807 c 3.784589,0.09254 7.569643,0.165253 11.354862,0.22686 l 7.077073,1.285706 1.5e-5,3e-6 c 12.121108,1.204781 24.292897,1.814359 36.46134,2.36368 1e-5,0 2.1e-5,1e-6 3.1e-5,1e-6 3.688329,0.166504 7.376652,0.333799 11.06596,0.476973 l 0.298173,0.31936 c 0.559541,-0.08507 1.120728,-0.158945 1.680518,-0.242362 0.43173,0.01513 0.863239,0.03625 1.295011,0.05013 0.294665,0.0095 0.589494,0.013 0.884184,0.0217 2.668309,0.392897 5.341206,0.757515 8.022765,1.046448 10.986445,1.183767 22.026025,1.818801 33.069295,2.20555 5.19622,0.181983 10.39653,0.206627 15.59491,0.310059 l 13.01936,0.0031 11.15951,-1.755446 2e-5,-2e-6 c -3.78168,-0.0821 -7.56336,-0.164396 -11.34504,-0.246497 -4.80266,-0.15434 -9.60669,-0.269041 -14.40791,-0.463021 -7.52332,-0.303961 -15.04242,-0.704453 -22.55986,-1.129646 1e-5,0 1e-5,0 2e-5,-10e-7 0.22045,-0.0091 0.441,-0.01564 0.66143,-0.02532 8.42021,0.117941 16.84178,0.112366 25.26255,0.04599 l -7.05694,-1.117761 c -1.44124,-0.01033 -2.88251,-0.01712 -4.32377,-0.02532 0.72864,-0.09303 1.4571,-0.187459 2.18643,-0.274918 0.96976,-0.116291 1.93958,-0.232144 2.9099,-0.343648 4.16234,0.225397 8.32314,0.491853 12.48968,0.617533 l -4.28604,-1.009241 c -10e-6,-1e-6 -2e-5,-2e-6 -3e-5,-3e-6 -1.15842,-0.12471 -2.3193,-0.225153 -3.47883,-0.338994 1e-5,-2e-6 2e-5,-4e-6 3e-5,-6e-6 0.37835,-0.07023 0.75779,-0.134463 1.13634,-0.203599 0.27666,-0.06847 0.55326,-0.137205 0.82992,-0.205673 4.23631,0.03638 8.47259,0.0757 12.70875,0.126608 1e-5,0 2e-5,0 3e-5,0 l -4.31653,-0.68368 c -2.50897,0.03555 -5.01813,0.05537 -7.52719,0.08372 l -3e-5,-5e-6 -1.39058,-0.247008 c 4.95778,0.07941 9.91557,0.15867 14.87299,0.257865 4.8557,-0.01507 9.717,0.235147 14.56397,-0.05633 1.5963,-0.09599 3.18313,-0.304786 4.76974,-0.504879 l -20.09542,-2.886645 c -0.67368,0.115243 -1.35363,0.189153 -2.03137,0.277498 -1e-5,10e-7 -2e-5,3e-6 -3e-5,4e-6 l -3.52381,-0.555521 c -5.57161,-0.01523 -11.14329,3.7e-4 -16.71475,0.04444 1.64595,-0.140724 3.2818,-0.377364 4.91805,-0.604614 l -3e-5,-5e-6 -4.89218,-0.723982 c 2.08774,-0.0069 4.17545,-0.01822 6.26319,-0.02532 1e-5,0 2e-5,10e-7 3e-5,10e-7 3.04078,0.09188 6.07881,0.257107 9.11827,0.385505 l 1.61024,-0.252181 c 3.87079,0.06408 7.74165,0.124658 11.61221,0.201538 l -2.70939,-0.428398 c 0.2148,-0.0015 0.4296,-0.0016 0.6444,-0.0031 1.94985,0.01058 3.9008,0.06736 5.84977,0.0078 1e-5,0 2e-5,0 3e-5,1e-6 0.12712,0.0023 0.25423,0.0056 0.38135,0.0078 l 5.97121,-0.925008 c -1e-5,-1e-6 -2e-5,-1e-6 -3e-5,-2e-6 -1.04446,-0.05615 -2.08729,-0.150444 -3.13311,-0.168464 -5.53942,-0.09545 -11.08038,-0.04809 -16.62018,-0.117822 -0.23082,-0.0013 -0.46164,-0.0013 -0.69246,-0.0026 l -5.95313,-0.941544 c -13.72145,0.452161 -27.44932,0.696513 -41.17785,0.797884 -1.42867,-0.04764 -2.85734,-0.0955 -4.28601,-0.143143 -10e-6,0 -2e-5,-1e-6 -3e-5,-1e-6 -5.894555,-0.149762 -11.790043,-0.243621 -17.685737,-0.33848 -11.88309,-0.191195 -23.76602,-0.419503 -35.650537,-0.470773 z m 83.611944,2.427759 c -4.34886,0.293554 -8.70608,0.474594 -13.06483,0.466638 l -2.22674,-0.395841 0,0 c 0.6072,-0.0058 1.2144,-0.01194 1.82159,-0.0186 4.48996,-0.02429 8.97998,-0.03684 13.46998,-0.05219 l 0,0 z"
       transform="matrix(1,0,0,0.58484971,-57.973187,-179.30049)"
       clip-path="url(#clipPath1)"
       inkscape:path-effect="#path-effect2"
       inkscape:original-d="m 47.381806,-62.236862 c -3.961381,-0.01709 -7.922989,-0.01465 -11.884546,0.0155 -3.160035,0.08962 -4.229922,0.11578 -5.839437,0.155029 -1.289505,-0.05302 -2.578925,-0.106479 -3.869014,-0.142626 l 1.327567,0.210323 c -2.411344,0.08194 -4.614613,0.220733 -9.692431,0.676444 -1.898706,0.1704 -3.797441,0.347191 -5.689575,0.595829 -0.562726,0.07395 -3.7874364,0.289643 -4.8110764,1.274341 -0.111038,0.106811 0.041965,0.329053 0.063045,0.49351 l 4.3056804,0.782381 -4.3351364,0.640788 c 0.816189,0.08269 1.630096,0.190327 2.44843,0.248047 3.1111944,0.219413 5.8983614,0.304058 8.8971314,0.384473 l 0.45682,0.0832 c -0.302306,0.0068 -0.604601,0.01405 -0.906922,0.02015 -0.303974,0.0061 -6.032679,0.09624 -7.019209,0.126608 -0.495091,0.01524 -0.9894754,0.05109 -1.4841484,0.07648 l 4.1480684,0.656807 c 3.784583,0.09254 7.569688,0.165254 11.354862,0.22686 l 7.077088,1.285709 c 12.130159,1.205681 24.297663,1.814574 36.46134,2.36368 3.688292,0.166502 7.376968,0.333811 11.065991,0.476974 l 0.298173,0.31936 c 0.560146,-0.08516 1.120366,-0.158891 1.680518,-0.242362 0.431694,0.01513 0.863282,0.03625 1.295011,0.05013 0.294696,0.0095 0.589472,0.013 0.884184,0.0217 2.667943,0.392843 5.340305,0.757418 8.022765,1.046448 11.046145,1.190199 21.966305,1.81671 33.069295,2.20555 5.19614,0.18198 10.39662,0.206629 15.59491,0.310059 l 13.01936,0.0031 11.15953,-1.755448 c -3.78162,-0.0821 -7.56342,-0.164397 -11.34504,-0.246497 -4.80265,-0.15434 -9.6067,-0.269041 -14.40791,-0.463021 -7.03181,-0.284103 -14.8633,-0.694322 -22.55986,-1.129646 0.22045,-0.0091 0.44102,-0.01564 0.66145,-0.02532 8.42021,0.117941 16.84192,0.112365 25.26255,0.04599 l -7.05694,-1.117761 c -1.44122,-0.01033 -2.88241,-0.01712 -4.32377,-0.02532 0.72862,-0.09303 1.45737,-0.187491 2.18643,-0.274918 1.91208,-0.229291 2.18534,-0.260386 2.9099,-0.343648 4.16235,0.225398 8.32306,0.491851 12.48968,0.617533 l -4.28604,-1.009241 c -1.15861,-0.124731 -2.31929,-0.225153 -3.47886,-0.338997 0.4681,-0.08689 0.39196,-0.06765 1.13637,-0.203605 0.27666,-0.06847 0.55326,-0.137206 0.82992,-0.205673 4.23643,0.03638 8.47247,0.0757 12.70878,0.126608 l -4.31653,-0.68368 c -2.50898,0.03555 -5.01815,0.05537 -7.52719,0.08372 l -1.39061,-0.247013 c 4.95779,0.07941 9.91562,0.158671 14.87299,0.257865 4.85323,-0.01506 9.71382,0.235338 14.56397,-0.05633 1.8388,-0.110577 3.00083,-0.281796 4.76974,-0.504879 l -20.09542,-2.886645 c -0.67471,0.115419 -1.3538,0.189174 -2.0314,0.277502 l -3.52381,-0.555521 c -5.57158,-0.01523 -11.14325,3.7e-4 -16.71475,0.04444 1.8109,-0.154827 2.77181,-0.306534 4.91805,-0.604614 l -4.89221,-0.723987 c 2.08774,-0.0069 4.17545,-0.01822 6.26319,-0.02532 3.04066,0.09188 6.07896,0.257113 9.1183,0.385506 l 1.61024,-0.252181 c 3.8708,0.06408 7.74168,0.124659 11.61221,0.201538 l -2.70939,-0.428398 c 0.21479,-0.0015 0.4296,-0.0016 0.6444,-0.0031 3.9376,0.02136 5.47937,0.01912 5.84977,0.0078 0.25899,0.0046 0.0848,0.0026 0.38138,0.0078 l 5.97121,-0.925008 c -1.04437,-0.05615 -2.08743,-0.150448 -3.13314,-0.168466 -5.53943,-0.09545 -11.08042,-0.04809 -16.62018,-0.117822 -0.23082,-0.0013 -0.46165,-0.0013 -0.69246,-0.0026 l -5.95313,-0.941544 c -13.72199,0.452179 -27.44922,0.696512 -41.17785,0.797884 -1.42859,-0.04764 -2.85744,-0.0955 -4.28604,-0.143144 -14.158844,-0.359731 -2.348985,-0.09172 -17.685737,-0.33848 -11.882874,-0.191192 -23.766394,-0.419505 -35.650537,-0.470773 z m 83.611944,2.427759 c -5.72457,0.386416 -9.02525,0.474011 -13.06483,0.466638 l -2.22674,-0.395841 c 0.60719,-0.0058 1.21441,-0.01194 1.82159,-0.0186 4.49006,-0.02429 8.97994,-0.03684 13.46998,-0.05219 z" />
    <path
       style="fill:#000000;fill-opacity:1;stroke:#000000;stroke-width:0;stroke-linecap:square;stroke-linejoin:round;stroke-dasharray:none;paint-order:markers stroke fill"
       d="m 77.918363,43.22129 c -1.70264,0.879428 -3.334971,1.880442 -4.883233,2.991648 -0.746895,0.565138 -1.475337,1.151346 -2.185364,1.756039 -0.501301,0.36203 -0.995465,0.734218 -1.475507,1.124145 0.186797,-0.108251 0.374185,-0.215059 0.56214,-0.32041 -0.607027,0.558768 -1.17814,1.152708 -1.720776,1.769137 -0.476406,0.53914 -0.933251,1.097503 -1.375303,1.668572 -1e-6,1e-6 -3e-6,4e-6 -5e-6,5e-6 -0.556514,0.718939 -1.089327,1.459605 -1.561185,2.240758 -0.05828,0.09649 -0.117933,0.192021 -0.177265,0.287788 -0.129656,0.209253 -0.259348,0.421889 -0.369703,0.648642 -0.110851,0.227772 -0.228457,0.467505 -0.291974,0.721649 l 0,0 0,1e-6 c -0.03518,0.14784 -0.05297,0.303228 -0.03896,0.464003 0.0042,0.04787 0.01116,0.09617 0.02141,0.144934 0,0 0,10e-7 0,10e-7 0.002,0.0057 0.004,0.01148 0.0061,0.01724 0.02216,0.06098 0.102757,0.08494 0.177928,0.115706 0.02565,0.0085 0.05058,0.01793 0.07229,0.03033 0.02149,-0.01964 0.043,-0.03909 0.06449,-0.05838 0.100241,-0.08996 0.200084,-0.176417 0.299094,-0.26002 0.380451,-0.32447 0.76326,-0.628902 1.146172,-0.918999 0,0 0,0 0,0 0.03248,-0.02462 0.06499,-0.04916 0.09753,-0.07365 -0.01975,0.0352 -0.03945,0.07042 -0.05908,0.105666 l 0,0 c -0.231406,0.415448 -0.457826,0.839416 -0.673504,1.272051 0,0 0,0 0,0 l 0,0 c -0.05588,0.112971 -0.111813,0.227716 -0.167079,0.344446 -0.01386,0.02927 -0.02767,0.05866 -0.04137,0.08822 0.02171,-0.02378 0.04358,-0.04729 0.06553,-0.07059 0,0 0,0 0,0 0.08759,-0.09297 0.176342,-0.182595 0.264539,-0.270456 l 0,0 0,0 c 0.157737,-0.157785 0.315736,-0.312962 0.467286,-0.472039 0.171507,-0.18003 0.342834,-0.358129 0.513528,-0.534438 0.761252,-0.786404 1.528393,-1.561527 2.316635,-2.306916 0.05939,-0.03713 0.118827,-0.07408 0.178326,-0.110851 -0.09248,0.09853 -0.184299,0.197688 -0.276127,0.296847 -3e-6,4e-6 -6e-6,7e-6 -9e-6,10e-6 -0.329439,0.355632 -0.656122,0.714178 -0.974141,1.080581 -2e-6,2e-6 -3e-6,3e-6 -4e-6,6e-6 -0.348548,0.401574 -0.692711,0.807647 -1.017925,1.229159 -0.01817,0.02355 -0.03629,0.04716 -0.05436,0.07083 -3e-6,4e-6 -5e-6,8e-6 -8e-6,1.1e-5 -0.13466,0.176452 -0.258471,0.362077 -0.385278,0.545958 0.197749,-0.16582 0.396711,-0.327592 0.59647,-0.486201 0.292481,-0.232259 0.587598,-0.459027 0.885121,-0.680552 0.855086,-0.905855 1.74873,-1.771329 2.671968,-2.599157 0.316794,-0.284195 0.637433,-0.564083 0.961843,-0.839416 0.942896,-0.500903 1.897678,-0.961743 2.860376,-1.380933 2e-6,-10e-7 4e-6,-2e-6 6e-6,-3e-6 3.114224,-1.775189 6.348583,-3.258508 9.661578,-4.276023 1.554266,-0.480121 3.132898,-0.849895 4.724212,-1.105672 4e-6,-10e-7 8e-6,-10e-7 1.3e-5,-2e-6 1.508446,-0.242456 3.028683,-0.378849 4.547698,-0.428525 0.04621,0.05839 0.09221,0.116875 0.138001,0.175453 0.223776,-0.06875 0.450359,-0.128955 0.676646,-0.192333 0.177655,-0.0026 0.355389,-2.49e-4 0.532956,-8.09e-4 0.121182,-3.66e-4 0.242268,-0.0036 0.363423,-0.0032 1.104044,0.187426 2.190708,0.410897 3.26328,0.639435 1.673266,0.356529 3.316206,0.788913 4.910176,1.295669 2.62466,0.812322 5.15993,1.813633 7.63337,2.991825 1.87718,0.894173 3.75603,1.842359 5.5688,2.935703 1.53864,0.869724 3.05202,1.815369 4.53962,2.820834 1.4673,0.576048 2.93437,1.207748 4.39445,1.885184 0,10e-7 1e-5,3e-6 1e-5,4e-6 -1.24317,-1.005229 -2.51045,-1.977198 -3.80254,-2.905039 -1.62377,-1.20221 -3.3044,-2.316828 -5.00159,-3.377194 -2.66122,-1.662673 -5.41061,-3.153942 -8.29387,-4.35727 0,10e-7 0,10e-7 0,2e-6 0.0885,0.02337 0.17646,0.04845 0.26492,0.07206 3.28626,1.169813 6.47882,2.666306 9.57555,4.411566 -0.75113,-0.686264 -1.52067,-1.355452 -2.31019,-2.004944 -0.54166,-0.284588 -1.08808,-0.558307 -1.6378,-0.823074 0.30206,0.08259 0.60432,0.16725 0.90504,0.258491 0.39982,0.121312 0.79927,0.247717 1.19735,0.381151 1.52003,0.938393 2.98006,1.964331 4.45079,2.980232 -0.41238,-0.493908 -0.83293,-0.983194 -1.26217,-1.467264 0,0 -1e-5,-8e-6 -1e-5,-8e-6 -0.39211,-0.317698 -0.79679,-0.619746 -1.20026,-0.923015 0,0 1e-5,3e-6 1e-5,3e-6 0.1625,0.04422 0.3237,0.09243 0.48598,0.138669 0.12383,0.02467 0.24775,0.0496 0.37168,0.07507 1.57918,0.939976 3.12145,1.9507 4.62367,3.021201 1e-5,3e-6 1e-5,5e-6 2e-5,8e-6 -0.44003,-0.465574 -0.88676,-0.92655 -1.34054,-1.382329 -0.93021,-0.581765 -1.86715,-1.149722 -2.8186,-1.688958 -1e-5,-3e-6 -1e-5,-6e-6 -1e-5,-9e-6 -0.14978,-0.143865 -0.30038,-0.287105 -0.4518,-0.4297 1.85335,1.118275 3.65411,2.331402 5.39579,3.624693 1.74371,1.212635 3.34476,2.617782 5.09439,3.820498 0.57564,0.395706 1.18743,0.744806 1.79107,1.103218 -1.86701,-2.32049 -3.85669,-4.600213 -6.00125,-6.778803 -0.2869,-0.116786 -0.56254,-0.253298 -0.84304,-0.380636 0,-2e-6 -1e-5,-4e-6 -1e-5,-6e-6 -0.37429,-0.385131 -0.75354,-0.767071 -1.13794,-1.145494 -2.09973,-1.370054 -4.28044,-2.619267 -6.53724,-3.713603 0.69976,0.256489 1.41793,0.47452 2.13257,0.710931 0,-3e-6 0,-6e-6 -1e-5,-9e-6 -0.58103,-0.475783 -1.17263,-0.942556 -1.77527,-1.399449 0.85394,0.419987 1.69906,0.85742 2.53269,1.314861 0,2e-6 0,5e-6 1e-5,7e-6 1.18598,0.719082 2.32142,1.509332 3.44393,2.312194 0.23186,0.08891 0.46347,0.179055 0.69478,0.270419 1.45322,0.988733 2.8695,2.025165 4.24189,3.106883 -0.27632,-0.311241 -0.5555,-0.62105 -0.83764,-0.929278 0.0793,0.05642 0.15809,0.113642 0.23721,0.170324 0.70984,0.526025 1.39389,1.084069 2.10984,1.596593 1e-5,3e-6 1e-5,5e-6 1e-5,9e-6 0.0411,0.03356 0.0919,0.07587 0.13296,0.109427 0.81926,0.409854 1.6326,0.832328 2.43902,1.265901 -10e-6,-4e-6 -10e-6,-6e-6 -10e-6,-1e-5 -0.34185,-0.326023 -0.67271,-0.667709 -1.03534,-0.972905 -1.92231,-1.617846 -3.97455,-3.103224 -6.06551,-4.545355 -0.0877,-0.05932 -0.1759,-0.117832 -0.26384,-0.176806 -0.65783,-0.655242 -1.33112,-1.300847 -2.02078,-1.935242 -5.56754,-3.072366 -11.51183,-5.529985 -17.85486,-6.854924 -0.11958,-0.03133 -0.23938,-0.06225 -0.35937,-0.09274 -0.54246,-0.13416 -1.08812,-0.257372 -1.63658,-0.369372 0,0 0,-2e-6 -1e-5,-3e-6 -2.7752,-0.538781 -5.616393,-0.759507 -8.458335,-0.682184 -4.227536,0.115023 -8.462081,0.879419 -12.496765,2.381778 -1.415716,0.534575 -2.795471,1.149759 -4.132837,1.840519 -7e-6,-1.3e-5 -1.3e-5,-2.5e-5 -2e-5,-3.8e-5 z m 38.158657,1.630794 c -1.86444,-0.688529 -3.74202,-1.346182 -5.61401,-1.997997 -0.29473,-0.183051 -0.59218,-0.363557 -0.89241,-0.541435 0.26594,0.08255 0.53113,0.167033 0.79561,0.253296 1.95106,0.651624 3.85419,1.422329 5.71081,2.28614 z"
       id="path2"
       inkscape:path-effect="#path-effect3"
       inkscape:original-d="m 66.498654,58.257368 c 0,0 23.871314,-34.670238 64.793566,0"
       transform="translate(-83.480997,-262.44713)" />
    <path
       id="path3"
       style="fill:#000000;fill-opacity:1;stroke:none;stroke-width:0;stroke-linecap:square;stroke-linejoin:round;stroke-dasharray:none;paint-order:markers stroke fill"
       d="m -14.385352,-191.44772 c -0.62613,0.33392 -1.24399,0.68523 -1.85257,1.05239 -3.62114,2.18463 -6.92787,4.93747 -9.69715,8.23395 -0.96804,1.16315 -1.86543,2.37853 -2.68829,3.63892 -1.04762,1.60464 -1.97408,3.28085 -2.77311,5.01101 -0.37111,0.85994 -0.7154,1.72882 -1.03494,2.60499 -0.2576,0.56215 -0.50441,1.12964 -0.72976,1.70557 0.10913,-0.18628 0.21958,-0.37164 0.33115,-0.55597 -0.25258,0.78543 -0.45648,1.58401 -0.6246,2.38786 -0.14862,0.70395 -0.2708,1.41449 -0.37378,2.12928 -0.12965,0.89987 -0.22772,1.80733 -0.25304,2.71959 -0.003,0.11267 -0.008,0.22479 -0.0125,0.33736 -0.01,0.24598 -0.0177,0.49543 -0.002,0.74711 0.0159,0.25281 0.0317,0.51915 0.10171,0.77157 0.0423,0.14597 0.10364,0.28987 0.1951,0.42283 0.0272,0.0396 0.0568,0.0781 0.0898,0.11543 0.005,0.004 0.009,0.008 0.0141,0.0122 0.0493,0.0421 0.13116,0.0234 0.21173,0.0131 0.0265,-0.005 0.0527,-0.01 0.0777,-0.01 0.009,-0.0277 0.0182,-0.0553 0.0274,-0.0827 0.0428,-0.12769 0.0872,-0.25212 0.13213,-0.37367 0.17099,-0.46988 0.35401,-0.92333 0.5441,-1.36452 0.0161,-0.0374 0.0323,-0.0751 0.0485,-0.11245 1.7e-4,0.0404 2.3e-4,0.0811 5.3e-4,0.12147 0.004,0.47553 0.0156,0.95569 0.0413,1.43842 0.007,0.12583 0.0153,0.25337 0.0247,0.38217 0.002,0.0323 0.005,0.0648 0.008,0.0973 0.007,-0.0314 0.0141,-0.0626 0.0217,-0.0937 0.0304,-0.12407 0.0635,-0.24566 0.0969,-0.36559 0.0594,-0.21505 0.12056,-0.42839 0.17396,-0.64151 0.0604,-0.24119 0.12139,-0.48034 0.18295,-0.71789 0.27451,-1.05952 0.55975,-2.11207 0.87796,-3.14922 0.0334,-0.0616 0.0667,-0.12324 0.10031,-0.18457 -0.0319,0.13132 -0.0626,0.26303 -0.0935,0.39458 -0.11124,0.47183 -0.21863,0.9448 -0.31463,1.42038 -0.10522,0.52122 -0.20438,1.04445 -0.27946,1.57151 -0.004,0.0294 -0.008,0.0588 -0.0123,0.0883 -0.0301,0.21991 -0.0466,0.44234 -0.0663,0.66484 0.0903,-0.24177 0.1839,-0.48087 0.27948,-0.71736 0.13993,-0.34628 0.28448,-0.6889 0.43408,-1.02833 0.29724,-1.2097 0.64829,-2.4031 1.04329,-3.57853 0.13547,-0.40345 0.27612,-0.80527 0.42259,-1.20477 0.5733,-0.9007 1.1767,-1.77226 1.80753,-2.61164 1.83397,-3.07997 3.91659,-5.96562 6.29709,-8.48445 1.11543,-1.18409 2.30667,-2.28395 3.56496,-3.29113 1.19276,-0.95473 2.44799,-1.82282 3.745,-2.61504 0.069,0.028 0.1377,0.056 0.20642,0.0844 0.16078,-0.17016 0.32809,-0.33408 0.4937,-0.5008 0.15329,-0.0898 0.30925,-0.17582 0.46345,-0.26386 0.10524,-0.0601 0.2089,-0.12247 0.31452,-0.18183 1.05291,-0.38134 2.10871,-0.72252 3.1545095,-1.05257 1.6315,-0.5149 3.27407,-0.94904 4.91066,-1.29415 2.68395,-0.5875 5.38296001,-0.96662 8.11575,-1.16125 2.07402,-0.14772 4.17601,-0.24916 6.29219,-0.19183 1.7674405,-0.002 3.5505605,0.0745 5.3405305,0.21568 1.56056,-0.22236 3.14845,-0.39628 4.75272,-0.52688 -1.5772,-0.26152 -3.15891,-0.4825 -4.74051,-0.65259 -2.00545,-0.24522 -4.01725,-0.38601 -6.0166205,-0.47163 -3.13505,-0.13426 -6.26251,-0.0759 -9.36422999,0.29894 0.0885,-0.0233 0.1777,-0.0447 0.26631,-0.0678 3.43577999,-0.60271 6.95126999,-0.87503 10.50592049,-0.88366 -0.9918505,-0.22667 -1.9915905,-0.42935 -2.9987105,-0.60508 -0.61156,0.0195 -1.22182,0.0506 -1.83062,0.0913 0.30352,-0.0771 0.608,-0.15249 0.91461,-0.22139 0.40766,-0.0916 0.8176,-0.17841 1.22971,-0.25862 1.78511,0.0669 3.5612505,0.23938 5.3416805,0.39799 -0.6023,-0.22634 -1.20915,-0.44461 -1.82127,-0.65408 -0.49777,-0.0831 -0.9989,-0.14612 -1.4994505,-0.21101 0.16317,-0.0417 0.3269105,-0.0793 0.4908905,-0.11904 0.11988,-0.0396 0.24026,-0.0793 0.36064,-0.11828 1.83734,0.0391 3.67746,0.15827 5.51222,0.34885 -0.61239,-0.18806 -1.2283,-0.36887 -1.84782,-0.54162 -1.09612,-0.0475 -2.19132,-0.0799 -3.28495,-0.0799 -0.20125,-0.0513 -0.40309,-0.10125 -0.60513,-0.15064 2.16378,0.059 4.32877,0.22623 6.48169,0.49256 2.11493,0.19515 4.20054,0.62814 6.31573,0.81175 0.69591,0.0604 1.40036,0.0625 2.10224,0.0767 -2.76847,-1.09816 -5.62356,-2.10051 -8.56352,-2.93837 -0.30719,0.0399 -0.61469,0.057 -0.9215,0.0845 -0.51553,-0.15049 -1.03361,-0.29548 -1.55463,-0.43515 -2.50228,-0.15656 -5.0152105,-0.16802 -7.5181805,-0.007 0.73525,-0.1219 1.46747,-0.28673 2.20576,-0.43345 -0.74009,-0.12741 -1.48519,-0.24158 -2.23477,-0.34191 0.95001,-0.0557 1.90152,-0.0918 2.85231,-0.10492 1.3863505,0.0408 2.7635605,0.16834 4.1359805,0.31332 0.24556,-0.037 0.49121,-0.0728 0.7375,-0.10734 1.7518,0.1436 3.49515,0.34672 5.22247,0.61108 -0.39385,-0.13453 -0.78946,-0.26626 -1.1869,-0.39529 0.0968,0.01 0.19365,0.0211 0.29043,0.0314 0.87693,0.10761 1.74715,0.25548 2.62273,0.34833 0.0494,0.008 0.1202,0.0214 0.16956,0.0298 0.91483,-0.0474 1.83093,-0.0808 2.74628,-0.10126 -0.45817,-0.11507 -0.91479,-0.2492 -1.38076,-0.3359 -2.47011,-0.45962 -4.98778,-0.74013 -7.51797,-0.96371 -0.10552,-0.008 -0.21129,-0.0156 -0.31688,-0.0236 -0.89539,-0.24567 -1.79929,-0.47549 -2.7121,-0.68734 -6.3585905,0.0724 -12.74168049,0.86541 -18.9132905,2.84044 -0.11948,0.0317 -0.23909,0.0642 -0.35852,0.0969 -0.53807,0.15076 -1.07361,0.31254 -1.60598,0.48554 -2.0100295,0.67478 -3.9640095,1.52319 -5.8423995,2.52495 z m 12.8508295,-3.4726 c 0.27206,-0.0593 0.54457001,-0.11675 0.81720001,-0.17213 2.01868999,-0.39515 4.05436999,-0.66303 6.09552999,-0.82701 -1.96155,0.32034 -3.91928,0.67423 -5.86926999,1.03023 -0.34667,-0.0139 -0.69456001,-0.0244 -1.04346001,-0.0311 z" />
    <text
       xml:space="preserve"
       style="font-size:5.27386px;font-family:Dubai;-inkscape-font-specification:'Dubai, Normal';fill:#000000;fill-opacity:1;stroke:none;stroke-width:5.53748;stroke-linecap:square;paint-order:markers stroke fill"
       x="1.7600052"
       y="25.083708"
       id="text3"
       transform="scale(0.93776556,1.0663646)"><tspan
         sodipodi:role="line"
         x="1.7600052"
         y="25.083708"
         style="font-style:normal;font-variant:normal;font-weight:normal;font-stretch:normal;font-size:5.27386px;font-family:'Berlin Sans FB';-inkscape-font-specification:'Berlin Sans FB, Normal';font-variant-ligatures:normal;font-variant-caps:normal;font-variant-numeric:normal;font-variant-east-asian:normal;fill:#000000;stroke-width:5.53748"
         id="tspan3">LM</tspan></text>
    <text
       xml:space="preserve"
       style="font-style:normal;font-variant:normal;font-weight:normal;font-stretch:normal;font-size:3.95016px;font-family:'Ink Free';-inkscape-font-specification:'Ink Free, Normal';font-variant-ligatures:normal;font-variant-caps:normal;font-variant-numeric:normal;font-variant-east-asian:normal;fill:#000000;fill-opacity:1;stroke:none;stroke-width:34.5637;stroke-linecap:square;paint-order:markers stroke fill"
       x="9.3130598"
       y="24.240198"
       id="text4"
       transform="scale(0.93776556,1.0663646)"><tspan
         sodipodi:role="line"
         id="tspan4"
         x="9.3130598"
         y="24.240198"
         style="fill:#000000;stroke-width:34.5637">pilates</tspan></text>
    <path
       id="path41"
       style="opacity:0.747573;fill:#162d50;fill-opacity:1;stroke:none;stroke-linecap:square;stroke-linejoin:round;paint-order:markers stroke fill"
       d="m 79.945605,149.61552 c 6.3734,0.52076 12.744143,-0.24638 18.742909,-2.13459 3.974516,-1.30842 6.977086,-2.84003 8.478426,-3.64989 1.83091,-0.89171 3.61153,-1.89289 5.31855,-3.01298 -0.61776,0.33653 -1.24132,0.65951 -1.8701,0.96887 2.37646,-1.55285 6.79114,-4.75246 11.05409,-10.35375 1.79796,-2.36242 3.36554,-4.89051 4.60484,-7.5759 0.48078,-1.04179 2.42536,-5.12156 1.94686,-7.27007 -0.0436,-0.19562 -0.33263,-0.0468 -0.49872,-0.0705 -0.9813,1.96598 -2.0986,3.81243 -3.33176,5.53787 0.82732,-1.96146 1.49957,-3.98116 2.00225,-6.04514 -0.47523,1.09748 -1.02067,2.15651 -1.56253,3.20195 -1.99496,3.84903 -4.48381,7.32545 -7.29741,10.30263 -0.16525,0.14079 -0.33144,0.28019 -0.49855,0.4182 0.28712,-0.31593 0.56911,-0.6363 0.847,-0.95995 0.13972,-0.1627 1.53028,-1.77821 2.80214,-3.62951 1.39088,-2.02452 2.30227,-3.75636 2.70381,-4.56822 0.31023,-0.62726 0.58506,-1.27143 0.85177,-1.91919 -1.00774,1.69217 -2.13128,3.2822 -3.35299,4.76799 -2.92313,4.33776 -6.67918,8.07862 -10.96509,11.0859 -2.89841,1.55885 -5.93868,2.77802 -9.03143,3.65086 -7.418696,2.58569 -15.389855,3.32357 -22.788612,1.80411 -8.03003,-1.61307 -15.377982,-5.94158 -20.958839,-11.77806 -3.251597,-3.40053 -5.89889,-7.31855 -7.745108,-11.49107 0.04178,-0.15609 0.08457,-0.31145 0.128357,-0.46606 -0.367058,-0.58594 -0.707811,-1.18891 -1.038903,-1.79753 -0.182483,-0.49829 -0.34761,-1.00169 -0.50735,-1.5054 -0.109023,-0.34386 -0.218082,-0.68735 -0.316515,-1.03362 -0.587254,-3.18267 -0.719217,-6.3768 -0.377958,-9.50261 0.0031,-0.0417 0.0063,-0.0834 0.0095,-0.12506 1.003635,-12.819352 10.517181,-24.320575 21.940346,-29.583699 3.099469,-1.428051 6.346879,-2.433722 9.635171,-2.86195 2.442438,-0.362873 4.941983,-0.421153 7.434672,-0.189044 4.897454,0.370568 9.805324,1.806399 14.257833,4.080243 4.0843,1.427864 8.00765,3.56389 11.42736,6.366304 -2.98563,-3.305194 -6.6569,-6.10976 -10.71292,-8.248499 -5.13055,-2.761956 -10.905766,-4.418951 -16.694134,-4.739618 -1.989222,-0.110201 -4.03481,-0.06165 -6.103624,0.186879 -6.825314,0.746407 -13.707065,3.726086 -19.544535,8.464014 0.201141,-0.191 0.405997,-0.378147 0.610678,-0.565606 5.416815,-4.521001 11.957859,-7.699987 18.80538,-8.734641 3.433441,-0.548091 6.954248,-0.572471 10.439477,-0.130925 -2.868371,-0.756967 -5.848856,-1.19253 -8.879815,-1.244774 -0.580747,0.05839 -1.160061,0.131289 -1.737403,0.218813 -1.245222,0.181785 -2.479715,0.433124 -3.699163,0.748164 0.877313,-0.32676 1.769915,-0.621708 2.678423,-0.874301 0.360876,-0.100335 0.684672,-0.184087 0.962523,-0.252792 1.260608,-0.317632 2.244904,-0.49012 2.73012,-0.57142 5.418782,-0.198673 10.814038,0.824378 15.886301,2.658827 -1.645948,-0.907267 -3.369782,-1.714509 -5.15906,-2.405046 -1.479811,-0.414916 -2.99176,-0.726219 -4.518343,-0.96439 0.3234,-0.01855 0.828909,-0.03924 1.526929,-0.05161 0.375178,-0.02439 0.751677,-0.04398 1.129362,-0.05819 5.628372,0.854361 11.097524,2.849721 15.972164,5.77242 -1.54876,-1.17385 -3.18913,-2.256553 -4.90699,-3.233941 -3.164314,-1.305378 -6.470829,-2.267473 -9.836389,-2.82147 -0.606805,-0.188531 -1.2193,-0.36401 -1.837025,-0.525938 6.709024,0.938643 13.196834,3.471105 18.768754,7.249323 5.52814,3.61301 10.00021,8.589071 13.40709,14.105647 1.09295,1.769758 2.26418,3.845453 3.10447,5.716015 -2.09572,-9.0564 -7.76577,-17.280735 -15.55985,-23.298703 -0.89717,-0.426308 -1.78939,-0.862197 -2.69845,-1.255718 -1.41407,-0.979134 -2.88992,-1.888102 -4.41988,-2.71921 -7.589472,-3.145091 -15.997979,-4.337069 -24.211281,-3.100218 2.00954,-0.41044 4.713932,-0.862651 7.286313,-1.044548 -2.437695,-0.293348 -4.925227,-0.391729 -7.441784,-0.275078 3.17563,-0.461734 6.373675,-0.583201 9.542522,-0.380555 4.611921,0.397193 9.105278,1.542703 13.34655,3.233441 0.78603,0.198414 1.56893,0.416779 2.34767,0.654968 5.35498,2.335538 10.28025,5.607279 14.43812,9.656514 -0.88499,-1.034728 -1.81893,-2.035601 -2.79831,-2.999118 0.25484,0.201504 0.5068,0.406692 0.75752,0.61331 4.56527,3.825224 5.86727,5.840881 6.23246,6.267114 0.10043,0.124984 0.22436,0.282328 0.35836,0.453426 2.12418,2.162118 4.05815,4.566806 5.74953,7.207426 -0.69429,-1.481745 -1.43502,-2.939922 -2.31487,-4.314475 -4.66529,-7.288421 -11.39799,-13.020633 -19.05363,-16.904605 -0.32003,-0.160562 -0.64235,-0.316581 -0.96577,-0.470371 -2.6518,-1.596194 -5.475814,-2.964634 -8.435016,-4.068175 -6.423604,-1.548894 -13.148085,-1.872501 -19.759259,-0.793267 -15.14372,2.653163 -28.164872,12.597065 -35.063789,25.775331 -1.083461,1.94542 -2.032686,3.972286 -2.83227,6.068423 -2.190933,5.830789 -2.602272,10.718951 -2.664123,11.333787 -0.11371,1.130358 -0.159006,2.006038 -0.181684,2.976568 0.0024,0.19419 -0.10907,6.25311 2.17713,13.39367 5.414324,16.91097 20.454257,30.29949 38.48868,33.25548 1.078279,0.16303 2.158473,0.28829 3.238776,0.37656 z M 73.055756,59.158738 c -7.419235,2.24234 -13.409679,6.0711 -17.337579,9.196892 -0.952915,0.591429 -1.888462,1.218551 -2.803942,1.880257 0.672096,-0.625123 1.362054,-1.231721 2.068725,-1.818899 5.242167,-4.323302 11.413806,-7.545203 18.072798,-9.258243 z"
       transform="matrix(0.02087949,-0.18347319,0.18347319,0.02087949,-10.023341,25.056079)"
       inkscape:original-d="M 124.08703,115.10507 A 41.774796,40.07 0 0 1 77.795117,142.15548 41.774796,40.07 0 0 1 42.627342,102.58981 41.774796,40.07 0 0 1 77.795117,63.024142 41.774796,40.07 0 0 1 124.08703,90.074554"
       inkscape:path-effect="#path-effect42" />
    <rect
       style="opacity:1;fill:#223655;fill-opacity:0.937255;stroke:none;stroke-width:0.0646318;stroke-linecap:square;stroke-linejoin:round;stroke-dasharray:none;paint-order:markers stroke fill"
       id="rect8"
       width="17.341017"
       height="0.33357406"
       x="1.9238532"
       y="22.144503" />
    <path
       id="path52"
       style="fill:#000000;fill-opacity:1;stroke:#1a1a1a;stroke-linecap:square;stroke-linejoin:round;paint-order:markers stroke fill"
       d="m 79.945605,149.61552 c 6.3734,0.52076 12.744143,-0.24638 18.742909,-2.13459 3.974516,-1.30842 6.977086,-2.84003 8.478426,-3.64989 1.83091,-0.89171 3.61153,-1.89289 5.31855,-3.01298 -0.61776,0.33653 -1.24132,0.65951 -1.8701,0.96887 2.37646,-1.55285 6.79114,-4.75246 11.05409,-10.35375 1.79796,-2.36242 3.36554,-4.89051 4.60484,-7.5759 0.48078,-1.04179 2.42536,-5.12156 1.94686,-7.27007 -0.0436,-0.19562 -0.33263,-0.0468 -0.49872,-0.0705 -0.9813,1.96598 -2.0986,3.81243 -3.33176,5.53787 0.82732,-1.96146 1.49957,-3.98116 2.00225,-6.04514 -0.47523,1.09748 -1.02067,2.15651 -1.56253,3.20195 -1.99496,3.84903 -4.48381,7.32545 -7.29741,10.30263 -0.16525,0.14079 -0.33144,0.28019 -0.49855,0.4182 0.28712,-0.31593 0.56911,-0.6363 0.847,-0.95995 0.13972,-0.1627 1.53028,-1.77821 2.80214,-3.62951 1.39088,-2.02452 2.30227,-3.75636 2.70381,-4.56822 0.31023,-0.62726 0.58506,-1.27143 0.85177,-1.91919 -1.00774,1.69217 -2.13128,3.2822 -3.35299,4.76799 -2.92313,4.33776 -6.67918,8.07862 -10.96509,11.0859 -2.89841,1.55885 -5.93868,2.77802 -9.03143,3.65086 -7.418696,2.58569 -15.389855,3.32357 -22.788612,1.80411 -8.03003,-1.61307 -15.377982,-5.94158 -20.958839,-11.77806 -3.251597,-3.40053 -5.89889,-7.31855 -7.745108,-11.49107 0.04178,-0.15609 0.08457,-0.31145 0.128357,-0.46606 -0.367058,-0.58594 -0.707811,-1.18891 -1.038903,-1.79753 -0.182483,-0.49829 -0.34761,-1.00169 -0.50735,-1.5054 -0.109023,-0.34386 -0.218082,-0.68735 -0.316515,-1.03362 -0.587254,-3.18267 -0.719217,-6.3768 -0.377958,-9.50261 0.0031,-0.0417 0.0063,-0.0834 0.0095,-0.12506 1.003635,-12.819352 10.517181,-24.320575 21.940346,-29.583699 3.099469,-1.428051 6.346879,-2.433722 9.635171,-2.86195 2.442438,-0.362873 4.941983,-0.421153 7.434672,-0.189044 4.897454,0.370568 9.805324,1.806399 14.257833,4.080243 4.0843,1.427864 8.00765,3.56389 11.42736,6.366304 -2.98563,-3.305194 -6.6569,-6.10976 -10.71292,-8.248499 -5.13055,-2.761956 -10.905766,-4.418951 -16.694134,-4.739618 -1.989222,-0.110201 -4.03481,-0.06165 -6.103624,0.186879 -6.825314,0.746407 -13.707065,3.726086 -19.544535,8.464014 0.201141,-0.191 0.405997,-0.378147 0.610678,-0.565606 5.416815,-4.521001 11.957859,-7.699987 18.80538,-8.734641 3.433441,-0.548091 6.954248,-0.572471 10.439477,-0.130925 -2.868371,-0.756967 -5.848856,-1.19253 -8.879815,-1.244774 -0.580747,0.05839 -1.160061,0.131289 -1.737403,0.218813 -1.245222,0.181785 -2.479715,0.433124 -3.699163,0.748164 0.877313,-0.32676 1.769915,-0.621708 2.678423,-0.874301 0.360876,-0.100335 0.684672,-0.184087 0.962523,-0.252792 1.260608,-0.317632 2.244904,-0.49012 2.73012,-0.57142 5.418782,-0.198673 10.814038,0.824378 15.886301,2.658827 -1.645948,-0.907267 -3.369782,-1.714509 -5.15906,-2.405046 -1.479811,-0.414916 -2.99176,-0.726219 -4.518343,-0.96439 0.3234,-0.01855 0.828909,-0.03924 1.526929,-0.05161 0.375178,-0.02439 0.751677,-0.04398 1.129362,-0.05819 5.628372,0.854361 11.097524,2.849721 15.972164,5.77242 -1.54876,-1.17385 -3.18913,-2.256553 -4.90699,-3.233941 -3.164314,-1.305378 -6.470829,-2.267473 -9.836389,-2.82147 -0.606805,-0.188531 -1.2193,-0.36401 -1.837025,-0.525938 6.709024,0.938643 13.196834,3.471105 18.768754,7.249323 5.52814,3.61301 10.00021,8.589071 13.40709,14.105647 1.09295,1.769758 2.26418,3.845453 3.10447,5.716015 -2.09572,-9.0564 -7.76577,-17.280735 -15.55985,-23.298703 -0.89717,-0.426308 -1.78939,-0.862197 -2.69845,-1.255718 -1.41407,-0.979134 -2.88992,-1.888102 -4.41988,-2.71921 -7.589472,-3.145091 -15.997979,-4.337069 -24.211281,-3.100218 2.00954,-0.41044 4.713932,-0.862651 7.286313,-1.044548 -2.437695,-0.293348 -4.925227,-0.391729 -7.441784,-0.275078 3.17563,-0.461734 6.373675,-0.583201 9.542522,-0.380555 4.611921,0.397193 9.105278,1.542703 13.34655,3.233441 0.78603,0.198414 1.56893,0.416779 2.34767,0.654968 5.35498,2.335538 10.28025,5.607279 14.43812,9.656514 -0.88499,-1.034728 -1.81893,-2.035601 -2.79831,-2.999118 0.25484,0.201504 0.5068,0.406692 0.75752,0.61331 4.56527,3.825224 5.86727,5.840881 6.23246,6.267114 0.10043,0.124984 0.22436,0.282328 0.35836,0.453426 2.12418,2.162118 4.05815,4.566806 5.74953,7.207426 -0.69429,-1.481745 -1.43502,-2.939922 -2.31487,-4.314475 -4.66529,-7.288421 -11.39799,-13.020633 -19.05363,-16.904605 -0.32003,-0.160562 -0.64235,-0.316581 -0.96577,-0.470371 -2.6518,-1.596194 -5.475814,-2.964634 -8.435016,-4.068175 -6.423604,-1.548894 -13.148085,-1.872501 -19.759259,-0.793267 -15.14372,2.653163 -28.164872,12.597065 -35.063789,25.775331 -1.083461,1.94542 -2.032686,3.972286 -2.83227,6.068423 -2.190933,5.830789 -2.602272,10.718951 -2.664123,11.333787 -0.11371,1.130358 -0.159006,2.006038 -0.181684,2.976568 0.0024,0.19419 -0.10907,6.25311 2.17713,13.39367 5.414324,16.91097 20.454257,30.29949 38.48868,33.25548 1.078279,0.16303 2.158473,0.28829 3.238776,0.37656 z M 73.055756,59.158738 c -7.419235,2.24234 -13.409679,6.0711 -17.337579,9.196892 -0.952915,0.591429 -1.888462,1.218551 -2.803942,1.880257 0.672096,-0.625123 1.362054,-1.231721 2.068725,-1.818899 5.242167,-4.323302 11.413806,-7.545203 18.072798,-9.258243 z"
       inkscape:path-effect="#path-effect54"
       inkscape:original-d="M 124.08703,115.10507 A 41.774796,40.07 0 0 1 77.795117,142.15548 41.774796,40.07 0 0 1 42.627342,102.58981 41.774796,40.07 0 0 1 77.795117,63.024142 41.774796,40.07 0 0 1 124.08703,90.074554"
       transform="matrix(-0.00410195,-0.02191091,0.04146166,-0.01544886,5.3092993,11.483188)" />
    <path
       id="path1"
       style="fill:#000000;fill-opacity:1;stroke:#000000;stroke-width:0.714442;stroke-linecap:square;stroke-linejoin:round;stroke-dasharray:none;stroke-opacity:1;paint-order:markers stroke fill"
       d="m 85.851346,120.42631 c -0.401172,0.10594 -0.805195,0.25799 -1.213147,0.4587 -0.211899,0.10388 -0.420965,0.29596 -0.628719,0.5786 -0.05337,0.0472 -0.105776,0.11922 -0.157374,0.21611 -0.01313,0.0246 -0.02625,0.051 -0.03923,0.079 -0.0045,0.01 -0.0091,0.0195 -0.0136,0.0295 0.007,-0.0107 0.01332,-0.0214 0.01994,-0.0318 0.01927,-0.0301 0.03854,-0.0584 0.05768,-0.085 0.07673,-0.10639 0.153557,-0.18535 0.230025,-0.23959 0.316126,-0.32739 0.621331,-0.54089 0.913415,-0.66749 0.331183,-0.14432 0.682603,-0.2504 1.028637,-0.36779 -0.06605,0.0149 -0.131323,0.0123 -0.197611,0.0297 z m 0.197611,-0.0297 c 0.334224,-0.0758 0.667911,-0.13866 0.999527,-0.15179 2.949615,-0.12551 5.711216,0.26172 8.340567,1.04709 2.195378,0.64592 4.288535,1.42123 6.273379,2.31913 0.61472,0.11311 1.20233,0.25601 1.79916,0.39839 0.88797,0.44965 1.75188,0.92574 2.59139,1.4271 4.37033,1.83789 8.33029,4.14189 11.83255,6.85783 -1.09509,-0.70072 -2.06578,-1.20007 -3.52489,-1.8915 0.95682,0.90062 1.86321,1.84628 2.7175,2.83483 -1.28262,-1.03795 -2.63724,-2.0135 -4.05131,-2.92765 -2.01269,-1.40777 -4.10543,-2.70831 -6.38336,-3.84999 -0.4505,-0.1331 -0.90369,-0.26274 -1.36002,-0.38859 -2.98375,-1.32529 -6.184682,-2.41408 -9.565894,-3.25637 0.744298,0.26525 1.474994,0.54693 2.192282,0.84421 -0.184545,-0.0506 -0.368274,-0.10112 -0.55398,-0.15027 -3.380775,-0.92703 -4.833092,-1.11921 -5.17349,-1.17535 -0.100998,-0.0198 -0.209094,-0.0414 -0.344458,-0.0671 -0.117264,-0.01 -0.235062,-0.0196 -0.352546,-0.0293 -1.805934,-0.15384 -3.639333,-0.21798 -5.503695,-0.17954 0.996495,0.0702 1.910543,0.20106 2.891354,0.34504 0.385619,0.0566 0.769602,0.1193 1.151776,0.18803 4.646406,0.81648 9.076545,2.03873 13.052201,3.71128 0.18044,0.0746 0.36177,0.14921 0.54076,0.22549 1.40314,0.8434 2.73619,1.75947 3.99706,2.74445 3.4399,1.74515 6.57053,3.82113 9.35358,6.20759 5.38106,4.53305 9.39097,10.23751 11.78049,16.99319 0.32624,1.11695 0.61015,2.25972 0.85193,3.42754 1.25045,5.73864 0.94024,6.45547 0.99333,7.09122 0.0531,0.63575 0.54384,1.17796 0.0399,8.37483 -0.078,1.11363 -0.18773,2.24269 -0.32915,3.38715 -1.29194,10.33396 -5.12788,21.77599 -10.99231,33.84525 -2.16872,4.4633 -4.60977,9.00132 -7.29269,13.59106 -1.72706,3.05161 -3.16564,5.39968 -3.97782,6.71047 -1.06622,1.57929 -2.15628,3.15344 -3.25704,4.72988 0.47189,-0.59366 0.93957,-1.18658 1.40313,-1.77908 -0.37014,0.58534 -4.71754,7.49807 -7.022362,11.00455 -1.291251,1.96446 -2.938043,4.40251 -4.22929,6.36694 -0.394451,0.59882 -3.15235,4.38107 -2.446933,4.71572 0.07938,0.0376 0.627926,-0.35648 0.941675,-0.53528 1.891609,-2.00907 3.74136,-4.0176 5.548925,-6.02442 -0.986644,1.5715 -2.001859,3.14906 -3.045479,4.73185 0.956189,-1.0905 1.926775,-2.18413 2.815882,-3.25212 3.285462,-3.94646 6.087832,-7.62637 8.714142,-11.25982 0.17685,-0.2119 0.35327,-0.42401 0.52911,-0.63579 -0.24417,0.36064 -0.48943,0.72187 -0.7379,1.08381 -0.25005,0.36416 -5.20474,7.28662 -6.07497,8.47155 -0.43673,0.59466 -0.84009,1.16952 -1.266372,1.75524 1.702192,-1.91242 3.365422,-3.82291 4.989592,-5.73013 3.56745,-4.73215 6.8505,-9.41204 9.84935,-14.01969 2.51112,-3.25368 4.89754,-6.48921 7.15382,-9.69957 9.94547,-15.40266 16.00554,-29.70573 18.60356,-42.32823 l 0.0327,-0.1608 c 0.77443,-3.86236 1.21844,-7.57002 1.32609,-11.10637 0.11539,-0.19245 0.23046,-0.38466 0.34451,-0.57681 -0.1055,-0.43632 -0.20166,-0.87185 -0.31587,-1.30356 -0.002,-0.40664 -0.002,-0.81249 -0.0139,-1.2136 -0.008,-0.27187 -0.0243,-0.54064 -0.037,-0.80976 0.21506,-2.74305 0.21232,-5.36145 -0.0377,-7.83415 -0.78358,-7.75096 -3.56325,-14.28937 -7.79335,-19.61271 -1.2989,-1.65078 -2.73624,-3.19812 -4.30109,-4.63902 -3.10572,-2.85969 -6.80289,-5.24343 -10.79749,-7.22316 -3.31302,-1.56584 -6.88236,-2.85094 -10.68335,-3.83454 -0.0889,-0.0232 -0.17759,-0.0462 -0.26665,-0.0689 -3.54981,-0.49958 -7.21957,-0.68046 -11.036594,-0.44282 3.005803,0.0234 5.860194,0.4419 8.599224,1.16636 0.63641,0.16622 1.26611,0.3414 1.88889,0.52505 4.16193,1.2629 8.05671,2.90784 11.52781,4.95868 4.2963,2.53839 8.22986,5.81432 11.51858,9.89184 0.66247,0.81187 1.29051,1.64885 1.88418,2.50978 -0.11621,-0.12883 -0.22996,-0.25849 -0.34813,-0.3856 -0.5728,-0.72047 -1.17188,-1.42044 -1.7962,-2.0998 -3.89517,-4.28699 -8.74116,-7.79233 -14.33592,-10.45568 1.62915,1.12724 3.15538,2.35594 4.57351,3.68069 0.98632,0.65531 1.94432,1.33969 2.8678,2.05426 -0.52221,-0.28889 -1.05537,-0.57217 -1.58763,-0.85224 -1.02807,-0.54093 -1.99638,-1.00914 -2.16029,-1.08842 -2.76427,-2.02399 -5.76008,-3.77879 -9.11643,-5.17525 1.02084,0.66363 2.00086,1.36874 2.93817,2.11433 0.82676,0.5045 1.65237,1.02235 2.43963,1.56561 -0.13398,-0.0448 -0.57246,-0.19526 -0.93683,-0.31328 -0.23844,-0.0622 -0.47799,-0.12328 -0.71774,-0.18383 -3.14192,-1.657 -6.54514,-3.04149 -10.17862,-4.13353 1.15418,0.49594 2.2731,1.03258 3.35535,1.60836 2.07208,0.73564 4.0478,1.57758 5.94596,2.51174 0.30785,0.23092 0.61152,0.4657 0.91113,0.70449 -3.60192,-2.01113 -7.57277,-3.64673 -11.85545,-4.87746 -1.20432,-0.32409 -2.418789,-0.62774 -3.66354,-0.90195 -3.181168,-0.71242 -6.379364,-0.98632 -9.947798,-0.67519 -0.11875,0.0104 -0.23504,0.021 -0.349127,0.0322 -0.801631,0.0766 -1.579859,0.2883 -2.338854,0.54592 z m 32.737573,14.29237 c 0.24575,0.18729 0.48203,0.37185 0.70929,0.55326 2.90655,2.28318 4.80507,4.45405 6.31781,6.65773 0.22775,0.57622 0.44277,1.16103 0.64433,1.75416 -0.25229,-0.39461 -0.51191,-0.78427 -0.77808,-1.16861 -1.79608,-2.63657 -3.89086,-5.05405 -6.27714,-7.23435 -0.20345,-0.18906 -0.40875,-0.37658 -0.61624,-0.56218 z"
       transform="matrix(-0.06111894,0.02323175,0.02185943,0.06495596,14.902199,0.43337349)" />
    <path
       id="path55"
       style="fill:#000000;fill-opacity:1;stroke:#000000;stroke-width:0.0664003;stroke-linecap:square;stroke-linejoin:round;stroke-dasharray:none;stroke-opacity:1;paint-order:markers stroke fill"
       d="m 6.8118793,4.7488405 c -0.0444,0.01172 -0.0891,0.02855 -0.13425,0.05076 -0.0234,0.0115 -0.0466,0.03275 -0.0696,0.06403 -0.006,0.0052 -0.0117,0.01319 -0.0174,0.02392 -10e-4,0.0027 -0.003,0.0056 -0.004,0.0087 -5e-4,0.0011 -0.001,0.0022 -0.001,0.0033 7.7e-4,-0.0012 0.001,-0.0024 0.002,-0.0035 0.002,-0.0033 0.004,-0.0065 0.006,-0.0094 0.008,-0.01177 0.017,-0.02051 0.0255,-0.02651 0.035,-0.03623 0.0688,-0.05986 0.10109,-0.07387 0.0367,-0.01597 0.0755,-0.02771 0.11383,-0.0407 -0.007,0.0016 -0.0145,0.0014 -0.0219,0.0033 z m 0.0219,-0.0033 c 0.037,-0.0084 0.0739,-0.01534 0.11062,-0.0168 0.32642,-0.01389 0.63204,0.02896 0.92302,0.115879 0.24296,0.07148 0.4746,0.157283 0.69426,0.256651 0.068,0.01252 0.13306,0.02833 0.19911,0.04409 0.0983,0.04976 0.19387,0.102449 0.28678,0.157933 0.48365,0.203395 0.92189,0.458372 1.3094797,0.758937 -0.12119,-0.07755 -0.22862,-0.132808 -0.3900897,-0.209327 0.1058897,0.09967 0.2061897,0.204323 0.3007297,0.313723 -0.14194,-0.114867 -0.2918497,-0.222828 -0.4483397,-0.323995 -0.22274,-0.155794 -0.45434,-0.299721 -0.70643,-0.426068 -0.0499,-0.01473 -0.10001,-0.02908 -0.15051,-0.043 -0.3302,-0.146666 -0.68444,-0.267159 -1.05863,-0.360373 0.0824,0.02935 0.16323,0.06053 0.24261,0.09343 -0.0204,-0.0056 -0.0408,-0.01119 -0.0613,-0.01663 -0.37414,-0.102592 -0.53486,-0.12386 -0.57253,-0.130072 -0.0112,-0.0022 -0.0231,-0.0046 -0.0381,-0.0074 -0.013,-0.0011 -0.026,-0.0022 -0.039,-0.0032 -0.19985,-0.01703 -0.40275,-0.02412 -0.60908,-0.01987 0.11028,0.0078 0.21144,0.02225 0.31998,0.03818 0.0427,0.0063 0.0852,0.0132 0.12747,0.02081 0.5142,0.09036 1.00447,0.225621 1.44445,0.410717 0.02,0.0083 0.04,0.01651 0.0598,0.02495 0.15528,0.09334 0.30281,0.194715 0.44234,0.30372 0.38069,0.193131 0.72715,0.422874 1.0351397,0.686977 0.59551,0.50166 1.03927,1.132957 1.30371,1.880589 0.0361,0.12361 0.0675,0.250077 0.0943,0.379316 0.13839,0.63508 0.10406,0.714409 0.10993,0.784766 0.006,0.07036 0.0602,0.130362 0.004,0.9268185 -0.009,0.123242 -0.0208,0.248192 -0.0364,0.374847 -0.14297,1.143631 -0.56749,2.409887 -1.21649,3.745558 -0.24,0.493941 -0.51015,0.996151 -0.8070597,1.504085 -0.19113,0.337714 -0.35033,0.597568 -0.44021,0.742629 -0.118,0.174776 -0.23863,0.348983 -0.36045,0.523443 0.0522,-0.0657 0.10398,-0.131316 0.15528,-0.196886 -0.041,0.06478 -0.52208,0.829792 -0.77714,1.217843 -0.1429,0.217401 -0.32515,0.487213 -0.46805,0.704611 -0.0436,0.06627 -0.34886,0.484841 -0.27079,0.521876 0.009,0.0042 0.0695,-0.03945 0.10421,-0.05924 0.20934,-0.222338 0.41405,-0.444615 0.61408,-0.666706 -0.10919,0.173914 -0.22154,0.348498 -0.33703,0.523662 0.10582,-0.120683 0.21323,-0.241713 0.31163,-0.359903 0.36359,-0.436744 0.67372,-0.843989 0.96436,-1.246093 0.0196,-0.02345 0.0391,-0.04692 0.0586,-0.07036 -0.027,0.03991 -0.0542,0.07989 -0.0817,0.119942 -0.0277,0.0403 -0.576,0.80639 -0.6723,0.937523 -0.0483,0.06581 -0.093,0.129428 -0.14015,0.194248 0.18838,-0.211643 0.37244,-0.423071 0.55219,-0.634138 0.3948,-0.523694 0.75812,-1.041604 1.0899997,-1.55152 0.2779,-0.360076 0.54199,-0.718143 0.79169,-1.073424 1.10064,-1.70457 1.77129,-3.287451 2.0588,-4.684348 l 0.004,-0.01779 c 0.0857,-0.427437 0.13485,-0.837753 0.14676,-1.2291105 0.0128,-0.0213 0.0255,-0.04257 0.0381,-0.06383 -0.0117,-0.04829 -0.0223,-0.09649 -0.0349,-0.144262 -2.2e-4,-0.045 -2.2e-4,-0.08992 -0.002,-0.134306 -8.9e-4,-0.03009 -0.003,-0.05983 -0.004,-0.08961 0.0238,-0.303566 0.0235,-0.593337 -0.004,-0.866984 -0.0867,-0.857777 -0.39433,-1.581365 -0.86247,-2.170484 -0.14374,-0.182687 -0.30281,-0.353927 -0.47599,-0.513387 -0.3437,-0.316474 -0.75285,-0.580276 -1.19492,-0.799367 -0.36665,-0.173287 -0.7616497,-0.315506 -1.1822997,-0.424358 -0.01,-0.0026 -0.0197,-0.0051 -0.0295,-0.0076 -0.39285,-0.05529 -0.79897,-0.07531 -1.22139,-0.04901 0.33265,0.0026 0.64853,0.0489 0.95165,0.129078 0.0704,0.01839 0.14012,0.03778 0.20904,0.05811 0.46059,0.139761 0.8916197,0.321802 1.2757497,0.548763 0.47546,0.280917 0.91078,0.643455 1.27473,1.094703 0.0733,0.08985 0.14282,0.182473 0.20852,0.27775 -0.0129,-0.01426 -0.0255,-0.02861 -0.0385,-0.04267 -0.0634,-0.07973 -0.12969,-0.157197 -0.19878,-0.232379 -0.43107,-0.47443 -0.96736,-0.862356 -1.58651,-1.157101 0.18029,0.124748 0.34919,0.260725 0.50613,0.407331 0.10916,0.07252 0.21518,0.14826 0.31737,0.22734 -0.0578,-0.03197 -0.11679,-0.06332 -0.17569,-0.09432 -0.11378,-0.05986 -0.22094,-0.111679 -0.23908,-0.120453 -0.30591,-0.223989 -0.6374497,-0.418188 -1.0088897,-0.57273 0.11298,0.07344 0.22143,0.151474 0.32516,0.233987 0.0915,0.05583 0.1828697,0.11314 0.2699897,0.173261 -0.0148,-0.005 -0.0633,-0.02161 -0.10368,-0.03467 -0.0264,-0.0069 -0.0529,-0.01364 -0.0794,-0.02034 -0.34771,-0.183376 -0.72433,-0.336594 -1.12644,-0.457447 0.12773,0.05488 0.25156,0.114273 0.37133,0.177993 0.22931,0.08141 0.44796,0.174586 0.65802,0.277967 0.0341,0.02556 0.0677,0.05154 0.10084,0.07796 -0.39862,-0.222566 -0.83806,-0.403573 -1.31202,-0.539775 -0.13327,-0.03587 -0.26768,-0.06947 -0.40543,-0.09982 -0.35205,-0.07884 -0.70599,-0.109153 -1.10089,-0.07472 -0.0132,0.0012 -0.026,0.0023 -0.0386,0.0036 -0.0887,0.0085 -0.17484,0.03191 -0.25884,0.06042 z m 3.6229797,1.581697 c 0.0272,0.02073 0.0533,0.04115 0.0785,0.06123 0.32166,0.252673 0.53177,0.492917 0.69918,0.736792 0.0252,0.06377 0.049,0.128488 0.0713,0.194128 -0.0279,-0.04367 -0.0566,-0.08679 -0.0861,-0.129326 -0.19877,-0.291782 -0.4306,-0.559318 -0.69468,-0.800606 -0.0225,-0.02092 -0.0452,-0.04167 -0.0682,-0.06221 z" />
    <path
       id="path5"
       style="fill:#000000;fill-opacity:1;stroke:#000000;stroke-width:0.0553336;stroke-linecap:square;stroke-linejoin:round;stroke-dasharray:none;paint-order:markers stroke fill"
       d="m 14.652139,6.4049845 c 7.7e-4,0.0793 -10e-4,0.158893 -0.005,0.238694 -0.0257,0.474816 -0.13993,0.956781 -0.35424,1.423543 -0.0762,0.163853 -0.16335,0.324438 -0.26066,0.481037 -0.12388,0.199375 -0.26416,0.392078 -0.41927,0.576416 -0.0788,0.08921 -0.16039,0.176565 -0.24448,0.262031 -0.0505,0.05971 -0.10246,0.118703 -0.15674,0.176301 0.0152,-0.02197 0.0302,-0.04402 0.045,-0.06613 -0.0776,0.07348 -0.15985,0.143277 -0.24514,0.210104 -0.0746,0.05865 -0.15179,0.115329 -0.23066,0.170441 -0.0993,0.06938 -0.20149,0.1363175 -0.30906,0.1968235 -0.0133,0.0075 -0.0265,0.01509 -0.0396,0.02267 -0.0288,0.01657 -0.0581,0.03316 -0.0893,0.04774 -0.0313,0.01465 -0.0643,0.03016 -0.0991,0.03977 -0.0203,0.0053 -0.0415,0.0089 -0.0633,0.0089 -0.007,2.9e-5 -0.013,-3.33e-4 -0.0197,-9.97e-4 -8.8e-4,-1.1e-4 -0.002,-3.32e-4 -0.002,-5.53e-4 -0.008,-0.0019 -0.0113,-0.01067 -0.0154,-0.01879 -9.9e-4,-0.0028 -0.002,-0.0055 -0.004,-0.0078 0.003,-0.0026 0.005,-0.0052 0.008,-0.0078 0.0125,-0.01212 0.0245,-0.0241 0.0361,-0.03601 0.0451,-0.0458 0.0875,-0.09167 0.12793,-0.1374055 0.003,-0.0039 0.007,-0.0078 0.0103,-0.01168 -0.005,0.0026 -0.01,0.0051 -0.0145,0.0076 -0.0572,0.029989 -0.11551,0.05948 -0.17498,0.087879 -0.0155,0.0074 -0.0313,0.01479 -0.0474,0.02213 -0.004,0.0018 -0.008,0.0037 -0.0121,0.0055 0.003,-0.0027 0.007,-0.0054 0.01,-0.008 0.0129,-0.01072 0.0253,-0.02155 0.0375,-0.03229 0.0219,-0.01922 0.0434,-0.03842 0.0654,-0.056959 0.0249,-0.02097 0.0496,-0.04193 0.074,-0.06278 0.10897,-0.09298 0.21641,-0.186514 0.31986,-0.282119 0.005,-0.007 0.0104,-0.01406 0.0156,-0.02107 -0.0136,0.01133 -0.0273,0.02256 -0.0411,0.03382 l -7e-5,6e-6 c -0.0493,0.04039 -0.0989,0.08055 -0.14957,0.119764 -0.0556,0.04298 -0.11166,0.08546 -0.16988,0.126018 -0.003,0.0023 -0.006,0.0046 -0.01,0.0068 -0.0244,0.01681 -0.05,0.03247 -0.0753,0.04848 0.0231,-0.02378 0.0456,-0.04764 0.0677,-0.07157 0.0324,-0.03504 0.064,-0.07034 0.0949,-0.105837 0.12548,-0.104666 0.24557,-0.21328 0.36057,-0.324817 0.0395,-0.03827 0.0784,-0.07692 0.11665,-0.115959 0.0705,-0.110547 0.13555,-0.222019 0.19496,-0.333986 0.2493,-0.366292 0.45915,-0.743181 0.60568,-1.124341 0.0691,-0.178844 0.12328,-0.359349 0.16192,-0.540155 0.0366,-0.171387 0.0588,-0.343102 0.0692,-0.51379 -0.008,-0.0046 -0.0157,-0.0092 -0.0236,-0.01375 0.01,-0.02574 0.0187,-0.0517 0.0279,-0.07768 7.7e-4,-0.01994 8.8e-4,-0.0398 0.001,-0.0597 3.4e-4,-0.01358 10e-4,-0.02723 10e-4,-0.04079 -0.0229,-0.121875 -0.0508,-0.241404 -0.0794,-0.359353 -0.0446,-0.184005 -0.0996,-0.363884 -0.16489,-0.537534 -0.10447,-0.286152 -0.23494,-0.560469 -0.38962,-0.826106 -0.1174,-0.201597 -0.24216,-0.402841 -0.38685,-0.595275 -0.11487,-0.163904 -0.24018,-0.324251 -0.37367,-0.481112 -0.075,-0.158779 -0.15761,-0.316948 -0.24647,-0.473926 0.13404,0.129473 0.26352,0.26195 0.38689,0.397661 0.15998,0.170195 0.30787,0.347635 0.44834,0.527443 0.22027,0.281939 0.41698,0.575397 0.57412,0.886703 -0.003,-0.0097 -0.006,-0.01926 -0.009,-0.02894 -0.15162,-0.356788 -0.34799,-0.699901 -0.57847,-1.029832 0.0917,0.07746 0.18112,0.157115 0.26775,0.239234 0.0375,0.05791 0.0735,0.116502 0.10823,0.175512 -0.0105,-0.03304 -0.0213,-0.06612 -0.0331,-0.09892 -0.0156,-0.04361 -0.0318,-0.08714 -0.0491,-0.13044 -0.12427,-0.161148 -0.26068,-0.314727 -0.39563,-0.469591 0.0663,0.04138 0.13205,0.08375 0.197,0.127115 0.0424,0.04081 0.0826,0.0832 0.12293,0.125433 -0.006,-0.01778 -0.0118,-0.03534 -0.0177,-0.05308 -0.003,-0.01365 -0.006,-0.02726 -0.009,-0.04092 -0.12435,-0.167762 -0.2584,-0.330734 -0.40071,-0.488596 0.0624,0.04476 0.12416,0.09036 0.18519,0.136751 0.0771,0.09854 0.15223,0.19796 0.22345,0.299301 0.0193,0.01537 0.0385,0.03083 0.0575,0.0464 -0.148,-0.196738 -0.30903,-0.38663 -0.48114,-0.569146 -0.16111,-0.18353 -0.34886,-0.349235 -0.50861,-0.533526 -0.0526,-0.06063 -0.0986,-0.12578 -0.14603,-0.189916 0.31179,0.186521 0.61769,0.387242 0.90948,0.606253 0.0152,0.03101 0.0332,0.06053 0.0499,0.09072 0.0516,0.03817 0.10276,0.07693 0.15342,0.116306 0.18172,0.221886 0.34677,0.454007 0.49054,0.696187 -0.0333,-0.0759 -0.0613,-0.154195 -0.0918,-0.23196 0.0635,0.06045 0.12566,0.12216 0.18649,0.185223 -0.0552,-0.09158 -0.11278,-0.182001 -0.17314,-0.270937 -0.0952,-0.12586 -0.20022,-0.245338 -0.30697,-0.363268 -0.0116,-0.02511 -0.0233,-0.05021 -0.0352,-0.07524 -0.1313,-0.153168 -0.26916,-0.301762 -0.41332,-0.444965 0.0418,0.02792 0.0833,0.05613 0.12464,0.08478 -0.008,-0.0083 -0.0151,-0.0166 -0.0226,-0.02492 -0.07,-0.0744 -0.14445,-0.145542 -0.2126,-0.220757 -0.004,-0.004 -0.0104,-0.0098 -0.0146,-0.01386 -0.0539,-0.08775 -0.10947,-0.17474 -0.16661,-0.260824 0.0436,0.03509 0.0893,0.06879 0.13001,0.106423 0.21591,0.199582 0.41347,0.41499 0.60504,0.635188 0.008,0.0092 0.0156,0.01859 0.0235,0.02786 0.0877,0.0673 0.17412,0.136411 0.25894,0.207489 0.40547,0.593815 0.72627,1.235894 0.89178,1.933676 0.004,0.01309 0.008,0.0262 0.0118,0.03933 0.017,0.05947 0.0324,0.119417 0.0464,0.179772 0.0501,0.22927 0.0758,0.464475 0.0782,0.702394 z m -0.42123,-1.412163 c -0.0106,-0.02899 -0.0215,-0.0579 -0.0326,-0.0867 -0.0842,-0.212248 -0.18468,-0.417955 -0.29798,-0.617549 0.0894,0.202184 0.17461,0.406147 0.25899,0.609532 0.0242,0.03123 0.0481,0.06281 0.0716,0.09471 z" />
    <path
       style="opacity:0.829126;fill:none;fill-opacity:0.937255;stroke:#000000;stroke-width:0.432001;stroke-linecap:square;stroke-linejoin:round;stroke-dasharray:none;stroke-opacity:1;paint-order:markers stroke fill"
       id="path15"
       sodipodi:type="arc"
       sodipodi:cx="233.40025"
       sodipodi:cy="-200.88199"
       sodipodi:rx="31.74966"
       sodipodi:ry="29.740189"
       sodipodi:start="1.3089969"
       sodipodi:end="5.009095"
       sodipodi:open="true"
       sodipodi:arc-type="arc"
       d="m 241.61767,-172.15517 a 31.74966,29.740189 0 0 1 -34.43534,-11.95316 31.74966,29.740189 0 0 1 0.64091,-34.39418 31.74966,29.740189 0 0 1 34.85972,-10.82016" />
  </g>
</svg>
