<?xml version="1.0" encoding="UTF-8" standalone="no"?>
<!-- Created with Inkscape (http://www.inkscape.org/) -->

<svg
   width="210mm"
   height="297mm"
   viewBox="0 0 210 297"
   version="1.1"
   id="svg1"
   inkscape:version="1.3.2 (091e20e, 2023-11-25, custom)"
   sodipodi:docname="logo12.svg"
   xmlns:inkscape="http://www.inkscape.org/namespaces/inkscape"
   xmlns:sodipodi="http://sodipodi.sourceforge.net/DTD/sodipodi-0.dtd"
   xmlns="http://www.w3.org/2000/svg"
   xmlns:svg="http://www.w3.org/2000/svg">
  <sodipodi:namedview
     id="namedview1"
     pagecolor="#ffffff"
     bordercolor="#000000"
     borderopacity="0.25"
     inkscape:showpageshadow="2"
     inkscape:pageopacity="0.0"
     inkscape:pagecheckerboard="0"
     inkscape:deskcolor="#d1d1d1"
     inkscape:document-units="mm"
     showguides="false"
     inkscape:zoom="0.65834035"
     inkscape:cx="397.21096"
     inkscape:cy="561.25984"
     inkscape:window-width="1920"
     inkscape:window-height="974"
     inkscape:window-x="-11"
     inkscape:window-y="-11"
     inkscape:window-maximized="1"
     inkscape:current-layer="layer1">
    <sodipodi:guide
       position="18.08525,129.81191"
       orientation="1,0"
       id="guide1"
       inkscape:locked="false" />
    <sodipodi:guide
       position="191.30175,115.74561"
       orientation="1,0"
       id="guide2"
       inkscape:locked="false" />
  </sodipodi:namedview>
  <defs
     id="defs1">
    <inkscape:path-effect
       effect="skeletal"
       id="path-effect10-6"
       is_visible="true"
       lpeversion="1"
       pattern="m 40.498535,0.01061089 c -3.961381,-0.01709 -7.92299,-0.01465 -11.884546,0.0155 -3.160036,0.08962 -4.229923,0.11578 -5.839438,0.155029 -1.289505,-0.05302 -2.578925,-0.106479 -3.869014,-0.142626 L 20.233104,0.2488369 C 17.82176,0.3307769 15.618491,0.46956991 10.540673,0.92528091 8.6419669,1.0956809 6.743232,1.2724719 4.8510978,1.5211099 4.288372,1.5950599 1.0636619,1.8107529 0.04002193,2.795451 c -0.111038,0.1068109 0.04197,0.329053 0.06305,0.4935101 L 4.4087518,4.0713419 0.07361593,4.7121299 C 0.88980494,4.7948199 1.7037119,4.9024569 2.5220459,4.9601771 5.6332398,5.17959 8.4204069,5.2642349 11.419177,5.34465 l 0.45682,0.0832 c -0.302306,0.0068 -0.604601,0.014049 -0.906922,0.020151 -0.303974,0.0061 -6.0326792,0.09624 -7.0192091,0.1266078 -0.495091,0.01524 -0.989475,0.05109 -1.484148,0.07648 l 4.148068,0.6568069 c 3.7845831,0.09254 7.5696881,0.165254 11.3548621,0.2268601 l 7.077088,1.2857089 c 12.130159,1.2056811 24.297664,1.8145741 36.46134,2.3636803 3.688295,0.166502 7.37697,0.333811 11.065992,0.476974 l 0.298175,0.31936 c 0.560144,-0.08516 1.120365,-0.158891 1.680517,-0.242362 0.431694,0.01512 0.863282,0.03625 1.295011,0.05013 0.294695,0.0095 0.589473,0.013 0.884184,0.0217 2.667942,0.392843 5.340311,0.757418 8.02277,1.046448 11.046151,1.190199 21.966305,1.81671 33.069295,2.20555 5.19615,0.18198 10.39662,0.206629 15.59491,0.310059 l 13.01936,0.0031 11.15954,-1.755448 c -3.78163,-0.0821 -7.56344,-0.164397 -11.34505,-0.246497 -4.80265,-0.15434 -9.60669,-0.269041 -14.4079,-0.463021 -7.03183,-0.284103 -14.86331,-0.694322 -22.55987,-1.129646 0.22045,-0.0091 0.44102,-0.01564 0.66145,-0.02532 8.4202,0.117941 16.84192,0.112365 25.26254,0.04599 l -7.05694,-1.1177605 c -1.4412,-0.010329 -2.8824,-0.017118 -4.32376,-0.025321 0.72862,-0.09303 1.45737,-0.1874911 2.18644,-0.2749182 1.91207,-0.2292908 2.18534,-0.260386 2.90988,-0.343648 4.16237,0.225398 8.32307,0.4918512 12.48969,0.617533 l -4.28604,-1.0092409 c -1.15861,-0.124731 -2.31929,-0.225153 -3.47886,-0.3389969 0.4681,-0.08689 0.39195,-0.06765 1.13636,-0.2036051 0.27667,-0.06847 0.55326,-0.137206 0.82993,-0.205673 4.23642,0.03638 8.47246,0.0757 12.70877,0.1266081 l -4.31652,-0.6836801 c -2.50898,0.03555 -5.01816,0.05537 -7.52719,0.08372 l -1.39061,-0.2470128 c 4.95778,0.07941 9.91562,0.1586708 14.87298,0.257865 4.85324,-0.01506 9.71382,0.2353379 14.56398,-0.05633 1.8388,-0.110577 3.00083,-0.281796 4.76973,-0.5048789 L 149.20043,3.9891769 c -0.67471,0.1154192 -1.3538,0.1891742 -2.0314,0.2775021 l -3.52381,-0.555521 c -5.57158,-0.015229 -11.14325,3.704e-4 -16.71476,0.04444 1.81091,-0.1548271 2.77181,-0.3065341 4.91806,-0.604614 L 126.9563,2.4269969 c 2.08775,-0.0069 4.17545,-0.01822 6.26319,-0.02532 3.04066,0.09188 6.07897,0.2571132 9.11831,0.3855062 l 1.61024,-0.2521812 c 3.87079,0.06408 7.74168,0.1246592 11.61221,0.2015381 l -2.70939,-0.428398 c 0.21479,-0.0015 0.4296,-0.0016 0.6444,-0.0031 3.9376,0.02136 5.47937,0.01912 5.84977,0.0078 0.25899,0.0046 0.0848,0.0026 0.38138,0.0078 l 5.9712,-0.9250074 c -1.04435,-0.05615 -2.08742,-0.150448 -3.13313,-0.168466 -5.53943,-0.09545 -11.08043,-0.04809 -16.62018,-0.117822 -0.23082,-0.0013 -0.46164,-0.0013 -0.69246,-0.0026 l -5.95313,-0.94154231 c -13.72199,0.452179 -27.44923,0.696512 -41.177846,0.79788401 -1.428589,-0.04764 -2.857439,-0.0955 -4.286038,-0.14314401 C 79.675971,0.46021091 91.485834,0.72822189 76.149078,0.48146189 64.266199,0.2901919 52.382679,0.06187889 40.498535,0.01061089 Z M 124.11049,2.4383699 c -5.72457,0.386416 -9.02525,0.474011 -13.06484,0.4666382 l -2.22673,-0.3958412 c 0.60719,-0.0058 1.2144,-0.01194 1.82159,-0.0186 4.49005,-0.02429 8.97994,-0.03684 13.46998,-0.05219 z"
       copytype="single_stretched"
       prop_scale="1"
       scale_y_rel="false"
       spacing="0"
       normal_offset="0"
       tang_offset="0"
       prop_units="false"
       vertical_pattern="false"
       hide_knot="false"
       fuse_tolerance="0" />
  </defs>
  <g
     inkscape:label="Layer 1"
     inkscape:groupmode="layer"
     id="layer1">
    <g
       id="g15"
       transform="matrix(1.8534358,0,0,-2.4697129,-1025.7155,563.26199)">
      <ellipse
         style="opacity:0.817476;fill:#535d6c;fill-opacity:1;stroke:none;stroke-width:0.991575;stroke-linecap:square;stroke-linejoin:round;stroke-dasharray:none;paint-order:markers stroke fill"
         id="ellipse14"
         cx="609.85815"
         cy="177.26718"
         rx="42.246773"
         ry="39.885586" />
      <path
         id="path9"
         style="opacity:0.829126;fill:#162d50;fill-opacity:1;stroke:none;stroke-linecap:square;stroke-linejoin:round;paint-order:markers stroke fill"
         d="m 79.945605,149.61552 c 6.3734,0.52076 12.744143,-0.24638 18.742909,-2.13459 3.974516,-1.30842 6.977086,-2.84003 8.478426,-3.64989 1.83091,-0.89171 3.61153,-1.89289 5.31855,-3.01298 -0.61776,0.33653 -1.24132,0.65951 -1.8701,0.96887 2.37646,-1.55285 6.79114,-4.75246 11.05409,-10.35375 1.79796,-2.36242 3.36554,-4.89051 4.60484,-7.5759 0.48078,-1.04179 2.42536,-5.12156 1.94686,-7.27007 -0.0436,-0.19562 -0.33263,-0.0468 -0.49872,-0.0705 -0.9813,1.96598 -2.0986,3.81243 -3.33176,5.53787 0.82732,-1.96146 1.49957,-3.98116 2.00225,-6.04514 -0.47523,1.09748 -1.02067,2.15651 -1.56253,3.20195 -1.99496,3.84903 -4.48381,7.32545 -7.29741,10.30263 -0.16525,0.14079 -0.33144,0.28019 -0.49855,0.4182 0.28712,-0.31593 0.56911,-0.6363 0.847,-0.95995 0.13972,-0.1627 1.53028,-1.77821 2.80214,-3.62951 1.39088,-2.02452 2.30227,-3.75636 2.70381,-4.56822 0.31023,-0.62726 0.58506,-1.27143 0.85177,-1.91919 -1.00774,1.69217 -2.13128,3.2822 -3.35299,4.76799 -2.92313,4.33776 -6.67918,8.07862 -10.96509,11.0859 -2.89841,1.55885 -5.93868,2.77802 -9.03143,3.65086 -7.418696,2.58569 -15.389855,3.32357 -22.788612,1.80411 -8.03003,-1.61307 -15.377982,-5.94158 -20.958839,-11.77806 -3.251597,-3.40053 -5.89889,-7.31855 -7.745108,-11.49107 0.04178,-0.15609 0.08457,-0.31145 0.128357,-0.46606 -0.367058,-0.58594 -0.707811,-1.18891 -1.038903,-1.79753 -0.182483,-0.49829 -0.34761,-1.00169 -0.50735,-1.5054 -0.109023,-0.34386 -0.218082,-0.68735 -0.316515,-1.03362 -0.587254,-3.18267 -0.719217,-6.3768 -0.377958,-9.50261 0.0031,-0.0417 0.0063,-0.0834 0.0095,-0.12506 1.003635,-12.819352 10.517181,-24.320575 21.940346,-29.583699 3.099469,-1.428051 6.346879,-2.433722 9.635171,-2.86195 2.442438,-0.362873 4.941983,-0.421153 7.434672,-0.189044 4.897454,0.370568 9.805324,1.806399 14.257833,4.080243 4.0843,1.427864 8.00765,3.56389 11.42736,6.366304 -2.98563,-3.305194 -6.6569,-6.10976 -10.71292,-8.248499 -5.13055,-2.761956 -10.905766,-4.418951 -16.694134,-4.739618 -1.989222,-0.110201 -4.03481,-0.06165 -6.103624,0.186879 -6.825314,0.746407 -13.707065,3.726086 -19.544535,8.464014 0.201141,-0.191 0.405997,-0.378147 0.610678,-0.565606 5.416815,-4.521001 11.957859,-7.699987 18.80538,-8.734641 3.433441,-0.548091 6.954248,-0.572471 10.439477,-0.130925 -2.868371,-0.756967 -5.848856,-1.19253 -8.879815,-1.244774 -0.580747,0.05839 -1.160061,0.131289 -1.737403,0.218813 -1.245222,0.181785 -2.479715,0.433124 -3.699163,0.748164 0.877313,-0.32676 1.769915,-0.621708 2.678423,-0.874301 0.360876,-0.100335 0.684672,-0.184087 0.962523,-0.252792 1.260608,-0.317632 2.244904,-0.49012 2.73012,-0.57142 5.418782,-0.198673 10.814038,0.824378 15.886301,2.658827 -1.645948,-0.907267 -3.369782,-1.714509 -5.15906,-2.405046 -1.479811,-0.414916 -2.99176,-0.726219 -4.518343,-0.96439 0.3234,-0.01855 0.828909,-0.03924 1.526929,-0.05161 0.375178,-0.02439 0.751677,-0.04398 1.129362,-0.05819 5.628372,0.854361 11.097524,2.849721 15.972164,5.77242 -1.54876,-1.17385 -3.18913,-2.256553 -4.90699,-3.233941 -3.164314,-1.305378 -6.470829,-2.267473 -9.836389,-2.82147 -0.606805,-0.188531 -1.2193,-0.36401 -1.837025,-0.525938 6.709024,0.938643 13.196834,3.471105 18.768754,7.249323 5.52814,3.61301 10.00021,8.589071 13.40709,14.105647 1.09295,1.769758 2.26418,3.845453 3.10447,5.716015 -2.09572,-9.0564 -7.76577,-17.280735 -15.55985,-23.298703 -0.89717,-0.426308 -1.78939,-0.862197 -2.69845,-1.255718 -1.41407,-0.979134 -2.88992,-1.888102 -4.41988,-2.71921 -7.589472,-3.145091 -15.997979,-4.337069 -24.211281,-3.100218 2.00954,-0.41044 4.713932,-0.862651 7.286313,-1.044548 -2.437695,-0.293348 -4.925227,-0.391729 -7.441784,-0.275078 3.17563,-0.461734 6.373675,-0.583201 9.542522,-0.380555 4.611921,0.397193 9.105278,1.542703 13.34655,3.233441 0.78603,0.198414 1.56893,0.416779 2.34767,0.654968 5.35498,2.335538 10.28025,5.607279 14.43812,9.656514 -0.88499,-1.034728 -1.81893,-2.035601 -2.79831,-2.999118 0.25484,0.201504 0.5068,0.406692 0.75752,0.61331 4.56527,3.825224 5.86727,5.840881 6.23246,6.267114 0.10043,0.124984 0.22436,0.282328 0.35836,0.453426 2.12418,2.162118 4.05815,4.566806 5.74953,7.207426 -0.69429,-1.481745 -1.43502,-2.939922 -2.31487,-4.314475 -4.66529,-7.288421 -11.39799,-13.020633 -19.05363,-16.904605 -0.32003,-0.160562 -0.64235,-0.316581 -0.96577,-0.470371 -2.6518,-1.596194 -5.475814,-2.964634 -8.435016,-4.068175 -6.423604,-1.548894 -13.148085,-1.872501 -19.759259,-0.793267 -15.14372,2.653163 -28.164872,12.597065 -35.063789,25.775331 -1.083461,1.94542 -2.032686,3.972286 -2.83227,6.068423 -2.190933,5.830789 -2.602272,10.718951 -2.664123,11.333787 -0.11371,1.130358 -0.159006,2.006038 -0.181684,2.976568 0.0024,0.19419 -0.10907,6.25311 2.17713,13.39367 5.414324,16.91097 20.454257,30.29949 38.48868,33.25548 1.078279,0.16303 2.158473,0.28829 3.238776,0.37656 z M 73.055756,59.158738 c -7.419235,2.24234 -13.409679,6.0711 -17.337579,9.196892 -0.952915,0.591429 -1.888462,1.218551 -2.803942,1.880257 0.672096,-0.625123 1.362054,-1.231721 2.068725,-1.818899 5.242167,-4.323302 11.413806,-7.545203 18.072798,-9.258243 z"
         transform="matrix(-0.0786073,0.98938702,-0.98938702,-0.0786073,718.4771,105.9713)"
         inkscape:original-d="M 124.08703,115.10507 A 41.774796,40.07 0 0 1 77.795117,142.15548 41.774796,40.07 0 0 1 42.627342,102.58981 41.774796,40.07 0 0 1 77.795117,63.024142 41.774796,40.07 0 0 1 124.08703,90.074554"
         inkscape:path-effect="#path-effect10-6" />
    </g>
    <text
       xml:space="preserve"
       style="font-size:49.4893px;font-family:Dubai;-inkscape-font-specification:'Dubai, Normal';fill:#000000;fill-opacity:1;stroke:none;stroke-width:51.9631;stroke-linecap:square;paint-order:markers stroke fill"
       x="16.220936"
       y="280.24503"
       id="text3"
       transform="scale(0.99221451,1.0078466)"><tspan
         sodipodi:role="line"
         x="16.220936"
         y="280.24503"
         style="font-style:normal;font-variant:normal;font-weight:normal;font-stretch:normal;font-size:49.4893px;font-family:'Berlin Sans FB';-inkscape-font-specification:'Berlin Sans FB, Normal';font-variant-ligatures:normal;font-variant-caps:normal;font-variant-numeric:normal;font-variant-east-asian:normal;stroke-width:51.9631"
         id="tspan3">LM</tspan></text>
    <text
       xml:space="preserve"
       style="font-style:normal;font-variant:normal;font-weight:normal;font-stretch:normal;font-size:37.0678px;font-family:'Ink Free';-inkscape-font-specification:'Ink Free, Normal';font-variant-ligatures:normal;font-variant-caps:normal;font-variant-numeric:normal;font-variant-east-asian:normal;fill:#000000;fill-opacity:1;stroke:none;stroke-width:324.342;stroke-linecap:square;paint-order:markers stroke fill"
       x="87.097992"
       y="272.32953"
       id="text4"
       transform="scale(0.99221451,1.0078466)"><tspan
         sodipodi:role="line"
         id="tspan4"
         x="87.097992"
         y="272.32953"
         style="stroke-width:324.342">pilates</tspan></text>
  </g>
</svg>
