<?xml version="1.0" encoding="UTF-8" standalone="no"?>
<!-- Created with Inkscape (http://www.inkscape.org/) -->

<svg
   width="220mm"
   height="220mm"
   viewBox="0 0 220 220"
   version="1.1"
   id="svg1"
   sodipodi:docname="logo14.svg"
   inkscape:version="1.3.2 (091e20e, 2023-11-25, custom)"
   xmlns:inkscape="http://www.inkscape.org/namespaces/inkscape"
   xmlns:sodipodi="http://sodipodi.sourceforge.net/DTD/sodipodi-0.dtd"
   xmlns="http://www.w3.org/2000/svg"
   xmlns:svg="http://www.w3.org/2000/svg">
  <sodipodi:namedview
     id="namedview1"
     pagecolor="#ffffff"
     bordercolor="#000000"
     borderopacity="0.25"
     inkscape:showpageshadow="2"
     inkscape:pageopacity="0.0"
     inkscape:pagecheckerboard="0"
     inkscape:deskcolor="#d1d1d1"
     inkscape:document-units="mm"
     inkscape:zoom="0.65834035"
     inkscape:cx="397.21096"
     inkscape:cy="561.25984"
     inkscape:window-width="1920"
     inkscape:window-height="974"
     inkscape:window-x="-11"
     inkscape:window-y="-11"
     inkscape:window-maximized="1"
     inkscape:current-layer="layer1" />
  <defs
     id="defs1">
    <inkscape:path-effect
       effect="skeletal"
       id="path-effect42"
       is_visible="true"
       lpeversion="1"
       pattern="m 40.498535,0.01061089 c -3.961381,-0.01709 -7.92299,-0.01465 -11.884546,0.0155 -3.160036,0.08962 -4.229923,0.11578 -5.839438,0.155029 -1.289505,-0.05302 -2.578925,-0.106479 -3.869014,-0.142626 L 20.233104,0.2488369 C 17.82176,0.3307769 15.618491,0.46956991 10.540673,0.92528091 8.6419669,1.0956809 6.743232,1.2724719 4.8510978,1.5211099 4.288372,1.5950599 1.0636619,1.8107529 0.04002193,2.795451 c -0.111038,0.1068109 0.04197,0.329053 0.06305,0.4935101 L 4.4087518,4.0713419 0.07361593,4.7121299 C 0.88980494,4.7948199 1.7037119,4.9024569 2.5220459,4.9601771 5.6332398,5.17959 8.4204069,5.2642349 11.419177,5.34465 l 0.45682,0.0832 c -0.302306,0.0068 -0.604601,0.014049 -0.906922,0.020151 -0.303974,0.0061 -6.0326792,0.09624 -7.0192091,0.1266078 -0.495091,0.01524 -0.989475,0.05109 -1.484148,0.07648 l 4.148068,0.6568069 c 3.7845831,0.09254 7.5696881,0.165254 11.3548621,0.2268601 l 7.077088,1.2857089 c 12.130159,1.2056811 24.297664,1.8145741 36.46134,2.3636803 3.688295,0.166502 7.37697,0.333811 11.065992,0.476974 l 0.298175,0.31936 c 0.560144,-0.08516 1.120365,-0.158891 1.680517,-0.242362 0.431694,0.01512 0.863282,0.03625 1.295011,0.05013 0.294695,0.0095 0.589473,0.013 0.884184,0.0217 2.667942,0.392843 5.340311,0.757418 8.02277,1.046448 11.046151,1.190199 21.966305,1.81671 33.069295,2.20555 5.19615,0.18198 10.39662,0.206629 15.59491,0.310059 l 13.01936,0.0031 11.15954,-1.755448 c -3.78163,-0.0821 -7.56344,-0.164397 -11.34505,-0.246497 -4.80265,-0.15434 -9.60669,-0.269041 -14.4079,-0.463021 -7.03183,-0.284103 -14.86331,-0.694322 -22.55987,-1.129646 0.22045,-0.0091 0.44102,-0.01564 0.66145,-0.02532 8.4202,0.117941 16.84192,0.112365 25.26254,0.04599 l -7.05694,-1.1177605 c -1.4412,-0.010329 -2.8824,-0.017118 -4.32376,-0.025321 0.72862,-0.09303 1.45737,-0.1874911 2.18644,-0.2749182 1.91207,-0.2292908 2.18534,-0.260386 2.90988,-0.343648 4.16237,0.225398 8.32307,0.4918512 12.48969,0.617533 l -4.28604,-1.0092409 c -1.15861,-0.124731 -2.31929,-0.225153 -3.47886,-0.3389969 0.4681,-0.08689 0.39195,-0.06765 1.13636,-0.2036051 0.27667,-0.06847 0.55326,-0.137206 0.82993,-0.205673 4.23642,0.03638 8.47246,0.0757 12.70877,0.1266081 l -4.31652,-0.6836801 c -2.50898,0.03555 -5.01816,0.05537 -7.52719,0.08372 l -1.39061,-0.2470128 c 4.95778,0.07941 9.91562,0.1586708 14.87298,0.257865 4.85324,-0.01506 9.71382,0.2353379 14.56398,-0.05633 1.8388,-0.110577 3.00083,-0.281796 4.76973,-0.5048789 L 149.20043,3.9891769 c -0.67471,0.1154192 -1.3538,0.1891742 -2.0314,0.2775021 l -3.52381,-0.555521 c -5.57158,-0.015229 -11.14325,3.704e-4 -16.71476,0.04444 1.81091,-0.1548271 2.77181,-0.3065341 4.91806,-0.604614 L 126.9563,2.4269969 c 2.08775,-0.0069 4.17545,-0.01822 6.26319,-0.02532 3.04066,0.09188 6.07897,0.2571132 9.11831,0.3855062 l 1.61024,-0.2521812 c 3.87079,0.06408 7.74168,0.1246592 11.61221,0.2015381 l -2.70939,-0.428398 c 0.21479,-0.0015 0.4296,-0.0016 0.6444,-0.0031 3.9376,0.02136 5.47937,0.01912 5.84977,0.0078 0.25899,0.0046 0.0848,0.0026 0.38138,0.0078 l 5.9712,-0.9250074 c -1.04435,-0.05615 -2.08742,-0.150448 -3.13313,-0.168466 -5.53943,-0.09545 -11.08043,-0.04809 -16.62018,-0.117822 -0.23082,-0.0013 -0.46164,-0.0013 -0.69246,-0.0026 l -5.95313,-0.94154231 c -13.72199,0.452179 -27.44923,0.696512 -41.177846,0.79788401 -1.428589,-0.04764 -2.857439,-0.0955 -4.286038,-0.14314401 C 79.675971,0.46021091 91.485834,0.72822189 76.149078,0.48146189 64.266199,0.2901919 52.382679,0.06187889 40.498535,0.01061089 Z M 124.11049,2.4383699 c -5.72457,0.386416 -9.02525,0.474011 -13.06484,0.4666382 l -2.22673,-0.3958412 c 0.60719,-0.0058 1.2144,-0.01194 1.82159,-0.0186 4.49005,-0.02429 8.97994,-0.03684 13.46998,-0.05219 z"
       copytype="single_stretched"
       prop_scale="1"
       scale_y_rel="false"
       spacing="0"
       normal_offset="0"
       tang_offset="0"
       prop_units="false"
       vertical_pattern="false"
       hide_knot="false"
       fuse_tolerance="0" />
    <inkscape:path-effect
       effect="skeletal"
       id="path-effect54"
       is_visible="true"
       lpeversion="1"
       pattern="m 40.498535,0.01061089 c -3.961381,-0.01709 -7.92299,-0.01465 -11.884546,0.0155 -3.160036,0.08962 -4.229923,0.11578 -5.839438,0.155029 -1.289505,-0.05302 -2.578925,-0.106479 -3.869014,-0.142626 L 20.233104,0.2488369 C 17.82176,0.3307769 15.618491,0.46956991 10.540673,0.92528091 8.6419669,1.0956809 6.743232,1.2724719 4.8510978,1.5211099 4.288372,1.5950599 1.0636619,1.8107529 0.04002193,2.795451 c -0.111038,0.1068109 0.04197,0.329053 0.06305,0.4935101 L 4.4087518,4.0713419 0.07361593,4.7121299 C 0.88980494,4.7948199 1.7037119,4.9024569 2.5220459,4.9601771 5.6332398,5.17959 8.4204069,5.2642349 11.419177,5.34465 l 0.45682,0.0832 c -0.302306,0.0068 -0.604601,0.014049 -0.906922,0.020151 -0.303974,0.0061 -6.0326792,0.09624 -7.0192091,0.1266078 -0.495091,0.01524 -0.989475,0.05109 -1.484148,0.07648 l 4.148068,0.6568069 c 3.7845831,0.09254 7.5696881,0.165254 11.3548621,0.2268601 l 7.077088,1.2857089 c 12.130159,1.2056811 24.297664,1.8145741 36.46134,2.3636803 3.688295,0.166502 7.37697,0.333811 11.065992,0.476974 l 0.298175,0.31936 c 0.560144,-0.08516 1.120365,-0.158891 1.680517,-0.242362 0.431694,0.01512 0.863282,0.03625 1.295011,0.05013 0.294695,0.0095 0.589473,0.013 0.884184,0.0217 2.667942,0.392843 5.340311,0.757418 8.02277,1.046448 11.046151,1.190199 21.966305,1.81671 33.069295,2.20555 5.19615,0.18198 10.39662,0.206629 15.59491,0.310059 l 13.01936,0.0031 11.15954,-1.755448 c -3.78163,-0.0821 -7.56344,-0.164397 -11.34505,-0.246497 -4.80265,-0.15434 -9.60669,-0.269041 -14.4079,-0.463021 -7.03183,-0.284103 -14.86331,-0.694322 -22.55987,-1.129646 0.22045,-0.0091 0.44102,-0.01564 0.66145,-0.02532 8.4202,0.117941 16.84192,0.112365 25.26254,0.04599 l -7.05694,-1.1177605 c -1.4412,-0.010329 -2.8824,-0.017118 -4.32376,-0.025321 0.72862,-0.09303 1.45737,-0.1874911 2.18644,-0.2749182 1.91207,-0.2292908 2.18534,-0.260386 2.90988,-0.343648 4.16237,0.225398 8.32307,0.4918512 12.48969,0.617533 l -4.28604,-1.0092409 c -1.15861,-0.124731 -2.31929,-0.225153 -3.47886,-0.3389969 0.4681,-0.08689 0.39195,-0.06765 1.13636,-0.2036051 0.27667,-0.06847 0.55326,-0.137206 0.82993,-0.205673 4.23642,0.03638 8.47246,0.0757 12.70877,0.1266081 l -4.31652,-0.6836801 c -2.50898,0.03555 -5.01816,0.05537 -7.52719,0.08372 l -1.39061,-0.2470128 c 4.95778,0.07941 9.91562,0.1586708 14.87298,0.257865 4.85324,-0.01506 9.71382,0.2353379 14.56398,-0.05633 1.8388,-0.110577 3.00083,-0.281796 4.76973,-0.5048789 L 149.20043,3.9891769 c -0.67471,0.1154192 -1.3538,0.1891742 -2.0314,0.2775021 l -3.52381,-0.555521 c -5.57158,-0.015229 -11.14325,3.704e-4 -16.71476,0.04444 1.81091,-0.1548271 2.77181,-0.3065341 4.91806,-0.604614 L 126.9563,2.4269969 c 2.08775,-0.0069 4.17545,-0.01822 6.26319,-0.02532 3.04066,0.09188 6.07897,0.2571132 9.11831,0.3855062 l 1.61024,-0.2521812 c 3.87079,0.06408 7.74168,0.1246592 11.61221,0.2015381 l -2.70939,-0.428398 c 0.21479,-0.0015 0.4296,-0.0016 0.6444,-0.0031 3.9376,0.02136 5.47937,0.01912 5.84977,0.0078 0.25899,0.0046 0.0848,0.0026 0.38138,0.0078 l 5.9712,-0.9250074 c -1.04435,-0.05615 -2.08742,-0.150448 -3.13313,-0.168466 -5.53943,-0.09545 -11.08043,-0.04809 -16.62018,-0.117822 -0.23082,-0.0013 -0.46164,-0.0013 -0.69246,-0.0026 l -5.95313,-0.94154231 c -13.72199,0.452179 -27.44923,0.696512 -41.177846,0.79788401 -1.428589,-0.04764 -2.857439,-0.0955 -4.286038,-0.14314401 C 79.675971,0.46021091 91.485834,0.72822189 76.149078,0.48146189 64.266199,0.2901919 52.382679,0.06187889 40.498535,0.01061089 Z M 124.11049,2.4383699 c -5.72457,0.386416 -9.02525,0.474011 -13.06484,0.4666382 l -2.22673,-0.3958412 c 0.60719,-0.0058 1.2144,-0.01194 1.82159,-0.0186 4.49005,-0.02429 8.97994,-0.03684 13.46998,-0.05219 z"
       copytype="single_stretched"
       prop_scale="1"
       scale_y_rel="false"
       spacing="0"
       normal_offset="0"
       tang_offset="0"
       prop_units="false"
       vertical_pattern="false"
       hide_knot="false"
       fuse_tolerance="0" />
  </defs>
  <g
     inkscape:label="Layer 1"
     inkscape:groupmode="layer"
     id="layer1">
    <path
       id="path41"
       style="opacity:0.747573;fill:#162d50;fill-opacity:1;stroke:none;stroke-linecap:square;stroke-linejoin:round;paint-order:markers stroke fill"
       d="m 79.945605,149.61552 c 6.3734,0.52076 12.744143,-0.24638 18.742909,-2.13459 3.974516,-1.30842 6.977086,-2.84003 8.478426,-3.64989 1.83091,-0.89171 3.61153,-1.89289 5.31855,-3.01298 -0.61776,0.33653 -1.24132,0.65951 -1.8701,0.96887 2.37646,-1.55285 6.79114,-4.75246 11.05409,-10.35375 1.79796,-2.36242 3.36554,-4.89051 4.60484,-7.5759 0.48078,-1.04179 2.42536,-5.12156 1.94686,-7.27007 -0.0436,-0.19562 -0.33263,-0.0468 -0.49872,-0.0705 -0.9813,1.96598 -2.0986,3.81243 -3.33176,5.53787 0.82732,-1.96146 1.49957,-3.98116 2.00225,-6.04514 -0.47523,1.09748 -1.02067,2.15651 -1.56253,3.20195 -1.99496,3.84903 -4.48381,7.32545 -7.29741,10.30263 -0.16525,0.14079 -0.33144,0.28019 -0.49855,0.4182 0.28712,-0.31593 0.56911,-0.6363 0.847,-0.95995 0.13972,-0.1627 1.53028,-1.77821 2.80214,-3.62951 1.39088,-2.02452 2.30227,-3.75636 2.70381,-4.56822 0.31023,-0.62726 0.58506,-1.27143 0.85177,-1.91919 -1.00774,1.69217 -2.13128,3.2822 -3.35299,4.76799 -2.92313,4.33776 -6.67918,8.07862 -10.96509,11.0859 -2.89841,1.55885 -5.93868,2.77802 -9.03143,3.65086 -7.418696,2.58569 -15.389855,3.32357 -22.788612,1.80411 -8.03003,-1.61307 -15.377982,-5.94158 -20.958839,-11.77806 -3.251597,-3.40053 -5.89889,-7.31855 -7.745108,-11.49107 0.04178,-0.15609 0.08457,-0.31145 0.128357,-0.46606 -0.367058,-0.58594 -0.707811,-1.18891 -1.038903,-1.79753 -0.182483,-0.49829 -0.34761,-1.00169 -0.50735,-1.5054 -0.109023,-0.34386 -0.218082,-0.68735 -0.316515,-1.03362 -0.587254,-3.18267 -0.719217,-6.3768 -0.377958,-9.50261 0.0031,-0.0417 0.0063,-0.0834 0.0095,-0.12506 1.003635,-12.819352 10.517181,-24.320575 21.940346,-29.583699 3.099469,-1.428051 6.346879,-2.433722 9.635171,-2.86195 2.442438,-0.362873 4.941983,-0.421153 7.434672,-0.189044 4.897454,0.370568 9.805324,1.806399 14.257833,4.080243 4.0843,1.427864 8.00765,3.56389 11.42736,6.366304 -2.98563,-3.305194 -6.6569,-6.10976 -10.71292,-8.248499 -5.13055,-2.761956 -10.905766,-4.418951 -16.694134,-4.739618 -1.989222,-0.110201 -4.03481,-0.06165 -6.103624,0.186879 -6.825314,0.746407 -13.707065,3.726086 -19.544535,8.464014 0.201141,-0.191 0.405997,-0.378147 0.610678,-0.565606 5.416815,-4.521001 11.957859,-7.699987 18.80538,-8.734641 3.433441,-0.548091 6.954248,-0.572471 10.439477,-0.130925 -2.868371,-0.756967 -5.848856,-1.19253 -8.879815,-1.244774 -0.580747,0.05839 -1.160061,0.131289 -1.737403,0.218813 -1.245222,0.181785 -2.479715,0.433124 -3.699163,0.748164 0.877313,-0.32676 1.769915,-0.621708 2.678423,-0.874301 0.360876,-0.100335 0.684672,-0.184087 0.962523,-0.252792 1.260608,-0.317632 2.244904,-0.49012 2.73012,-0.57142 5.418782,-0.198673 10.814038,0.824378 15.886301,2.658827 -1.645948,-0.907267 -3.369782,-1.714509 -5.15906,-2.405046 -1.479811,-0.414916 -2.99176,-0.726219 -4.518343,-0.96439 0.3234,-0.01855 0.828909,-0.03924 1.526929,-0.05161 0.375178,-0.02439 0.751677,-0.04398 1.129362,-0.05819 5.628372,0.854361 11.097524,2.849721 15.972164,5.77242 -1.54876,-1.17385 -3.18913,-2.256553 -4.90699,-3.233941 -3.164314,-1.305378 -6.470829,-2.267473 -9.836389,-2.82147 -0.606805,-0.188531 -1.2193,-0.36401 -1.837025,-0.525938 6.709024,0.938643 13.196834,3.471105 18.768754,7.249323 5.52814,3.61301 10.00021,8.589071 13.40709,14.105647 1.09295,1.769758 2.26418,3.845453 3.10447,5.716015 -2.09572,-9.0564 -7.76577,-17.280735 -15.55985,-23.298703 -0.89717,-0.426308 -1.78939,-0.862197 -2.69845,-1.255718 -1.41407,-0.979134 -2.88992,-1.888102 -4.41988,-2.71921 -7.589472,-3.145091 -15.997979,-4.337069 -24.211281,-3.100218 2.00954,-0.41044 4.713932,-0.862651 7.286313,-1.044548 -2.437695,-0.293348 -4.925227,-0.391729 -7.441784,-0.275078 3.17563,-0.461734 6.373675,-0.583201 9.542522,-0.380555 4.611921,0.397193 9.105278,1.542703 13.34655,3.233441 0.78603,0.198414 1.56893,0.416779 2.34767,0.654968 5.35498,2.335538 10.28025,5.607279 14.43812,9.656514 -0.88499,-1.034728 -1.81893,-2.035601 -2.79831,-2.999118 0.25484,0.201504 0.5068,0.406692 0.75752,0.61331 4.56527,3.825224 5.86727,5.840881 6.23246,6.267114 0.10043,0.124984 0.22436,0.282328 0.35836,0.453426 2.12418,2.162118 4.05815,4.566806 5.74953,7.207426 -0.69429,-1.481745 -1.43502,-2.939922 -2.31487,-4.314475 -4.66529,-7.288421 -11.39799,-13.020633 -19.05363,-16.904605 -0.32003,-0.160562 -0.64235,-0.316581 -0.96577,-0.470371 -2.6518,-1.596194 -5.475814,-2.964634 -8.435016,-4.068175 -6.423604,-1.548894 -13.148085,-1.872501 -19.759259,-0.793267 -15.14372,2.653163 -28.164872,12.597065 -35.063789,25.775331 -1.083461,1.94542 -2.032686,3.972286 -2.83227,6.068423 -2.190933,5.830789 -2.602272,10.718951 -2.664123,11.333787 -0.11371,1.130358 -0.159006,2.006038 -0.181684,2.976568 0.0024,0.19419 -0.10907,6.25311 2.17713,13.39367 5.414324,16.91097 20.454257,30.29949 38.48868,33.25548 1.078279,0.16303 2.158473,0.28829 3.238776,0.37656 z M 73.055756,59.158738 c -7.419235,2.24234 -13.409679,6.0711 -17.337579,9.196892 -0.952915,0.591429 -1.888462,1.218551 -2.803942,1.880257 0.672096,-0.625123 1.362054,-1.231721 2.068725,-1.818899 5.242167,-4.323302 11.413806,-7.545203 18.072798,-9.258243 z"
       transform="matrix(0.24296117,-2.1349592,2.1349592,0.24296117,-127.61019,267.13025)"
       inkscape:original-d="M 124.08703,115.10507 A 41.774796,40.07 0 0 1 77.795117,142.15548 41.774796,40.07 0 0 1 42.627342,102.58981 41.774796,40.07 0 0 1 77.795117,63.024142 41.774796,40.07 0 0 1 124.08703,90.074554"
       inkscape:path-effect="#path-effect42" />
    <path
       id="path52"
       style="fill:#000000;fill-opacity:1;stroke:#1a1a1a;stroke-linecap:square;stroke-linejoin:round;paint-order:markers stroke fill"
       d="m 79.945605,149.61552 c 6.3734,0.52076 12.744143,-0.24638 18.742909,-2.13459 3.974516,-1.30842 6.977086,-2.84003 8.478426,-3.64989 1.83091,-0.89171 3.61153,-1.89289 5.31855,-3.01298 -0.61776,0.33653 -1.24132,0.65951 -1.8701,0.96887 2.37646,-1.55285 6.79114,-4.75246 11.05409,-10.35375 1.79796,-2.36242 3.36554,-4.89051 4.60484,-7.5759 0.48078,-1.04179 2.42536,-5.12156 1.94686,-7.27007 -0.0436,-0.19562 -0.33263,-0.0468 -0.49872,-0.0705 -0.9813,1.96598 -2.0986,3.81243 -3.33176,5.53787 0.82732,-1.96146 1.49957,-3.98116 2.00225,-6.04514 -0.47523,1.09748 -1.02067,2.15651 -1.56253,3.20195 -1.99496,3.84903 -4.48381,7.32545 -7.29741,10.30263 -0.16525,0.14079 -0.33144,0.28019 -0.49855,0.4182 0.28712,-0.31593 0.56911,-0.6363 0.847,-0.95995 0.13972,-0.1627 1.53028,-1.77821 2.80214,-3.62951 1.39088,-2.02452 2.30227,-3.75636 2.70381,-4.56822 0.31023,-0.62726 0.58506,-1.27143 0.85177,-1.91919 -1.00774,1.69217 -2.13128,3.2822 -3.35299,4.76799 -2.92313,4.33776 -6.67918,8.07862 -10.96509,11.0859 -2.89841,1.55885 -5.93868,2.77802 -9.03143,3.65086 -7.418696,2.58569 -15.389855,3.32357 -22.788612,1.80411 -8.03003,-1.61307 -15.377982,-5.94158 -20.958839,-11.77806 -3.251597,-3.40053 -5.89889,-7.31855 -7.745108,-11.49107 0.04178,-0.15609 0.08457,-0.31145 0.128357,-0.46606 -0.367058,-0.58594 -0.707811,-1.18891 -1.038903,-1.79753 -0.182483,-0.49829 -0.34761,-1.00169 -0.50735,-1.5054 -0.109023,-0.34386 -0.218082,-0.68735 -0.316515,-1.03362 -0.587254,-3.18267 -0.719217,-6.3768 -0.377958,-9.50261 0.0031,-0.0417 0.0063,-0.0834 0.0095,-0.12506 1.003635,-12.819352 10.517181,-24.320575 21.940346,-29.583699 3.099469,-1.428051 6.346879,-2.433722 9.635171,-2.86195 2.442438,-0.362873 4.941983,-0.421153 7.434672,-0.189044 4.897454,0.370568 9.805324,1.806399 14.257833,4.080243 4.0843,1.427864 8.00765,3.56389 11.42736,6.366304 -2.98563,-3.305194 -6.6569,-6.10976 -10.71292,-8.248499 -5.13055,-2.761956 -10.905766,-4.418951 -16.694134,-4.739618 -1.989222,-0.110201 -4.03481,-0.06165 -6.103624,0.186879 -6.825314,0.746407 -13.707065,3.726086 -19.544535,8.464014 0.201141,-0.191 0.405997,-0.378147 0.610678,-0.565606 5.416815,-4.521001 11.957859,-7.699987 18.80538,-8.734641 3.433441,-0.548091 6.954248,-0.572471 10.439477,-0.130925 -2.868371,-0.756967 -5.848856,-1.19253 -8.879815,-1.244774 -0.580747,0.05839 -1.160061,0.131289 -1.737403,0.218813 -1.245222,0.181785 -2.479715,0.433124 -3.699163,0.748164 0.877313,-0.32676 1.769915,-0.621708 2.678423,-0.874301 0.360876,-0.100335 0.684672,-0.184087 0.962523,-0.252792 1.260608,-0.317632 2.244904,-0.49012 2.73012,-0.57142 5.418782,-0.198673 10.814038,0.824378 15.886301,2.658827 -1.645948,-0.907267 -3.369782,-1.714509 -5.15906,-2.405046 -1.479811,-0.414916 -2.99176,-0.726219 -4.518343,-0.96439 0.3234,-0.01855 0.828909,-0.03924 1.526929,-0.05161 0.375178,-0.02439 0.751677,-0.04398 1.129362,-0.05819 5.628372,0.854361 11.097524,2.849721 15.972164,5.77242 -1.54876,-1.17385 -3.18913,-2.256553 -4.90699,-3.233941 -3.164314,-1.305378 -6.470829,-2.267473 -9.836389,-2.82147 -0.606805,-0.188531 -1.2193,-0.36401 -1.837025,-0.525938 6.709024,0.938643 13.196834,3.471105 18.768754,7.249323 5.52814,3.61301 10.00021,8.589071 13.40709,14.105647 1.09295,1.769758 2.26418,3.845453 3.10447,5.716015 -2.09572,-9.0564 -7.76577,-17.280735 -15.55985,-23.298703 -0.89717,-0.426308 -1.78939,-0.862197 -2.69845,-1.255718 -1.41407,-0.979134 -2.88992,-1.888102 -4.41988,-2.71921 -7.589472,-3.145091 -15.997979,-4.337069 -24.211281,-3.100218 2.00954,-0.41044 4.713932,-0.862651 7.286313,-1.044548 -2.437695,-0.293348 -4.925227,-0.391729 -7.441784,-0.275078 3.17563,-0.461734 6.373675,-0.583201 9.542522,-0.380555 4.611921,0.397193 9.105278,1.542703 13.34655,3.233441 0.78603,0.198414 1.56893,0.416779 2.34767,0.654968 5.35498,2.335538 10.28025,5.607279 14.43812,9.656514 -0.88499,-1.034728 -1.81893,-2.035601 -2.79831,-2.999118 0.25484,0.201504 0.5068,0.406692 0.75752,0.61331 4.56527,3.825224 5.86727,5.840881 6.23246,6.267114 0.10043,0.124984 0.22436,0.282328 0.35836,0.453426 2.12418,2.162118 4.05815,4.566806 5.74953,7.207426 -0.69429,-1.481745 -1.43502,-2.939922 -2.31487,-4.314475 -4.66529,-7.288421 -11.39799,-13.020633 -19.05363,-16.904605 -0.32003,-0.160562 -0.64235,-0.316581 -0.96577,-0.470371 -2.6518,-1.596194 -5.475814,-2.964634 -8.435016,-4.068175 -6.423604,-1.548894 -13.148085,-1.872501 -19.759259,-0.793267 -15.14372,2.653163 -28.164872,12.597065 -35.063789,25.775331 -1.083461,1.94542 -2.032686,3.972286 -2.83227,6.068423 -2.190933,5.830789 -2.602272,10.718951 -2.664123,11.333787 -0.11371,1.130358 -0.159006,2.006038 -0.181684,2.976568 0.0024,0.19419 -0.10907,6.25311 2.17713,13.39367 5.414324,16.91097 20.454257,30.29949 38.48868,33.25548 1.078279,0.16303 2.158473,0.28829 3.238776,0.37656 z M 73.055756,59.158738 c -7.419235,2.24234 -13.409679,6.0711 -17.337579,9.196892 -0.952915,0.591429 -1.888462,1.218551 -2.803942,1.880257 0.672096,-0.625123 1.362054,-1.231721 2.068725,-1.818899 5.242167,-4.323302 11.413806,-7.545203 18.072798,-9.258243 z"
       transform="matrix(-0.04773177,-0.25496307,0.48246261,-0.17976845,50.805856,109.19127)"
       inkscape:original-d="M 124.08703,115.10507 A 41.774796,40.07 0 0 1 77.795117,142.15548 41.774796,40.07 0 0 1 42.627342,102.58981 41.774796,40.07 0 0 1 77.795117,63.024142 41.774796,40.07 0 0 1 124.08703,90.074554"
       inkscape:path-effect="#path-effect54" />
    <path
       id="path1"
       style="fill:#000000;fill-opacity:1;stroke:#000000;stroke-width:0.556314;stroke-linecap:square;stroke-linejoin:round;stroke-dasharray:none;stroke-opacity:1;paint-order:markers stroke fill"
       d="m 132.00672,94.84446 c 0.31226,-0.0283 0.63827,-0.0227 0.97947,0.0188 0.17712,0.0212 0.37467,0.10985 0.59431,0.26737 0.05,0.0212 0.1056,0.0615 0.1669,0.12079 0.0156,0.0151 0.0317,0.0314 0.048,0.0491 0.005,0.006 0.0116,0.0129 0.0171,0.0187 -0.008,-0.006 -0.0149,-0.0129 -0.0223,-0.0187 -0.0214,-0.0175 -0.0422,-0.0337 -0.0626,-0.0487 -0.0816,-0.0596 -0.15634,-0.0985 -0.22453,-0.11886 -0.3081,-0.16201 -0.57947,-0.24088 -0.8194,-0.25761 -0.27225,-0.0196 -0.54917,-0.005 -0.82512,8e-5 0.0507,-0.006 0.0966,-0.0263 0.14809,-0.031 z m -0.1481,0.031 c -0.25698,0.0331 -0.51029,0.0757 -0.74948,0.15547 -2.12969,0.70251 -3.99525,1.74175 -5.66548,3.046159 -1.39706,1.08171 -2.6885,2.233581 -3.87173,3.448821 -0.40842,0.25167 -0.78997,0.51853 -1.17824,0.7875 -0.51715,0.57992 -1.01045,1.17332 -1.48,1.77921 -2.64068,2.57062 -4.87096,5.3826 -6.67093,8.38223 0.60059,-0.82568 1.16393,-1.46553 2.02578,-2.38259 -0.45141,0.93939 -0.8555,1.8992 -1.21162,2.87733 0.64819,-1.13126 1.36345,-2.23483 2.13661,-3.30807 1.07335,-1.60815 2.23089,-3.1569 3.56056,-4.63565 0.28654,-0.22238 0.57587,-0.44288 0.8684,-0.66137 1.78494,-1.80832 3.78451,-3.49661 5.97498,-5.047311 -0.46187,0.40171 -0.9099,0.812151 -1.34441,1.230761 0.11834,-0.0881 0.23618,-0.176 0.35577,-0.26335 2.1686,-1.614631 3.15261,-2.152491 3.38043,-2.286951 0.0668,-0.0422 0.13817,-0.0878 0.2279,-0.14384 0.0809,-0.0393 0.1622,-0.0784 0.24327,-0.11745 1.24526,-0.604489 2.53287,-1.148589 3.86857,-1.623529 -0.69084,0.32244 -1.30763,0.66845 -1.96856,1.04242 -0.25986,0.147029 -0.517,0.298229 -0.77132,0.453479 -3.09685,1.87322 -5.93668,3.994671 -8.33873,6.333621 -0.10933,0.10521 -0.21934,0.21057 -0.32723,0.31662 -0.78339,1.01681 -1.49844,2.06958 -2.14463,3.15493 -2.00256,2.24899 -3.70102,4.66443 -5.0733,7.22059 -2.67397,4.881 -4.07481,10.27672 -4.05584,16.02898 0.052,0.93243 0.14085,1.87295 0.26594,2.82101 0.57039,4.67559 0.97335,5.13354 1.09731,5.62843 0.12401,0.49489 -0.0872,1.03738 2.10187,6.3409 0.33875,0.82066 0.70397,1.6444 1.09566,2.47121 3.54742,7.46167 9.18598,15.07316 16.42676,22.61037 2.67771,2.78731 5.5681,5.55747 8.64366,8.30135 2.00451,1.83968 3.62489,3.22557 4.53593,3.99678 1.16002,0.90547 2.33568,1.80062 3.51953,2.6946 -0.48662,-0.32115 -0.97004,-0.64288 -1.45044,-0.96541 0.41213,0.34237 5.26236,4.39212 7.79347,6.41942 1.41804,1.13577 3.20938,2.53339 4.6274,3.66915 0.43286,0.34598 3.35635,2.45924 2.93977,2.90289 -0.0469,0.0498 -0.53726,-0.0997 -0.80587,-0.15003 -1.85635,-1.0072 -3.6828,-2.02529 -5.4788,-3.0535 1.10144,0.9211 2.22473,1.83905 3.36956,2.75327 -0.95743,-0.56576 -1.92589,-1.13 -2.82988,-1.69688 -3.34046,-2.09477 -6.26956,-4.11867 -9.06161,-6.15503 -0.17968,-0.11242 -0.3591,-0.22499 -0.53802,-0.33753 0.26538,0.20659 0.5317,0.41332 0.80047,0.61973 0.27047,0.20765 5.55507,4.10058 6.47539,4.76096 0.46187,0.33141 0.89495,0.65688 1.34711,0.98435 -1.69705,-0.98534 -3.3659,-1.97976 -5.00614,-2.98228 -3.74087,-2.61239 -7.26617,-5.26217 -10.57099,-7.93417 -2.61352,-1.78046 -5.13375,-3.58091 -7.55502,-5.39752 -10.99112,-8.95352 -18.93924,-18.12627 -23.99767,-26.96466 l -0.0641,-0.11268 c -1.53322,-2.71001 -2.7921,-5.39242 -3.76818,-8.03627 -0.13101,-0.11423 -0.26174,-0.22844 -0.39173,-0.34284 -0.0359,-0.35832 -0.0784,-0.71352 -0.10694,-1.0707 -0.10202,-0.30789 -0.20524,-0.61466 -0.29881,-0.92106 -0.0635,-0.20765 -0.12024,-0.4152 -0.17966,-0.62206 -0.85068,-2.01519 -1.51476,-3.99505 -1.96591,-5.93164 -1.414285,-6.07038 -1.100516,-11.76389 0.55387,-16.93107 0.50388,-1.59888 1.13253,-3.157 1.87894,-4.66913 1.4814,-3.00108 3.50449,-5.8023 5.8419,-8.37856 1.95792,-2.07916 4.16955,-4.01541 6.62264,-5.786391 0.0573,-0.0416 0.11448,-0.0829 0.17211,-0.12414 2.39756,-1.33724 4.96149,-2.466019 7.73661,-3.318259 -2.13178,0.83026 -4.05537,1.918209 -5.81911,3.206249 -0.41033,0.29768 -0.81362,0.60031 -1.20982,0.90748 -2.63873,2.079681 -4.99029,4.375901 -6.93729,6.864371 -2.40986,3.08007 -4.37414,6.61957 -5.67591,10.5906 -0.26464,0.79275 -0.4984,1.59515 -0.70163,2.40638 0.0499,-0.12879 0.0978,-0.25754 0.14951,-0.38557 0.22411,-0.69941 0.47213,-1.39043 0.74334,-2.0727 1.6798,-4.29332 4.23465,-8.25286 7.53619,-11.7784 -0.87193,1.29244 -1.64485,2.63373 -2.31645,4.01841 -0.53479,0.76196 -1.04204,1.53822 -1.51705,2.32798 0.29791,-0.35953 0.60503,-0.71777 0.91234,-1.07335 0.59357,-0.68679 1.16313,-1.30245 1.25955,-1.40669 1.45111,-2.2771 3.13539,-4.41334 5.16722,-6.37619 -0.55723,0.77758 -1.07485,1.57547 -1.55183,2.39241 -0.45967,0.60482 -0.91511,1.21943 -1.33683,1.84288 0.0838,-0.0701 0.35747,-0.30234 0.58659,-0.49005 0.15376,-0.11152 0.30859,-0.22239 0.4637,-0.33297 1.81306,-2.10181 3.88127,-4.06828 6.18762,-5.87595 -0.69469,0.68687 -1.35397,1.39497 -1.97721,2.12274 -1.28656,1.11619 -2.47753,2.28666 -3.58989,3.50589 -0.1602,0.25776 -0.31645,0.51731 -0.46879,0.7788 2.05013,-2.49384 4.45817,-4.80356 7.19097,-6.89155 0.77407,-0.570531 1.56056,-1.128371 2.37609,-1.672121 2.08123,-1.398459 4.28612,-2.470059 6.90314,-3.199549 0.0871,-0.0242 0.17251,-0.0477 0.25648,-0.0701 0.58962,-0.1588 1.19694,-0.20917 1.80227,-0.21963 z m -19.64755,19.65293 c -0.1271,0.208 -0.24823,0.41138 -0.36372,0.60993 -1.48638,2.51148 -2.28442,4.66556 -2.79975,6.74016 -0.0155,0.4971 -0.0196,0.99726 -0.0116,1.50006 0.0791,-0.36647 0.16458,-0.73118 0.25612,-1.09363 0.60672,-2.47839 1.48161,-4.87193 2.62416,-7.16501 0.0966,-0.19789 0.19491,-0.39514 0.29527,-0.59151 z" />
    <path
       id="path55"
       style="fill:#000000;fill-opacity:1;stroke:#000000;stroke-width:0.772658;stroke-linecap:square;stroke-linejoin:round;stroke-dasharray:none;stroke-opacity:1;paint-order:markers stroke fill"
       d="m 68.290406,30.828018 c -0.516614,0.136425 -1.0369,0.33223 -1.562246,0.590697 -0.272875,0.133772 -0.542103,0.381126 -0.809641,0.745099 -0.06873,0.06078 -0.136214,0.153527 -0.20266,0.278299 -0.01691,0.03168 -0.0338,0.06568 -0.05052,0.101733 -0.0058,0.01288 -0.01172,0.02511 -0.01751,0.03799 0.009,-0.01378 0.01715,-0.02756 0.02568,-0.04095 0.02482,-0.03876 0.04963,-0.07521 0.07428,-0.10946 0.09881,-0.137005 0.197745,-0.238687 0.296217,-0.308535 0.407096,-0.421601 0.800127,-0.696538 1.176262,-0.859569 0.426485,-0.18585 0.879031,-0.322456 1.324641,-0.473626 -0.08506,0.01919 -0.169113,0.01584 -0.254476,0.03825 z m 0.254476,-0.03825 c 0.430402,-0.09761 0.860111,-0.178561 1.287154,-0.195469 3.798405,-0.161628 7.354693,0.337033 10.740673,1.348403 2.827127,0.831792 5.522621,1.830208 8.078624,2.98649 0.791614,0.145659 1.548316,0.32968 2.316892,0.513032 1.143495,0.579042 2.256006,1.192134 3.337096,1.837766 5.627949,2.366767 10.727449,5.333773 15.237529,8.83126 -1.41022,-0.902361 -2.66024,-1.545406 -4.53923,-2.435804 1.23216,1.159785 2.39938,2.377571 3.4995,3.650589 -1.65171,-1.336633 -3.39614,-2.59291 -5.21713,-3.770119 -2.59187,-1.812874 -5.286824,-3.487661 -8.220258,-4.957874 -0.580137,-0.171402 -1.163739,-0.338347 -1.751383,-0.500412 -3.842363,-1.70666 -7.964404,-3.108763 -12.318603,-4.193433 0.958479,0.341579 1.899443,0.704316 2.823139,1.087142 -0.23765,-0.06516 -0.474249,-0.130218 -0.713394,-0.193512 -4.353637,-1.193795 -6.223877,-1.441277 -6.662229,-1.513572 -0.130062,-0.0255 -0.269264,-0.05331 -0.443581,-0.08641 -0.151008,-0.01288 -0.302704,-0.02524 -0.453995,-0.03773 -2.325615,-0.19811 -4.686598,-0.280707 -7.087455,-0.231205 1.28325,0.0904 2.460327,0.258917 3.723379,0.444329 0.496586,0.07289 0.991065,0.153631 1.483214,0.242139 5.98347,1.051432 11.688439,2.625401 16.80814,4.779248 0.232364,0.09607 0.465874,0.192148 0.696371,0.290378 1.806911,1.086099 3.523564,2.26578 5.147266,3.534201 4.429779,2.24734 8.461289,4.92071 12.045199,7.9939 6.92953,5.837493 12.09335,13.183486 15.17048,21.8832 0.42012,1.438367 0.78573,2.909984 1.09709,4.413859 1.61028,7.390008 1.2108,8.313115 1.27917,9.131816 0.0684,0.81869 0.70034,1.51693 0.0514,10.78479 -0.10044,1.434089 -0.24175,2.888059 -0.42387,4.36185 -1.66371,13.3077 -6.60349,28.04231 -14.15549,43.58466 -2.79279,5.74767 -5.93629,11.59157 -9.39125,17.50206 -2.224055,3.92977 -4.076605,6.95351 -5.1225,8.6415 -1.373039,2.03375 -2.776777,4.06088 -4.194295,6.09096 0.607682,-0.76449 1.209943,-1.52803 1.806898,-2.29103 -0.476652,0.75378 -6.075073,9.65575 -9.043136,14.17125 -1.662825,2.52976 -3.783503,5.66939 -5.446323,8.19911 -0.507959,0.77114 -4.059479,5.64178 -3.15107,6.07273 0.102223,0.0484 0.80862,-0.45906 1.212655,-0.68931 2.435944,-2.58721 4.817984,-5.17371 7.1457,-7.75803 -1.270564,2.02372 -2.57792,4.05524 -3.921855,6.09351 1.231344,-1.4043 2.481229,-2.81265 3.626188,-4.18795 4.230895,-5.08211 7.839683,-9.82096 11.221748,-14.49998 0.227741,-0.27288 0.454928,-0.54603 0.681368,-0.81875 -0.314433,0.46442 -0.630269,0.9296 -0.95024,1.39569 -0.322005,0.46895 -6.702471,9.38344 -7.823121,10.90935 -0.562405,0.76578 -1.081837,1.50606 -1.630785,2.26033 2.192018,-2.46274 4.333864,-4.923 6.42541,-7.37905 4.59403,-6.09389 8.821818,-12.12047 12.683638,-18.05404 3.23373,-4.18996 6.30687,-8.35656 9.21242,-12.49074 12.80741,-19.83498 20.61134,-38.25394 23.95698,-54.50874 l 0.0421,-0.20707 c 0.99728,-4.973811 1.56906,-9.7484 1.70769,-14.30238 0.14859,-0.24783 0.29678,-0.49535 0.44365,-0.74279 -0.13586,-0.56188 -0.2597,-1.12274 -0.40677,-1.67868 -0.003,-0.52365 -0.003,-1.046295 -0.0179,-1.56283 -0.0103,-0.350104 -0.0313,-0.696216 -0.0477,-1.042778 0.27695,-3.532399 0.27342,-6.904277 -0.0486,-10.088529 -1.00906,-9.981399 -4.58862,-18.401321 -10.03598,-25.256521 -1.67268,-2.125808 -3.52363,-4.118415 -5.53879,-5.973953 -3.99943,-3.682603 -8.76051,-6.752295 -13.90461,-9.301718 -4.26638,-2.016431 -8.86285,-3.671335 -13.757627,-4.937979 -0.114482,-0.02988 -0.228694,-0.05949 -0.343382,-0.08873 -4.571314,-0.643341 -9.297095,-0.876272 -14.212516,-0.570248 3.870762,0.03013 7.54654,0.569063 11.073761,1.501996 0.819545,0.214052 1.63045,0.439642 2.432443,0.676139 5.359581,1.626316 10.375141,3.744609 14.845091,6.385605 5.53262,3.268845 10.59811,7.487466 14.83321,12.73834 0.8531,1.045496 1.66187,2.123328 2.42637,3.232002 -0.14965,-0.165903 -0.29613,-0.332874 -0.44831,-0.496562 -0.73763,-0.927794 -1.5091,-1.82919 -2.31308,-2.704044 -5.01605,-5.520622 -11.25654,-10.034669 -18.46126,-13.464433 2.09796,1.451618 4.06338,3.033893 5.88959,4.739857 1.27015,0.843884 2.50383,1.725203 3.69305,2.6454 -0.67248,-0.372022 -1.35907,-0.73682 -2.04449,-1.097484 -1.32391,-0.696589 -2.57087,-1.299533 -2.78194,-1.401627 -3.55973,-2.606419 -7.41762,-4.866185 -11.739812,-6.664495 1.314602,0.854598 2.576642,1.762613 3.783672,2.722756 1.06467,0.649676 2.12786,1.316544 3.14167,2.016135 -0.17254,-0.05769 -0.73719,-0.251449 -1.20642,-0.403431 -0.30705,-0.0801 -0.61554,-0.158755 -0.92428,-0.236729 -4.04605,-2.133823 -8.428594,-3.916718 -13.107654,-5.323007 1.48631,0.638653 2.927214,1.329718 4.320895,2.071186 2.668348,0.94733 5.212609,2.031549 7.656989,3.234526 0.39644,0.29737 0.7875,0.599711 1.17332,0.907216 -4.63842,-2.589858 -9.751935,-4.696124 -15.267012,-6.281012 -1.550879,-0.417351 -3.114828,-0.80838 -4.71777,-1.161498 -4.09659,-0.917428 -8.215108,-1.270146 -12.810406,-0.869485 -0.152921,0.01339 -0.302675,0.02704 -0.449592,0.04147 -1.032311,0.09864 -2.034484,0.371262 -3.01189,0.703016 z m 42.158238,18.40518 c 0.31647,0.241185 0.62074,0.478854 0.9134,0.712467 3.74295,2.940195 6.18779,5.735761 8.13584,8.573578 0.29329,0.742035 0.57019,1.495132 0.82975,2.258943 -0.32489,-0.508164 -0.65922,-1.009954 -1.00199,-1.504893 -2.31292,-3.395277 -5.0105,-6.508418 -8.08346,-9.316128 -0.262,-0.243464 -0.52638,-0.484946 -0.79357,-0.723955 z" />
    <path
       id="path5"
       style="fill:#000000;fill-opacity:1;stroke:#000000;stroke-width:0.643881;stroke-linecap:square;stroke-linejoin:round;stroke-dasharray:none;paint-order:markers stroke fill"
       d="m 159.52239,50.099488 c 0.009,0.922811 -0.0116,1.848932 -0.0619,2.777525 -0.2992,5.525134 -1.62827,11.133444 -4.12213,16.564855 -0.88679,1.906649 -1.90076,3.77527 -3.03308,5.597519 -1.44153,2.319995 -3.07382,4.562351 -4.87874,6.707378 -0.91678,1.038104 -1.86639,2.054574 -2.8449,3.049088 -0.58798,0.694748 -1.1923,1.381267 -1.8239,2.051497 0.17706,-0.25569 0.35168,-0.51222 0.52365,-0.76949 -0.90283,0.85502 -1.86003,1.66723 -2.85255,2.44484 -0.8681,0.68245 -1.76625,1.34202 -2.68402,1.98333 -1.15545,0.80737 -2.34458,1.58624 -3.59634,2.29031 -0.15455,0.0869 -0.3078,0.17557 -0.46133,0.26381 -0.33538,0.19288 -0.67599,0.38584 -1.03863,0.5555 -0.36424,0.17044 -0.7481,0.35099 -1.15283,0.4628 -0.23558,0.0621 -0.4824,0.10392 -0.73697,0.10392 -0.0757,3.5e-4 -0.1518,-0.004 -0.22888,-0.0116 -0.0103,-0.001 -0.0183,-0.004 -0.0268,-0.006 -0.0962,-0.0219 -0.13187,-0.12414 -0.17869,-0.21862 -0.0116,-0.0328 -0.0282,-0.0636 -0.0471,-0.0905 0.0321,-0.0299 0.0632,-0.0607 0.0944,-0.0909 0.1455,-0.14098 0.2851,-0.28043 0.42047,-0.41902 0.525,-0.53292 1.01805,-1.06667 1.48865,-1.59892 0.0394,-0.0455 0.0802,-0.0905 0.11976,-0.13585 -0.0565,0.0301 -0.11242,0.0591 -0.16882,0.0888 -0.66519,0.34897 -1.34409,0.69219 -2.03611,1.02259 -0.18074,0.0856 -0.36459,0.17211 -0.55122,0.25747 -0.0469,0.0211 -0.0931,0.0429 -0.14067,0.0637 0.0382,-0.0309 0.0758,-0.0623 0.11345,-0.0936 0.14988,-0.12479 0.29495,-0.25078 0.43669,-0.37576 0.25454,-0.22359 0.50465,-0.44705 0.76108,-0.66276 0.2902,-0.24407 0.57723,-0.48787 0.86153,-0.7305 1.26806,-1.08196 2.51827,-2.17034 3.72205,-3.28284 0.0603,-0.0816 0.12066,-0.16356 0.18112,-0.24512 -0.15871,0.13186 -0.31818,0.26255 -0.478,0.39354 l -8e-4,6e-5 c -0.57304,0.46996 -1.15062,0.9373 -1.74045,1.39362 -0.64639,0.5001 -1.29935,0.99443 -1.97676,1.46639 -0.0377,0.027 -0.0757,0.0533 -0.11371,0.0796 -0.28357,0.1956 -0.5817,0.37782 -0.87682,0.56408 0.26841,-0.2767 0.53054,-0.55436 0.78758,-0.83285 0.37639,-0.40774 0.74419,-0.81845 1.10368,-1.23155 1.4601,-1.21793 2.85749,-2.4818 4.1957,-3.77969 0.45941,-0.445358 0.91181,-0.895045 1.35739,-1.349342 0.82029,-1.286359 1.5773,-2.583484 2.2686,-3.886378 2.90104,-4.262303 5.34288,-8.647921 7.0479,-13.083234 0.8043,-2.081089 1.4346,-4.181508 1.88415,-6.285429 0.42619,-1.99432 0.68422,-3.992452 0.80493,-5.978646 -0.091,-0.05409 -0.18294,-0.107271 -0.27478,-0.159992 0.11513,-0.299546 0.21763,-0.601604 0.32431,-0.903893 0.009,-0.231978 0.0103,-0.46317 0.0155,-0.69471 0.004,-0.158047 0.0131,-0.316867 0.0147,-0.474695 -0.26672,-1.418188 -0.59082,-2.809062 -0.92358,-4.18156 -0.51907,-2.141145 -1.1592,-4.234275 -1.91874,-6.25493 -1.21569,-3.329768 -2.73386,-6.521824 -4.53381,-9.612867 -1.36609,-2.345853 -2.81782,-4.687599 -4.50153,-6.926825 -1.33668,-1.907254 -2.79475,-3.773107 -4.34808,-5.598395 -0.87295,-1.847605 -1.83408,-3.688115 -2.86802,-5.514768 1.5597,1.506593 3.06634,3.048135 4.50198,4.627319 1.86155,1.980451 3.58243,4.045211 5.21705,6.137517 2.56309,3.280743 4.8521,6.695517 6.68062,10.317994 -0.035,-0.112679 -0.0715,-0.22416 -0.1065,-0.336801 -1.7643,-4.151722 -4.04925,-8.144302 -6.73124,-11.983497 1.06748,0.901318 2.10757,1.82825 3.11568,2.783808 0.43641,0.673848 0.85467,1.355667 1.25934,2.042328 -0.12272,-0.384423 -0.24825,-0.769387 -0.38459,-1.151118 -0.18137,-0.507508 -0.3703,-1.013959 -0.57084,-1.517848 -1.44608,-1.875176 -3.03339,-3.662269 -4.60371,-5.464326 0.77183,0.481456 1.53663,0.974502 2.29238,1.479151 0.49288,0.474927 0.96075,0.968127 1.43042,1.459589 -0.0654,-0.206867 -0.13743,-0.411286 -0.20612,-0.61765 -0.0348,-0.15882 -0.0721,-0.317266 -0.10817,-0.476138 -1.44694,-1.952132 -3.00678,-3.848531 -4.66283,-5.685473 0.72608,0.520823 1.44479,1.051446 2.15502,1.591289 0.89682,1.146675 1.77133,2.303524 2.60014,3.482767 0.2241,0.178806 0.44739,0.358745 0.66936,0.539921 -1.72211,-2.289321 -3.59595,-4.498967 -5.59869,-6.622785 -1.87478,-2.135626 -4.0595,-4.063832 -5.91838,-6.2083052 -0.61156,-0.705565 -1.14757,-1.46362 -1.69927,-2.2099301 3.62817,2.1704211 7.18765,4.5060893 10.58308,7.0545723 0.17702,0.360856 0.38647,0.704393 0.58072,1.055605 0.60037,0.444213 1.19584,0.895201 1.78529,1.353387 2.11458,2.581939 4.0351,5.282983 5.7081,8.101072 -0.38744,-0.883212 -0.71354,-1.794266 -1.06868,-2.699164 0.73844,0.703466 1.46219,1.421497 2.17006,2.155316 -0.64236,-1.065675 -1.31239,-2.117829 -2.01475,-3.152714 -1.10754,-1.46456 -2.32985,-2.854842 -3.57197,-4.227121 -0.13459,-0.292193 -0.27099,-0.584271 -0.40944,-0.875485 -1.52775,-1.782316 -3.132,-3.511408 -4.80943,-5.177773 0.48587,0.324941 0.96965,0.653127 1.45028,0.986503 -0.0873,-0.09697 -0.17548,-0.193164 -0.26303,-0.289939 -0.81452,-0.865712 -1.68091,-1.6935762 -2.47388,-2.5688042 -0.0495,-0.04662 -0.12092,-0.114354 -0.17011,-0.161318 -0.62707,-1.021132 -1.27373,-2.0333261 -1.93868,-3.0350391 0.50732,0.408358 1.03911,0.800487 1.51281,1.238378 2.51243,2.3224031 4.81136,4.8289693 7.04047,7.3912703 0.0917,0.107528 0.18169,0.216292 0.27302,0.32422 1.02092,0.783166 2.02613,1.587322 3.01308,2.414414 4.71823,6.909839 8.45117,14.381299 10.37707,22.50094 0.0465,0.15233 0.0918,0.304865 0.13757,0.457684 0.19779,0.692005 0.3773,1.389573 0.53997,2.091881 0.58335,2.667871 0.88218,5.404805 0.91018,8.17331 z m -4.90159,-16.43243 c -0.1235,-0.337342 -0.25014,-0.673783 -0.37962,-1.00882 -0.97942,-2.469788 -2.14903,-4.863469 -3.46747,-7.186014 1.04029,2.352679 2.03188,4.726065 3.01375,7.092728 0.28223,0.363446 0.55956,0.730883 0.83336,1.102081 z" />
  </g>
</svg>
