<?xml version="1.0" encoding="UTF-8" standalone="no"?>
<!-- Created with Inkscape (http://www.inkscape.org/) -->

<svg
   width="80"
   height="80"
   viewBox="0 0 21.166667 21.166667"
   version="1.1"
   id="svg1"
   inkscape:version="1.3.2 (091e20e, 2023-11-25, custom)"
   sodipodi:docname="logo8.svg"
   xmlns:inkscape="http://www.inkscape.org/namespaces/inkscape"
   xmlns:sodipodi="http://sodipodi.sourceforge.net/DTD/sodipodi-0.dtd"
   xmlns="http://www.w3.org/2000/svg"
   xmlns:svg="http://www.w3.org/2000/svg">
  <sodipodi:namedview
     id="namedview1"
     pagecolor="#ffffff"
     bordercolor="#000000"
     borderopacity="0.25"
     inkscape:showpageshadow="2"
     inkscape:pageopacity="0.0"
     inkscape:pagecheckerboard="0"
     inkscape:deskcolor="#d1d1d1"
     inkscape:document-units="px"
     inkscape:zoom="21.066891"
     inkscape:cx="8.5679467"
     inkscape:cy="30.925303"
     inkscape:window-width="1920"
     inkscape:window-height="974"
     inkscape:window-x="-11"
     inkscape:window-y="-11"
     inkscape:window-maximized="1"
     inkscape:current-layer="layer1" />
  <defs
     id="defs1">
    <clipPath
       clipPathUnits="userSpaceOnUse"
       id="clipath_lpe_path-effect5">
      <path
         style="display:none;fill:#f9f9f9;fill-opacity:1;stroke-width:40;stroke-linecap:square;paint-order:markers stroke fill"
         d="m -108.6361,126.27263 -0.36743,3.06189 0.73486,3.30685 1.10228,2.44952 1.22476,2.69447 1.46971,2.44952 1.22476,3.06189 0.73485,1.22476 0.85733,1.34724 1.10229,1.83713 1.959614,1.59219 2.32704,2.20457 3.42933,-3.42933 7.96093,-9.43064 5.26646,-6.12379 3.79675,-4.65409 3.30685,-4.5316 -4.40913,-0.24496 h -6.49122 l -3.30685,0.24496 -3.30685,1.22475 -6.85865,0.85733 -4.899034,0.24496 z"
         id="path5" />
      <path
         id="lpe_path-effect5"
         style="fill:#f9f9f9;fill-opacity:1;stroke-width:40;stroke-linecap:square;paint-order:markers stroke fill"
         class="powerclip"
         d="M -167.75581,30.334233 H 7.0784804 V 198.81865 H -167.75581 Z m 59.11971,95.938397 -0.36743,3.06189 0.73486,3.30685 1.10228,2.44952 1.22476,2.69447 1.46971,2.44952 1.22476,3.06189 0.73485,1.22476 0.85733,1.34724 1.10229,1.83713 1.959614,1.59219 2.32704,2.20457 3.42933,-3.42933 7.96093,-9.43064 5.26646,-6.12379 3.79675,-4.65409 3.30685,-4.5316 -4.40913,-0.24496 h -6.49122 l -3.30685,0.24496 -3.30685,1.22475 -6.85865,0.85733 -4.899034,0.24496 z" />
    </clipPath>
    <inkscape:path-effect
       effect="powerclip"
       id="path-effect5"
       is_visible="true"
       lpeversion="1"
       inverse="true"
       flatten="false"
       hide_clip="false"
       message="Use fill-rule evenodd on &lt;b&gt;fill and stroke&lt;/b&gt; dialogue if no flatten result after convert clip to paths." />
  </defs>
  <g
     inkscape:label="Layer 1"
     inkscape:groupmode="layer"
     id="layer1">
    <ellipse
       style="fill:#d6cfcb;fill-opacity:1;stroke:none;stroke-width:3.4199;stroke-linecap:square;stroke-dasharray:none;stroke-opacity:1;paint-order:markers stroke fill"
       id="ellipse20"
       cx="10.588265"
       cy="10.593216"
       rx="10.564869"
       ry="10.574776" />
    <ellipse
       style="fill:#666666;stroke-width:16.5117;stroke-linecap:square;paint-order:markers stroke fill"
       id="ellipse3"
       cx="10.570231"
       cy="7.7044764"
       rx="5.2296987"
       ry="5.4022508" />
    <path
       style="fill:#000000;fill-opacity:1;stroke-width:40;stroke-linecap:square;paint-order:markers stroke fill"
       d="m -150.2571,104.18403 0.86603,-3.03112 0.51962,-2.338297 -0.34641,-2.5981 -0.17321,-2.77132 -1.12585,-3.29093 -0.43301,-0.86604 c 0,0 -21.47768,6.66848 -6.49527,-12.90392 14.98241,-19.572395 -0.69282,-1.299053 -0.69282,-1.299053 0,0 -2.68471,-22.343707 18.87956,-19.312584 21.56428,3.031123 10.99865,2.598105 10.99865,2.598105 l 1.99188,2.165088 1.38566,1.645467 0.60622,1.125846 0.99594,1.73207 0.38972,1.039243 0.21651,1.299052 0.30311,1.558864 -0.0433,1.255751 0.0433,0.692828 0.73613,1.169147 1.12584,1.47226 0.99594,1.299053 0.90934,1.039242 0.86604,1.082544 0.47632,0.995941 0.25981,0.736129 -0.12991,0.73613 -0.47632,0.433018 -0.64952,0.259811 -0.38972,0.129905 -0.90934,0.0866 -0.1299,0.303113 0.0433,0.73613 0.17321,0.606224 0.25981,0.73613 v 0.303112 l -0.0866,0.303113 -0.34641,0.303112 -0.17321,0.259811 0.17321,0.476319 v 0.259811 l 0.0433,0.346414 -0.0866,0.433017 -0.21651,0.303112 -0.12991,0.389715 -0.47632,0.60623 -0.0433,0.73613 0.0866,0.86603 v 0.60623 l -0.25981,0.60622 -0.43302,0.73613 -0.38972,0.47632 -0.47632,0.38972 -0.64952,0.25981 h -1.68877 -2.4682 l -2.07849,0.0433 -0.95264,0.17321 -0.69282,0.43302 -0.30312,0.86603 -0.47632,1.51556 -0.25981,1.42896 0.17321,1.47226 0.30311,1.29905 0.47632,1.602167 0.51962,1.60216 0.34642,1.08255 0.1732,0.38971 1.64547,0.25981 2.4682,0.47632 1.68877,0.25981 1.68877,0.30312 1.90528,0.69282 2.20839,0.99594 1.77537,0.82274 2.12178,0.86603 1.86198,0.69283 2.03518,0.38972 2.3816,0.34641 2.77131,0.0433 9.48309,0.21651 3.24763,0.0866 2.29499,-0.34641 3.24763,-0.56292 2.98783,-0.73613 2.6414,-0.25981 3.98377,-0.17321 3.98376,0.0866 3.98376,0.38972 4.46008,0.30311 3.33424,0.21651 3.24763,0.0866 0.82273,-0.0866 2.07849,-1.47226 2.03518,-1.34235 1.29905,-0.90934 1.55886,-1.47226 1.64547,-1.47226 2.03518,-1.991877 1.68877,-1.73207 1.42896,-1.86198 1.73207,-2.16508 1.90528,-2.295 4.9364,-6.322058 2.5981,-3.247632 2.4682,-2.598106 2.68471,-3.117726 2.07849,-2.728011 1.86197,-3.031123 0.82274,-1.558863 1.77537,-2.598106 1.21245,-2.598106 0.73613,-2.598105 0.38971,-3.074425 0.21651,-2.121786 -1.29905,-2.814615 -1.16915,-1.818673 -1.29905,-3.074425 -0.77943,-1.688769 -1.21245,-1.775372 -1.47226,-1.948579 -0.47632,-0.562923 -0.86604,-0.216509 -0.90933,-0.389716 -1.08255,-0.389716 -1.08254,-0.519621 -0.34641,-0.216509 -0.38972,-0.692828 -0.43302,-0.173207 -0.38971,-0.173207 -0.0866,-0.692828 0.0866,-0.692828 0.51962,-0.606225 0.56292,-0.476319 0.21651,-0.216509 0.0866,-0.649526 0.43302,-0.562923 1.12585,-0.519621 1.12584,-0.129905 h 0.90934 l 1.08254,0.303112 1.42896,0.649526 0.30311,0.303113 1.29906,-0.346415 1.81867,-0.303112 0.99594,0.0866 1.55886,0.216508 0.95264,0.519622 1.51556,0.822733 1.08255,0.99594 2.03518,1.818674 1.29905,1.342355 1.7753804,2.035183 1.47226,2.121786 1.86197,2.598105 1.55886,1.515562 1.81868,1.342354 2.68471002,2.338295 1.16913998,1.169148 0.47632,1.039242 0.21651,1.169148 0.0433,1.169147 -0.1732,1.039242 -0.34642,1.558864 -0.99593998,1.645467 -1.47226,1.342354 -1.64546002,1.428958 -2.68471,2.338295 -1.90528,2.338295 -1.55886,2.035183 -0.99594,1.775372 -0.9093404,1.515562 -2.90122,4.286874 -1.42896,2.857916 -1.81867,4.243572 -3.46414,7.01488 -1.73207,4.07037 -2.295,4.373477 -1.81867,2.6847 0.82273,0.0433 1.68877,0.0866 1.38566,-0.0866 1.25575,-0.12991 h 0.69283 l 0.95264,0.0866 0.1299,0.43302 1.03924,-0.30311 1.21245,-0.34641 1.55887,-0.17321 1.38565,-0.21651 1.68877,-0.21651 1.34236,-0.0866 1.6887704,-0.0433 0.82273,0.1732 0.21651,0.25981 0.34641,0.47632 -0.0866,0.64953 -0.43302,0.51962 -0.86603,0.34641 -1.0825504,0.30312 -1.47226,0.38971 -1.51556,0.25981 -2.85792,0.90934 -0.90933,0.38972 -0.73613,0.0433 0.34641,0.34641 0.30311,0.21651 0.12991,0.38972 1.16915,-0.12991 0.99594,-0.21651 0.90933,-0.17321 1.68877,0.17321 1.51556,0.0433 1.5588704,0.0866 h 1.12584 l 1.64547,0.30311 0.82273,0.30311 0.30312,0.43302 0.1299,0.60622 -0.21651,0.47632 -0.38971,0.38972 -0.56293,0.25981 -1.03924,0.21651 -0.21651,0.1299 0.38972,0.73613 -0.0433,0.56293 -0.21651,0.64952 -0.73613,0.60623 -1.60217,0.38971 -1.6454604,0.43302 -2.295,0.30311 -1.64546,0.38972 -1.08255,0.17321 -1.73207,-0.0866 -1.03924,-0.0866 -0.73613,0.43302 -0.21651,0.64952 0.25981,0.25981 0.69283,0.21651 0.99594,0.47632 0.86603,0.25981 1.16915,0.38972 1.16915,0.34641 1.21245,0.56293 1.21245,0.60622 0.17321,0.30311 -0.12991,0.51962 -0.69283,0.43302 -1.29905,0.0433 -1.60217,-0.1732 -1.08254,-0.34642 -1.29905,-0.21651 -1.42896,-0.38971 h -1.34236 l -1.77537,-0.21651 -1.55886,0.0866 -4.33018,0.17321 -3.72395,-0.21651 -2.33829,-0.69283 -2.59811,-0.56292 -4.54668,0.0866 -3.20433,2.59811 -3.24764,3.33423 -2.07848,3.63735 -3.76725,12.341 -1.99188,6.10555 -1.86198,4.71989 -4.63329,7.75102 -2.85791,5.80243 -2.98783,6.66847 -1.90527,4.97971 -1.29906,4.11366 -1.38565,2.90122 -1.90528,2.81462 -2.3816,2.90121 -1.99188,1.64547 -2.98782,0.95264 -5.71583,0.77943 -4.07037,0.25981 h -3.94046 l -5.1096,-0.1299 -4.28688,-1.55887 -3.24763,-2.03518 -3.42084,-2.90122 -3.89716,-4.37348 -4.02706,-4.58998 -2.5548,-3.11773 -5.58593,-6.92828 -3.81056,-5.54263 -3.94046,-5.71583 -4.9364,-6.84168 -2.72801,-4.33017 -2.81461,-4.41678 -1.99188,-3.81056 -0.38972,-1.25575 -1.68877,-4.33017 -1.03924,-4.63329 -1.03924,-5.023 -0.30311,-3.81056 0.1732,-3.29093 0.69283,-4.50339 0.90934,-3.37753 z"
       id="path3"
       clip-path="url(#clipath_lpe_path-effect5)"
       inkscape:path-effect="#path-effect5"
       inkscape:original-d="m -150.2571,104.18403 0.86603,-3.03112 0.51962,-2.338297 -0.34641,-2.5981 -0.17321,-2.77132 -1.12585,-3.29093 -0.43301,-0.86604 c 0,0 -21.47768,6.66848 -6.49527,-12.90392 14.98241,-19.572395 -0.69282,-1.299053 -0.69282,-1.299053 0,0 -2.68471,-22.343707 18.87956,-19.312584 21.56428,3.031123 10.99865,2.598105 10.99865,2.598105 l 1.99188,2.165088 1.38566,1.645467 0.60622,1.125846 0.99594,1.73207 0.38972,1.039243 0.21651,1.299052 0.30311,1.558864 -0.0433,1.255751 0.0433,0.692828 0.73613,1.169147 1.12584,1.47226 0.99594,1.299053 0.90934,1.039242 0.86604,1.082544 0.47632,0.995941 0.25981,0.736129 -0.12991,0.73613 -0.47632,0.433018 -0.64952,0.259811 -0.38972,0.129905 -0.90934,0.0866 -0.1299,0.303113 0.0433,0.73613 0.17321,0.606224 0.25981,0.73613 v 0.303112 l -0.0866,0.303113 -0.34641,0.303112 -0.17321,0.259811 0.17321,0.476319 v 0.259811 l 0.0433,0.346414 -0.0866,0.433017 -0.21651,0.303112 -0.12991,0.389715 -0.47632,0.60623 -0.0433,0.73613 0.0866,0.86603 v 0.60623 l -0.25981,0.60622 -0.43302,0.73613 -0.38972,0.47632 -0.47632,0.38972 -0.64952,0.25981 h -1.68877 -2.4682 l -2.07849,0.0433 -0.95264,0.17321 -0.69282,0.43302 -0.30312,0.86603 -0.47632,1.51556 -0.25981,1.42896 0.17321,1.47226 0.30311,1.29905 0.47632,1.602167 0.51962,1.60216 0.34642,1.08255 0.1732,0.38971 1.64547,0.25981 2.4682,0.47632 1.68877,0.25981 1.68877,0.30312 1.90528,0.69282 2.20839,0.99594 1.77537,0.82274 2.12178,0.86603 1.86198,0.69283 2.03518,0.38972 2.3816,0.34641 2.77131,0.0433 9.48309,0.21651 3.24763,0.0866 2.29499,-0.34641 3.24763,-0.56292 2.98783,-0.73613 2.6414,-0.25981 3.98377,-0.17321 3.98376,0.0866 3.98376,0.38972 4.46008,0.30311 3.33424,0.21651 3.24763,0.0866 0.82273,-0.0866 2.07849,-1.47226 2.03518,-1.34235 1.29905,-0.90934 1.55886,-1.47226 1.64547,-1.47226 2.03518,-1.991877 1.68877,-1.73207 1.42896,-1.86198 1.73207,-2.16508 1.90528,-2.295 4.9364,-6.322058 2.5981,-3.247632 2.4682,-2.598106 2.68471,-3.117726 2.07849,-2.728011 1.86197,-3.031123 0.82274,-1.558863 1.77537,-2.598106 1.21245,-2.598106 0.73613,-2.598105 0.38971,-3.074425 0.21651,-2.121786 -1.29905,-2.814615 -1.16915,-1.818673 -1.29905,-3.074425 -0.77943,-1.688769 -1.21245,-1.775372 -1.47226,-1.948579 -0.47632,-0.562923 -0.86604,-0.216509 -0.90933,-0.389716 -1.08255,-0.389716 -1.08254,-0.519621 -0.34641,-0.216509 -0.38972,-0.692828 -0.43302,-0.173207 -0.38971,-0.173207 -0.0866,-0.692828 0.0866,-0.692828 0.51962,-0.606225 0.56292,-0.476319 0.21651,-0.216509 0.0866,-0.649526 0.43302,-0.562923 1.12585,-0.519621 1.12584,-0.129905 h 0.90934 l 1.08254,0.303112 1.42896,0.649526 0.30311,0.303113 1.29906,-0.346415 1.81867,-0.303112 0.99594,0.0866 1.55886,0.216508 0.95264,0.519622 1.51556,0.822733 1.08255,0.99594 2.03518,1.818674 1.29905,1.342355 1.7753804,2.035183 1.47226,2.121786 1.86197,2.598105 1.55886,1.515562 1.81868,1.342354 2.68471002,2.338295 1.16913998,1.169148 0.47632,1.039242 0.21651,1.169148 0.0433,1.169147 -0.1732,1.039242 -0.34642,1.558864 -0.99593998,1.645467 -1.47226,1.342354 -1.64546002,1.428958 -2.68471,2.338295 -1.90528,2.338295 -1.55886,2.035183 -0.99594,1.775372 -0.9093404,1.515562 -2.90122,4.286874 -1.42896,2.857916 -1.81867,4.243572 -3.46414,7.01488 -1.73207,4.07037 -2.295,4.373477 -1.81867,2.6847 0.82273,0.0433 1.68877,0.0866 1.38566,-0.0866 1.25575,-0.12991 h 0.69283 l 0.95264,0.0866 0.1299,0.43302 1.03924,-0.30311 1.21245,-0.34641 1.55887,-0.17321 1.38565,-0.21651 1.68877,-0.21651 1.34236,-0.0866 1.6887704,-0.0433 0.82273,0.1732 0.21651,0.25981 0.34641,0.47632 -0.0866,0.64953 -0.43302,0.51962 -0.86603,0.34641 -1.0825504,0.30312 -1.47226,0.38971 -1.51556,0.25981 -2.85792,0.90934 -0.90933,0.38972 -0.73613,0.0433 0.34641,0.34641 0.30311,0.21651 0.12991,0.38972 1.16915,-0.12991 0.99594,-0.21651 0.90933,-0.17321 1.68877,0.17321 1.51556,0.0433 1.5588704,0.0866 h 1.12584 l 1.64547,0.30311 0.82273,0.30311 0.30312,0.43302 0.1299,0.60622 -0.21651,0.47632 -0.38971,0.38972 -0.56293,0.25981 -1.03924,0.21651 -0.21651,0.1299 0.38972,0.73613 -0.0433,0.56293 -0.21651,0.64952 -0.73613,0.60623 -1.60217,0.38971 -1.6454604,0.43302 -2.295,0.30311 -1.64546,0.38972 -1.08255,0.17321 -1.73207,-0.0866 -1.03924,-0.0866 -0.73613,0.43302 -0.21651,0.64952 0.25981,0.25981 0.69283,0.21651 0.99594,0.47632 0.86603,0.25981 1.16915,0.38972 1.16915,0.34641 1.21245,0.56293 1.21245,0.60622 0.17321,0.30311 -0.12991,0.51962 -0.69283,0.43302 -1.29905,0.0433 -1.60217,-0.1732 -1.08254,-0.34642 -1.29905,-0.21651 -1.42896,-0.38971 h -1.34236 l -1.77537,-0.21651 -1.55886,0.0866 -4.33018,0.17321 -3.72395,-0.21651 -2.33829,-0.69283 -2.59811,-0.56292 -4.54668,0.0866 -3.20433,2.59811 -3.24764,3.33423 -2.07848,3.63735 -3.76725,12.341 -1.99188,6.10555 -1.86198,4.71989 -4.63329,7.75102 -2.85791,5.80243 -2.98783,6.66847 -1.90527,4.97971 -1.29906,4.11366 -1.38565,2.90122 -1.90528,2.81462 -2.3816,2.90121 -1.99188,1.64547 -2.98782,0.95264 -5.71583,0.77943 -4.07037,0.25981 h -3.94046 l -5.1096,-0.1299 -4.28688,-1.55887 -3.24763,-2.03518 -3.42084,-2.90122 -3.89716,-4.37348 -4.02706,-4.58998 -2.5548,-3.11773 -5.58593,-6.92828 -3.81056,-5.54263 -3.94046,-5.71583 -4.9364,-6.84168 -2.72801,-4.33017 -2.81461,-4.41678 -1.99188,-3.81056 -0.38972,-1.25575 -1.68877,-4.33017 -1.03924,-4.63329 -1.03924,-5.023 -0.30311,-3.81056 0.1732,-3.29093 0.69283,-4.50339 0.90934,-3.37753 z"
       transform="matrix(0.06391164,0,0,0.06662937,16.167957,-0.07389012)" />
    <rect
       style="fill:#000000;fill-opacity:1;stroke:none;stroke-width:4.80126;stroke-linecap:square;stroke-dasharray:none;stroke-opacity:1;paint-order:markers stroke fill"
       id="rect3"
       width="16.05142"
       height="0.4039236"
       x="2.64381"
       y="12.767276" />
    <text
       xml:space="preserve"
       style="font-size:3.99203px;font-family:Dubai;-inkscape-font-specification:'Dubai, Normal';fill:#000000;fill-opacity:1;stroke:none;stroke-width:4.19159;stroke-linecap:square;paint-order:markers stroke fill"
       x="3.9769297"
       y="16.977346"
       id="text3"
       transform="scale(0.97939336,1.0210402)"><tspan
         sodipodi:role="line"
         x="3.9769297"
         y="16.977346"
         style="font-style:normal;font-variant:normal;font-weight:normal;font-stretch:normal;font-size:3.99203px;font-family:'Berlin Sans FB';-inkscape-font-specification:'Berlin Sans FB, Normal';font-variant-ligatures:normal;font-variant-caps:normal;font-variant-numeric:normal;font-variant-east-asian:normal;stroke-width:4.19159"
         id="tspan3">LM</tspan></text>
    <text
       xml:space="preserve"
       style="font-style:normal;font-variant:normal;font-weight:normal;font-stretch:normal;font-size:2.99006px;font-family:'Ink Free';-inkscape-font-specification:'Ink Free, Normal';font-variant-ligatures:normal;font-variant-caps:normal;font-variant-numeric:normal;font-variant-east-asian:normal;fill:#000000;fill-opacity:1;stroke:none;stroke-width:26.1629;stroke-linecap:square;paint-order:markers stroke fill"
       x="10.035651"
       y="16.261791"
       id="text4"
       transform="scale(0.97939336,1.0210402)"><tspan
         sodipodi:role="line"
         id="tspan4"
         x="10.035651"
         y="16.261791"
         style="stroke-width:26.1629">pilates</tspan></text>
  </g>
</svg>
