<?xml version="1.0" encoding="UTF-8" standalone="no"?>
<!-- Created with Inkscape (http://www.inkscape.org/) -->

<svg
   width="50"
   height="50"
   viewBox="0 0 50 50"
   version="1.1"
   id="svg1"
   inkscape:version="1.3.2 (091e20e, 2023-11-25, custom)"
   sodipodi:docname="Logo1.svg"
   xmlns:inkscape="http://www.inkscape.org/namespaces/inkscape"
   xmlns:sodipodi="http://sodipodi.sourceforge.net/DTD/sodipodi-0.dtd"
   xmlns:xlink="http://www.w3.org/1999/xlink"
   xmlns="http://www.w3.org/2000/svg"
   xmlns:svg="http://www.w3.org/2000/svg">
  <sodipodi:namedview
     id="namedview1"
     pagecolor="#ffffff"
     bordercolor="#000000"
     borderopacity="0.25"
     inkscape:showpageshadow="2"
     inkscape:pageopacity="0.0"
     inkscape:pagecheckerboard="0"
     inkscape:deskcolor="#d1d1d1"
     inkscape:document-units="mm"
     inkscape:zoom="5.2667228"
     inkscape:cx="37.594536"
     inkscape:cy="38.069215"
     inkscape:window-width="1920"
     inkscape:window-height="974"
     inkscape:window-x="-11"
     inkscape:window-y="-11"
     inkscape:window-maximized="1"
     inkscape:current-layer="layer1"
     showguides="true"
     showgrid="false" />
  <defs
     id="defs1">
    <linearGradient
       id="linearGradient416"
       inkscape:collect="always">
      <stop
         style="stop-color:#565264;stop-opacity:0.8509804"
         offset="0"
         id="stop416" />
      <stop
         style="stop-color:#ccb7ae;stop-opacity:0.8509804"
         offset="1"
         id="stop417" />
    </linearGradient>
    <linearGradient
       id="swatch407"
       inkscape:swatch="solid">
      <stop
         style="stop-color:#a6808c;stop-opacity:0.08235294;"
         offset="0"
         id="stop407" />
    </linearGradient>
    <linearGradient
       inkscape:collect="always"
       xlink:href="#linearGradient416"
       id="linearGradient417"
       x1="383.51367"
       y1="521.31836"
       x2="594.38855"
       y2="266.75781"
       gradientUnits="userSpaceOnUse"
       gradientTransform="matrix(0.08883577,0,0,0.08883577,-16.814387,-10.090176)" />
  </defs>
  <g
     inkscape:label="Layer 1"
     inkscape:groupmode="layer"
     id="layer1">
    <path
       id="rect23"
       style="fill:url(#linearGradient417);fill-opacity:1;stroke:none;stroke-width:0.266507;stroke-dasharray:none"
       d="m 28.61504,2.39923 a 18.885478,18.818449 0 0 0 -0.007,5e-4 18.885478,18.818449 0 0 0 -0.53041,0.0331 18.885478,18.818449 0 0 1 0.53041,-0.0331 h -2.25351 -1.56174 -0.63365 a 22.401356,22.627226 0 0 0 -6.87783,1.35596 22.401356,22.627226 0 0 0 -0.0264,0.0101 22.401356,22.627226 0 0 0 -7.51148,4.6002 22.401356,22.627226 0 0 0 -1.52981,1.54526 22.401356,22.627226 0 0 0 -4.37187,7.51131 22.401356,22.627226 0 0 0 -0.0146,0.0394 22.401356,22.627226 0 0 0 -1.32716,7.51148 22.401356,22.627226 0 0 0 1.32716,7.51131 22.401356,22.627226 0 0 0 4.38678,7.55104 22.401356,22.627226 0 0 0 1.52947,1.54491 22.401356,22.627226 0 0 0 7.51148,4.6002 v 1.40593 h 0.0264 v -1.39587 a 22.401356,22.627226 0 0 0 7.43028,1.39587 22.401356,22.627226 0 0 0 0.0812,0.006 22.401356,22.627226 0 0 0 0.10862,0.008 22.401356,22.627226 0 0 0 0.18982,-0.0137 c 0.3934,-0.006 0.78609,-0.0228 1.17794,-0.0493 a 22.401356,22.627226 0 0 0 0.0857,-0.006 c 0.38415,-0.0274 0.76731,-0.0649 1.14914,-0.11226 a 22.401356,22.627226 0 0 0 0.0779,-0.0101 c 0.78327,-0.0999 1.56069,-0.24155 2.32916,-0.4244 a 22.401356,22.627226 0 0 0 0.0724,-0.017 c 0.37578,-0.0907 0.74932,-0.19135 1.12034,-0.30172 a 22.401356,22.627226 0 0 0 0.0769,-0.0232 c 0.1287,-0.0388 0.25713,-0.0788 0.38519,-0.1199 l -0.0432,0.007 a 22.401356,22.627226 0 0 0 0.78166,-0.25766 c 4.11727,-1.59384 4.8459,-2.27063 6.80947,-3.81803 l 0.74157,-0.79571 v 0.12788 5.8 h 0.0158 v -5.81596 -0.12875 l 0.55348,-0.59391 0.69039,-1.02508 0.48148,-0.98483 0.22903,-0.58906 0.10307,-0.38241 0.014,-0.37634 -0.071,-0.1454 -0.14697,-0.0658 -0.24811,0.0514 c -0.41099,0.23825 -0.61648,0.36445 -1.05822,0.59721 l -0.54724,0.28178 v -2.10013 a 18.885478,18.818449 0 0 0 3.84579,-3.8248 18.885478,18.818449 0 0 0 3.35511,-7.51131 18.885478,18.818449 0 0 0 0.20751,-0.96262 22.401356,22.627226 0 0 0 -0.0852,-1.19095 22.401356,22.627226 0 0 1 0.0852,1.19095 18.885478,18.818449 0 0 0 0.20682,-2.61961 18.885478,18.818449 0 0 0 0.0137,-0.17351 18.885478,18.818449 0 0 0 -0.0137,-0.50629 18.885478,18.818449 0 0 0 -0.37182,-3.24945 18.885478,18.818449 0 0 0 -0.008,-0.0394 A 18.885478,18.818449 0 0 0 43.708,9.91115 18.885478,18.818449 0 0 0 39.87072,6.11273 V 2.39967 h -0.0158 V 6.10145 A 18.885478,18.818449 0 0 0 32.30388,2.7682 18.885478,18.818449 0 0 0 28.6335,2.39967 a 18.885478,18.818449 0 0 0 -0.0193,-5e-4 z m 3.68964,43.87342 -0.6628,0.22591 c 0.22187,-0.0722 0.44301,-0.14669 0.6628,-0.22591 z m -0.6628,0.22591 c -0.0252,0.008 -0.0504,0.0165 -0.0757,0.0246 l 0.007,-10e-4 z M 27.93628,2.444 A 18.885478,18.818449 0 0 0 27.40865,2.4938 22.401356,22.627226 0 0 1 28.51319,2.65065 22.401356,22.627226 0 0 0 27.40865,2.4938 18.885478,18.818449 0 0 0 26.62231,2.5604 18.885478,18.818449 0 0 1 27.40865,2.4938 18.885478,18.818449 0 0 1 27.93628,2.444 Z m -1.46405,0.13186 a 18.885478,18.818449 0 0 0 -0.75424,0.0994 18.885478,18.818449 0 0 1 0.75424,-0.0994 z M 25.57311,2.69853 A 18.885478,18.818449 0 0 0 24.7932,2.83838 18.885478,18.818449 0 0 0 23.70652,3.09517 18.885478,18.818449 0 0 1 24.7932,2.83838 18.885478,18.818449 0 0 1 25.57311,2.69853 Z m 3.22134,3.7e-4 A 22.401356,22.627226 0 0 1 29.88807,2.91822 22.401356,22.627226 0 0 1 30.96971,3.19965 22.401356,22.627226 0 0 0 29.88807,2.91822 22.401356,22.627226 0 0 0 28.79445,2.6989 Z M 23.3543,3.19774 a 18.885478,18.818449 0 0 0 -0.71676,0.2174 18.885478,18.818449 0 0 1 0.71676,-0.2174 z m 7.88539,0.0805 a 22.401356,22.627226 0 0 1 1.06499,0.3425 22.401356,22.627226 0 0 0 -1.06499,-0.3425 z m -9.0151,0.28177 a 18.885478,18.818449 0 0 0 -0.64267,0.23996 18.885478,18.818449 0 0 1 0.64267,-0.23996 z m -1.05978,0.4126 A 18.885478,18.818449 0 0 0 20.54608,4.24866 18.885478,18.818449 0 0 1 21.16481,3.97261 Z M 20.14129,4.44282 A 18.885478,18.818449 0 0 0 19.5243,4.76606 18.885478,18.818449 0 0 1 20.14129,4.44282 Z m -0.98882,0.52729 a 18.885478,18.818449 0 0 0 -0.64874,0.39351 18.885478,18.818449 0 0 1 0.64874,-0.39351 z m -0.95464,0.58402 a 18.885478,18.818449 0 0 0 -0.91611,0.63712 18.885478,18.818449 0 0 1 0.91611,-0.63712 z m -0.94249,0.65968 v 3.69744 7.5113 0.0394 7.51148 7.51131 3.73683 A 18.885478,18.818449 0 0 1 13.51279,32.48474 18.885478,18.818449 0 0 1 10.15768,24.97343 18.885478,18.818449 0 0 1 9.74386,21.39779 v -0.3602 a 18.885478,18.818449 0 0 1 0.41382,-3.57564 18.885478,18.818449 0 0 1 0.01,-0.0394 18.885478,18.818449 0 0 1 3.37923,-7.5113 18.885478,18.818449 0 0 1 3.70889,-3.69744 z m 23.15699,2.43934 a 22.401356,22.627226 0 0 1 0.15789,0.15563 22.401356,22.627226 0 0 0 -0.15789,-0.15563 z m 0.54741,0.55088 A 22.401356,22.627226 0 0 1 41.1107,9.36158 22.401356,22.627226 0 0 0 40.95974,9.20403 Z m -12.3447,0.72734 a 11.2687,15.041971 0 0 1 3.68964,0.83648 11.2687,15.041971 0 0 1 6.05141,6.6547 11.2687,15.041971 0 0 1 0.0167,0.0394 11.2687,15.041971 0 0 1 1.48297,6.49351 v 1.01797 1.0178 a 11.2687,15.041971 0 0 1 -1.48297,6.49351 c -1.35402,3.13261 -3.47981,5.70002 -6.03962,6.88512 l -0.0199,0.0309 -0.009,0.0548 0.0253,0.0664 0.0538,0.0548 c 0.0446,0.01 0.11027,0.0138 0.15268,0.005 0.057,-0.0115 0.14769,-0.0285 0.20457,-0.0406 2.62014,-0.55629 4.95458,-1.6357 7.11467,-3.21856 v 2.09476 l -0.17178,0.0885 -1.27111,0.49172 -1.80986,0.39056 -1.61865,0.27293 -2.67964,0.37443 h -3.68513 -0.009 a 18.885478,18.818449 0 0 1 -3.81734,-0.4388 18.885478,18.818449 0 0 1 -1.08667,-0.2568 18.885478,18.818449 0 0 0 1.08668,0.2568 v -0.47717 -6.6351 -7.5113 -7.51149 -0.0394 -6.59571 a 11.2687,15.041971 0 0 1 3.82184,-0.89547 z m -4.52195,1.26991 a 11.2687,15.041971 0 0 0 -0.21827,0.13776 11.2687,15.041971 0 0 1 0.21827,-0.13776 z m -0.67806,0.4348 a 11.2687,15.041971 0 0 0 -0.25974,0.19156 11.2687,15.041971 0 0 1 0.25974,-0.19156 z m -0.65673,0.49571 a 11.2687,15.041971 0 0 0 -0.26442,0.22539 11.2687,15.041971 0 0 1 0.26442,-0.22539 z m -0.63018,0.55263 a 11.2687,15.041971 0 0 0 -0.26165,0.25575 11.2687,15.041971 0 0 1 0.26165,-0.25575 z m -0.60189,0.60866 a 11.2687,15.041971 0 0 0 -0.25159,0.28004 11.2687,15.041971 0 0 1 0.25159,-0.28004 z m -0.57258,0.66384 a 11.2687,15.041971 0 0 0 -0.23614,0.29895 11.2687,15.041971 0 0 1 0.23614,-0.29895 z m -0.54186,0.71936 a 11.2687,15.041971 0 0 0 -0.21376,0.30711 11.2687,15.041971 0 0 1 0.21376,-0.30711 z m -0.50959,0.77506 a 11.2687,15.041971 0 0 0 -0.18756,0.30693 11.2687,15.041971 0 0 1 0.18756,-0.30693 z m -0.48305,0.84654 a 11.2687,15.041971 0 0 0 -0.14696,0.27397 11.2687,15.041971 0 0 1 0.14696,-0.27397 z m -0.56633,1.16406 a 11.2687,15.041971 0 0 0 -0.35707,0.90328 11.2687,15.041971 0 0 1 0.35707,-0.90328 z m 27.17733,0 a 22.401356,22.627226 0 0 1 0.35968,1.1389 22.401356,22.627226 0 0 0 -0.35968,-1.1389 z m -27.63122,1.18037 a 11.2687,15.041971 0 0 0 -0.21931,0.67182 11.2687,15.041971 0 0 1 0.21931,-0.67182 z m 28.08078,0.28074 a 22.401356,22.627226 0 0 1 0.23267,0.92167 22.401356,22.627226 0 0 0 -0.23267,-0.92167 z m -28.39327,0.70478 a 11.2687,15.041971 0 0 0 -0.19242,0.73446 11.2687,15.041971 0 0 1 0.19242,-0.73446 z m 28.68858,0.4834 a 22.401356,22.627226 0 0 1 0.22174,1.16319 22.401356,22.627226 0 0 0 -0.22174,-1.16319 z m -28.93982,0.4879 a 11.2687,15.041971 0 0 0 -0.19641,0.97997 11.2687,15.041971 0 0 1 0.19641,-0.97997 z m 29.20042,0.93833 a 22.401356,22.627226 0 0 1 0.12389,0.94665 22.401356,22.627226 0 0 0 -0.12389,-0.94665 z m -29.43344,0.27813 a 11.2687,15.041971 0 0 0 -0.10913,0.77089 11.2687,15.041971 0 0 1 0.10913,-0.77089 z m -0.14574,1.10472 a 11.2687,15.041971 0 0 0 -0.0614,0.72613 11.2687,15.041971 0 0 1 0.0614,-0.72613 z m -0.0816,1.03324 a 11.2687,15.041971 0 0 0 -0.0286,1.01987 11.2687,15.041971 0 0 0 0.0286,1.01988 11.2687,15.041971 0 0 1 -0.0286,-1.01988 11.2687,15.041971 0 0 1 0.0286,-1.01987 z m 0.0201,2.34668 a 11.2687,15.041971 0 0 0 0.0614,0.72682 11.2687,15.041971 0 0 1 -0.0614,-0.72682 z m 0.0978,1.05944 a 11.2687,15.041971 0 0 0 0.10931,0.77193 11.2687,15.041971 0 0 1 -0.10931,-0.77193 z m 0.14592,1.0079 a 11.2687,15.041971 0 0 0 0.19711,0.98257 11.2687,15.041971 0 0 1 -0.19711,-0.98257 z m 0.25332,1.20918 a 11.2687,15.041971 0 0 0 0.19433,0.74243 11.2687,15.041971 0 0 1 -0.19433,-0.74243 z m 0.28751,1.05579 a 11.2687,15.041971 0 0 0 0.21931,0.67182 11.2687,15.041971 0 0 1 -0.21931,-0.67182 z m 0.31613,0.94891 a 11.2687,15.041971 0 0 0 0.35707,0.90328 11.2687,15.041971 0 0 1 -0.35707,-0.90328 z m 0.75874,1.76145 a 11.2687,15.041971 0 0 0 0.14072,0.26355 11.2687,15.041971 0 0 1 -0.14072,-0.26355 z m 0.44158,0.81669 a 11.2687,15.041971 0 0 0 0.19016,0.31197 11.2687,15.041971 0 0 1 -0.19016,-0.31197 z m 0.48287,0.77732 a 11.2687,15.041971 0 0 0 0.21793,0.31457 11.2687,15.041971 0 0 1 -0.21793,-0.31457 z m 0.52243,0.73463 a 11.2687,15.041971 0 0 0 0.23615,0.29982 11.2687,15.041971 0 0 1 -0.23615,-0.29982 z m -3.41965,0.57257 a 18.885478,18.818449 0 0 0 0.91611,0.63712 18.885478,18.818449 0 0 1 -0.91611,-0.63712 z m 3.97921,0.11521 a 11.2687,15.041971 0 0 0 0.25003,0.27935 11.2687,15.041971 0 0 1 -0.25003,-0.27935 z m 0.59427,0.63712 a 11.2687,15.041971 0 0 0 0.26199,0.25644 11.2687,15.041971 0 0 1 -0.26199,-0.25644 z m -3.35147,0.0753 a 18.885478,18.818449 0 0 0 0.64874,0.39352 18.885478,18.818449 0 0 1 -0.64874,-0.39352 z m 3.97574,0.50612 a 11.2687,15.041971 0 0 0 0.27224,0.2325 11.2687,15.041971 0 0 1 -0.27224,-0.2325 z m -2.95517,0.0914 a 18.885478,18.818449 0 0 0 0.61699,0.32325 18.885478,18.818449 0 0 1 -0.61699,-0.32325 z m 3.61919,0.4414 a 11.2687,15.041971 0 0 0 0.26633,0.19676 11.2687,15.041971 0 0 1 -0.26633,-0.19676 z m -2.59741,0.076 a 18.885478,18.818449 0 0 0 0.61873,0.27605 18.885478,18.818449 0 0 1 -0.61873,-0.27605 z m 3.32093,0.41625 a 11.2687,15.041971 0 0 0 0.22331,0.14088 11.2687,15.041971 0 0 1 -0.22331,-0.14088 z m -2.28509,0.0324 a 18.885478,18.818449 0 0 0 0.64267,0.23996 18.885478,18.818449 0 0 1 -0.64267,-0.23996 z m 1.05562,0.38484 a 18.885478,18.818449 0 0 0 0.71676,0.2174 18.885478,18.818449 0 0 1 -0.71676,-0.2174 z" />
    <path
       style="fill:#000000;stroke-width:1.00157;stroke-dasharray:none"
       d="M 95.695183,127.59358 V 833.91517"
       id="path2" />
    <rect
       style="fill:#565264;fill-opacity:0.85098;stroke:none;stroke-width:3;stroke-dasharray:none"
       id="rect406"
       width="177.71962"
       height="161.01094"
       x="1149.8612"
       y="682.01807" />
    <rect
       style="fill:#ccb7ae;fill-opacity:0.85098;stroke:none;stroke-width:3;stroke-dasharray:none"
       id="rect407"
       width="186.8334"
       height="154.93506"
       x="1149.8612"
       y="445.05856" />
    <rect
       style="fill:#a6808c;fill-opacity:0.85098;stroke:none;stroke-width:3;stroke-dasharray:none"
       id="rect409"
       width="198.98521"
       height="180.75757"
       x="1137.7094"
       y="197.46625" />
  </g>
</svg>
