<?xml version="1.0" encoding="UTF-8" standalone="no"?>
<!-- Uploaded to: SVG Repo, www.svgrepo.com, Generator: SVG Repo Mixer Tools -->

<svg
   width="55"
   height="55"
   viewBox="-0.5 0 1.71875 1.71875"
   fill="none"
   version="1.1"
   id="svg4"
   sodipodi:docname="menu-box.svg"
   inkscape:version="1.3.2 (091e20e, 2023-11-25, custom)"
   xmlns:inkscape="http://www.inkscape.org/namespaces/inkscape"
   xmlns:sodipodi="http://sodipodi.sourceforge.net/DTD/sodipodi-0.dtd"
   xmlns="http://www.w3.org/2000/svg"
   xmlns:svg="http://www.w3.org/2000/svg">
  <defs
     id="defs4" />
  <sodipodi:namedview
     id="namedview4"
     pagecolor="#ffffff"
     bordercolor="#000000"
     borderopacity="0.25"
     inkscape:showpageshadow="2"
     inkscape:pageopacity="0.0"
     inkscape:pagecheckerboard="0"
     inkscape:deskcolor="#d1d1d1"
     inkscape:zoom="7.01"
     inkscape:cx="32.810271"
     inkscape:cy="35.877318"
     inkscape:window-width="1920"
     inkscape:window-height="974"
     inkscape:window-x="-11"
     inkscape:window-y="-11"
     inkscape:window-maximized="1"
     inkscape:current-layer="svg4" />
  <path
     d="m 0.92631288,0.14258837 h -0.2403846 c -0.08851,0 -0.1602564,0.071749 -0.1602564,0.1602564 v 0.2403846 c 0,0.088507 0.071747,0.1602556 0.1602564,0.1602556 h 0.2403846 c 0.08851,0 0.16025642,-0.071748 0.16025642,-0.1602556 v -0.2403846 c 0,-0.088507 -0.071747,-0.1602564 -0.16025642,-0.1602564 z"
     stroke="#000000"
     stroke-width="0.120192"
     stroke-linecap="round"
     stroke-linejoin="round"
     id="path1" />
  <path
     d="m 0.04490268,0.14258837 h -0.2403846 c -0.088507,0 -0.1602564,0.071749 -0.1602564,0.1602564 v 0.2403846 c 0,0.088507 0.071749,0.1602556 0.1602564,0.1602556 h 0.2403846 c 0.088507,0 0.1602564,-0.071748 0.1602564,-0.1602556 v -0.2403846 c 0,-0.088507 -0.071749,-0.1602564 -0.1602564,-0.1602564 z"
     stroke="#000000"
     stroke-width="0.120192"
     stroke-linecap="round"
     stroke-linejoin="round"
     id="path2" />
  <path
     d="m 0.92631288,1.0239978 h -0.2403846 c -0.08851,0 -0.1602564,0.071747 -0.1602564,0.1602564 v 0.2403846 c 0,0.08851 0.071747,0.1602564 0.1602564,0.1602564 h 0.2403846 c 0.08851,0 0.16025642,-0.071747 0.16025642,-0.1602564 V 1.1842542 c 0,-0.08851 -0.071747,-0.1602564 -0.16025642,-0.1602564 z"
     stroke="#000000"
     stroke-width="0.120192"
     stroke-linecap="round"
     stroke-linejoin="round"
     id="path3" />
  <path
     d="m 0.04490268,1.0239978 h -0.2403846 c -0.088507,0 -0.1602564,0.071747 -0.1602564,0.1602564 v 0.2403846 c 0,0.08851 0.071749,0.1602564 0.1602564,0.1602564 h 0.2403846 c 0.088507,0 0.1602564,-0.071747 0.1602564,-0.1602564 V 1.1842542 c 0,-0.08851 -0.071749,-0.1602564 -0.1602564,-0.1602564 z"
     stroke="#000000"
     stroke-width="0.120192"
     stroke-linecap="round"
     stroke-linejoin="round"
     id="path4" />
</svg>
