<?xml version="1.0" encoding="UTF-8" standalone="no"?>
<!-- Uploaded to: SVG Repo, www.svgrepo.com, Generator: SVG Repo Mixer Tools -->

<svg
   width="60"
   height="60"
   viewBox="0 0 1.8 1.8"
   fill="none"
   version="1.1"
   id="svg1"
   sodipodi:docname="phone.svg"
   inkscape:version="1.3.2 (091e20e, 2023-11-25, custom)"
   xmlns:inkscape="http://www.inkscape.org/namespaces/inkscape"
   xmlns:sodipodi="http://sodipodi.sourceforge.net/DTD/sodipodi-0.dtd"
   xmlns="http://www.w3.org/2000/svg"
   xmlns:svg="http://www.w3.org/2000/svg">
  <defs
     id="defs1" />
  <sodipodi:namedview
     id="namedview1"
     pagecolor="#ffffff"
     bordercolor="#000000"
     borderopacity="0.25"
     inkscape:showpageshadow="2"
     inkscape:pageopacity="0.0"
     inkscape:pagecheckerboard="0"
     inkscape:deskcolor="#d1d1d1"
     inkscape:zoom="10.451038"
     inkscape:cx="32.436969"
     inkscape:cy="31.3366"
     inkscape:window-width="1920"
     inkscape:window-height="974"
     inkscape:window-x="-11"
     inkscape:window-y="-11"
     inkscape:window-maximized="1"
     inkscape:current-layer="svg1" />
  <path
     d="m 0.23245498,0.40491735 c 0,0.64197525 0.5204249,1.16240085 1.16240092,1.16240085 0.028963,0 0.057678,-0.00106 0.086115,-0.00314 0.03263,-0.00239 0.048941,-0.00358 0.063797,-0.012134 0.012299,-0.00708 0.02396,-0.019633 0.030125,-0.03242 0.00745,-0.015434 0.00745,-0.03344 0.00745,-0.069444 V 1.2388987 c 0,-0.030282 0,-0.045424 -0.00499,-0.058397 -0.00439,-0.011467 -0.011549,-0.021673 -0.020818,-0.029727 -0.010492,-0.00912 -0.024725,-0.014294 -0.053178,-0.024643 l -0.2404895,-0.08745 c -0.03311,-0.012037 -0.049668,-0.018058 -0.065372,-0.017038 -0.013851,8.999e-4 -0.027178,0.00563 -0.038502,0.013656 -0.012839,0.0091 -0.021898,0.0242 -0.040024,0.054415 L 1.0573847,1.1923502 C 0.85865908,1.1023504 0.69755788,0.94103915 0.60742308,0.74238865 l 0.1026385,-0.061583 c 0.030209,-0.018125 0.045313,-0.027188 0.054413,-0.040029 0.00802,-0.011322 0.012756,-0.02465 0.013656,-0.038499 0.00102,-0.015706 -0.005,-0.03226 -0.017038,-0.065368 l -0.0874509,-0.2404923 c -0.010348,-0.028456 -0.015522,-0.042685 -0.024641,-0.053179 -0.00806,-0.00927 -0.018263,-0.01642 -0.029727,-0.020822 -0.012978,-0.00498 -0.028118,-0.00498 -0.058397,-0.00498 h -0.2112809 c -0.036007,0 -0.05401,0 -0.069446,0.00744 -0.012785,0.00617 -0.025336,0.017831 -0.032418,0.030131 -0.00855,0.014852 -0.00975,0.031167 -0.012135,0.063797 -0.00208,0.028432 -0.00314,0.057149 -0.00314,0.086113 z"
     stroke="#000000"
     stroke-width="0.149987"
     stroke-linecap="round"
     stroke-linejoin="round"
     id="path1" />
</svg>
