<svg width="0" height="0" class="hidden">
  <symbol version="1.1" id="linkedin" sodipodiDocname="linkedin.svg" inkscapeVersion="1.3.2 (091e20e, 2023-11-25, custom)" xmlnsInkscape="http://www.inkscape.org/namespaces/inkscape" xmlnsSodipodi="http://sodipodi.sourceforge.net/DTD/sodipodi-0.dtd" xmlns="http://www.w3.org/2000/svg" xmlnsSvg="http://www.w3.org/2000/svg" viewBox="0 0 50 50">
    <defs id="defs1"></defs>
    <sodipodi:namedview id="namedview1" pagecolor="#ffffff" bordercolor="#000000" borderopacity="0.25" inkscapeShowpageshadow="2" inkscapePageopacity="0.0" inkscapePagecheckerboard="0" inkscapeDeskcolor="#d1d1d1" showgrid="false" inkscapeZoom="2.9335938" inkscapeCx="42.609853" inkscapeCy="42.098535" inkscapeWindowWidth="1920" inkscapeWindowHeight="974" inkscapeWindowX="-11" inkscapeWindowY="-11" inkscapeWindowMaximized="1" inkscapeCurrentLayer="svg1"></sodipodi:namedview>
    <path d="M 46.42857,0 H 3.56026 C 1.59598,0 0,1.61831 0,3.60492 V 46.39509 C 0,48.3817 1.59598,50 3.56026,50 H 46.42857 C 48.39285,50 50,48.3817 50,46.39509 V 3.60492 C 50,1.61831 48.39285,0 46.42857,0 Z M 15.1116,42.85715 H 7.70089 V 18.99554 h 7.42187 V 42.85715 Z M 11.40625,15.73661 c -2.37724,0 -4.29688,-1.9308 -4.29688,-4.29687 0,-2.36607 1.91964,-4.29688 4.29688,-4.29688 2.36607,0 4.29687,1.93081 4.29687,4.29688 0,2.37723 -1.91964,4.29687 -4.29687,4.29687 z M 42.89062,42.85715 H 35.47991 V 31.25 c 0,-2.76785 -0.0558,-6.32812 -3.85045,-6.32812 -3.86161,0 -4.45312,3.01339 -4.45312,6.12723 V 42.85715 H 19.76562 V 18.99554 H 26.875 v 3.25893 h 0.10044 c 0.99331,-1.875 3.41518,-3.85045 7.02009,-3.85045 7.5,0 8.89509,4.9442 8.89509,11.37277 z" id="path1"></path>
  </symbol>
  <symbol xmlns="http://www.w3.org/2000/svg" viewBox="0 0 50 2" id="line">
    <path fill="#63c3ef" d="M0 0h50v2H0z"></path>
  </symbol>
  <symbol version="1.1" id="location-dot-solid" sodipodiDocname="location-dot-solid.svg" inkscapeVersion="1.3.2 (091e20e, 2023-11-25, custom)" xmlnsInkscape="http://www.inkscape.org/namespaces/inkscape" xmlnsSodipodi="http://sodipodi.sourceforge.net/DTD/sodipodi-0.dtd" xmlns="http://www.w3.org/2000/svg" xmlnsSvg="http://www.w3.org/2000/svg" viewBox="0 0 50 50">
    <defs id="defs1"></defs>
    <sodipodi:namedview id="namedview1" pagecolor="#ffffff" bordercolor="#000000" borderopacity="0.25" inkscapeShowpageshadow="2" inkscapePageopacity="0.0" inkscapePagecheckerboard="0" inkscapeDeskcolor="#d1d1d1" showgrid="false" inkscapeZoom="5.8671876" inkscapeCx="32.553928" inkscapeCy="39.797603" inkscapeWindowWidth="1920" inkscapeWindowHeight="974" inkscapeWindowX="-11" inkscapeWindowY="-11" inkscapeWindowMaximized="1" inkscapeCurrentLayer="svg1"></sodipodi:namedview>
    <path d="M 27.32046,48.876486 C 32.343219,42.590691 43.798648,27.355951 43.798648,18.798648 43.798648,8.4202303 35.378417,-1.25e-7 25,-1.25e-7 14.621582,-1.25e-7 6.2013515,8.4202303 6.2013515,18.798648 c 0,8.557303 11.4554225,23.792043 16.4781875,30.077838 1.204288,1.498019 3.436626,1.498019 4.640921,0 z M 25,12.532435 a 6.2662161,6.2662161 0 1 1 0,12.532427 6.2662161,6.2662161 0 1 1 0,-12.532427 z" id="path1"></path>
  </symbol>
  <symbol version="1.1" id="magnifying-glass-solid" sodipodiDocname="magnifying-glass-solid.svg" inkscapeVersion="1.3.2 (091e20e, 2023-11-25, custom)" xmlnsInkscape="http://www.inkscape.org/namespaces/inkscape" xmlnsSodipodi="http://sodipodi.sourceforge.net/DTD/sodipodi-0.dtd" xmlns="http://www.w3.org/2000/svg" xmlnsSvg="http://www.w3.org/2000/svg" viewBox="0 0 50 50">
    <defs id="defs1"></defs>
    <sodipodi:namedview id="namedview1" pagecolor="#ffffff" bordercolor="#000000" borderopacity="0.25" inkscapeShowpageshadow="2" inkscapePageopacity="0.0" inkscapePagecheckerboard="0" inkscapeDeskcolor="#d1d1d1" showgrid="false" inkscapeZoom="4.1487281" inkscapeCx="59.536319" inkscapeCy="51.94363" inkscapeWindowWidth="1920" inkscapeWindowHeight="974" inkscapeWindowX="-11" inkscapeWindowY="-11" inkscapeWindowMaximized="1" inkscapeCurrentLayer="svg1"></sodipodi:namedview>
    <path d="m 40.62698,20.30861 c 0,4.48264 -1.45515,8.62347 -3.90644,11.98301 l 12.36389,12.37365 c 1.22076,1.22076 1.22076,3.20328 0,4.42404 -1.22077,1.22076 -3.20329,1.22076 -4.42405,0 L 32.2965,36.71566 C 28.93696,39.17672 24.79613,40.6221 20.31349,40.6221 9.09224,40.6221 0,31.52986 0,20.30861 0,9.08736 9.09224,-0.00488 20.31349,-0.00488 c 11.22125,0 20.31349,9.09224 20.31349,20.31349 z M 20.31349,34.3718 a 14.06319,14.06319 0 1 0 0,-28.12638 14.06319,14.06319 0 1 0 0,28.12638 z" id="path1"></path>
  </symbol>
  <symbol id="menu" enable-background="new 0 0 24 24" version="1.1" sodipodiDocname="menu.svg" inkscapeVersion="1.3.2 (091e20e, 2023-11-25, custom)" xmlnsInkscape="http://www.inkscape.org/namespaces/inkscape" xmlnsSodipodi="http://sodipodi.sourceforge.net/DTD/sodipodi-0.dtd" xmlns="http://www.w3.org/2000/svg" xmlnsSvg="http://www.w3.org/2000/svg" viewBox="0 0 2.34375 2.34375">
    <defs id="defs4"></defs>
    <sodipodi:namedview id="namedview4" pagecolor="#ffffff" bordercolor="#000000" borderopacity="0.25" inkscapeShowpageshadow="2" inkscapePageopacity="0.0" inkscapePagecheckerboard="0" inkscapeDeskcolor="#d1d1d1" inkscapeZoom="5.7734375" inkscapeCx="12.124493" inkscapeCy="9.2665765" inkscapeWindowWidth="1920" inkscapeWindowHeight="974" inkscapeWindowX="-11" inkscapeWindowY="-11" inkscapeWindowMaximized="1" inkscapeCurrentLayer="light"></sodipodi:namedview>
    <g id="g1" transform="scale(0.09765625)">
      <path d="M 21.5,24 H 2.5 C 1.121,24 0,22.878 0,21.5 V 2.5 C 0,1.122 1.121,0 2.5,0 h 19 C 22.879,0 24,1.122 24,2.5 v 19 C 24,22.878 22.879,24 21.5,24 Z M 2.5,1 C 1.673,1 1,1.673 1,2.5 v 19 C 1,22.327 1.673,23 2.5,23 h 19 C 22.327,23 23,22.327 23,21.5 V 2.5 C 23,1.673 22.327,1 21.5,1 Z" id="path1"></path>
    </g>
    <g id="g2" transform="scale(0.09765625)">
      <path d="m 16.5,8 h -9 C 7.224,8 7,7.776 7,7.5 7,7.224 7.224,7 7.5,7 h 9 C 16.776,7 17,7.224 17,7.5 17,7.776 16.776,8 16.5,8 Z" id="path2"></path>
    </g>
    <g id="g3" transform="scale(0.09765625)">
      <path d="m 16.5,12.5 h -9 C 7.224,12.5 7,12.276 7,12 7,11.724 7.224,11.5 7.5,11.5 h 9 c 0.276,0 0.5,0.224 0.5,0.5 0,0.276 -0.224,0.5 -0.5,0.5 z" id="path3"></path>
    </g>
    <g id="g4" transform="scale(0.09765625)">
      <path d="m 16.5,17 h -9 C 7.224,17 7,16.776 7,16.5 7,16.224 7.224,16 7.5,16 h 9 c 0.276,0 0.5,0.224 0.5,0.5 0,0.276 -0.224,0.5 -0.5,0.5 z" id="path4"></path>
    </g>
  </symbol>
  <symbol fill="none" version="1.1" id="phone" sodipodiDocname="phone.svg" inkscapeVersion="1.3.2 (091e20e, 2023-11-25, custom)" xmlnsInkscape="http://www.inkscape.org/namespaces/inkscape" xmlnsSodipodi="http://sodipodi.sourceforge.net/DTD/sodipodi-0.dtd" xmlns="http://www.w3.org/2000/svg" xmlnsSvg="http://www.w3.org/2000/svg" viewBox="0 0 1.8 1.8">
    <defs id="defs1"></defs>
    <sodipodi:namedview id="namedview1" pagecolor="#ffffff" bordercolor="#000000" borderopacity="0.25" inkscapeShowpageshadow="2" inkscapePageopacity="0.0" inkscapePagecheckerboard="0" inkscapeDeskcolor="#d1d1d1" inkscapeZoom="10.451038" inkscapeCx="32.436969" inkscapeCy="31.3366" inkscapeWindowWidth="1920" inkscapeWindowHeight="974" inkscapeWindowX="-11" inkscapeWindowY="-11" inkscapeWindowMaximized="1" inkscapeCurrentLayer="svg1"></sodipodi:namedview>
    <path d="m 0.23245498,0.40491735 c 0,0.64197525 0.5204249,1.16240085 1.16240092,1.16240085 0.028963,0 0.057678,-0.00106 0.086115,-0.00314 0.03263,-0.00239 0.048941,-0.00358 0.063797,-0.012134 0.012299,-0.00708 0.02396,-0.019633 0.030125,-0.03242 0.00745,-0.015434 0.00745,-0.03344 0.00745,-0.069444 V 1.2388987 c 0,-0.030282 0,-0.045424 -0.00499,-0.058397 -0.00439,-0.011467 -0.011549,-0.021673 -0.020818,-0.029727 -0.010492,-0.00912 -0.024725,-0.014294 -0.053178,-0.024643 l -0.2404895,-0.08745 c -0.03311,-0.012037 -0.049668,-0.018058 -0.065372,-0.017038 -0.013851,8.999e-4 -0.027178,0.00563 -0.038502,0.013656 -0.012839,0.0091 -0.021898,0.0242 -0.040024,0.054415 L 1.0573847,1.1923502 C 0.85865908,1.1023504 0.69755788,0.94103915 0.60742308,0.74238865 l 0.1026385,-0.061583 c 0.030209,-0.018125 0.045313,-0.027188 0.054413,-0.040029 0.00802,-0.011322 0.012756,-0.02465 0.013656,-0.038499 0.00102,-0.015706 -0.005,-0.03226 -0.017038,-0.065368 l -0.0874509,-0.2404923 c -0.010348,-0.028456 -0.015522,-0.042685 -0.024641,-0.053179 -0.00806,-0.00927 -0.018263,-0.01642 -0.029727,-0.020822 -0.012978,-0.00498 -0.028118,-0.00498 -0.058397,-0.00498 h -0.2112809 c -0.036007,0 -0.05401,0 -0.069446,0.00744 -0.012785,0.00617 -0.025336,0.017831 -0.032418,0.030131 -0.00855,0.014852 -0.00975,0.031167 -0.012135,0.063797 -0.00208,0.028432 -0.00314,0.057149 -0.00314,0.086113 z" stroke="#000000" stroke-width="0.149987" stroke-linecap="round" stroke-linejoin="round" id="path1"></path>
  </symbol>
  <symbol xmlns="http://www.w3.org/2000/svg" viewBox="0 0 35 87.8" id="popular">
    <path fill="#1e0f6d" d="M0 4.7h35L30.3 0H5.1L0 4.7z"></path>
    <g>
      <path fill="#1b0760" d="M5.3.2v87l11.9-11.9 12.5 12.5V.2H5.3z"></path><text transform="rotate(90 1.05 12.25)" font-size="15" fill="#fff" font-family="Inter-Bold,Inter" font-weight="700">
        <tspan letter-spacing="-.01em">P</tspan>
        <tspan x="9.6" y="0">opular</tspan>
      </text>
    </g>
  </symbol>
  <symbol version="1.1" id="quotes" xmlns="http://www.w3.org/2000/svg" xmlns:xlink="http://www.w3.org/1999/xlink" x="0px" y="0px" xml:space="preserve" viewBox="0 0 508.044 508.044">
    <g>
      <g>
        <path d="M0.108,352.536c0,66.794,54.144,120.938,120.937,120.938c66.794,0,120.938-54.144,120.938-120.938
			s-54.144-120.937-120.938-120.937c-13.727,0-26.867,2.393-39.168,6.61C109.093,82.118,230.814-18.543,117.979,64.303
			C-7.138,156.17-0.026,348.84,0.114,352.371C0.114,352.426,0.108,352.475,0.108,352.536z"></path>
        <path d="M266.169,352.536c0,66.794,54.144,120.938,120.938,120.938s120.938-54.144,120.938-120.938S453.9,231.599,387.106,231.599
			c-13.728,0-26.867,2.393-39.168,6.61C375.154,82.118,496.875-18.543,384.04,64.303C258.923,156.17,266.034,348.84,266.175,352.371
			C266.175,352.426,266.169,352.475,266.169,352.536z"></path>
      </g>
    </g>
    <g></g>
    <g></g>
    <g></g>
    <g></g>
    <g></g>
    <g></g>
    <g></g>
    <g></g>
    <g></g>
    <g></g>
    <g></g>
    <g></g>
    <g></g>
    <g></g>
    <g></g>
  </symbol>
  <symbol version="1.1" id="tick" sodipodiDocname="tick.svg" inkscapeVersion="1.3.2 (091e20e, 2023-11-25, custom)" xmlnsInkscape="http://www.inkscape.org/namespaces/inkscape" xmlnsSodipodi="http://sodipodi.sourceforge.net/DTD/sodipodi-0.dtd" xmlns="http://www.w3.org/2000/svg" xmlnsSvg="http://www.w3.org/2000/svg" viewBox="0 0 50 34.375">
    <sodipodi:namedview id="namedview1" pagecolor="#ffffff" bordercolor="#000000" borderopacity="0.25" inkscapeShowpageshadow="2" inkscapePageopacity="0.0" inkscapePagecheckerboard="0" inkscapeDeskcolor="#d1d1d1" inkscapeZoom="8.3977273" inkscapeCx="7.9783491" inkscapeCy="5.5372124" inkscapeWindowWidth="1920" inkscapeWindowHeight="974" inkscapeWindowX="-11" inkscapeWindowY="-11" inkscapeWindowMaximized="1" inkscapeCurrentLayer="svg1"></sodipodi:namedview>
    <defs id="defs1"></defs>
    <path id="Shape_10_copy_5" d="M 3.2120175,16.714319 17.737339,31.239641 46.787982,2.1889975"></path>
  </symbol>
  <symbol version="1.1" id="user-solid" sodipodiDocname="user-solid.svg" inkscapeVersion="1.3.2 (091e20e, 2023-11-25, custom)" xmlnsInkscape="http://www.inkscape.org/namespaces/inkscape" xmlnsSodipodi="http://sodipodi.sourceforge.net/DTD/sodipodi-0.dtd" xmlns="http://www.w3.org/2000/svg" xmlnsSvg="http://www.w3.org/2000/svg" viewBox="0 0 50 50">
    <defs id="defs1"></defs>
    <sodipodi:namedview id="namedview1" pagecolor="#ffffff" bordercolor="#000000" borderopacity="0.25" inkscapeShowpageshadow="2" inkscapePageopacity="0.0" inkscapePagecheckerboard="0" inkscapeDeskcolor="#d1d1d1" showgrid="false" inkscapeZoom="8.2974563" inkscapeCx="44.350942" inkscapeCy="28.261674" inkscapeWindowWidth="1920" inkscapeWindowHeight="974" inkscapeWindowX="-11" inkscapeWindowY="-11" inkscapeWindowMaximized="1" inkscapeCurrentLayer="svg1"></sodipodi:namedview>
    <path d="m 25,25 a 12.5,12.5 0 1 0 0,-25 12.5,12.5 0 1 0 0,25 z m -4.462885,4.687497 c -9.619146,0 -17.412114,7.792969 -17.412114,17.412106 C 3.125001,48.701168 4.4238334,50 6.0253896,50 H 43.97461 c 1.601565,0 2.900389,-1.298832 2.900389,-2.900397 0,-9.619137 -7.792969,-17.412106 -17.412106,-17.412106 z" id="path1"></path>
  </symbol>
  <symbol version="1.1" id="arrow-right-solid" sodipodiDocname="arrow-right-solid.svg" inkscapeVersion="1.3.2 (091e20e, 2023-11-25, custom)" xmlnsInkscape="http://www.inkscape.org/namespaces/inkscape" xmlnsSodipodi="http://sodipodi.sourceforge.net/DTD/sodipodi-0.dtd" xmlns="http://www.w3.org/2000/svg" xmlnsSvg="http://www.w3.org/2000/svg" viewBox="0 0 51 51">
    <defs id="defs1"></defs>
    <sodipodi:namedview id="namedview1" pagecolor="#ffffff" bordercolor="#000000" borderopacity="0.25" inkscapeShowpageshadow="2" inkscapePageopacity="0.0" inkscapePagecheckerboard="0" inkscapeDeskcolor="#d1d1d1" showgrid="false" inkscapeZoom="11.734375" inkscapeCx="17.725699" inkscapeCy="20.921438" inkscapeWindowWidth="1920" inkscapeWindowHeight="974" inkscapeWindowX="-11" inkscapeWindowY="-11" inkscapeWindowMaximized="1" inkscapeCurrentLayer="svg1"></sodipodi:namedview>
    <path d="m 49.453623,28.261428 c 1.39517,-1.52734 1.39517,-4.007734 0,-5.535075 L 31.595481,3.1764326 c -1.395169,-1.5273406 -3.66092,-1.5273406 -5.05608,0 -1.39517,1.5273406 -1.39517,4.007735 0,5.5350757 L 38.314612,21.590019 H 4.0716199 c -1.9755501,0 -3.5716201,1.747272 -3.5716201,3.909975 0,2.162714 1.59607,3.909986 3.5716201,3.909986 H 38.303442 L 26.550561,42.288503 c -1.39517,1.527328 -1.39517,4.007723 0,5.535064 1.39516,1.527341 3.660911,1.527341 5.05608,0 L 49.464783,28.273646 Z" id="path1"></path>
  </symbol>
  <symbol version="1.1" id="arrow-up-solid" sodipodiDocname="arrow-up-solid.svg" inkscapeVersion="1.3.2 (091e20e, 2023-11-25, custom)" xmlnsInkscape="http://www.inkscape.org/namespaces/inkscape" xmlnsSodipodi="http://sodipodi.sourceforge.net/DTD/sodipodi-0.dtd" xmlns="http://www.w3.org/2000/svg" xmlnsSvg="http://www.w3.org/2000/svg" viewBox="0 0 50 50">
    <defs id="defs1"></defs>
    <sodipodi:namedview id="namedview1" pagecolor="#ffffff" bordercolor="#000000" borderopacity="0.25" inkscapeShowpageshadow="2" inkscapePageopacity="0.0" inkscapePagecheckerboard="0" inkscapeDeskcolor="#d1d1d1" showgrid="false" inkscapeZoom="11.734375" inkscapeCx="25.054593" inkscapeCy="30.551265" inkscapeWindowWidth="1920" inkscapeWindowHeight="974" inkscapeWindowX="-11" inkscapeWindowY="-11" inkscapeWindowMaximized="1" inkscapeCurrentLayer="svg1"></sodipodi:namedview>
    <path d="m 27.96592,1.0463762 c -1.39516,-1.39516817 -3.660913,-1.39516817 -5.056082,0 L 5.0516998,18.904515 c -1.3951682,1.395169 -1.3951682,3.660922 0,5.056082 1.3951682,1.395168 3.6609219,1.395168 5.0560902,0 L 21.871838,12.185392 v 34.24298 c 0,1.975559 1.596069,3.571628 3.571628,3.571628 1.97555,0 3.571628,-1.596069 3.571628,-3.571628 v -34.24298 l 11.76404,11.764048 c 1.395168,1.395169 3.660922,1.395169 5.05609,0 1.395168,-1.395168 1.395168,-3.660921 0,-5.05609 L 27.977085,1.0352198 Z" id="path1"></path>
  </symbol>
  <symbol version="1.1" id="bars-solid" sodipodiDocname="bars-solid.svg" inkscapeVersion="1.3.2 (091e20e, 2023-11-25, custom)" xmlnsInkscape="http://www.inkscape.org/namespaces/inkscape" xmlnsSodipodi="http://sodipodi.sourceforge.net/DTD/sodipodi-0.dtd" xmlns="http://www.w3.org/2000/svg" xmlnsSvg="http://www.w3.org/2000/svg" viewBox="0 0 50 50">
    <defs id="defs1"></defs>
    <sodipodi:namedview id="namedview1" pagecolor="#ffffff" bordercolor="#000000" borderopacity="0.25" inkscapeShowpageshadow="2" inkscapePageopacity="0.0" inkscapePagecheckerboard="0" inkscapeDeskcolor="#d1d1d1" showgrid="false" inkscapeZoom="5.8671876" inkscapeCx="12.271638" inkscapeCy="61.613847" inkscapeWindowWidth="1920" inkscapeWindowHeight="974" inkscapeWindowX="-11" inkscapeWindowY="-11" inkscapeWindowMaximized="1" inkscapeCurrentLayer="svg1"></sodipodi:namedview>
    <path d="M 0,7.14286 C 0,5.16742 1.59598,3.57143 3.57142,3.57143 H 46.42857 C 48.40401,3.57143 50,5.16742 50,7.14286 c 0,1.97545 -1.59599,3.57143 -3.57143,3.57143 H 3.57142 C 1.59598,10.71429 0,9.11831 0,7.14286 Z m 0,17.85715 c 0,-1.97545 1.59598,-3.57143 3.57142,-3.57143 h 42.85715 c 1.97544,0 3.57143,1.59598 3.57143,3.57143 0,1.97544 -1.59599,3.57142 -3.57143,3.57142 H 3.57142 C 1.59598,28.57143 0,26.97545 0,25.00001 Z m 50,17.85713 c 0,1.97545 -1.59599,3.57143 -3.57143,3.57143 H 3.57142 C 1.59598,46.42857 0,44.83259 0,42.85714 0,40.8817 1.59598,39.28572 3.57142,39.28572 H 46.42857 C 48.40401,39.28572 50,40.8817 50,42.85714 Z" id="path1"></path>
  </symbol>
  <symbol id="chevron" xmlns="http://www.w3.org/2000/svg" viewBox="0 0 51 51">
    <defs></defs>
    <circle cx="25.5" cy="25.5" r="25.5"></circle>
    <rect x="24.4" y="27.9" width="1.6" height="15.24" rx="0.8" transform="matrix(0.78, -0.63, 0.63, 0.78, -21.26, 15.39)"></rect>
    <rect x="33.3" y="27.9" width="1.6" height="15.24" rx="0.8" transform="translate(24 -21.9) rotate(37.3)"></rect>
  </symbol>
  <symbol version="1.1" id="comment-solid" sodipodiDocname="comment-solid.svg" inkscapeVersion="1.3.2 (091e20e, 2023-11-25, custom)" xmlnsInkscape="http://www.inkscape.org/namespaces/inkscape" xmlnsSodipodi="http://sodipodi.sourceforge.net/DTD/sodipodi-0.dtd" xmlns="http://www.w3.org/2000/svg" xmlnsSvg="http://www.w3.org/2000/svg" viewBox="0 0 50 50">
    <defs id="defs1"></defs>
    <sodipodi:namedview id="namedview1" pagecolor="#ffffff" bordercolor="#000000" borderopacity="0.25" inkscapeShowpageshadow="2" inkscapePageopacity="0.0" inkscapePagecheckerboard="0" inkscapeDeskcolor="#d1d1d1" showgrid="false" inkscapeZoom="8.2974563" inkscapeCx="32.058018" inkscapeCy="37.180069" inkscapeWindowWidth="1920" inkscapeWindowHeight="974" inkscapeWindowX="-11" inkscapeWindowY="-11" inkscapeWindowMaximized="1" inkscapeCurrentLayer="svg1"></sodipodi:namedview>
    <path d="m 50.000001,23.43759 c 0,11.22006 -11.19076,20.31133 -24.99856,20.31133 -3.62283,0 -7.06013,-0.62497 -10.16542,-1.74795 -1.16205,0.84956 -3.05647,2.0116 -5.3024298,2.98811 -2.34361,1.01557 -5.16572,1.88466 -7.96829,1.88466 -0.63472995,0 -1.20109995,-0.38084 -1.44522995,-0.96675 -0.24412,-0.5859 -0.10741,-1.24992 0.33201,-1.69912 v 0 0 0 0 l 0.0293,-0.0293 c 0.0293,-0.0293 0.0683,-0.0684 0.12695,-0.13671 0.10741,-0.11718 0.27342,-0.30271 0.47847995,-0.5566 0.40037,-0.48826 0.93745,-1.21087 1.48429,-2.10926 0.97651,-1.621 1.90419,-3.74978 2.08972,-6.14222 -2.92951,-3.32013 -4.65792995,-7.39216 -4.65792995,-11.7962 0,-11.22005 11.19075975,-20.31132 24.99854975,-20.31132 13.8078,0 24.99856,9.09127 24.99856,20.31132 z" id="path1"></path>
  </symbol>
  <symbol version="1.1" id="download-solid" sodipodiDocname="download-solid.svg" inkscapeVersion="1.3.2 (091e20e, 2023-11-25, custom)" xmlnsInkscape="http://www.inkscape.org/namespaces/inkscape" xmlnsSodipodi="http://sodipodi.sourceforge.net/DTD/sodipodi-0.dtd" xmlns="http://www.w3.org/2000/svg" xmlnsSvg="http://www.w3.org/2000/svg" viewBox="0 0 50 50">
    <defs id="defs1"></defs>
    <sodipodi:namedview id="namedview1" pagecolor="#ffffff" bordercolor="#000000" borderopacity="0.25" inkscapeShowpageshadow="2" inkscapePageopacity="0.0" inkscapePagecheckerboard="0" inkscapeDeskcolor="#d1d1d1" showgrid="false" inkscapeZoom="1.4667969" inkscapeCx="107.71771" inkscapeCy="106.01331" inkscapeWindowWidth="1920" inkscapeWindowHeight="974" inkscapeWindowX="-11" inkscapeWindowY="-11" inkscapeWindowMaximized="1" inkscapeCurrentLayer="svg1"></sodipodi:namedview>
    <path d="M 28.125,3.125 C 28.125,1.39648 26.72852,0 25,0 23.27149,0 21.875,1.39648 21.875,3.125 V 26.82617 L 14.70703,19.6582 c -1.2207,-1.2207 -3.20312,-1.2207 -4.42383,0 -1.2207,1.2207 -1.2207,3.20313 0,4.42383 l 12.5,12.5 c 1.22071,1.2207 3.20313,1.2207 4.42383,0 l 12.5,-12.5 c 1.22071,-1.2207 1.22071,-3.20313 0,-4.42383 -1.2207,-1.2207 -3.20312,-1.2207 -4.42383,0 L 28.125,26.82617 Z M 6.25,34.375 C 2.80274,34.375 0,37.17773 0,40.625 V 43.75 C 0,47.19726 2.80274,50 6.25,50 h 37.5 C 47.19727,50 50,47.19726 50,43.75 v -3.125 c 0,-3.44727 -2.80273,-6.25 -6.25,-6.25 h -9.91211 l -4.42383,4.42383 c -2.4414,2.4414 -6.39648,2.4414 -8.83789,0 L 16.16211,34.375 Z m 35.9375,5.46875 a 2.34375,2.34375 0 1 1 0,4.6875 2.34375,2.34375 0 1 1 0,-4.6875 z" id="path1"></path>
  </symbol>
  <symbol fill="none" version="1.1" id="email" sodipodiDocname="email.svg" inkscapeVersion="1.3.2 (091e20e, 2023-11-25, custom)" xmlnsInkscape="http://www.inkscape.org/namespaces/inkscape" xmlnsSodipodi="http://sodipodi.sourceforge.net/DTD/sodipodi-0.dtd" xmlns="http://www.w3.org/2000/svg" xmlnsSvg="http://www.w3.org/2000/svg" viewBox="0 0 1.8 1.8">
    <defs id="defs1"></defs>
    <sodipodi:namedview id="namedview1" pagecolor="#ffffff" bordercolor="#000000" borderopacity="0.25" inkscapeShowpageshadow="2" inkscapePageopacity="0.0" inkscapePagecheckerboard="0" inkscapeDeskcolor="#d1d1d1" inkscapeZoom="7.39" inkscapeCx="37.483085" inkscapeCy="35.656292" inkscapeWindowWidth="1920" inkscapeWindowHeight="974" inkscapeWindowX="-11" inkscapeWindowY="-11" inkscapeWindowMaximized="1" inkscapeCurrentLayer="svg1"></sodipodi:namedview>
    <path d="m 0.29563878,0.52776334 0.465,0.3487463 c 0.080002,0.06 0.18999749,0.06 0.27000002,0 l 0.465,-0.34875" stroke="#000000" stroke-width="0.15" stroke-linecap="round" stroke-linejoin="round" id="path1"></path>
    <rect x="0.22063883" y="0.37775943" width="1.35" height="1.05" rx="0.15000001" stroke="#000000" stroke-width="0.15" stroke-linecap="round" id="rect1"></rect>
  </symbol>
  <symbol version="1.1" id="eye-solid" sodipodiDocname="eye-solid.svg" inkscapeVersion="1.3.2 (091e20e, 2023-11-25, custom)" xmlnsInkscape="http://www.inkscape.org/namespaces/inkscape" xmlnsSodipodi="http://sodipodi.sourceforge.net/DTD/sodipodi-0.dtd" xmlns="http://www.w3.org/2000/svg" xmlnsSvg="http://www.w3.org/2000/svg" viewBox="0 0 50 50">
    <defs id="defs1"></defs>
    <sodipodi:namedview id="namedview1" pagecolor="#ffffff" bordercolor="#000000" borderopacity="0.25" inkscapeShowpageshadow="2" inkscapePageopacity="0.0" inkscapePagecheckerboard="0" inkscapeDeskcolor="#d1d1d1" inkscapeZoom="8.2974563" inkscapeCx="32.299055" inkscapeCy="29.7079" inkscapeWindowWidth="1920" inkscapeWindowHeight="974" inkscapeWindowX="-11" inkscapeWindowY="-11" inkscapeWindowMaximized="1" inkscapeCurrentLayer="svg1"></sodipodi:namedview>
    <path d="m 24.995655,5.557246 c -7.013272,0 -12.629108,3.194164 -16.7172987,6.995918 -4.0621453,3.767036 -6.7789179,8.280527 -8.063536,11.379218 -0.2864272,0.685709 -0.2864272,1.449527 0,2.135236 1.2846181,3.098682 4.0013907,7.612181 8.063536,11.379218 4.0881907,3.801754 9.7040267,6.995918 16.7172987,6.995918 7.013282,0 12.629118,-3.194164 16.7173,-6.995918 4.062145,-3.775718 6.778927,-8.280536 8.072218,-11.379218 0.286436,-0.685709 0.286436,-1.449527 0,-2.135236 C 48.491882,20.833691 45.7751,16.3202 41.712955,12.553164 37.624773,8.75141 32.008937,5.557246 24.995655,5.557246 Z M 12.496747,25 a 12.498915,12.498915 0 1 1 24.997826,0 12.498915,12.498915 0 1 1 -24.997826,0 z m 12.498908,-5.555073 c 0,3.063964 -2.4911,5.555073 -5.555072,5.555073 -0.616264,0 -1.206491,-0.104164 -1.762,-0.286437 -0.477382,-0.156236 -1.032891,0.138882 -1.015536,0.642309 0.026,0.5989 0.112836,1.19781 0.277754,1.796719 1.189136,4.444054 5.763391,7.082717 10.207445,5.893581 4.444064,-1.189127 7.082718,-5.763391 5.893591,-10.207445 -0.963464,-3.602118 -4.148945,-6.023781 -7.690309,-6.171336 -0.503427,-0.01736 -0.798536,0.529464 -0.6423,1.015536 0.182273,0.555509 0.286427,1.145728 0.286427,1.762 z" id="path1"></path>
  </symbol>
  <symbol version="1.1" id="gear-solid" sodipodiDocname="gear-solid.svg" inkscapeVersion="1.3.2 (091e20e, 2023-11-25, custom)" xmlnsInkscape="http://www.inkscape.org/namespaces/inkscape" xmlnsSodipodi="http://sodipodi.sourceforge.net/DTD/sodipodi-0.dtd" xmlns="http://www.w3.org/2000/svg" xmlnsSvg="http://www.w3.org/2000/svg" viewBox="0 0 50 50">
    <defs id="defs1"></defs>
    <sodipodi:namedview id="namedview1" pagecolor="#ffffff" bordercolor="#000000" borderopacity="0.25" inkscapeShowpageshadow="2" inkscapePageopacity="0.0" inkscapePagecheckerboard="0" inkscapeDeskcolor="#d1d1d1" inkscapeZoom="11.546875" inkscapeCx="40.184032" inkscapeCy="27.236806" inkscapeWindowWidth="1920" inkscapeWindowHeight="974" inkscapeWindowX="-11" inkscapeWindowY="-11" inkscapeWindowMaximized="1" inkscapeCurrentLayer="svg1"></sodipodi:namedview>
    <path d="m 48.437201,16.272727 c 0.312665,0.849764 0.0487,1.797224 -0.625146,2.402821 l -4.229332,3.848381 c 0.10746,0.810736 0.165919,1.640952 0.165919,2.480975 0,0.839988 -0.05876,1.670238 -0.165919,2.48094 l 4.229332,3.848412 c 0.673978,0.6056 0.937685,1.553026 0.625146,2.402822 -0.429785,1.162335 -0.947461,2.275838 -1.543288,3.35025 l -0.45907,0.791188 c -0.64466,1.074412 -1.36747,2.090248 -2.158626,3.047449 -0.576281,0.703265 -1.533515,0.937688 -2.393051,0.664205 l -5.440498,-1.728844 c -1.308864,1.006034 -2.754455,1.846054 -4.29774,2.480943 l -1.220943,5.577254 c -0.195457,0.888855 -0.879048,1.59212 -1.777676,1.738616 C 27.798386,49.882815 26.411402,50 24.995098,50 c -1.41627,0 -2.803287,-0.117215 -4.151179,-0.341861 -0.898628,-0.146433 -1.582347,-0.849761 -1.777708,-1.738616 l -1.22094,-5.577254 C 16.302015,41.70738 14.856425,40.86736 13.54756,39.861326 l -5.4307564,1.738617 c -0.859537,0.273389 -1.816736,0.02828 -2.393049,-0.664205 -0.791159,-0.957201 -1.513969,-1.973037 -2.158596,-3.047481 l -0.459103,-0.791156 c -0.595795,-1.074412 -1.113471,-2.187915 -1.543255,-3.35025 -0.312666,-0.849796 -0.0487,-1.797224 0.625115,-2.402822 l 4.229362,-3.848412 c -0.10746,-0.820475 -0.165919,-1.650725 -0.165919,-2.490713 0,-0.840023 0.05876,-1.670239 0.165919,-2.480975 l -4.229362,-3.848381 c -0.673948,-0.605597 -0.937687,-1.553057 -0.625115,-2.402821 0.429784,-1.162335 0.94746,-2.275839 1.543255,-3.35028 l 0.459103,-0.791158 c 0.644627,-1.074442 1.367437,-2.090248 2.158596,-3.047481 0.576313,-0.703265 1.533512,-0.937688 2.393049,-0.664173 l 5.4405294,1.728843 c 1.308835,-1.006065 2.754455,-1.846054 4.29771,-2.480942 L 19.075984,2.090282 C 19.271441,1.201427 19.955064,0.498162 20.85366,0.351633 22.201584,0.117213 23.588601,0 25.004871,0 c 1.416304,0 2.803287,0.117215 4.151211,0.341892 0.898596,0.146433 1.582347,0.849762 1.777676,1.738617 l 1.220943,5.577254 c 1.543285,0.634889 2.988876,1.474909 4.297708,2.480943 l 5.44053,-1.728844 c 0.859536,-0.273387 1.816767,-0.02828 2.393051,0.664205 0.791156,0.957201 1.513966,1.973037 2.158625,3.047449 l 0.459071,0.79119 c 0.595827,1.074412 1.113503,2.187913 1.543256,3.350248 z m -23.43233,16.546209 a 7.8140338,7.8140338 0 1 0 0,-15.628067 7.8140338,7.8140338 0 1 0 0,15.628067 z" id="path1"></path>
  </symbol>
  <symbol version="1.1" id="envelope-solid" sodipodiDocname="envelope-solid.svg" inkscapeVersion="1.3.2 (091e20e, 2023-11-25, custom)" xmlnsInkscape="http://www.inkscape.org/namespaces/inkscape" xmlnsSodipodi="http://sodipodi.sourceforge.net/DTD/sodipodi-0.dtd" xmlns="http://www.w3.org/2000/svg" xmlnsSvg="http://www.w3.org/2000/svg" viewBox="0 0 50 50">
    <defs id="defs1"></defs>
    <sodipodi:namedview id="namedview1" pagecolor="#ffffff" bordercolor="#000000" borderopacity="0.25" inkscapeShowpageshadow="2" inkscapePageopacity="0.0" inkscapePagecheckerboard="0" inkscapeDeskcolor="#d1d1d1" showgrid="false" inkscapeZoom="5.8671876" inkscapeCx="43.973368" inkscapeCy="41.672436" inkscapeWindowWidth="1920" inkscapeWindowHeight="974" inkscapeWindowX="-11" inkscapeWindowY="-11" inkscapeWindowMaximized="1" inkscapeCurrentLayer="svg1"></sodipodi:namedview>
    <path d="M 4.6875,6.25 C 2.0996,6.25 0,8.34961 0,10.9375 c 0,1.47461 0.69335,2.86133 1.875,3.75 l 21.25,15.9375 c 1.11328,0.83008 2.63671,0.83008 3.75,0 L 48.125,14.6875 C 49.30664,13.79883 50,12.41211 50,10.9375 50,8.34961 47.90039,6.25 45.3125,6.25 Z M 0,17.1875 V 37.5 c 0,3.44727 2.80273,6.25 6.25,6.25 h 37.5 C 47.19726,43.75 50,40.94727 50,37.5 V 17.1875 L 28.75,33.125 c -2.22657,1.66992 -5.27344,1.66992 -7.5,0 z" id="path1"></path>
  </symbol>
  <symbol version="1.1" id="house-solid" sodipodiDocname="house-solid.svg" inkscapeVersion="1.3.2 (091e20e, 2023-11-25, custom)" xmlnsInkscape="http://www.inkscape.org/namespaces/inkscape" xmlnsSodipodi="http://sodipodi.sourceforge.net/DTD/sodipodi-0.dtd" xmlns="http://www.w3.org/2000/svg" xmlnsSvg="http://www.w3.org/2000/svg" viewBox="0 0 50 50">
    <defs id="defs1"></defs>
    <sodipodi:namedview id="namedview1" pagecolor="#ffffff" bordercolor="#000000" borderopacity="0.25" inkscapeShowpageshadow="2" inkscapePageopacity="0.0" inkscapePagecheckerboard="0" inkscapeDeskcolor="#d1d1d1" showgrid="false" inkscapeZoom="1.4667969" inkscapeCx="14.998668" inkscapeCy="5.79494" inkscapeWindowWidth="1920" inkscapeWindowHeight="974" inkscapeWindowX="-11" inkscapeWindowY="-11" inkscapeWindowMaximized="1" inkscapeCurrentLayer="svg1"></sodipodi:namedview>
    <path d="m 49.98653,24.95659 c 0,1.56264 -1.3022,2.7867 -2.77802,2.7867 H 44.4305 l 0.0608,13.90743 c 0,0.2344 -0.0174,0.46879 -0.0434,0.70319 v 1.39769 c 0,1.91856 -1.55395,3.47251 -3.47252,3.47251 h -1.389 c -0.0955,0 -0.19099,0 -0.28648,-0.009 -0.12154,0.009 -0.24308,0.009 -0.36462,0.009 h -2.82142 -2.08351 c -1.91857,0 -3.47252,-1.55395 -3.47252,-3.47251 v -2.08352 -5.55602 c 0,-1.53659 -1.24142,-2.77802 -2.77801,-2.77802 h -5.55603 c -1.53659,0 -2.77801,1.24143 -2.77801,2.77802 v 5.55602 2.08352 c 0,1.91856 -1.55395,3.47251 -3.47252,3.47251 h -2.08351 -2.76933 c -0.13022,0 -0.26044,-0.009 -0.39066,-0.0174 -0.10418,0.009 -0.20835,0.0174 -0.31253,0.0174 H 9.0282203 c -1.91856,0 -3.47251,-1.55395 -3.47251,-3.47251 v -9.72305 c 0,-0.0781 0,-0.16495 0.009,-0.24308 v -6.04218 h -2.7867 C 1.2153803,27.74329 3.3366518e-7,26.52791 3.3366518e-7,24.95659 3.3366518e-7,24.17528 0.26044033,23.48077 0.86813033,22.87308 L 23.12697,3.47039 c 0.60769,-0.60769 1.30219,-0.6945 1.90988,-0.6945 0.60769,0 1.30219,0.17362 1.82307,0.60769 l 22.17203,19.4895 c 0.6945,0.60769 1.04175,1.3022 0.95494,2.08351 z" id="path1"></path>
  </symbol>
  <symbol version="1.1" id="facebook" sodipodiDocname="facebook.svg" inkscapeVersion="1.3.2 (091e20e, 2023-11-25, custom)" xmlnsInkscape="http://www.inkscape.org/namespaces/inkscape" xmlnsSodipodi="http://sodipodi.sourceforge.net/DTD/sodipodi-0.dtd" xmlns="http://www.w3.org/2000/svg" xmlnsSvg="http://www.w3.org/2000/svg" viewBox="0 0 50 50">
    <defs id="defs1"></defs>
    <sodipodi:namedview id="namedview1" pagecolor="#ffffff" bordercolor="#000000" borderopacity="0.25" inkscapeShowpageshadow="2" inkscapePageopacity="0.0" inkscapePagecheckerboard="0" inkscapeDeskcolor="#d1d1d1" showgrid="false" inkscapeZoom="1.4667969" inkscapeCx="256.34087" inkscapeCy="256" inkscapeWindowWidth="1920" inkscapeWindowHeight="974" inkscapeWindowX="-11" inkscapeWindowY="-11" inkscapeWindowMaximized="1" inkscapeCurrentLayer="svg1"></sodipodi:namedview>
    <path d="m 50,25.1855 c 0,-13.8086 -11.19141,-25 -25,-25 -13.8086,0 -25,11.1914 -25,25 0,11.71875 8.07617,21.5625 18.96484,24.26758 V 32.82222 H 13.80859 V 25.1855 h 5.15625 v -3.29102 c 0,-8.50586 3.84766,-12.45117 12.20703,-12.45117 1.58203,0 4.31641,0.3125 5.43945,0.625 v 6.91406 C 36.02539,16.92377 35,16.88477 33.7207,16.88477 c -4.10156,0 -5.68359,1.55273 -5.68359,5.58593 v 2.71485 h 8.16406 l -1.40625,7.63672 H 28.02734 V 50 C 40.41015,48.50586 50,37.96875 50,25.18555 Z" id="path1"></path>
  </symbol>
  <symbol version="1.1" id="image-regular" sodipodiDocname="image-regular.svg" inkscapeVersion="1.3.2 (091e20e, 2023-11-25, custom)" xmlnsInkscape="http://www.inkscape.org/namespaces/inkscape" xmlnsSodipodi="http://sodipodi.sourceforge.net/DTD/sodipodi-0.dtd" xmlns="http://www.w3.org/2000/svg" xmlnsSvg="http://www.w3.org/2000/svg" viewBox="0 0 50 50">
    <defs id="defs1"></defs>
    <sodipodi:namedview id="namedview1" pagecolor="#ffffff" bordercolor="#000000" borderopacity="0.25" inkscapeShowpageshadow="2" inkscapePageopacity="0.0" inkscapePagecheckerboard="0" inkscapeDeskcolor="#d1d1d1" showgrid="false" inkscapeZoom="8.2974563" inkscapeCx="39.530187" inkscapeCy="31.033607" inkscapeWindowWidth="1920" inkscapeWindowHeight="974" inkscapeWindowX="-11" inkscapeWindowY="-11" inkscapeWindowMaximized="1" inkscapeCurrentLayer="svg1"></sodipodi:namedview>
    <path d="m 43.75,7.8125 c 0.85937,0 1.5625,0.70312 1.5625,1.5625 V 40.60547 L 44.82422,39.9707 31.54297,22.7832 C 31.10351,22.20703 30.41015,21.875 29.6875,21.875 c -0.72266,0 -1.40625,0.33203 -1.85547,0.9082 L 19.72656,33.27148 16.74804,29.10156 C 16.30859,28.48633 15.60547,28.125 14.84375,28.125 c -0.76172,0 -1.46485,0.36133 -1.9043,0.98633 L 5.12695,40.04883 4.6875,40.6543 V 40.625 9.375 C 4.6875,8.51562 5.39062,7.8125 6.25,7.8125 Z M 6.25,3.125 C 2.80273,3.125 0,5.92773 0,9.375 v 31.25 c 0,3.44727 2.80273,6.25 6.25,6.25 h 37.5 c 3.44726,0 6.25,-2.80273 6.25,-6.25 V 9.375 c 0,-3.44727 -2.80274,-6.25 -6.25,-6.25 z m 7.8125,18.75 a 4.6875,4.6875 0 1 0 0,-9.375 4.6875,4.6875 0 1 0 0,9.375 z" id="path1"></path>
  </symbol>
  <symbol version="1.1" id="instagram" sodipodiDocname="instagram.svg" inkscapeVersion="1.3.2 (091e20e, 2023-11-25, custom)" xmlnsInkscape="http://www.inkscape.org/namespaces/inkscape" xmlnsSodipodi="http://sodipodi.sourceforge.net/DTD/sodipodi-0.dtd" xmlns="http://www.w3.org/2000/svg" xmlnsSvg="http://www.w3.org/2000/svg" viewBox="0 0 50 50">
    <defs id="defs1"></defs>
    <sodipodi:namedview id="namedview1" pagecolor="#ffffff" bordercolor="#000000" borderopacity="0.25" inkscapeShowpageshadow="2" inkscapePageopacity="0.0" inkscapePagecheckerboard="0" inkscapeDeskcolor="#d1d1d1" showgrid="false" inkscapeZoom="1.4667969" inkscapeCx="224.29827" inkscapeCy="256" inkscapeWindowWidth="1920" inkscapeWindowHeight="974" inkscapeWindowX="-11" inkscapeWindowY="-11" inkscapeWindowMaximized="1" inkscapeCurrentLayer="svg1"></sodipodi:namedview>
    <path d="m 25.00558,12.183495 c -7.09426,0 -12.81651,5.72225 -12.81651,12.81651 0,7.09425 5.72225,12.8165 12.81651,12.8165 7.09425,0 12.81651,-5.72225 12.81651,-12.8165 0,-7.09426 -5.72226,-12.81651 -12.81651,-12.81651 z m 0,21.14891 c -4.5845,0 -8.33241,-3.73675 -8.33241,-8.3324 0,-4.59565 3.73676,-8.33241 8.33241,-8.33241 4.59565,0 8.3324,3.73676 8.3324,8.33241 0,4.59565 -3.74791,8.3324 -8.3324,8.3324 z m 16.33017,-21.67317 c 0,1.66201 -1.33854,2.9894 -2.9894,2.9894 -1.66202,0 -2.98941,-1.33854 -2.98941,-2.9894 0,-1.65087 1.33854,-2.98941 2.98941,-2.98941 1.65086,0 2.9894,1.33854 2.9894,2.98941 z m 8.48857,3.03402 c -0.18963,-4.00447 -1.1043,-7.55159 -4.03793,-10.47407 -2.92247,-2.92248 -6.4696,-3.83714 -10.47406,-4.03792 -4.12716,-0.23425 -16.49749,-0.23425 -20.62466,0 -3.9933,0.18962 -7.54043,1.10429 -10.47406,4.02677 -2.93363,2.92247 -3.83714,6.4696 -4.03793,10.47406 -0.23424,4.12716 -0.23424,16.49749 0,20.62465 0.18963,4.00447 1.1043,7.55159 4.03793,10.47407 2.93363,2.92248 6.4696,3.83714 10.47406,4.03792 4.12717,0.23425 16.4975,0.23425 20.62466,0 4.00446,-0.18962 7.55159,-1.10429 10.47406,-4.03792 2.92248,-2.92248 3.83715,-6.4696 4.03793,-10.47407 0.23424,-4.12716 0.23424,-16.48633 0,-20.61349 z m -5.33185,25.04183 c -0.87005,2.18628 -2.55438,3.8706 -4.75181,4.75181 -3.29058,1.30507 -11.09872,1.0039 -14.73508,1.0039 -3.63637,0 -11.45566,0.29002 -14.73508,-1.0039 -2.18628,-0.87005 -3.87061,-2.55438 -4.75182,-4.75181 -1.30507,-3.29058 -1.0039,-11.09872 -1.0039,-14.73508 0,-3.63637 -0.29002,-11.45567 1.0039,-14.73509 0.87005,-2.18628 2.55438,-3.8706 4.75182,-4.75181 3.29057,-1.30507 11.09871,-1.0039 14.73508,-1.0039 3.63636,0 11.45566,-0.29002 14.73508,1.0039 2.18628,0.87005 3.87061,2.55438 4.75181,4.75181 1.30508,3.29058 1.00391,11.09872 1.00391,14.73509 0,3.63636 0.30117,11.45566 -1.00391,14.73508 z" id="path1"></path>
  </symbol>
</svg>