<svg width="0" height="0" class="hidden">
  <symbol version="1.1" id="arrow-right-solid" sodipodiDocname="arrow-right-solid.svg" inkscapeVersion="1.3.2 (091e20e, 2023-11-25, custom)" xmlnsInkscape="http://www.inkscape.org/namespaces/inkscape" xmlnsSodipodi="http://sodipodi.sourceforge.net/DTD/sodipodi-0.dtd" xmlns="http://www.w3.org/2000/svg" xmlnsSvg="http://www.w3.org/2000/svg" viewBox="0 0 51 51">
    <defs id="defs1"></defs>
    <sodipodi:namedview id="namedview1" pagecolor="#ffffff" bordercolor="#000000" borderopacity="0.25" inkscapeShowpageshadow="2" inkscapePageopacity="0.0" inkscapePagecheckerboard="0" inkscapeDeskcolor="#d1d1d1" showgrid="false" inkscapeZoom="11.734375" inkscapeCx="17.725699" inkscapeCy="20.921438" inkscapeWindowWidth="1920" inkscapeWindowHeight="974" inkscapeWindowX="-11" inkscapeWindowY="-11" inkscapeWindowMaximized="1" inkscapeCurrentLayer="svg1"></sodipodi:namedview>
    <path d="m 49.453623,28.261428 c 1.39517,-1.52734 1.39517,-4.007734 0,-5.535075 L 31.595481,3.1764326 c -1.395169,-1.5273406 -3.66092,-1.5273406 -5.05608,0 -1.39517,1.5273406 -1.39517,4.007735 0,5.5350757 L 38.314612,21.590019 H 4.0716199 c -1.9755501,0 -3.5716201,1.747272 -3.5716201,3.909975 0,2.162714 1.59607,3.909986 3.5716201,3.909986 H 38.303442 L 26.550561,42.288503 c -1.39517,1.527328 -1.39517,4.007723 0,5.535064 1.39516,1.527341 3.660911,1.527341 5.05608,0 L 49.464783,28.273646 Z" id="path1"></path>
  </symbol>
  <symbol version="1.1" id="arrow-up-solid" sodipodiDocname="arrow-up-solid.svg" inkscapeVersion="1.3.2 (091e20e, 2023-11-25, custom)" xmlnsInkscape="http://www.inkscape.org/namespaces/inkscape" xmlnsSodipodi="http://sodipodi.sourceforge.net/DTD/sodipodi-0.dtd" xmlns="http://www.w3.org/2000/svg" xmlnsSvg="http://www.w3.org/2000/svg" viewBox="0 0 50 50">
    <defs id="defs1"></defs>
    <sodipodi:namedview id="namedview1" pagecolor="#ffffff" bordercolor="#000000" borderopacity="0.25" inkscapeShowpageshadow="2" inkscapePageopacity="0.0" inkscapePagecheckerboard="0" inkscapeDeskcolor="#d1d1d1" showgrid="false" inkscapeZoom="11.734375" inkscapeCx="25.054593" inkscapeCy="30.551265" inkscapeWindowWidth="1920" inkscapeWindowHeight="974" inkscapeWindowX="-11" inkscapeWindowY="-11" inkscapeWindowMaximized="1" inkscapeCurrentLayer="svg1"></sodipodi:namedview>
    <path d="m 27.96592,1.0463762 c -1.39516,-1.39516817 -3.660913,-1.39516817 -5.056082,0 L 5.0516998,18.904515 c -1.3951682,1.395169 -1.3951682,3.660922 0,5.056082 1.3951682,1.395168 3.6609219,1.395168 5.0560902,0 L 21.871838,12.185392 v 34.24298 c 0,1.975559 1.596069,3.571628 3.571628,3.571628 1.97555,0 3.571628,-1.596069 3.571628,-3.571628 v -34.24298 l 11.76404,11.764048 c 1.395168,1.395169 3.660922,1.395169 5.05609,0 1.395168,-1.395168 1.395168,-3.660921 0,-5.05609 L 27.977085,1.0352198 Z" id="path1"></path>
  </symbol>
  <symbol version="1.1" id="bars-solid" sodipodiDocname="bars-solid.svg" inkscapeVersion="1.3.2 (091e20e, 2023-11-25, custom)" xmlnsInkscape="http://www.inkscape.org/namespaces/inkscape" xmlnsSodipodi="http://sodipodi.sourceforge.net/DTD/sodipodi-0.dtd" xmlns="http://www.w3.org/2000/svg" xmlnsSvg="http://www.w3.org/2000/svg" viewBox="0 0 50 50">
    <defs id="defs1"></defs>
    <sodipodi:namedview id="namedview1" pagecolor="#ffffff" bordercolor="#000000" borderopacity="0.25" inkscapeShowpageshadow="2" inkscapePageopacity="0.0" inkscapePagecheckerboard="0" inkscapeDeskcolor="#d1d1d1" showgrid="false" inkscapeZoom="5.8671876" inkscapeCx="12.271638" inkscapeCy="61.613847" inkscapeWindowWidth="1920" inkscapeWindowHeight="974" inkscapeWindowX="-11" inkscapeWindowY="-11" inkscapeWindowMaximized="1" inkscapeCurrentLayer="svg1"></sodipodi:namedview>
    <path d="M 0,7.14286 C 0,5.16742 1.59598,3.57143 3.57142,3.57143 H 46.42857 C 48.40401,3.57143 50,5.16742 50,7.14286 c 0,1.97545 -1.59599,3.57143 -3.57143,3.57143 H 3.57142 C 1.59598,10.71429 0,9.11831 0,7.14286 Z m 0,17.85715 c 0,-1.97545 1.59598,-3.57143 3.57142,-3.57143 h 42.85715 c 1.97544,0 3.57143,1.59598 3.57143,3.57143 0,1.97544 -1.59599,3.57142 -3.57143,3.57142 H 3.57142 C 1.59598,28.57143 0,26.97545 0,25.00001 Z m 50,17.85713 c 0,1.97545 -1.59599,3.57143 -3.57143,3.57143 H 3.57142 C 1.59598,46.42857 0,44.83259 0,42.85714 0,40.8817 1.59598,39.28572 3.57142,39.28572 H 46.42857 C 48.40401,39.28572 50,40.8817 50,42.85714 Z" id="path1"></path>
  </symbol>
  <symbol version="1.1" id="brand" inkscapeVersion="1.3.2 (091e20e, 2023-11-25, custom)" sodipodiDocname="brand.svg" xmlnsInkscape="http://www.inkscape.org/namespaces/inkscape" xmlnsSodipodi="http://sodipodi.sourceforge.net/DTD/sodipodi-0.dtd" xmlns="http://www.w3.org/2000/svg" xmlnsSvg="http://www.w3.org/2000/svg" viewBox="0 0 7.9374996 13.229167">
    <sodipodi:namedview id="namedview1" pagecolor="#ffffff" bordercolor="#000000" borderopacity="0.25" inkscapeShowpageshadow="2" inkscapePageopacity="0.0" inkscapePagecheckerboard="0" inkscapeDeskcolor="#d1d1d1" inkscapeDocumentUnits="px" inkscapeZoom="7.4482708" inkscapeCx="22.085663" inkscapeCy="27.590297" inkscapeWindowWidth="1920" inkscapeWindowHeight="974" inkscapeWindowX="-11" inkscapeWindowY="-11" inkscapeWindowMaximized="1" inkscapeCurrentLayer="layer1" showgrid="false"></sodipodi:namedview>
    <defs id="defs1"><inkscape:path-effect effect="skeletal" id="path-effect167" is_visible="true" lpeversion="1" pattern="m 40.498535,0.01061089 c -3.961381,-0.01709 -7.92299,-0.01465 -11.884546,0.0155 -3.160036,0.08962 -4.229923,0.11578 -5.839438,0.155029 -1.289505,-0.05302 -2.578925,-0.106479 -3.869014,-0.142626 L 20.233104,0.2488369 C 17.82176,0.3307769 15.618491,0.46956991 10.540673,0.92528091 8.6419669,1.0956809 6.743232,1.2724719 4.8510978,1.5211099 4.288372,1.5950599 1.0636619,1.8107529 0.04002193,2.795451 c -0.111038,0.1068109 0.04197,0.329053 0.06305,0.4935101 L 4.4087518,4.0713419 0.07361593,4.7121299 C 0.88980494,4.7948199 1.7037119,4.9024569 2.5220459,4.9601771 5.6332398,5.17959 8.4204069,5.2642349 11.419177,5.34465 l 0.45682,0.0832 c -0.302306,0.0068 -0.604601,0.014049 -0.906922,0.020151 -0.303974,0.0061 -6.0326792,0.09624 -7.0192091,0.1266078 -0.495091,0.01524 -0.989475,0.05109 -1.484148,0.07648 l 4.148068,0.6568069 c 3.7845831,0.09254 7.5696881,0.165254 11.3548621,0.2268601 l 7.077088,1.2857089 c 12.130159,1.2056811 24.297664,1.8145741 36.46134,2.3636803 3.688295,0.166502 7.37697,0.333811 11.065992,0.476974 l 0.298175,0.31936 c 0.560144,-0.08516 1.120365,-0.158891 1.680517,-0.242362 0.431694,0.01512 0.863282,0.03625 1.295011,0.05013 0.294695,0.0095 0.589473,0.013 0.884184,0.0217 2.667942,0.392843 5.340311,0.757418 8.02277,1.046448 11.046151,1.190199 21.966305,1.81671 33.069295,2.20555 5.19615,0.18198 10.39662,0.206629 15.59491,0.310059 l 13.01936,0.0031 11.15954,-1.755448 c -3.78163,-0.0821 -7.56344,-0.164397 -11.34505,-0.246497 -4.80265,-0.15434 -9.60669,-0.269041 -14.4079,-0.463021 -7.03183,-0.284103 -14.86331,-0.694322 -22.55987,-1.129646 0.22045,-0.0091 0.44102,-0.01564 0.66145,-0.02532 8.4202,0.117941 16.84192,0.112365 25.26254,0.04599 l -7.05694,-1.1177605 c -1.4412,-0.010329 -2.8824,-0.017118 -4.32376,-0.025321 0.72862,-0.09303 1.45737,-0.1874911 2.18644,-0.2749182 1.91207,-0.2292908 2.18534,-0.260386 2.90988,-0.343648 4.16237,0.225398 8.32307,0.4918512 12.48969,0.617533 l -4.28604,-1.0092409 c -1.15861,-0.124731 -2.31929,-0.225153 -3.47886,-0.3389969 0.4681,-0.08689 0.39195,-0.06765 1.13636,-0.2036051 0.27667,-0.06847 0.55326,-0.137206 0.82993,-0.205673 4.23642,0.03638 8.47246,0.0757 12.70877,0.1266081 l -4.31652,-0.6836801 c -2.50898,0.03555 -5.01816,0.05537 -7.52719,0.08372 l -1.39061,-0.2470128 c 4.95778,0.07941 9.91562,0.1586708 14.87298,0.257865 4.85324,-0.01506 9.71382,0.2353379 14.56398,-0.05633 1.8388,-0.110577 3.00083,-0.281796 4.76973,-0.5048789 L 149.20043,3.9891769 c -0.67471,0.1154192 -1.3538,0.1891742 -2.0314,0.2775021 l -3.52381,-0.555521 c -5.57158,-0.015229 -11.14325,3.704e-4 -16.71476,0.04444 1.81091,-0.1548271 2.77181,-0.3065341 4.91806,-0.604614 L 126.9563,2.4269969 c 2.08775,-0.0069 4.17545,-0.01822 6.26319,-0.02532 3.04066,0.09188 6.07897,0.2571132 9.11831,0.3855062 l 1.61024,-0.2521812 c 3.87079,0.06408 7.74168,0.1246592 11.61221,0.2015381 l -2.70939,-0.428398 c 0.21479,-0.0015 0.4296,-0.0016 0.6444,-0.0031 3.9376,0.02136 5.47937,0.01912 5.84977,0.0078 0.25899,0.0046 0.0848,0.0026 0.38138,0.0078 l 5.9712,-0.9250074 c -1.04435,-0.05615 -2.08742,-0.150448 -3.13313,-0.168466 -5.53943,-0.09545 -11.08043,-0.04809 -16.62018,-0.117822 -0.23082,-0.0013 -0.46164,-0.0013 -0.69246,-0.0026 l -5.95313,-0.94154231 c -13.72199,0.452179 -27.44923,0.696512 -41.177846,0.79788401 -1.428589,-0.04764 -2.857439,-0.0955 -4.286038,-0.14314401 C 79.675971,0.46021091 91.485834,0.72822189 76.149078,0.48146189 64.266199,0.2901919 52.382679,0.06187889 40.498535,0.01061089 Z M 124.11049,2.4383699 c -5.72457,0.386416 -9.02525,0.474011 -13.06484,0.4666382 l -2.22673,-0.3958412 c 0.60719,-0.0058 1.2144,-0.01194 1.82159,-0.0186 4.49005,-0.02429 8.97994,-0.03684 13.46998,-0.05219 z" copytype="single_stretched" prop_scale="1" scale_y_rel="false" spacing="0" normal_offset="0" tang_offset="0" prop_units="false" vertical_pattern="false" hide_knot="false" fuse_tolerance="0"></inkscape:path-effect><inkscape:path-effect effect="skeletal" id="path-effect169" is_visible="true" lpeversion="1" pattern="m 40.498535,0.01061089 c -3.961381,-0.01709 -7.92299,-0.01465 -11.884546,0.0155 -3.160036,0.08962 -4.229923,0.11578 -5.839438,0.155029 -1.289505,-0.05302 -2.578925,-0.106479 -3.869014,-0.142626 L 20.233104,0.2488369 C 17.82176,0.3307769 15.618491,0.46956991 10.540673,0.92528091 8.6419669,1.0956809 6.743232,1.2724719 4.8510978,1.5211099 4.288372,1.5950599 1.0636619,1.8107529 0.04002193,2.795451 c -0.111038,0.1068109 0.04197,0.329053 0.06305,0.4935101 L 4.4087518,4.0713419 0.07361593,4.7121299 C 0.88980494,4.7948199 1.7037119,4.9024569 2.5220459,4.9601771 5.6332398,5.17959 8.4204069,5.2642349 11.419177,5.34465 l 0.45682,0.0832 c -0.302306,0.0068 -0.604601,0.014049 -0.906922,0.020151 -0.303974,0.0061 -6.0326792,0.09624 -7.0192091,0.1266078 -0.495091,0.01524 -0.989475,0.05109 -1.484148,0.07648 l 4.148068,0.6568069 c 3.7845831,0.09254 7.5696881,0.165254 11.3548621,0.2268601 l 7.077088,1.2857089 c 12.130159,1.2056811 24.297664,1.8145741 36.46134,2.3636803 3.688295,0.166502 7.37697,0.333811 11.065992,0.476974 l 0.298175,0.31936 c 0.560144,-0.08516 1.120365,-0.158891 1.680517,-0.242362 0.431694,0.01512 0.863282,0.03625 1.295011,0.05013 0.294695,0.0095 0.589473,0.013 0.884184,0.0217 2.667942,0.392843 5.340311,0.757418 8.02277,1.046448 11.046151,1.190199 21.966305,1.81671 33.069295,2.20555 5.19615,0.18198 10.39662,0.206629 15.59491,0.310059 l 13.01936,0.0031 11.15954,-1.755448 c -3.78163,-0.0821 -7.56344,-0.164397 -11.34505,-0.246497 -4.80265,-0.15434 -9.60669,-0.269041 -14.4079,-0.463021 -7.03183,-0.284103 -14.86331,-0.694322 -22.55987,-1.129646 0.22045,-0.0091 0.44102,-0.01564 0.66145,-0.02532 8.4202,0.117941 16.84192,0.112365 25.26254,0.04599 l -7.05694,-1.1177605 c -1.4412,-0.010329 -2.8824,-0.017118 -4.32376,-0.025321 0.72862,-0.09303 1.45737,-0.1874911 2.18644,-0.2749182 1.91207,-0.2292908 2.18534,-0.260386 2.90988,-0.343648 4.16237,0.225398 8.32307,0.4918512 12.48969,0.617533 l -4.28604,-1.0092409 c -1.15861,-0.124731 -2.31929,-0.225153 -3.47886,-0.3389969 0.4681,-0.08689 0.39195,-0.06765 1.13636,-0.2036051 0.27667,-0.06847 0.55326,-0.137206 0.82993,-0.205673 4.23642,0.03638 8.47246,0.0757 12.70877,0.1266081 l -4.31652,-0.6836801 c -2.50898,0.03555 -5.01816,0.05537 -7.52719,0.08372 l -1.39061,-0.2470128 c 4.95778,0.07941 9.91562,0.1586708 14.87298,0.257865 4.85324,-0.01506 9.71382,0.2353379 14.56398,-0.05633 1.8388,-0.110577 3.00083,-0.281796 4.76973,-0.5048789 L 149.20043,3.9891769 c -0.67471,0.1154192 -1.3538,0.1891742 -2.0314,0.2775021 l -3.52381,-0.555521 c -5.57158,-0.015229 -11.14325,3.704e-4 -16.71476,0.04444 1.81091,-0.1548271 2.77181,-0.3065341 4.91806,-0.604614 L 126.9563,2.4269969 c 2.08775,-0.0069 4.17545,-0.01822 6.26319,-0.02532 3.04066,0.09188 6.07897,0.2571132 9.11831,0.3855062 l 1.61024,-0.2521812 c 3.87079,0.06408 7.74168,0.1246592 11.61221,0.2015381 l -2.70939,-0.428398 c 0.21479,-0.0015 0.4296,-0.0016 0.6444,-0.0031 3.9376,0.02136 5.47937,0.01912 5.84977,0.0078 0.25899,0.0046 0.0848,0.0026 0.38138,0.0078 l 5.9712,-0.9250074 c -1.04435,-0.05615 -2.08742,-0.150448 -3.13313,-0.168466 -5.53943,-0.09545 -11.08043,-0.04809 -16.62018,-0.117822 -0.23082,-0.0013 -0.46164,-0.0013 -0.69246,-0.0026 l -5.95313,-0.94154231 c -13.72199,0.452179 -27.44923,0.696512 -41.177846,0.79788401 -1.428589,-0.04764 -2.857439,-0.0955 -4.286038,-0.14314401 C 79.675971,0.46021091 91.485834,0.72822189 76.149078,0.48146189 64.266199,0.2901919 52.382679,0.06187889 40.498535,0.01061089 Z M 124.11049,2.4383699 c -5.72457,0.386416 -9.02525,0.474011 -13.06484,0.4666382 l -2.22673,-0.3958412 c 0.60719,-0.0058 1.2144,-0.01194 1.82159,-0.0186 4.49005,-0.02429 8.97994,-0.03684 13.46998,-0.05219 z" copytype="single_stretched" prop_scale="1" scale_y_rel="false" spacing="0" normal_offset="0" tang_offset="0" prop_units="false" vertical_pattern="false" hide_knot="false" fuse_tolerance="0"></inkscape:path-effect></defs>
    <g inkscapeLabel="Layer 1" inkscapeGroupmode="layer" id="layer1">
      <path id="path161" d="m 79.945605,149.61552 c 6.3734,0.52076 12.744143,-0.24638 18.742909,-2.13459 3.974516,-1.30842 6.977086,-2.84003 8.478426,-3.64989 1.83091,-0.89171 3.61153,-1.89289 5.31855,-3.01298 -0.61776,0.33653 -1.24132,0.65951 -1.8701,0.96887 2.37646,-1.55285 6.79114,-4.75246 11.05409,-10.35375 1.79796,-2.36242 3.36554,-4.89051 4.60484,-7.5759 0.48078,-1.04179 2.42536,-5.12156 1.94686,-7.27007 -0.0436,-0.19562 -0.33263,-0.0468 -0.49872,-0.0705 -0.9813,1.96598 -2.0986,3.81243 -3.33176,5.53787 0.82732,-1.96146 1.49957,-3.98116 2.00225,-6.04514 -0.47523,1.09748 -1.02067,2.15651 -1.56253,3.20195 -1.99496,3.84903 -4.48381,7.32545 -7.29741,10.30263 -0.16525,0.14079 -0.33144,0.28019 -0.49855,0.4182 0.28712,-0.31593 0.56911,-0.6363 0.847,-0.95995 0.13972,-0.1627 1.53028,-1.77821 2.80214,-3.62951 1.39088,-2.02452 2.30227,-3.75636 2.70381,-4.56822 0.31023,-0.62726 0.58506,-1.27143 0.85177,-1.91919 -1.00774,1.69217 -2.13128,3.2822 -3.35299,4.76799 -2.92313,4.33776 -6.67918,8.07862 -10.96509,11.0859 -2.89841,1.55885 -5.93868,2.77802 -9.03143,3.65086 -7.418696,2.58569 -15.389855,3.32357 -22.788612,1.80411 -8.03003,-1.61307 -15.377982,-5.94158 -20.958839,-11.77806 -3.251597,-3.40053 -5.89889,-7.31855 -7.745108,-11.49107 0.04178,-0.15609 0.08457,-0.31145 0.128357,-0.46606 -0.367058,-0.58594 -0.707811,-1.18891 -1.038903,-1.79753 -0.182483,-0.49829 -0.34761,-1.00169 -0.50735,-1.5054 -0.109023,-0.34386 -0.218082,-0.68735 -0.316515,-1.03362 -0.587254,-3.18267 -0.719217,-6.3768 -0.377958,-9.50261 0.0031,-0.0417 0.0063,-0.0834 0.0095,-0.12506 1.003635,-12.819352 10.517181,-24.320575 21.940346,-29.583699 3.099469,-1.428051 6.346879,-2.433722 9.635171,-2.86195 2.442438,-0.362873 4.941983,-0.421153 7.434672,-0.189044 4.897454,0.370568 9.805324,1.806399 14.257833,4.080243 4.0843,1.427864 8.00765,3.56389 11.42736,6.366304 -2.98563,-3.305194 -6.6569,-6.10976 -10.71292,-8.248499 -5.13055,-2.761956 -10.905766,-4.418951 -16.694134,-4.739618 -1.989222,-0.110201 -4.03481,-0.06165 -6.103624,0.186879 -6.825314,0.746407 -13.707065,3.726086 -19.544535,8.464014 0.201141,-0.191 0.405997,-0.378147 0.610678,-0.565606 5.416815,-4.521001 11.957859,-7.699987 18.80538,-8.734641 3.433441,-0.548091 6.954248,-0.572471 10.439477,-0.130925 -2.868371,-0.756967 -5.848856,-1.19253 -8.879815,-1.244774 -0.580747,0.05839 -1.160061,0.131289 -1.737403,0.218813 -1.245222,0.181785 -2.479715,0.433124 -3.699163,0.748164 0.877313,-0.32676 1.769915,-0.621708 2.678423,-0.874301 0.360876,-0.100335 0.684672,-0.184087 0.962523,-0.252792 1.260608,-0.317632 2.244904,-0.49012 2.73012,-0.57142 5.418782,-0.198673 10.814038,0.824378 15.886301,2.658827 -1.645948,-0.907267 -3.369782,-1.714509 -5.15906,-2.405046 -1.479811,-0.414916 -2.99176,-0.726219 -4.518343,-0.96439 0.3234,-0.01855 0.828909,-0.03924 1.526929,-0.05161 0.375178,-0.02439 0.751677,-0.04398 1.129362,-0.05819 5.628372,0.854361 11.097524,2.849721 15.972164,5.77242 -1.54876,-1.17385 -3.18913,-2.256553 -4.90699,-3.233941 -3.164314,-1.305378 -6.470829,-2.267473 -9.836389,-2.82147 -0.606805,-0.188531 -1.2193,-0.36401 -1.837025,-0.525938 6.709024,0.938643 13.196834,3.471105 18.768754,7.249323 5.52814,3.61301 10.00021,8.589071 13.40709,14.105647 1.09295,1.769758 2.26418,3.845453 3.10447,5.716015 -2.09572,-9.0564 -7.76577,-17.280735 -15.55985,-23.298703 -0.89717,-0.426308 -1.78939,-0.862197 -2.69845,-1.255718 -1.41407,-0.979134 -2.88992,-1.888102 -4.41988,-2.71921 -7.589472,-3.145091 -15.997979,-4.337069 -24.211281,-3.100218 2.00954,-0.41044 4.713932,-0.862651 7.286313,-1.044548 -2.437695,-0.293348 -4.925227,-0.391729 -7.441784,-0.275078 3.17563,-0.461734 6.373675,-0.583201 9.542522,-0.380555 4.611921,0.397193 9.105278,1.542703 13.34655,3.233441 0.78603,0.198414 1.56893,0.416779 2.34767,0.654968 5.35498,2.335538 10.28025,5.607279 14.43812,9.656514 -0.88499,-1.034728 -1.81893,-2.035601 -2.79831,-2.999118 0.25484,0.201504 0.5068,0.406692 0.75752,0.61331 4.56527,3.825224 5.86727,5.840881 6.23246,6.267114 0.10043,0.124984 0.22436,0.282328 0.35836,0.453426 2.12418,2.162118 4.05815,4.566806 5.74953,7.207426 -0.69429,-1.481745 -1.43502,-2.939922 -2.31487,-4.314475 -4.66529,-7.288421 -11.39799,-13.020633 -19.05363,-16.904605 -0.32003,-0.160562 -0.64235,-0.316581 -0.96577,-0.470371 -2.6518,-1.596194 -5.475814,-2.964634 -8.435016,-4.068175 -6.423604,-1.548894 -13.148085,-1.872501 -19.759259,-0.793267 -15.14372,2.653163 -28.164872,12.597065 -35.063789,25.775331 -1.083461,1.94542 -2.032686,3.972286 -2.83227,6.068423 -2.190933,5.830789 -2.602272,10.718951 -2.664123,11.333787 -0.11371,1.130358 -0.159006,2.006038 -0.181684,2.976568 0.0024,0.19419 -0.10907,6.25311 2.17713,13.39367 5.414324,16.91097 20.454257,30.29949 38.48868,33.25548 1.078279,0.16303 2.158473,0.28829 3.238776,0.37656 z M 73.055756,59.158738 c -7.419235,2.24234 -13.409679,6.0711 -17.337579,9.196892 -0.952915,0.591429 -1.888462,1.218551 -2.803942,1.880257 0.672096,-0.625123 1.362054,-1.231721 2.068725,-1.818899 5.242167,-4.323302 11.413806,-7.545203 18.072798,-9.258243 z" inkscapePathEffect="#path-effect169" inkscapeOriginalD="M 124.08703,115.10507 A 41.774796,40.07 0 0 1 77.795117,142.15548 41.774796,40.07 0 0 1 42.627342,102.58981 41.774796,40.07 0 0 1 77.795117,63.024142 41.774796,40.07 0 0 1 124.08703,90.074554" transform="matrix(-0.00281029,-0.0150114,0.02840583,-0.01058418,0.18767789,6.7023155)"></path>
      <path id="path162" d="m 4.9685279,5.8576235 c 0.0183,-0.002 0.0376,-8.76e-4 0.0577,8.76e-4 0.0104,8.76e-4 0.0221,0.0069 0.035,0.01569 0.003,8.76e-4 0.006,0.0041 0.01,0.0069 8.7e-4,8.76e-4 0.002,0.002 0.003,0.0028 2.4e-4,2.37e-4 6.3e-4,8.76e-4 8.8e-4,8.76e-4 -6.3e-4,-2.37e-4 -8.8e-4,-8.76e-4 -8.8e-4,-8.76e-4 -8.7e-4,-8.76e-4 -0.002,-0.002 -0.004,-0.0028 -0.005,-0.0041 -0.009,-0.0059 -0.0133,-0.0069 -0.0182,-0.0098 -0.0341,-0.01416 -0.0482,-0.0151 -0.016,-8.76e-4 -0.0323,-2.37e-4 -0.0486,7e-6 0.003,-2.37e-4 0.006,-0.002 0.009,-0.002 z m -0.009,0.002 c -0.0152,0.002 -0.0301,0.0041 -0.0441,0.0088 -0.12539,0.04134 -0.23523,0.102554 -0.33356,0.179349 -0.0823,0.06365 -0.1583,0.13151 -0.22796,0.203062 -0.0241,0.01482 -0.0465,0.03053 -0.0693,0.04636 -0.0304,0.03418 -0.0595,0.06904 -0.0871,0.104756 -0.15547,0.151349 -0.28679,0.316908 -0.39276,0.493516 0.0354,-0.04861 0.0685,-0.08633 0.11928,-0.140276 -0.0266,0.05529 -0.0504,0.111814 -0.0713,0.169405 0.0382,-0.06658 0.0802,-0.131574 0.12579,-0.194766 0.0632,-0.09468 0.13136,-0.185868 0.20964,-0.272938 0.0169,-0.01303 0.0339,-0.02614 0.0512,-0.03888 0.10509,-0.106468 0.22281,-0.205868 0.35179,-0.297167 -0.0272,0.02367 -0.0536,0.04783 -0.0792,0.07248 0.007,-0.0049 0.014,-0.01031 0.0209,-0.01551 0.12768,-0.09507 0.18561,-0.126728 0.19903,-0.134645 0.004,-0.0028 0.008,-0.0049 0.0135,-0.0088 0.005,-0.002 0.01,-0.0049 0.0143,-0.0069 0.0734,-0.03555 0.14913,-0.06758 0.22776,-0.09556 -0.0407,0.01895 -0.077,0.03938 -0.1159,0.06138 -0.0153,0.0088 -0.0304,0.01758 -0.0454,0.0267 -0.18234,0.110286 -0.34954,0.235191 -0.49096,0.3729 -0.007,0.0059 -0.0129,0.01238 -0.0193,0.01867 -0.0462,0.05981 -0.0882,0.121848 -0.12626,0.185756 -0.1179,0.13241 -0.21791,0.274623 -0.2987,0.425123 -0.15744,0.287374 -0.23991,0.605056 -0.2388,0.943732 0.003,0.0549 0.008,0.110276 0.0156,0.166089 0.0336,0.275287 0.0574,0.302248 0.0646,0.331386 0.007,0.02916 -0.005,0.06109 0.12375,0.373336 0.0199,0.04832 0.0414,0.09684 0.0645,0.145496 0.20887,0.43932 0.54085,0.8874539 0.96716,1.3312275 0.15765,0.164106 0.32783,0.327201 0.50891,0.488751 0.11802,0.108315 0.21342,0.189912 0.26707,0.235317 0.0683,0.05333 0.13752,0.10601 0.20721,0.158642 -0.0287,-0.01886 -0.0571,-0.03783 -0.0854,-0.05686 0.0243,0.02015 0.30984,0.258601 0.45886,0.377958 0.0835,0.06688 0.18895,0.149159 0.27245,0.216025 0.0256,0.0203 0.1976,0.1448 0.17308,0.17091 -0.003,0.0028 -0.0316,-0.0059 -0.0474,-0.0088 -0.10929,-0.05932 -0.21683,-0.119242 -0.32257,-0.179771 0.0648,0.05422 0.13099,0.108269 0.19839,0.162098 -0.0564,-0.03331 -0.11339,-0.06649 -0.16662,-0.09991 -0.19668,-0.123328 -0.36913,-0.24249 -0.53351,-0.362381 -0.0106,-0.0069 -0.0212,-0.01327 -0.0317,-0.01986 0.0156,0.01218 0.0313,0.02437 0.0471,0.03655 0.016,0.01219 0.32706,0.24143 0.38124,0.280304 0.0272,0.01952 0.0528,0.0387 0.0794,0.05795 -0.0999,-0.05805 -0.19818,-0.11656 -0.29475,-0.175586 -0.22025,-0.153807 -0.4278,-0.309821 -0.62238,-0.467142 -0.15382,-0.104832 -0.3022,-0.210833 -0.44476,-0.317791 -0.64713,-0.527157 -1.11508,-1.0672186 -1.4129,-1.5875875 l -0.004,-0.0069 c -0.0904,-0.15956 -0.16444,-0.317489 -0.2219,-0.47315 -0.008,-0.0069 -0.0154,-0.01347 -0.0231,-0.02021 -0.002,-0.02113 -0.005,-0.04203 -0.006,-0.06306 -0.006,-0.01817 -0.0121,-0.03614 -0.0176,-0.05421 -0.004,-0.01227 -0.007,-0.02445 -0.0106,-0.03664 -0.0501,-0.118653 -0.0892,-0.235215 -0.11575,-0.349234 -0.0833,-0.357411 -0.0648,-0.692626 0.0326,-0.996848 0.0297,-0.09409 0.0667,-0.185882 0.11063,-0.274902 0.0872,-0.176697 0.20633,-0.341625 0.34395,-0.493301 0.11528,-0.122415 0.24549,-0.236422 0.38992,-0.340687 0.003,-0.0028 0.007,-0.0049 0.0101,-0.0069 0.14116,-0.07877 0.29212,-0.145188 0.45551,-0.195369 -0.12552,0.04891 -0.23877,0.112937 -0.34261,0.188766 -0.0241,0.01747 -0.0479,0.03536 -0.0712,0.05343 -0.15536,0.122443 -0.29382,0.257644 -0.40844,0.404154 -0.1419,0.181341 -0.25754,0.389743 -0.33419,0.623543 -0.0156,0.04665 -0.0293,0.09389 -0.0413,0.141673 0.003,-0.0078 0.006,-0.0151 0.009,-0.02267 0.0131,-0.04116 0.0278,-0.08182 0.0438,-0.122034 0.0989,-0.252773 0.24932,-0.4859 0.44371,-0.693473 -0.0514,0.07611 -0.0968,0.155066 -0.13638,0.236585 -0.0315,0.0449 -0.0614,0.09056 -0.0893,0.137071 0.0176,-0.02121 0.0356,-0.04221 0.0537,-0.06315 0.0349,-0.04048 0.0685,-0.07671 0.0742,-0.08279 0.0854,-0.134073 0.1846,-0.259845 0.30423,-0.375415 -0.0328,0.04577 -0.0633,0.09272 -0.0913,0.140859 -0.0271,0.03564 -0.0539,0.07179 -0.0787,0.108507 0.005,-0.0041 0.021,-0.01775 0.0346,-0.02889 0.009,-0.0069 0.0182,-0.01305 0.0273,-0.0196 0.10675,-0.123746 0.22851,-0.239533 0.3643,-0.345961 -0.0408,0.04047 -0.0797,0.08211 -0.11641,0.124978 -0.0757,0.06571 -0.14587,0.134635 -0.21135,0.206419 -0.01,0.01525 -0.0187,0.03044 -0.0276,0.04587 0.1207,-0.14683 0.26248,-0.282816 0.42338,-0.405751 0.0456,-0.03359 0.0918,-0.0664 0.1399,-0.09846 0.12253,-0.0823 0.25235,-0.145422 0.40643,-0.188372 0.005,-8.76e-4 0.0101,-0.0028 0.0151,-0.0041 0.0347,-0.0098 0.0705,-0.01227 0.10611,-0.01297 z m -1.15678,1.157104 c -0.008,0.01227 -0.0147,0.02428 -0.0214,0.03596 -0.0875,0.147876 -0.1345,0.274699 -0.16484,0.396838 -8.7e-4,0.02925 -8.7e-4,0.05873 -8.7e-4,0.0883 0.005,-0.02158 0.01,-0.04303 0.015,-0.06443 0.0357,-0.145922 0.0872,-0.286846 0.1545,-0.421855 0.006,-0.01168 0.0115,-0.02328 0.0174,-0.03486 z"></path>
      <path id="path163" d="m 1.2171179,2.0885485 c -0.0304,0.0079 -0.061,0.01952 -0.0919,0.03477 -0.016,0.0079 -0.0319,0.02239 -0.0476,0.0439 -0.004,0.0041 -0.008,0.0088 -0.0119,0.01638 -8.8e-4,0.002 -0.002,0.0041 -0.003,0.0059 -2.2e-4,8.75e-4 -6.5e-4,8.75e-4 -6.5e-4,0.002 6.5e-4,-8.76e-4 6.5e-4,-0.002 8.7e-4,-0.002 8.8e-4,-0.002 0.003,-0.0041 0.004,-0.0069 0.006,-0.0079 0.0117,-0.01406 0.0175,-0.01817 0.024,-0.02484 0.0471,-0.04107 0.0692,-0.05058 0.0251,-0.0109 0.0518,-0.01895 0.078,-0.02788 -0.005,8.75e-4 -0.01,8.75e-4 -0.015,0.002 z m 0.015,-0.002 c 0.0253,-0.0059 0.0507,-0.01049 0.0758,-0.01149 0.22364,-0.0098 0.43302,0.01987 0.63237,0.07936 0.16646,0.049 0.32515,0.107748 0.47565,0.175833 0.0465,0.0088 0.0911,0.01943 0.13641,0.03025 0.0674,0.03409 0.13283,0.07022 0.19648,0.108203 0.33136,0.139349 0.6316,0.314032 0.89714,0.519947 -0.083,-0.05313 -0.15663,-0.09095 -0.26725,-0.143411 0.0726,0.06826 0.14126,0.139985 0.20603,0.214939 -0.0972,-0.07866 -0.19996,-0.152659 -0.30717,-0.221971 -0.15261,-0.106741 -0.31128,-0.205348 -0.48398,-0.291904 -0.0342,-0.01012 -0.0686,-0.01995 -0.10312,-0.02948 -0.22623,-0.100476 -0.46891,-0.183035 -0.72528,-0.246895 0.0565,0.02015 0.11183,0.04144 0.16621,0.06403 -0.014,-0.0041 -0.028,-0.0079 -0.042,-0.0114 -0.25634,-0.07033 -0.36645,-0.08486 -0.39226,-0.08908 -0.008,-0.002 -0.0158,-0.0028 -0.0261,-0.0049 -0.009,-8.75e-4 -0.0178,-8.75e-4 -0.0267,-0.002 -0.13691,-0.01168 -0.27592,-0.01651 -0.41728,-0.01366 0.0755,0.0049 0.14485,0.01525 0.21922,0.02612 0.0293,0.0041 0.0583,0.0089 0.0873,0.01425 0.35228,0.06188 0.68816,0.154582 0.98961,0.281388 0.0136,0.0059 0.0274,0.01131 0.0409,0.0171 0.10638,0.06394 0.20746,0.133403 0.30305,0.208085 0.26081,0.132315 0.49818,0.289717 0.70919,0.470657 0.40798,0.34369 0.712,0.776198 0.89318,1.288404 0.0247,0.08467 0.0463,0.171336 0.0646,0.259878 0.0948,0.4351 0.0713,0.489455 0.0753,0.537658 0.004,0.04823 0.0413,0.08928 0.003,0.634963 -0.006,0.08447 -0.0142,0.170041 -0.0249,0.256814 -0.0979,0.783513 -0.38879,1.651043 -0.83342,2.566131 -0.16444,0.338396 -0.34952,0.682474 -0.55293,1.0304569 -0.13095,0.2313726 -0.24002,0.4094076 -0.3016,0.5087906 -0.0808,0.119731 -0.16349,0.239083 -0.24694,0.35861 0.0357,-0.04499 0.0712,-0.08996 0.10638,-0.134887 -0.0281,0.0444 -0.35769,0.568495 -0.53243,0.83436 -0.0979,0.148947 -0.22277,0.33379 -0.32067,0.482737 -0.0298,0.04536 -0.239,0.332166 -0.18552,0.357539 0.006,0.0028 0.0476,-0.02701 0.0714,-0.04057 0.14343,-0.152324 0.28368,-0.304613 0.42072,-0.456766 -0.0748,0.119157 -0.15178,0.238759 -0.23091,0.358771 0.0725,-0.0827 0.14609,-0.165602 0.2135,-0.246578 0.2491,-0.299221 0.46157,-0.578229 0.6607,-0.853712 0.0135,-0.0161 0.0268,-0.03213 0.0402,-0.04823 -0.0185,0.02729 -0.0371,0.05471 -0.056,0.08221 -0.0189,0.02762 -0.39463,0.552463 -0.46061,0.642309 -0.0331,0.04509 -0.0637,0.08869 -0.0961,0.133082 0.12907,-0.145004 0.25516,-0.289847 0.37831,-0.434458 0.27049,-0.358792 0.5194,-0.713608 0.74678,-1.062958 0.19039,-0.246696 0.37132,-0.4920056 0.54239,-0.7354205 0.75406,-1.167813 1.21353,-2.252268 1.41052,-3.209304 l 0.003,-0.01218 c 0.0587,-0.29284 0.0924,-0.573951 0.10054,-0.842073 0.009,-0.01466 0.0175,-0.02916 0.0262,-0.04372 -0.008,-0.03308 -0.0153,-0.0661 -0.0239,-0.09884 -1.6e-4,-0.03085 -1.6e-4,-0.06158 -8.8e-4,-0.09202 -6.3e-4,-0.02063 -0.002,-0.04098 -0.003,-0.06139 0.0163,-0.207981 0.0161,-0.406499 -0.003,-0.593983 -0.0594,-0.587687 -0.27016,-1.083424 -0.59088,-1.487038 -0.0985,-0.125154 -0.20747,-0.242469 -0.32611,-0.351725 -0.23548,-0.216821 -0.51579,-0.397556 -0.81866,-0.547654 -0.25119,-0.118721 -0.52181,-0.216151 -0.81,-0.290735 -0.007,-0.002 -0.0135,-0.0041 -0.0202,-0.0049 -0.26914,-0.03792 -0.54738,-0.05157 -0.83679,-0.03359 0.22791,0.002 0.44432,0.0335 0.65199,0.08849 0.0482,0.01256 0.096,0.02584 0.14322,0.03979 0.31555,0.09576 0.61086,0.220466 0.87403,0.37596 0.32574,0.192462 0.62399,0.440846 0.87334,0.749997 0.0502,0.06158 0.0978,0.125015 0.14285,0.190289 -0.009,-0.0098 -0.0175,-0.0196 -0.0264,-0.02925 -0.0434,-0.05461 -0.0889,-0.107702 -0.13619,-0.159208 -0.29533,-0.32504 -0.66275,-0.59081 -1.08694,-0.792736 0.12353,0.08544 0.23924,0.178623 0.34676,0.279062 0.0747,0.0497 0.14743,0.101578 0.21743,0.155751 -0.0396,-0.02189 -0.08,-0.0434 -0.12037,-0.06462 -0.078,-0.04107 -0.15137,-0.07651 -0.16379,-0.0825 -0.20958,-0.153459 -0.43672,-0.286505 -0.69121,-0.392386 0.0774,0.05028 0.15172,0.103783 0.22278,0.160304 0.0626,0.03819 0.12529,0.07749 0.18497,0.11871 -0.0101,-0.0041 -0.0434,-0.01482 -0.071,-0.02378 -0.0181,-0.0049 -0.0362,-0.0088 -0.0544,-0.01397 -0.23821,-0.125637 -0.49625,-0.230611 -0.77173,-0.313402 0.0875,0.0376 0.17234,0.07827 0.2544,0.121938 0.1571,0.05579 0.3069,0.119609 0.45081,0.190442 0.0234,0.01747 0.0464,0.03527 0.069,0.05343 -0.2731,-0.152485 -0.57416,-0.276495 -0.89888,-0.369806 -0.0913,-0.02456 -0.18339,-0.04763 -0.27776,-0.06836 -0.2412,-0.05402 -0.48368,-0.07474 -0.75423,-0.05117 -0.009,8.75e-4 -0.0178,0.002 -0.0264,0.002 -0.0608,0.0059 -0.11978,0.02189 -0.17733,0.04134 z m 2.48215,1.083637 c 0.0187,0.01423 0.0366,0.0282 0.0538,0.04193 0.22037,0.173113 0.36432,0.33771 0.47901,0.504783 0.0173,0.04372 0.0336,0.088 0.0488,0.133001 -0.0192,-0.02993 -0.0388,-0.05942 -0.059,-0.08859 -0.13618,-0.199908 -0.29502,-0.383196 -0.47594,-0.548509 -0.0154,-0.01432 -0.0309,-0.02857 -0.0468,-0.04262 z"></path>
      <path id="path164" d="m 6.5885779,3.2231825 c 6.3e-4,0.05431 -8.9e-4,0.108864 -0.004,0.163535 -0.0176,0.3253 -0.0958,0.655505 -0.24269,0.975284 -0.0523,0.112257 -0.11191,0.222276 -0.17858,0.329571 -0.0849,0.136584 -0.18098,0.268614 -0.28725,0.394909 -0.054,0.06109 -0.10988,0.120962 -0.16749,0.179514 -0.0346,0.04098 -0.0702,0.08132 -0.10739,0.120786 0.0104,-0.01501 0.0207,-0.03016 0.0308,-0.04527 -0.0531,0.05038 -0.10951,0.09821 -0.16795,0.143947 -0.0511,0.04016 -0.10399,0.07896 -0.15802,0.116773 -0.0681,0.04754 -0.13806,0.09341 -0.21175,0.134843 -0.009,0.0049 -0.0182,0.01031 -0.0271,0.01551 -0.0197,0.0114 -0.0398,0.02267 -0.0612,0.03272 -0.0214,0.01005 -0.044,0.02065 -0.0679,0.0272 -0.014,0.0041 -0.0284,0.0059 -0.0434,0.0059 -0.005,1.5e-5 -0.009,-2.37e-4 -0.0135,-6.31e-4 -6.3e-4,-7.9e-5 -8.8e-4,-2.37e-4 -8.8e-4,-2.37e-4 -0.006,-8.76e-4 -0.008,-0.0069 -0.0105,-0.01288 -6.3e-4,-0.002 -8.7e-4,-0.0041 -0.003,-0.0049 0.002,-0.002 0.004,-0.0041 0.006,-0.0049 0.009,-0.0079 0.0168,-0.01651 0.0247,-0.02464 0.0309,-0.03135 0.0599,-0.06286 0.0876,-0.09409 0.002,-0.0028 0.005,-0.0049 0.007,-0.0078 -0.004,0.002 -0.007,0.0041 -0.01,0.0049 -0.0392,0.02052 -0.0792,0.04075 -0.11988,0.06021 -0.0106,0.0049 -0.0214,0.01012 -0.0325,0.01516 -0.003,8.76e-4 -0.006,0.0028 -0.008,0.0041 0.002,-0.002 0.005,-0.0041 0.007,-0.0059 0.009,-0.0078 0.0174,-0.01473 0.0257,-0.02208 0.015,-0.01312 0.0298,-0.02634 0.0448,-0.03902 0.0171,-0.01432 0.034,-0.02879 0.0507,-0.04303 0.0746,-0.06374 0.14827,-0.127779 0.21914,-0.193273 0.004,-0.0049 0.007,-0.0098 0.0107,-0.01443 -0.009,0.0079 -0.0187,0.01545 -0.0282,0.02317 h -6e-5 c -0.0338,0.0277 -0.0678,0.0552 -0.10246,0.08201 -0.0381,0.02948 -0.0765,0.05853 -0.1164,0.08633 -0.002,0.002 -0.004,0.0028 -0.007,0.0049 -0.0167,0.01149 -0.0343,0.02217 -0.0516,0.03322 0.0158,-0.0163 0.0312,-0.03263 0.0464,-0.04901 0.0222,-0.02395 0.0438,-0.04822 0.065,-0.07248 0.0859,-0.07169 0.16825,-0.146125 0.24704,-0.222537 0.0271,-0.02623 0.0537,-0.05274 0.0799,-0.07945 0.0483,-0.07573 0.0928,-0.152103 0.13358,-0.22882 0.17079,-0.250949 0.31457,-0.509162 0.41495,-0.770298 0.0473,-0.122534 0.0845,-0.246196 0.11093,-0.370063 0.0251,-0.117425 0.0403,-0.235066 0.0474,-0.352011 -0.006,-0.0028 -0.0107,-0.0059 -0.0162,-0.0098 0.007,-0.01767 0.0128,-0.03546 0.0192,-0.05323 6.4e-4,-0.01362 6.4e-4,-0.02729 6.4e-4,-0.04084 2.3e-4,-0.0098 6.3e-4,-0.01867 6.3e-4,-0.02788 -0.0157,-0.08349 -0.0348,-0.165383 -0.0544,-0.246194 -0.0305,-0.126071 -0.0683,-0.249297 -0.113,-0.368268 -0.0716,-0.196042 -0.16096,-0.383988 -0.26694,-0.565981 -0.0804,-0.138109 -0.16591,-0.275994 -0.26503,-0.407824 -0.0787,-0.112287 -0.16456,-0.222154 -0.25602,-0.329619 -0.0514,-0.108779 -0.10798,-0.217141 -0.16886,-0.324689 0.0918,0.08869 0.18055,0.179461 0.26508,0.272439 0.1096,0.116602 0.21092,0.238173 0.30716,0.361362 0.15091,0.193155 0.28567,0.39421 0.39333,0.607487 -0.002,-0.0069 -0.004,-0.01312 -0.006,-0.01986 -0.10387,-0.24443 -0.2384,-0.479511 -0.39631,-0.705539 0.0628,0.05303 0.12409,0.10763 0.18344,0.163898 0.0257,0.0397 0.0504,0.07985 0.0742,0.120242 -0.007,-0.02267 -0.0147,-0.04527 -0.0227,-0.06777 -0.0107,-0.02985 -0.0218,-0.05971 -0.0337,-0.08938 -0.0852,-0.110402 -0.17861,-0.21562 -0.27105,-0.321721 0.0454,0.02838 0.0904,0.05736 0.13496,0.08711 0.0291,0.02797 0.0566,0.05697 0.0843,0.08594 -0.004,-0.01219 -0.008,-0.02428 -0.0121,-0.03632 -0.002,-0.0098 -0.004,-0.01867 -0.006,-0.02797 -0.0851,-0.114941 -0.17703,-0.226593 -0.27453,-0.334741 0.0427,0.03062 0.085,0.06187 0.12687,0.09369 0.0528,0.06747 0.1043,0.135627 0.15309,0.20505 0.0133,0.01049 0.0264,0.02115 0.0394,0.03181 -0.10135,-0.134789 -0.21167,-0.264884 -0.32959,-0.389934 -0.11038,-0.1257341 -0.23901,-0.23925805 -0.34846,-0.36552505 -0.036,-0.04153 -0.0676,-0.08613 -0.10005,-0.130102 0.21361,0.127785 0.42319,0.265296 0.6231,0.41535295 0.0104,0.02121 0.0228,0.04143 0.0342,0.06217 0.0354,0.02609 0.0704,0.05274 0.10512,0.07965 0.12449,0.152019 0.23757,0.311049 0.33606,0.476962 -0.0228,-0.05196 -0.042,-0.105644 -0.0628,-0.158914 0.0435,0.04144 0.0861,0.08368 0.12776,0.126895 -0.0378,-0.06276 -0.0773,-0.124691 -0.11862,-0.185624 -0.0652,-0.08623 -0.13716,-0.168077 -0.2103,-0.248879 -0.008,-0.01719 -0.0159,-0.03436 -0.0241,-0.05156 -0.09,-0.104933 -0.1844,-0.20674099 -0.28316,-0.30484799 0.0287,0.01917 0.0571,0.03851 0.0855,0.05805 -0.006,-0.0059 -0.0103,-0.0114 -0.0155,-0.0171 -0.0479,-0.05098 -0.099,-0.09972 -0.14566,-0.151241 -0.003,-0.0028 -0.007,-0.0069 -0.01,-0.0098 -0.0369,-0.0601 -0.075,-0.119721 -0.11415,-0.17868997 0.0298,0.02406 0.0612,0.04714 0.0891,0.07288 0.14792,0.136731 0.28327,0.284312 0.41451,0.43516896 0.006,0.0059 0.0107,0.01277 0.0161,0.01902 0.0601,0.04616 0.11929,0.0935 0.17741,0.142156 0.27778,0.406821 0.49757,0.846717 0.61097,1.324778 0.003,0.0088 0.006,0.01797 0.008,0.02692 0.0117,0.04075 0.0222,0.08182 0.0318,0.123172 0.0343,0.157074 0.052,0.318218 0.0536,0.481214 z m -0.28859,-0.967482 c -0.007,-0.01986 -0.0147,-0.0397 -0.0223,-0.05942 -0.0577,-0.145416 -0.12654,-0.286343 -0.20415,-0.423088 0.0613,0.13851 0.11962,0.278253 0.17743,0.417598 0.0166,0.02139 0.0329,0.04303 0.049,0.06492 z"></path>
    </g>
  </symbol>
  <symbol fill="none" version="1.1" id="chevron-right" sodipodiDocname="chevron-right.svg" inkscapeVersion="1.3.2 (091e20e, 2023-11-25, custom)" xmlnsInkscape="http://www.inkscape.org/namespaces/inkscape" xmlnsSodipodi="http://sodipodi.sourceforge.net/DTD/sodipodi-0.dtd" xmlns="http://www.w3.org/2000/svg" xmlnsSvg="http://www.w3.org/2000/svg" viewBox="0 0 1.65 2.7">
    <defs id="defs1"></defs>
    <sodipodi:namedview id="namedview1" pagecolor="#ffffff" bordercolor="#000000" borderopacity="0.25" inkscapeShowpageshadow="2" inkscapePageopacity="0.0" inkscapePagecheckerboard="0" inkscapeDeskcolor="#d1d1d1" inkscapeZoom="5.2255191" inkscapeCx="16.553379" inkscapeCy="38.560762" inkscapeWindowWidth="1920" inkscapeWindowHeight="974" inkscapeWindowX="-11" inkscapeWindowY="-11" inkscapeWindowMaximized="1" inkscapeCurrentLayer="svg1"></sodipodi:namedview>
    <path d="M 0.23834484,0.22701122 1.3633506,1.352017 0.23834484,2.4770228" stroke="#000000" stroke-width="0.375002" stroke-linecap="round" stroke-linejoin="round" id="path1"></path>
  </symbol>
  <symbol fill="none" version="1.1" id="chevron-up" sodipodiDocname="chevron-up.svg" inkscapeVersion="1.3.2 (091e20e, 2023-11-25, custom)" xmlnsInkscape="http://www.inkscape.org/namespaces/inkscape" xmlnsSodipodi="http://sodipodi.sourceforge.net/DTD/sodipodi-0.dtd" xmlns="http://www.w3.org/2000/svg" xmlnsSvg="http://www.w3.org/2000/svg" viewBox="0 0 2.7 1.8">
    <defs id="defs1"></defs>
    <sodipodi:namedview id="namedview1" pagecolor="#ffffff" bordercolor="#000000" borderopacity="0.25" inkscapeShowpageshadow="2" inkscapePageopacity="0.0" inkscapePagecheckerboard="0" inkscapeDeskcolor="#d1d1d1" inkscapeZoom="5.2255191" inkscapeCx="56.932143" inkscapeCy="43.919082" inkscapeWindowWidth="1920" inkscapeWindowHeight="974" inkscapeWindowX="-11" inkscapeWindowY="-11" inkscapeWindowMaximized="1" inkscapeCurrentLayer="svg1"></sodipodi:namedview>
    <path d="M 0.22813624,1.4570421 1.353142,0.33203636 2.4781478,1.4570421" stroke="#000000" stroke-width="0.375002" stroke-linecap="round" stroke-linejoin="round" id="path1"></path>
  </symbol>
  <symbol version="1.1" id="comment-solid" sodipodiDocname="comment-solid.svg" inkscapeVersion="1.3.2 (091e20e, 2023-11-25, custom)" xmlnsInkscape="http://www.inkscape.org/namespaces/inkscape" xmlnsSodipodi="http://sodipodi.sourceforge.net/DTD/sodipodi-0.dtd" xmlns="http://www.w3.org/2000/svg" xmlnsSvg="http://www.w3.org/2000/svg" viewBox="0 0 50 50">
    <defs id="defs1"></defs>
    <sodipodi:namedview id="namedview1" pagecolor="#ffffff" bordercolor="#000000" borderopacity="0.25" inkscapeShowpageshadow="2" inkscapePageopacity="0.0" inkscapePagecheckerboard="0" inkscapeDeskcolor="#d1d1d1" showgrid="false" inkscapeZoom="8.2974563" inkscapeCx="32.058018" inkscapeCy="37.180069" inkscapeWindowWidth="1920" inkscapeWindowHeight="974" inkscapeWindowX="-11" inkscapeWindowY="-11" inkscapeWindowMaximized="1" inkscapeCurrentLayer="svg1"></sodipodi:namedview>
    <path d="m 50.000001,23.43759 c 0,11.22006 -11.19076,20.31133 -24.99856,20.31133 -3.62283,0 -7.06013,-0.62497 -10.16542,-1.74795 -1.16205,0.84956 -3.05647,2.0116 -5.3024298,2.98811 -2.34361,1.01557 -5.16572,1.88466 -7.96829,1.88466 -0.63472995,0 -1.20109995,-0.38084 -1.44522995,-0.96675 -0.24412,-0.5859 -0.10741,-1.24992 0.33201,-1.69912 v 0 0 0 0 l 0.0293,-0.0293 c 0.0293,-0.0293 0.0683,-0.0684 0.12695,-0.13671 0.10741,-0.11718 0.27342,-0.30271 0.47847995,-0.5566 0.40037,-0.48826 0.93745,-1.21087 1.48429,-2.10926 0.97651,-1.621 1.90419,-3.74978 2.08972,-6.14222 -2.92951,-3.32013 -4.65792995,-7.39216 -4.65792995,-11.7962 0,-11.22005 11.19075975,-20.31132 24.99854975,-20.31132 13.8078,0 24.99856,9.09127 24.99856,20.31132 z" id="path1"></path>
  </symbol>
  <symbol version="1.1" id="download-solid" sodipodiDocname="download-solid.svg" inkscapeVersion="1.3.2 (091e20e, 2023-11-25, custom)" xmlnsInkscape="http://www.inkscape.org/namespaces/inkscape" xmlnsSodipodi="http://sodipodi.sourceforge.net/DTD/sodipodi-0.dtd" xmlns="http://www.w3.org/2000/svg" xmlnsSvg="http://www.w3.org/2000/svg" viewBox="0 0 50 50">
    <defs id="defs1"></defs>
    <sodipodi:namedview id="namedview1" pagecolor="#ffffff" bordercolor="#000000" borderopacity="0.25" inkscapeShowpageshadow="2" inkscapePageopacity="0.0" inkscapePagecheckerboard="0" inkscapeDeskcolor="#d1d1d1" showgrid="false" inkscapeZoom="1.4667969" inkscapeCx="107.71771" inkscapeCy="106.01331" inkscapeWindowWidth="1920" inkscapeWindowHeight="974" inkscapeWindowX="-11" inkscapeWindowY="-11" inkscapeWindowMaximized="1" inkscapeCurrentLayer="svg1"></sodipodi:namedview>
    <path d="M 28.125,3.125 C 28.125,1.39648 26.72852,0 25,0 23.27149,0 21.875,1.39648 21.875,3.125 V 26.82617 L 14.70703,19.6582 c -1.2207,-1.2207 -3.20312,-1.2207 -4.42383,0 -1.2207,1.2207 -1.2207,3.20313 0,4.42383 l 12.5,12.5 c 1.22071,1.2207 3.20313,1.2207 4.42383,0 l 12.5,-12.5 c 1.22071,-1.2207 1.22071,-3.20313 0,-4.42383 -1.2207,-1.2207 -3.20312,-1.2207 -4.42383,0 L 28.125,26.82617 Z M 6.25,34.375 C 2.80274,34.375 0,37.17773 0,40.625 V 43.75 C 0,47.19726 2.80274,50 6.25,50 h 37.5 C 47.19727,50 50,47.19726 50,43.75 v -3.125 c 0,-3.44727 -2.80273,-6.25 -6.25,-6.25 h -9.91211 l -4.42383,4.42383 c -2.4414,2.4414 -6.39648,2.4414 -8.83789,0 L 16.16211,34.375 Z m 35.9375,5.46875 a 2.34375,2.34375 0 1 1 0,4.6875 2.34375,2.34375 0 1 1 0,-4.6875 z" id="path1"></path>
  </symbol>
  <symbol fill="none" version="1.1" id="email" sodipodiDocname="email.svg" inkscapeVersion="1.3.2 (091e20e, 2023-11-25, custom)" xmlnsInkscape="http://www.inkscape.org/namespaces/inkscape" xmlnsSodipodi="http://sodipodi.sourceforge.net/DTD/sodipodi-0.dtd" xmlns="http://www.w3.org/2000/svg" xmlnsSvg="http://www.w3.org/2000/svg" viewBox="0 0 1.8 1.8">
    <defs id="defs1"></defs>
    <sodipodi:namedview id="namedview1" pagecolor="#ffffff" bordercolor="#000000" borderopacity="0.25" inkscapeShowpageshadow="2" inkscapePageopacity="0.0" inkscapePagecheckerboard="0" inkscapeDeskcolor="#d1d1d1" inkscapeZoom="7.39" inkscapeCx="37.483085" inkscapeCy="35.656292" inkscapeWindowWidth="1920" inkscapeWindowHeight="974" inkscapeWindowX="-11" inkscapeWindowY="-11" inkscapeWindowMaximized="1" inkscapeCurrentLayer="svg1"></sodipodi:namedview>
    <path d="m 0.29563878,0.52776334 0.465,0.3487463 c 0.080002,0.06 0.18999749,0.06 0.27000002,0 l 0.465,-0.34875" stroke="#000000" stroke-width="0.15" stroke-linecap="round" stroke-linejoin="round" id="path1"></path>
    <rect x="0.22063883" y="0.37775943" width="1.35" height="1.05" rx="0.15000001" stroke="#000000" stroke-width="0.15" stroke-linecap="round" id="rect1"></rect>
  </symbol>
  <symbol version="1.1" id="envelope-solid" sodipodiDocname="envelope-solid.svg" inkscapeVersion="1.3.2 (091e20e, 2023-11-25, custom)" xmlnsInkscape="http://www.inkscape.org/namespaces/inkscape" xmlnsSodipodi="http://sodipodi.sourceforge.net/DTD/sodipodi-0.dtd" xmlns="http://www.w3.org/2000/svg" xmlnsSvg="http://www.w3.org/2000/svg" viewBox="0 0 50 50">
    <defs id="defs1"></defs>
    <sodipodi:namedview id="namedview1" pagecolor="#ffffff" bordercolor="#000000" borderopacity="0.25" inkscapeShowpageshadow="2" inkscapePageopacity="0.0" inkscapePagecheckerboard="0" inkscapeDeskcolor="#d1d1d1" showgrid="false" inkscapeZoom="5.8671876" inkscapeCx="43.973368" inkscapeCy="41.672436" inkscapeWindowWidth="1920" inkscapeWindowHeight="974" inkscapeWindowX="-11" inkscapeWindowY="-11" inkscapeWindowMaximized="1" inkscapeCurrentLayer="svg1"></sodipodi:namedview>
    <path d="M 4.6875,6.25 C 2.0996,6.25 0,8.34961 0,10.9375 c 0,1.47461 0.69335,2.86133 1.875,3.75 l 21.25,15.9375 c 1.11328,0.83008 2.63671,0.83008 3.75,0 L 48.125,14.6875 C 49.30664,13.79883 50,12.41211 50,10.9375 50,8.34961 47.90039,6.25 45.3125,6.25 Z M 0,17.1875 V 37.5 c 0,3.44727 2.80273,6.25 6.25,6.25 h 37.5 C 47.19726,43.75 50,40.94727 50,37.5 V 17.1875 L 28.75,33.125 c -2.22657,1.66992 -5.27344,1.66992 -7.5,0 z" id="path1"></path>
  </symbol>
  <symbol version="1.1" id="eye-solid" sodipodiDocname="eye-solid.svg" inkscapeVersion="1.3.2 (091e20e, 2023-11-25, custom)" xmlnsInkscape="http://www.inkscape.org/namespaces/inkscape" xmlnsSodipodi="http://sodipodi.sourceforge.net/DTD/sodipodi-0.dtd" xmlns="http://www.w3.org/2000/svg" xmlnsSvg="http://www.w3.org/2000/svg" viewBox="0 0 50 50">
    <defs id="defs1"></defs>
    <sodipodi:namedview id="namedview1" pagecolor="#ffffff" bordercolor="#000000" borderopacity="0.25" inkscapeShowpageshadow="2" inkscapePageopacity="0.0" inkscapePagecheckerboard="0" inkscapeDeskcolor="#d1d1d1" inkscapeZoom="8.2974563" inkscapeCx="32.299055" inkscapeCy="29.7079" inkscapeWindowWidth="1920" inkscapeWindowHeight="974" inkscapeWindowX="-11" inkscapeWindowY="-11" inkscapeWindowMaximized="1" inkscapeCurrentLayer="svg1"></sodipodi:namedview>
    <path d="m 24.995655,5.557246 c -7.013272,0 -12.629108,3.194164 -16.7172987,6.995918 -4.0621453,3.767036 -6.7789179,8.280527 -8.063536,11.379218 -0.2864272,0.685709 -0.2864272,1.449527 0,2.135236 1.2846181,3.098682 4.0013907,7.612181 8.063536,11.379218 4.0881907,3.801754 9.7040267,6.995918 16.7172987,6.995918 7.013282,0 12.629118,-3.194164 16.7173,-6.995918 4.062145,-3.775718 6.778927,-8.280536 8.072218,-11.379218 0.286436,-0.685709 0.286436,-1.449527 0,-2.135236 C 48.491882,20.833691 45.7751,16.3202 41.712955,12.553164 37.624773,8.75141 32.008937,5.557246 24.995655,5.557246 Z M 12.496747,25 a 12.498915,12.498915 0 1 1 24.997826,0 12.498915,12.498915 0 1 1 -24.997826,0 z m 12.498908,-5.555073 c 0,3.063964 -2.4911,5.555073 -5.555072,5.555073 -0.616264,0 -1.206491,-0.104164 -1.762,-0.286437 -0.477382,-0.156236 -1.032891,0.138882 -1.015536,0.642309 0.026,0.5989 0.112836,1.19781 0.277754,1.796719 1.189136,4.444054 5.763391,7.082717 10.207445,5.893581 4.444064,-1.189127 7.082718,-5.763391 5.893591,-10.207445 -0.963464,-3.602118 -4.148945,-6.023781 -7.690309,-6.171336 -0.503427,-0.01736 -0.798536,0.529464 -0.6423,1.015536 0.182273,0.555509 0.286427,1.145728 0.286427,1.762 z" id="path1"></path>
  </symbol>
  <symbol version="1.1" id="facebook" sodipodiDocname="facebook.svg" inkscapeVersion="1.3.2 (091e20e, 2023-11-25, custom)" xmlnsInkscape="http://www.inkscape.org/namespaces/inkscape" xmlnsSodipodi="http://sodipodi.sourceforge.net/DTD/sodipodi-0.dtd" xmlns="http://www.w3.org/2000/svg" xmlnsSvg="http://www.w3.org/2000/svg" viewBox="0 0 50 50">
    <defs id="defs1"></defs>
    <sodipodi:namedview id="namedview1" pagecolor="#ffffff" bordercolor="#000000" borderopacity="0.25" inkscapeShowpageshadow="2" inkscapePageopacity="0.0" inkscapePagecheckerboard="0" inkscapeDeskcolor="#d1d1d1" showgrid="false" inkscapeZoom="1.4667969" inkscapeCx="256.34087" inkscapeCy="256" inkscapeWindowWidth="1920" inkscapeWindowHeight="974" inkscapeWindowX="-11" inkscapeWindowY="-11" inkscapeWindowMaximized="1" inkscapeCurrentLayer="svg1"></sodipodi:namedview>
    <path d="m 50,25.1855 c 0,-13.8086 -11.19141,-25 -25,-25 -13.8086,0 -25,11.1914 -25,25 0,11.71875 8.07617,21.5625 18.96484,24.26758 V 32.82222 H 13.80859 V 25.1855 h 5.15625 v -3.29102 c 0,-8.50586 3.84766,-12.45117 12.20703,-12.45117 1.58203,0 4.31641,0.3125 5.43945,0.625 v 6.91406 C 36.02539,16.92377 35,16.88477 33.7207,16.88477 c -4.10156,0 -5.68359,1.55273 -5.68359,5.58593 v 2.71485 h 8.16406 l -1.40625,7.63672 H 28.02734 V 50 C 40.41015,48.50586 50,37.96875 50,25.18555 Z" id="path1"></path>
  </symbol>
  <symbol version="1.1" id="gear-solid" sodipodiDocname="gear-solid.svg" inkscapeVersion="1.3.2 (091e20e, 2023-11-25, custom)" xmlnsInkscape="http://www.inkscape.org/namespaces/inkscape" xmlnsSodipodi="http://sodipodi.sourceforge.net/DTD/sodipodi-0.dtd" xmlns="http://www.w3.org/2000/svg" xmlnsSvg="http://www.w3.org/2000/svg" viewBox="0 0 50 50">
    <defs id="defs1"></defs>
    <sodipodi:namedview id="namedview1" pagecolor="#ffffff" bordercolor="#000000" borderopacity="0.25" inkscapeShowpageshadow="2" inkscapePageopacity="0.0" inkscapePagecheckerboard="0" inkscapeDeskcolor="#d1d1d1" inkscapeZoom="11.546875" inkscapeCx="40.184032" inkscapeCy="27.236806" inkscapeWindowWidth="1920" inkscapeWindowHeight="974" inkscapeWindowX="-11" inkscapeWindowY="-11" inkscapeWindowMaximized="1" inkscapeCurrentLayer="svg1"></sodipodi:namedview>
    <path d="m 48.437201,16.272727 c 0.312665,0.849764 0.0487,1.797224 -0.625146,2.402821 l -4.229332,3.848381 c 0.10746,0.810736 0.165919,1.640952 0.165919,2.480975 0,0.839988 -0.05876,1.670238 -0.165919,2.48094 l 4.229332,3.848412 c 0.673978,0.6056 0.937685,1.553026 0.625146,2.402822 -0.429785,1.162335 -0.947461,2.275838 -1.543288,3.35025 l -0.45907,0.791188 c -0.64466,1.074412 -1.36747,2.090248 -2.158626,3.047449 -0.576281,0.703265 -1.533515,0.937688 -2.393051,0.664205 l -5.440498,-1.728844 c -1.308864,1.006034 -2.754455,1.846054 -4.29774,2.480943 l -1.220943,5.577254 c -0.195457,0.888855 -0.879048,1.59212 -1.777676,1.738616 C 27.798386,49.882815 26.411402,50 24.995098,50 c -1.41627,0 -2.803287,-0.117215 -4.151179,-0.341861 -0.898628,-0.146433 -1.582347,-0.849761 -1.777708,-1.738616 l -1.22094,-5.577254 C 16.302015,41.70738 14.856425,40.86736 13.54756,39.861326 l -5.4307564,1.738617 c -0.859537,0.273389 -1.816736,0.02828 -2.393049,-0.664205 -0.791159,-0.957201 -1.513969,-1.973037 -2.158596,-3.047481 l -0.459103,-0.791156 c -0.595795,-1.074412 -1.113471,-2.187915 -1.543255,-3.35025 -0.312666,-0.849796 -0.0487,-1.797224 0.625115,-2.402822 l 4.229362,-3.848412 c -0.10746,-0.820475 -0.165919,-1.650725 -0.165919,-2.490713 0,-0.840023 0.05876,-1.670239 0.165919,-2.480975 l -4.229362,-3.848381 c -0.673948,-0.605597 -0.937687,-1.553057 -0.625115,-2.402821 0.429784,-1.162335 0.94746,-2.275839 1.543255,-3.35028 l 0.459103,-0.791158 c 0.644627,-1.074442 1.367437,-2.090248 2.158596,-3.047481 0.576313,-0.703265 1.533512,-0.937688 2.393049,-0.664173 l 5.4405294,1.728843 c 1.308835,-1.006065 2.754455,-1.846054 4.29771,-2.480942 L 19.075984,2.090282 C 19.271441,1.201427 19.955064,0.498162 20.85366,0.351633 22.201584,0.117213 23.588601,0 25.004871,0 c 1.416304,0 2.803287,0.117215 4.151211,0.341892 0.898596,0.146433 1.582347,0.849762 1.777676,1.738617 l 1.220943,5.577254 c 1.543285,0.634889 2.988876,1.474909 4.297708,2.480943 l 5.44053,-1.728844 c 0.859536,-0.273387 1.816767,-0.02828 2.393051,0.664205 0.791156,0.957201 1.513966,1.973037 2.158625,3.047449 l 0.459071,0.79119 c 0.595827,1.074412 1.113503,2.187913 1.543256,3.350248 z m -23.43233,16.546209 a 7.8140338,7.8140338 0 1 0 0,-15.628067 7.8140338,7.8140338 0 1 0 0,15.628067 z" id="path1"></path>
  </symbol>
  <symbol version="1.1" id="house-solid" sodipodiDocname="house-solid.svg" inkscapeVersion="1.3.2 (091e20e, 2023-11-25, custom)" xmlnsInkscape="http://www.inkscape.org/namespaces/inkscape" xmlnsSodipodi="http://sodipodi.sourceforge.net/DTD/sodipodi-0.dtd" xmlns="http://www.w3.org/2000/svg" xmlnsSvg="http://www.w3.org/2000/svg" viewBox="0 0 50 50">
    <defs id="defs1"></defs>
    <sodipodi:namedview id="namedview1" pagecolor="#ffffff" bordercolor="#000000" borderopacity="0.25" inkscapeShowpageshadow="2" inkscapePageopacity="0.0" inkscapePagecheckerboard="0" inkscapeDeskcolor="#d1d1d1" showgrid="false" inkscapeZoom="1.4667969" inkscapeCx="14.998668" inkscapeCy="5.79494" inkscapeWindowWidth="1920" inkscapeWindowHeight="974" inkscapeWindowX="-11" inkscapeWindowY="-11" inkscapeWindowMaximized="1" inkscapeCurrentLayer="svg1"></sodipodi:namedview>
    <path d="m 49.98653,24.95659 c 0,1.56264 -1.3022,2.7867 -2.77802,2.7867 H 44.4305 l 0.0608,13.90743 c 0,0.2344 -0.0174,0.46879 -0.0434,0.70319 v 1.39769 c 0,1.91856 -1.55395,3.47251 -3.47252,3.47251 h -1.389 c -0.0955,0 -0.19099,0 -0.28648,-0.009 -0.12154,0.009 -0.24308,0.009 -0.36462,0.009 h -2.82142 -2.08351 c -1.91857,0 -3.47252,-1.55395 -3.47252,-3.47251 v -2.08352 -5.55602 c 0,-1.53659 -1.24142,-2.77802 -2.77801,-2.77802 h -5.55603 c -1.53659,0 -2.77801,1.24143 -2.77801,2.77802 v 5.55602 2.08352 c 0,1.91856 -1.55395,3.47251 -3.47252,3.47251 h -2.08351 -2.76933 c -0.13022,0 -0.26044,-0.009 -0.39066,-0.0174 -0.10418,0.009 -0.20835,0.0174 -0.31253,0.0174 H 9.0282203 c -1.91856,0 -3.47251,-1.55395 -3.47251,-3.47251 v -9.72305 c 0,-0.0781 0,-0.16495 0.009,-0.24308 v -6.04218 h -2.7867 C 1.2153803,27.74329 3.3366518e-7,26.52791 3.3366518e-7,24.95659 3.3366518e-7,24.17528 0.26044033,23.48077 0.86813033,22.87308 L 23.12697,3.47039 c 0.60769,-0.60769 1.30219,-0.6945 1.90988,-0.6945 0.60769,0 1.30219,0.17362 1.82307,0.60769 l 22.17203,19.4895 c 0.6945,0.60769 1.04175,1.3022 0.95494,2.08351 z" id="path1"></path>
  </symbol>
  <symbol version="1.1" id="image-regular" sodipodiDocname="image-regular.svg" inkscapeVersion="1.3.2 (091e20e, 2023-11-25, custom)" xmlnsInkscape="http://www.inkscape.org/namespaces/inkscape" xmlnsSodipodi="http://sodipodi.sourceforge.net/DTD/sodipodi-0.dtd" xmlns="http://www.w3.org/2000/svg" xmlnsSvg="http://www.w3.org/2000/svg" viewBox="0 0 50 50">
    <defs id="defs1"></defs>
    <sodipodi:namedview id="namedview1" pagecolor="#ffffff" bordercolor="#000000" borderopacity="0.25" inkscapeShowpageshadow="2" inkscapePageopacity="0.0" inkscapePagecheckerboard="0" inkscapeDeskcolor="#d1d1d1" showgrid="false" inkscapeZoom="8.2974563" inkscapeCx="39.530187" inkscapeCy="31.033607" inkscapeWindowWidth="1920" inkscapeWindowHeight="974" inkscapeWindowX="-11" inkscapeWindowY="-11" inkscapeWindowMaximized="1" inkscapeCurrentLayer="svg1"></sodipodi:namedview>
    <path d="m 43.75,7.8125 c 0.85937,0 1.5625,0.70312 1.5625,1.5625 V 40.60547 L 44.82422,39.9707 31.54297,22.7832 C 31.10351,22.20703 30.41015,21.875 29.6875,21.875 c -0.72266,0 -1.40625,0.33203 -1.85547,0.9082 L 19.72656,33.27148 16.74804,29.10156 C 16.30859,28.48633 15.60547,28.125 14.84375,28.125 c -0.76172,0 -1.46485,0.36133 -1.9043,0.98633 L 5.12695,40.04883 4.6875,40.6543 V 40.625 9.375 C 4.6875,8.51562 5.39062,7.8125 6.25,7.8125 Z M 6.25,3.125 C 2.80273,3.125 0,5.92773 0,9.375 v 31.25 c 0,3.44727 2.80273,6.25 6.25,6.25 h 37.5 c 3.44726,0 6.25,-2.80273 6.25,-6.25 V 9.375 c 0,-3.44727 -2.80274,-6.25 -6.25,-6.25 z m 7.8125,18.75 a 4.6875,4.6875 0 1 0 0,-9.375 4.6875,4.6875 0 1 0 0,9.375 z" id="path1"></path>
  </symbol>
  <symbol version="1.1" id="instagram" sodipodiDocname="instagram.svg" inkscapeVersion="1.3.2 (091e20e, 2023-11-25, custom)" xmlnsInkscape="http://www.inkscape.org/namespaces/inkscape" xmlnsSodipodi="http://sodipodi.sourceforge.net/DTD/sodipodi-0.dtd" xmlns="http://www.w3.org/2000/svg" xmlnsSvg="http://www.w3.org/2000/svg" viewBox="0 0 50 50">
    <defs id="defs1"></defs>
    <sodipodi:namedview id="namedview1" pagecolor="#ffffff" bordercolor="#000000" borderopacity="0.25" inkscapeShowpageshadow="2" inkscapePageopacity="0.0" inkscapePagecheckerboard="0" inkscapeDeskcolor="#d1d1d1" showgrid="false" inkscapeZoom="1.4667969" inkscapeCx="224.29827" inkscapeCy="256" inkscapeWindowWidth="1920" inkscapeWindowHeight="974" inkscapeWindowX="-11" inkscapeWindowY="-11" inkscapeWindowMaximized="1" inkscapeCurrentLayer="svg1"></sodipodi:namedview>
    <path d="m 25.00558,12.183495 c -7.09426,0 -12.81651,5.72225 -12.81651,12.81651 0,7.09425 5.72225,12.8165 12.81651,12.8165 7.09425,0 12.81651,-5.72225 12.81651,-12.8165 0,-7.09426 -5.72226,-12.81651 -12.81651,-12.81651 z m 0,21.14891 c -4.5845,0 -8.33241,-3.73675 -8.33241,-8.3324 0,-4.59565 3.73676,-8.33241 8.33241,-8.33241 4.59565,0 8.3324,3.73676 8.3324,8.33241 0,4.59565 -3.74791,8.3324 -8.3324,8.3324 z m 16.33017,-21.67317 c 0,1.66201 -1.33854,2.9894 -2.9894,2.9894 -1.66202,0 -2.98941,-1.33854 -2.98941,-2.9894 0,-1.65087 1.33854,-2.98941 2.98941,-2.98941 1.65086,0 2.9894,1.33854 2.9894,2.98941 z m 8.48857,3.03402 c -0.18963,-4.00447 -1.1043,-7.55159 -4.03793,-10.47407 -2.92247,-2.92248 -6.4696,-3.83714 -10.47406,-4.03792 -4.12716,-0.23425 -16.49749,-0.23425 -20.62466,0 -3.9933,0.18962 -7.54043,1.10429 -10.47406,4.02677 -2.93363,2.92247 -3.83714,6.4696 -4.03793,10.47406 -0.23424,4.12716 -0.23424,16.49749 0,20.62465 0.18963,4.00447 1.1043,7.55159 4.03793,10.47407 2.93363,2.92248 6.4696,3.83714 10.47406,4.03792 4.12717,0.23425 16.4975,0.23425 20.62466,0 4.00446,-0.18962 7.55159,-1.10429 10.47406,-4.03792 2.92248,-2.92248 3.83715,-6.4696 4.03793,-10.47407 0.23424,-4.12716 0.23424,-16.48633 0,-20.61349 z m -5.33185,25.04183 c -0.87005,2.18628 -2.55438,3.8706 -4.75181,4.75181 -3.29058,1.30507 -11.09872,1.0039 -14.73508,1.0039 -3.63637,0 -11.45566,0.29002 -14.73508,-1.0039 -2.18628,-0.87005 -3.87061,-2.55438 -4.75182,-4.75181 -1.30507,-3.29058 -1.0039,-11.09872 -1.0039,-14.73508 0,-3.63637 -0.29002,-11.45567 1.0039,-14.73509 0.87005,-2.18628 2.55438,-3.8706 4.75182,-4.75181 3.29057,-1.30507 11.09871,-1.0039 14.73508,-1.0039 3.63636,0 11.45566,-0.29002 14.73508,1.0039 2.18628,0.87005 3.87061,2.55438 4.75181,4.75181 1.30508,3.29058 1.00391,11.09872 1.00391,14.73509 0,3.63636 0.30117,11.45566 -1.00391,14.73508 z" id="path1"></path>
  </symbol>
  <symbol xmlns="http://www.w3.org/2000/svg" viewBox="0 0 50 2" id="line">
    <path fill="#63c3ef" d="M0 0h50v2H0z"></path>
  </symbol>
  <symbol version="1.1" id="linkedin" sodipodiDocname="linkedin.svg" inkscapeVersion="1.3.2 (091e20e, 2023-11-25, custom)" xmlnsInkscape="http://www.inkscape.org/namespaces/inkscape" xmlnsSodipodi="http://sodipodi.sourceforge.net/DTD/sodipodi-0.dtd" xmlns="http://www.w3.org/2000/svg" xmlnsSvg="http://www.w3.org/2000/svg" viewBox="0 0 50 50">
    <defs id="defs1"></defs>
    <sodipodi:namedview id="namedview1" pagecolor="#ffffff" bordercolor="#000000" borderopacity="0.25" inkscapeShowpageshadow="2" inkscapePageopacity="0.0" inkscapePagecheckerboard="0" inkscapeDeskcolor="#d1d1d1" showgrid="false" inkscapeZoom="2.9335938" inkscapeCx="42.609853" inkscapeCy="42.098535" inkscapeWindowWidth="1920" inkscapeWindowHeight="974" inkscapeWindowX="-11" inkscapeWindowY="-11" inkscapeWindowMaximized="1" inkscapeCurrentLayer="svg1"></sodipodi:namedview>
    <path d="M 46.42857,0 H 3.56026 C 1.59598,0 0,1.61831 0,3.60492 V 46.39509 C 0,48.3817 1.59598,50 3.56026,50 H 46.42857 C 48.39285,50 50,48.3817 50,46.39509 V 3.60492 C 50,1.61831 48.39285,0 46.42857,0 Z M 15.1116,42.85715 H 7.70089 V 18.99554 h 7.42187 V 42.85715 Z M 11.40625,15.73661 c -2.37724,0 -4.29688,-1.9308 -4.29688,-4.29687 0,-2.36607 1.91964,-4.29688 4.29688,-4.29688 2.36607,0 4.29687,1.93081 4.29687,4.29688 0,2.37723 -1.91964,4.29687 -4.29687,4.29687 z M 42.89062,42.85715 H 35.47991 V 31.25 c 0,-2.76785 -0.0558,-6.32812 -3.85045,-6.32812 -3.86161,0 -4.45312,3.01339 -4.45312,6.12723 V 42.85715 H 19.76562 V 18.99554 H 26.875 v 3.25893 h 0.10044 c 0.99331,-1.875 3.41518,-3.85045 7.02009,-3.85045 7.5,0 8.89509,4.9442 8.89509,11.37277 z" id="path1"></path>
  </symbol>
  <symbol version="1.1" id="location-dot-solid" sodipodiDocname="location-dot-solid.svg" inkscapeVersion="1.3.2 (091e20e, 2023-11-25, custom)" xmlnsInkscape="http://www.inkscape.org/namespaces/inkscape" xmlnsSodipodi="http://sodipodi.sourceforge.net/DTD/sodipodi-0.dtd" xmlns="http://www.w3.org/2000/svg" xmlnsSvg="http://www.w3.org/2000/svg" viewBox="0 0 50 50">
    <defs id="defs1"></defs>
    <sodipodi:namedview id="namedview1" pagecolor="#ffffff" bordercolor="#000000" borderopacity="0.25" inkscapeShowpageshadow="2" inkscapePageopacity="0.0" inkscapePagecheckerboard="0" inkscapeDeskcolor="#d1d1d1" showgrid="false" inkscapeZoom="5.8671876" inkscapeCx="32.553928" inkscapeCy="39.797603" inkscapeWindowWidth="1920" inkscapeWindowHeight="974" inkscapeWindowX="-11" inkscapeWindowY="-11" inkscapeWindowMaximized="1" inkscapeCurrentLayer="svg1"></sodipodi:namedview>
    <path d="M 27.32046,48.876486 C 32.343219,42.590691 43.798648,27.355951 43.798648,18.798648 43.798648,8.4202303 35.378417,-1.25e-7 25,-1.25e-7 14.621582,-1.25e-7 6.2013515,8.4202303 6.2013515,18.798648 c 0,8.557303 11.4554225,23.792043 16.4781875,30.077838 1.204288,1.498019 3.436626,1.498019 4.640921,0 z M 25,12.532435 a 6.2662161,6.2662161 0 1 1 0,12.532427 6.2662161,6.2662161 0 1 1 0,-12.532427 z" id="path1"></path>
  </symbol>
  <symbol version="1.1" id="magnifying-glass-solid" sodipodiDocname="magnifying-glass-solid.svg" inkscapeVersion="1.3.2 (091e20e, 2023-11-25, custom)" xmlnsInkscape="http://www.inkscape.org/namespaces/inkscape" xmlnsSodipodi="http://sodipodi.sourceforge.net/DTD/sodipodi-0.dtd" xmlns="http://www.w3.org/2000/svg" xmlnsSvg="http://www.w3.org/2000/svg" viewBox="0 0 50 50">
    <defs id="defs1"></defs>
    <sodipodi:namedview id="namedview1" pagecolor="#ffffff" bordercolor="#000000" borderopacity="0.25" inkscapeShowpageshadow="2" inkscapePageopacity="0.0" inkscapePagecheckerboard="0" inkscapeDeskcolor="#d1d1d1" showgrid="false" inkscapeZoom="4.1487281" inkscapeCx="59.536319" inkscapeCy="51.94363" inkscapeWindowWidth="1920" inkscapeWindowHeight="974" inkscapeWindowX="-11" inkscapeWindowY="-11" inkscapeWindowMaximized="1" inkscapeCurrentLayer="svg1"></sodipodi:namedview>
    <path d="m 40.62698,20.30861 c 0,4.48264 -1.45515,8.62347 -3.90644,11.98301 l 12.36389,12.37365 c 1.22076,1.22076 1.22076,3.20328 0,4.42404 -1.22077,1.22076 -3.20329,1.22076 -4.42405,0 L 32.2965,36.71566 C 28.93696,39.17672 24.79613,40.6221 20.31349,40.6221 9.09224,40.6221 0,31.52986 0,20.30861 0,9.08736 9.09224,-0.00488 20.31349,-0.00488 c 11.22125,0 20.31349,9.09224 20.31349,20.31349 z M 20.31349,34.3718 a 14.06319,14.06319 0 1 0 0,-28.12638 14.06319,14.06319 0 1 0 0,28.12638 z" id="path1"></path>
  </symbol>
  <symbol id="menu" enable-background="new 0 0 24 24" version="1.1" sodipodiDocname="menu.svg" inkscapeVersion="1.3.2 (091e20e, 2023-11-25, custom)" xmlnsInkscape="http://www.inkscape.org/namespaces/inkscape" xmlnsSodipodi="http://sodipodi.sourceforge.net/DTD/sodipodi-0.dtd" xmlns="http://www.w3.org/2000/svg" xmlnsSvg="http://www.w3.org/2000/svg" viewBox="0 0 2.34375 2.34375">
    <defs id="defs4"></defs>
    <sodipodi:namedview id="namedview4" pagecolor="#ffffff" bordercolor="#000000" borderopacity="0.25" inkscapeShowpageshadow="2" inkscapePageopacity="0.0" inkscapePagecheckerboard="0" inkscapeDeskcolor="#d1d1d1" inkscapeZoom="5.7734375" inkscapeCx="12.124493" inkscapeCy="9.2665765" inkscapeWindowWidth="1920" inkscapeWindowHeight="974" inkscapeWindowX="-11" inkscapeWindowY="-11" inkscapeWindowMaximized="1" inkscapeCurrentLayer="light"></sodipodi:namedview>
    <g id="g1" transform="scale(0.09765625)">
      <path d="M 21.5,24 H 2.5 C 1.121,24 0,22.878 0,21.5 V 2.5 C 0,1.122 1.121,0 2.5,0 h 19 C 22.879,0 24,1.122 24,2.5 v 19 C 24,22.878 22.879,24 21.5,24 Z M 2.5,1 C 1.673,1 1,1.673 1,2.5 v 19 C 1,22.327 1.673,23 2.5,23 h 19 C 22.327,23 23,22.327 23,21.5 V 2.5 C 23,1.673 22.327,1 21.5,1 Z" id="path1"></path>
    </g>
    <g id="g2" transform="scale(0.09765625)">
      <path d="m 16.5,8 h -9 C 7.224,8 7,7.776 7,7.5 7,7.224 7.224,7 7.5,7 h 9 C 16.776,7 17,7.224 17,7.5 17,7.776 16.776,8 16.5,8 Z" id="path2"></path>
    </g>
    <g id="g3" transform="scale(0.09765625)">
      <path d="m 16.5,12.5 h -9 C 7.224,12.5 7,12.276 7,12 7,11.724 7.224,11.5 7.5,11.5 h 9 c 0.276,0 0.5,0.224 0.5,0.5 0,0.276 -0.224,0.5 -0.5,0.5 z" id="path3"></path>
    </g>
    <g id="g4" transform="scale(0.09765625)">
      <path d="m 16.5,17 h -9 C 7.224,17 7,16.776 7,16.5 7,16.224 7.224,16 7.5,16 h 9 c 0.276,0 0.5,0.224 0.5,0.5 0,0.276 -0.224,0.5 -0.5,0.5 z" id="path4"></path>
    </g>
  </symbol>
  <symbol fill="none" version="1.1" id="phone" sodipodiDocname="phone.svg" inkscapeVersion="1.3.2 (091e20e, 2023-11-25, custom)" xmlnsInkscape="http://www.inkscape.org/namespaces/inkscape" xmlnsSodipodi="http://sodipodi.sourceforge.net/DTD/sodipodi-0.dtd" xmlns="http://www.w3.org/2000/svg" xmlnsSvg="http://www.w3.org/2000/svg" viewBox="0 0 1.8 1.8">
    <defs id="defs1"></defs>
    <sodipodi:namedview id="namedview1" pagecolor="#ffffff" bordercolor="#000000" borderopacity="0.25" inkscapeShowpageshadow="2" inkscapePageopacity="0.0" inkscapePagecheckerboard="0" inkscapeDeskcolor="#d1d1d1" inkscapeZoom="10.451038" inkscapeCx="32.436969" inkscapeCy="31.3366" inkscapeWindowWidth="1920" inkscapeWindowHeight="974" inkscapeWindowX="-11" inkscapeWindowY="-11" inkscapeWindowMaximized="1" inkscapeCurrentLayer="svg1"></sodipodi:namedview>
    <path d="m 0.23245498,0.40491735 c 0,0.64197525 0.5204249,1.16240085 1.16240092,1.16240085 0.028963,0 0.057678,-0.00106 0.086115,-0.00314 0.03263,-0.00239 0.048941,-0.00358 0.063797,-0.012134 0.012299,-0.00708 0.02396,-0.019633 0.030125,-0.03242 0.00745,-0.015434 0.00745,-0.03344 0.00745,-0.069444 V 1.2388987 c 0,-0.030282 0,-0.045424 -0.00499,-0.058397 -0.00439,-0.011467 -0.011549,-0.021673 -0.020818,-0.029727 -0.010492,-0.00912 -0.024725,-0.014294 -0.053178,-0.024643 l -0.2404895,-0.08745 c -0.03311,-0.012037 -0.049668,-0.018058 -0.065372,-0.017038 -0.013851,8.999e-4 -0.027178,0.00563 -0.038502,0.013656 -0.012839,0.0091 -0.021898,0.0242 -0.040024,0.054415 L 1.0573847,1.1923502 C 0.85865908,1.1023504 0.69755788,0.94103915 0.60742308,0.74238865 l 0.1026385,-0.061583 c 0.030209,-0.018125 0.045313,-0.027188 0.054413,-0.040029 0.00802,-0.011322 0.012756,-0.02465 0.013656,-0.038499 0.00102,-0.015706 -0.005,-0.03226 -0.017038,-0.065368 l -0.0874509,-0.2404923 c -0.010348,-0.028456 -0.015522,-0.042685 -0.024641,-0.053179 -0.00806,-0.00927 -0.018263,-0.01642 -0.029727,-0.020822 -0.012978,-0.00498 -0.028118,-0.00498 -0.058397,-0.00498 h -0.2112809 c -0.036007,0 -0.05401,0 -0.069446,0.00744 -0.012785,0.00617 -0.025336,0.017831 -0.032418,0.030131 -0.00855,0.014852 -0.00975,0.031167 -0.012135,0.063797 -0.00208,0.028432 -0.00314,0.057149 -0.00314,0.086113 z" stroke="#000000" stroke-width="0.149987" stroke-linecap="round" stroke-linejoin="round" id="path1"></path>
  </symbol>
  <symbol xmlns="http://www.w3.org/2000/svg" viewBox="0 0 35 87.8" id="popular">
    <path fill="#1e0f6d" d="M0 4.7h35L30.3 0H5.1L0 4.7z"></path>
    <g>
      <path fill="#1b0760" d="M5.3.2v87l11.9-11.9 12.5 12.5V.2H5.3z"></path><text transform="rotate(90 1.05 12.25)" font-size="15" fill="#fff" font-family="Inter-Bold,Inter" font-weight="700">
        <tspan letter-spacing="-.01em">P</tspan>
        <tspan x="9.6" y="0">opular</tspan>
      </text>
    </g>
  </symbol>
  <symbol version="1.1" id="quotes" xmlns="http://www.w3.org/2000/svg" xmlns:xlink="http://www.w3.org/1999/xlink" x="0px" y="0px" xml:space="preserve" viewBox="0 0 508.044 508.044">
    <g>
      <g>
        <path d="M0.108,352.536c0,66.794,54.144,120.938,120.937,120.938c66.794,0,120.938-54.144,120.938-120.938
			s-54.144-120.937-120.938-120.937c-13.727,0-26.867,2.393-39.168,6.61C109.093,82.118,230.814-18.543,117.979,64.303
			C-7.138,156.17-0.026,348.84,0.114,352.371C0.114,352.426,0.108,352.475,0.108,352.536z"></path>
        <path d="M266.169,352.536c0,66.794,54.144,120.938,120.938,120.938s120.938-54.144,120.938-120.938S453.9,231.599,387.106,231.599
			c-13.728,0-26.867,2.393-39.168,6.61C375.154,82.118,496.875-18.543,384.04,64.303C258.923,156.17,266.034,348.84,266.175,352.371
			C266.175,352.426,266.169,352.475,266.169,352.536z"></path>
      </g>
    </g>
    <g></g>
    <g></g>
    <g></g>
    <g></g>
    <g></g>
    <g></g>
    <g></g>
    <g></g>
    <g></g>
    <g></g>
    <g></g>
    <g></g>
    <g></g>
    <g></g>
    <g></g>
  </symbol>
  <symbol version="1.1" id="tick" sodipodiDocname="tick.svg" inkscapeVersion="1.3.2 (091e20e, 2023-11-25, custom)" xmlnsInkscape="http://www.inkscape.org/namespaces/inkscape" xmlnsSodipodi="http://sodipodi.sourceforge.net/DTD/sodipodi-0.dtd" xmlns="http://www.w3.org/2000/svg" xmlnsSvg="http://www.w3.org/2000/svg" viewBox="0 0 50 34.375">
    <sodipodi:namedview id="namedview1" pagecolor="#ffffff" bordercolor="#000000" borderopacity="0.25" inkscapeShowpageshadow="2" inkscapePageopacity="0.0" inkscapePagecheckerboard="0" inkscapeDeskcolor="#d1d1d1" inkscapeZoom="8.3977273" inkscapeCx="7.9783491" inkscapeCy="5.5372124" inkscapeWindowWidth="1920" inkscapeWindowHeight="974" inkscapeWindowX="-11" inkscapeWindowY="-11" inkscapeWindowMaximized="1" inkscapeCurrentLayer="svg1"></sodipodi:namedview>
    <defs id="defs1"></defs>
    <path id="Shape_10_copy_5" d="M 3.2120175,16.714319 17.737339,31.239641 46.787982,2.1889975"></path>
  </symbol>
  <symbol version="1.1" id="user-solid" sodipodiDocname="user-solid.svg" inkscapeVersion="1.3.2 (091e20e, 2023-11-25, custom)" xmlnsInkscape="http://www.inkscape.org/namespaces/inkscape" xmlnsSodipodi="http://sodipodi.sourceforge.net/DTD/sodipodi-0.dtd" xmlns="http://www.w3.org/2000/svg" xmlnsSvg="http://www.w3.org/2000/svg" viewBox="0 0 50 50">
    <defs id="defs1"></defs>
    <sodipodi:namedview id="namedview1" pagecolor="#ffffff" bordercolor="#000000" borderopacity="0.25" inkscapeShowpageshadow="2" inkscapePageopacity="0.0" inkscapePagecheckerboard="0" inkscapeDeskcolor="#d1d1d1" showgrid="false" inkscapeZoom="8.2974563" inkscapeCx="44.350942" inkscapeCy="28.261674" inkscapeWindowWidth="1920" inkscapeWindowHeight="974" inkscapeWindowX="-11" inkscapeWindowY="-11" inkscapeWindowMaximized="1" inkscapeCurrentLayer="svg1"></sodipodi:namedview>
    <path d="m 25,25 a 12.5,12.5 0 1 0 0,-25 12.5,12.5 0 1 0 0,25 z m -4.462885,4.687497 c -9.619146,0 -17.412114,7.792969 -17.412114,17.412106 C 3.125001,48.701168 4.4238334,50 6.0253896,50 H 43.97461 c 1.601565,0 2.900389,-1.298832 2.900389,-2.900397 0,-9.619137 -7.792969,-17.412106 -17.412106,-17.412106 z" id="path1"></path>
  </symbol>
</svg>